*
*
G04 PADS Layout (Build Number 2007.42.1) generated Gerber (RS-274-X) file*
G04 PC Version=2.1*
*
%IN "board.pcb"*%
*
%MOIN*%
*
%FSLAX35Y35*%
*
*
*
*
G04 PC Standard Apertures*
*
*
G04 Thermal Relief Aperture macro.*
%AMTER*
1,1,$1,0,0*
1,0,$1-$2,0,0*
21,0,$3,$4,0,0,45*
21,0,$3,$4,0,0,135*
%
*
*
G04 Annular Aperture macro.*
%AMANN*
1,1,$1,0,0*
1,0,$2,0,0*
%
*
*
G04 Odd Aperture macro.*
%AMODD*
1,1,$1,0,0*
1,0,$1-0.005,0,0*
%
*
*
G04 PC Custom Aperture Macros*
*
*
*
*
*
*
G04 PC Aperture Table*
*
%ADD010C,0.01*%
%ADD018C,0.06299*%
%ADD030R,0.04724X0.04724*%
%ADD042C,0.00787*%
%ADD087C,0.06*%
%ADD101C,0.11811*%
%ADD102C,0.07087*%
%ADD103C,0.05118*%
%ADD104R,0.06X0.06*%
%ADD105C,0.21654*%
%ADD106C,0.17717*%
%ADD115C,0.07874*%
*
*
*
*
G04 PC Copper Outlines (0)*
G04 Layer Name board.pcb - dark (0)*
%LPD*%
*
*
G04 PC Area=Custom_Thermal*
*
G04 PC Custom Flashes*
G04 Layer Name board.pcb - flashes*
%LPD*%
*
*
G04 PC Circuitry*
G04 Layer Name board.pcb - circuitry*
%LPD*%
*
G54D10*
G01X2071419Y1633604D02*
Y1630454D01*
X2067463Y1612069D02*
X2075730D01*
Y1630179*
X2067463*
Y1612069*
X2071419Y1609195D02*
Y1611557D01*
X1983888Y1474403D02*
X1987038D01*
X2005423Y1470446D02*
Y1478714D01*
X1987313*
Y1470446*
X2005423*
X2008297Y1474403D02*
X2005935D01*
X2070368Y1648012D02*
Y1651162D01*
X2074324Y1669548D02*
X2066057D01*
Y1651437*
X2074324*
Y1669548*
X2070368Y1672422D02*
Y1670059D01*
X1935443Y1661495D02*
X1932293D01*
X1913907Y1665452D02*
Y1657184D01*
X1932017*
Y1665452*
X1913907*
X1911033Y1661495D02*
X1913395D01*
X1881095Y1616393D02*
X1877946D01*
X1859560Y1620350D02*
Y1612082D01*
X1877670*
Y1620350*
X1859560*
X1856686Y1616393D02*
X1859048D01*
X1862933Y1690775D02*
X1866083D01*
X1884469Y1686819D02*
Y1695086D01*
X1866358*
Y1686819*
X1884469*
X1887343Y1690775D02*
X1884980D01*
X2118385Y1495086D02*
Y1483668D01*
X2088070*
Y1495086*
X2118385*
X2087981Y1496621D02*
Y1508038D01*
X2118296*
Y1496621*
X2087981*
X2118093Y1521062D02*
Y1509644D01*
X2087778*
Y1521062*
X2118093*
X2088016Y1522504D02*
Y1533922D01*
X2118331*
Y1522504*
X2088016*
X2085242Y1474700D02*
X2082092D01*
X2063706Y1478657D02*
Y1470389D01*
X2081816*
Y1478657*
X2063706*
X2060832Y1474700D02*
X2063194D01*
X2092496Y1576304D02*
Y1573155D01*
X2088540Y1554769D02*
X2096807D01*
Y1572879*
X2088540*
Y1554769*
X2092496Y1551895D02*
Y1554257D01*
X2049328Y1512072D02*
X2046179D01*
X2027793Y1516028D02*
Y1507761D01*
X2045903*
Y1516028*
X2027793*
X2024919Y1512072D02*
X2027281D01*
X1955863Y1511422D02*
X1952713D01*
X1934327Y1515378D02*
Y1507111D01*
X1952437*
Y1515378*
X1934327*
X1931453Y1511422D02*
X1933815D01*
X1930233Y1563253D02*
X1933383D01*
X1951769Y1559296D02*
Y1567564D01*
X1933659*
Y1559296*
X1951769*
X1954643Y1563253D02*
X1952281D01*
X2070284Y1530942D02*
Y1527792D01*
X2066327Y1509407D02*
X2074595D01*
Y1527517*
X2066327*
Y1509407*
X2070284Y1506533D02*
Y1508895D01*
X2063150Y1700708D02*
X2060001D01*
X2041615Y1704665D02*
Y1696397D01*
X2059725*
Y1704665*
X2041615*
X2038741Y1700708D02*
X2041103D01*
X2037822Y1690834D02*
X2040972D01*
X2059358Y1686878D02*
Y1695145D01*
X2041247*
Y1686878*
X2059358*
X2062232Y1690834D02*
X2059869D01*
X2100444Y1600762D02*
X2100444D01*
G75*
G03X2095444I-2500J-0D01*
G01X2095444*
X2087944D02*
Y1680762D01*
X2107944*
Y1600762*
X2087944*
X1909742Y1651895D02*
G03X1935242I12750J-8123D01*
G01X1910342Y1651795D02*
X1934842D01*
X2113869Y1712924D02*
G03X2139369I12750J-8123D01*
G01X2114469Y1712824D02*
X2138969D01*
X2150994Y1680087D02*
X2150994D01*
G03X2155994I2500J0*
G01X2155994*
X2163494D02*
Y1610087D01*
X2143494*
Y1680087*
X2163494*
X2109607Y1712822D02*
G03X2109607I-17558J0D01*
G54D18*
G01X1886080Y1648731D03*
Y1658731D03*
X1856080D03*
Y1648731D03*
X1885948Y1628595D03*
Y1638595D03*
X1855948D03*
Y1628595D03*
G54D30*
X1817185Y1550404D02*
X1818366D01*
X1825059Y1574026D02*
X1826240D01*
X1821122Y1542530D02*
X1822303D01*
X1817185Y1706687D02*
X1818366D01*
X1825059Y1730309D02*
X1826240D01*
X1821122Y1698813D02*
X1822303D01*
X1817185Y1500684D02*
X1818366D01*
X1825059Y1524306D02*
X1826240D01*
X1821122Y1492810D02*
X1822303D01*
G54D42*
X1807559Y1446613D02*
Y1753387D01*
X2192441*
Y1446613*
X1807559*
G54D87*
X2071419Y1606163D03*
Y1635691D03*
X2011329Y1474403D03*
X1981801D03*
X2070368Y1675453D03*
Y1645926D03*
X1908002Y1661495D03*
X1937529D03*
X1853655Y1616393D03*
X1883182D03*
X1890374Y1690775D03*
X1860847D03*
X2112479Y1489574D03*
X2092794D03*
X2093887Y1502133D03*
X2113572D03*
X2112188Y1515550D03*
X2092503D03*
X2093922Y1528016D03*
X2113607D03*
X2057801Y1474700D03*
X2087328D03*
X2092496Y1548863D03*
Y1578391D03*
X2021887Y1512072D03*
X2051415D03*
X1928422Y1511422D03*
X1957949D03*
X1957674Y1563253D03*
X1928147D03*
X2070284Y1503501D03*
Y1533029D03*
X2035709Y1700708D03*
X2065237D03*
X2065263Y1690834D03*
X2035736D03*
X1823517Y1669864D03*
Y1679864D03*
X2082944Y1615762D03*
Y1625762D03*
Y1635762D03*
Y1645762D03*
Y1655762D03*
Y1665762D03*
Y1675762D03*
X2112944D03*
Y1665762D03*
Y1655762D03*
Y1645762D03*
Y1635762D03*
Y1625762D03*
Y1615762D03*
Y1605762D03*
X2124536Y1569495D03*
Y1561495D03*
X2105274Y1569495D03*
Y1561495D03*
X1922642Y1644295D03*
X1932642D03*
X2126769Y1705324D03*
X2136769D03*
X2168494Y1665087D03*
Y1655087D03*
Y1645087D03*
Y1635087D03*
Y1625087D03*
Y1615087D03*
X2138494D03*
Y1625087D03*
Y1635087D03*
Y1645087D03*
Y1655087D03*
Y1665087D03*
Y1675087D03*
X1895837Y1636679D03*
Y1607151D03*
G54D101*
X1867595Y1588268D03*
X2162831Y1710394D03*
Y1588268D03*
X1867516Y1710276D03*
X2137674Y1739174D03*
X1861412D03*
Y1460719D03*
X2137674D03*
G54D102*
X1817776Y1574026D03*
X1829587Y1542530D03*
X1825650Y1550404D03*
X1837461Y1566152D03*
X1821713D03*
X1817776Y1730309D03*
X1829587Y1698813D03*
X1825650Y1706687D03*
X1837461Y1722435D03*
X1821713D03*
X1817776Y1524306D03*
X1829587Y1492810D03*
X1825650Y1500684D03*
X1837461Y1516432D03*
X1821713D03*
G54D103*
X1900233Y1675237D02*
Y1681929D01*
X1910233Y1675237D02*
Y1681929D01*
X1920233Y1675237D02*
Y1681929D01*
X1930233Y1675237D02*
Y1681929D01*
X1940233Y1675237D02*
Y1681929D01*
X1950233Y1675237D02*
Y1681929D01*
X1960233Y1675237D02*
Y1681929D01*
X1970233Y1675237D02*
Y1681929D01*
X1986217Y1675237D02*
Y1681929D01*
X1996217Y1675237D02*
Y1681929D01*
X2006217Y1675237D02*
Y1681929D01*
X2016217Y1675237D02*
Y1681929D01*
X2026217Y1675237D02*
Y1681929D01*
X2036217Y1675237D02*
Y1681929D01*
X2046217Y1675237D02*
Y1681929D01*
X2056217Y1675237D02*
Y1681929D01*
X2006138Y1485237D02*
Y1491929D01*
X2016138Y1485237D02*
Y1491929D01*
X2026138Y1485237D02*
Y1491929D01*
X2036138Y1485237D02*
Y1491929D01*
X2046138Y1485237D02*
Y1491929D01*
X2056138Y1485237D02*
Y1491929D01*
X1936217Y1485237D02*
Y1491929D01*
X1946217Y1485237D02*
Y1491929D01*
X1956217Y1485237D02*
Y1491929D01*
X1966217Y1485237D02*
Y1491929D01*
X1976217Y1485237D02*
Y1491929D01*
X1986217Y1485237D02*
Y1491929D01*
X1889445Y1706929D02*
Y1713622D01*
X1899445Y1706929D02*
Y1713622D01*
X1909445Y1706929D02*
Y1713622D01*
X1919445Y1706929D02*
Y1713622D01*
X1929445Y1706929D02*
Y1713622D01*
X1939445Y1706929D02*
Y1713622D01*
X1949445Y1706929D02*
Y1713622D01*
X1959445Y1706929D02*
Y1713622D01*
X1969445Y1706929D02*
Y1713622D01*
X1979445Y1706929D02*
Y1713622D01*
X1989445Y1706929D02*
Y1713622D01*
X1999445Y1706929D02*
Y1713622D01*
X2009445Y1706929D02*
Y1713622D01*
X2019445Y1706929D02*
Y1713622D01*
X2029445Y1706929D02*
Y1713622D01*
X2039445Y1706929D02*
Y1713622D01*
G54D104*
X2082944Y1605762D03*
X1912642Y1644295D03*
X2116769Y1705324D03*
X2168494Y1675087D03*
G54D105*
X2146111Y1488873D03*
Y1542530D03*
G54D106*
X2170717Y1488873D03*
X2157922Y1507770D03*
X2170717Y1542530D03*
X2157922Y1561427D03*
G54D115*
X1976768Y1571516D03*
Y1553799D03*
X2000390D03*
Y1571516D03*
X1976768Y1530661D03*
Y1512945D03*
X2000390D03*
Y1530661D03*
X1930901Y1551063D03*
Y1533347D03*
X1954523D03*
Y1551063D03*
X2022752D03*
Y1533347D03*
X2046374D03*
Y1551063D03*
X1864431D03*
Y1533347D03*
X1888053D03*
Y1551063D03*
X2101498Y1705341D03*
X2091655Y1725026D03*
X2081813Y1705341D03*
G74*
X0Y0D02*
M02*
