*
*
G04 PADS Layout (Build Number 2007.42.1) generated Gerber (RS-274-X) file*
G04 PC Version=2.1*
*
%IN "board.pcb"*%
*
%MOIN*%
*
%FSLAX35Y35*%
*
*
*
*
G04 PC Standard Apertures*
*
*
G04 Thermal Relief Aperture macro.*
%AMTER*
1,1,$1,0,0*
1,0,$1-$2,0,0*
21,0,$3,$4,0,0,45*
21,0,$3,$4,0,0,135*
%
*
*
G04 Annular Aperture macro.*
%AMANN*
1,1,$1,0,0*
1,0,$2,0,0*
%
*
*
G04 Odd Aperture macro.*
%AMODD*
1,1,$1,0,0*
1,0,$1-0.005,0,0*
%
*
*
G04 PC Custom Aperture Macros*
*
*
*
*
*
*
G04 PC Aperture Table*
*
%ADD018C,0.06299*%
%ADD023C,0.05906*%
%ADD030R,0.04724X0.04724*%
%ADD033C,0.03937*%
%ADD042C,0.00787*%
%ADD043C,0.02756*%
%ADD045C,0.01969*%
%ADD084C,0.001*%
%ADD087C,0.06*%
%ADD101C,0.11811*%
%ADD102C,0.07087*%
%ADD103C,0.05118*%
%ADD104R,0.06X0.06*%
%ADD105C,0.21654*%
%ADD106C,0.17717*%
%ADD107C,0.0315*%
%ADD115C,0.07874*%
*
*
*
*
G04 PC Copper Outlines (0)*
G04 Layer Name board.pcb - dark (0)*
%LPD*%
*
*
G04 PC Area=ANP000013*
G75*
G36*
G01*
X2128547Y1483078D02*
X2127970Y1484470D01*
X2126578Y1485046D01*
X2117348D01*
X2116168Y1484653D01*
X2114925Y1483931D01*
X2113801Y1482614D01*
X2114152Y1480918D01*
X2115708Y1480157D01*
X2126578D01*
X2127970Y1480733D01*
X2128547Y1482125D01*
Y1483078D01*
G37*
G74*
*
*
G04 PC Copper Outlines (1)*
G04 Layer Name board.pcb - dark (1)*
%LPD*%
*
*
G04 PC Area=ANP000012*
G75*
G36*
G01*
X2128547Y1553638D02*
X2127783Y1555195D01*
X2126083Y1555543D01*
X2124701Y1555184D01*
X2121904Y1555757D01*
X2119645Y1557504D01*
X2118386Y1560067D01*
Y1561495D01*
X2119440Y1565495D01*
X2119185Y1566465D01*
X2118552Y1567583D01*
X2118287Y1570138D01*
X2119066Y1572585D01*
X2119913Y1573551D01*
X2120402Y1574849D01*
Y1581485D01*
X2119826Y1582877D01*
X2109440Y1593262D01*
X2108810Y1594782D01*
Y1599659D01*
X2108234Y1601051D01*
X2106842Y1601628D01*
X2103731D01*
X2102339Y1601051D01*
X2097207Y1595919D01*
X2096630Y1594527D01*
Y1583745D01*
X2097119Y1582447D01*
X2098193Y1581222D01*
X2098848Y1578030D01*
X2098342Y1576482D01*
X2098245Y1575871D01*
X2098821Y1574479D01*
X2100213Y1573902D01*
X2100249D01*
X2101467Y1574325D01*
X2102832Y1575400D01*
X2106283Y1575805D01*
X2109436Y1574344D01*
X2111358Y1571450D01*
X2111482Y1567977D01*
X2110625Y1566465D01*
X2110370Y1565495D01*
X2110625Y1564525D01*
X2111435Y1563095D01*
X2111412Y1559807D01*
X2109751Y1556970D01*
X2106896Y1555340D01*
X2103608Y1555351D01*
X2100765Y1557002D01*
X2099125Y1559851D01*
Y1561495D01*
X2099127Y1561698D01*
X2098551Y1563089D01*
X2097159Y1563666D01*
X2063239D01*
X2061358Y1564445D01*
X2060121Y1565682D01*
X2058729Y1566259D01*
X2057337Y1565682D01*
X2056761Y1564290D01*
Y1550414D01*
X2057337Y1549022D01*
X2058729Y1548446D01*
X2060121Y1549022D01*
X2063467Y1552368D01*
X2064986Y1552997D01*
X2087142D01*
X2088441Y1553486D01*
X2089519Y1554432D01*
X2092289Y1555175D01*
X2095102Y1554615D01*
X2097377Y1552870D01*
X2098646Y1550297D01*
Y1547429D01*
X2097377Y1544857D01*
X2095102Y1543111D01*
X2092289Y1542552D01*
X2089519Y1543295D01*
X2088441Y1544241D01*
X2087142Y1544730D01*
X2068336D01*
X2066944Y1544153D01*
X2063968Y1541176D01*
X2063391Y1539784D01*
Y1539483D01*
X2063907Y1538154D01*
X2065184Y1537522D01*
X2066554Y1537918D01*
X2067643Y1538749D01*
X2070320Y1539329D01*
X2072991Y1538718D01*
X2075149Y1537031D01*
X2075769Y1535809D01*
X2076577Y1534974D01*
X2077715Y1534740D01*
X2079057Y1534871D01*
X2081475Y1533677D01*
X2082898Y1531386D01*
Y1530038D01*
X2082307Y1527289D01*
Y1501969D01*
X2081678Y1500450D01*
X2076213Y1494985D01*
X2074694Y1494356D01*
X2063802D01*
X2062369Y1493737D01*
X2061837Y1492270D01*
X2061847Y1491929D01*
Y1485237D01*
X2061357Y1482923D01*
X2061507Y1481052D01*
X2063157Y1480157D01*
X2084045D01*
X2084841Y1480325D01*
X2088141Y1480796D01*
X2089768Y1481332D01*
X2090360Y1482940D01*
X2089466Y1484403D01*
X2088163Y1485241D01*
X2086663Y1487953D01*
X2086627Y1491052D01*
X2088064Y1493798D01*
X2089347Y1494667D01*
X2090205Y1496126D01*
X2089612Y1497712D01*
X2088670Y1498623D01*
X2087692Y1501055D01*
X2087791Y1503674D01*
X2088949Y1506026D01*
X2089957Y1506863D01*
X2090658Y1508580D01*
X2089622Y1510117D01*
X2088177Y1510883D01*
X2086430Y1513649D01*
X2086288Y1516918D01*
X2087789Y1519824D01*
X2089162Y1520713D01*
X2090049Y1522143D01*
X2089506Y1523736D01*
X2088309Y1524971D01*
X2087544Y1528324D01*
X2088628Y1531587D01*
X2091248Y1533815D01*
X2094644Y1534361D01*
X2097830Y1533066D01*
X2099883Y1530306D01*
X2100206Y1526882D01*
X2098706Y1523787D01*
X2097262Y1522853D01*
X2096376Y1521423D01*
X2096918Y1519830D01*
X2098124Y1518586D01*
X2098882Y1515206D01*
X2097765Y1511926D01*
X2096432Y1510819D01*
X2095732Y1509103D01*
X2096768Y1507566D01*
X2098198Y1506808D01*
X2099941Y1504080D01*
X2100114Y1500847D01*
X2098674Y1497948D01*
X2097334Y1497040D01*
X2096476Y1495581D01*
X2097069Y1493995D01*
X2097968Y1493126D01*
X2098944Y1490824D01*
Y1488368D01*
X2098033Y1486135D01*
X2096346Y1484411D01*
X2095240Y1483931D01*
X2094116Y1482614D01*
X2094467Y1480918D01*
X2096023Y1480157D01*
X2109251D01*
X2110806Y1480918D01*
X2111158Y1482614D01*
X2110034Y1483931D01*
X2108489Y1484601D01*
X2106513Y1487326D01*
X2106200Y1490679D01*
X2107638Y1493723D01*
X2109032Y1494667D01*
X2109890Y1496126D01*
X2109297Y1497712D01*
X2108355Y1498623D01*
X2107377Y1501055D01*
X2107476Y1503674D01*
X2108634Y1506026D01*
X2109642Y1506863D01*
X2110343Y1508580D01*
X2109307Y1510117D01*
X2107862Y1510883D01*
X2106115Y1513649D01*
X2105973Y1516918D01*
X2107474Y1519824D01*
X2108847Y1520713D01*
X2109734Y1522143D01*
X2109191Y1523736D01*
X2108155Y1524805D01*
X2107290Y1527654D01*
X2107824Y1530583D01*
X2109638Y1532944D01*
X2112332Y1534213D01*
X2115307Y1534111D01*
X2116607Y1533384D01*
X2117567Y1533134D01*
X2126254D01*
X2127646Y1533711D01*
X2127970Y1534035D01*
X2128547Y1535427D01*
Y1553638D01*
G37*
G74*
*
*
G04 PC Copper Outlines (2)*
G04 Layer Name board.pcb - dark (2)*
%LPD*%
*
*
G04 PC Area=ANP000011*
G75*
G36*
G01*
X2128547Y1663863D02*
X2127970Y1665255D01*
X2126578Y1665832D01*
X2125186Y1665255D01*
X2122770Y1662838D01*
X2122397Y1662508D01*
X2121644Y1661040D01*
X2122273Y1659515D01*
X2122412Y1659381D01*
X2125186Y1656606D01*
X2126578Y1656030D01*
X2127970Y1656606D01*
X2128547Y1657998D01*
Y1663863D01*
G37*
G74*
*
*
G04 PC Copper Outlines (3)*
G04 Layer Name board.pcb - dark (3)*
%LPD*%
*
*
G04 PC Area=ANP000010*
G75*
G36*
G01*
X2108517Y1670762D02*
X2108100Y1671974D01*
X2106912Y1674569D01*
X2106073Y1675824D01*
X2104592Y1676116D01*
X2103339Y1675273D01*
X2102719Y1674337D01*
X2100770Y1673223D01*
X2099649Y1673163D01*
X2098325Y1672552D01*
X2097785Y1671197D01*
Y1668590D01*
X2097156Y1667071D01*
X2092350Y1662265D01*
X2090855Y1661637D01*
X2090044Y1661628D01*
X2088801Y1661168D01*
X2088131Y1660024D01*
X2088339Y1658714D01*
X2088919Y1657654D01*
X2089191Y1655252D01*
X2088534Y1652926D01*
X2087789Y1651974D01*
X2087371Y1650762D01*
X2087789Y1649549D01*
X2088423Y1648738D01*
X2089094Y1646791D01*
Y1644732D01*
X2088423Y1642785D01*
X2087789Y1641974D01*
X2087371Y1640762D01*
X2087789Y1639549D01*
X2088423Y1638738D01*
X2089094Y1636791D01*
Y1634732D01*
X2088423Y1632785D01*
X2087789Y1631974D01*
X2087371Y1630762D01*
X2087789Y1629549D01*
X2088423Y1628738D01*
X2089094Y1626791D01*
Y1624732D01*
X2088423Y1622785D01*
X2087789Y1621974D01*
X2087371Y1620762D01*
X2087789Y1619549D01*
X2088537Y1618592D01*
X2089193Y1616254D01*
X2088911Y1613842D01*
X2088323Y1612780D01*
X2088080Y1611692D01*
X2088467Y1610647D01*
X2089094Y1608762D01*
Y1604250D01*
X2089671Y1602859D01*
X2091062Y1602282D01*
X2092454Y1602859D01*
X2098862Y1609266D01*
X2100381Y1609895D01*
X2105823D01*
X2107077Y1610346D01*
X2107756Y1611493D01*
X2107550Y1612809D01*
X2106970Y1613869D01*
X2106698Y1616271D01*
X2107355Y1618597D01*
X2108100Y1619549D01*
X2108517Y1620762D01*
X2108100Y1621974D01*
X2107465Y1622785D01*
X2106795Y1624732D01*
Y1626791D01*
X2107465Y1628738D01*
X2108100Y1629549D01*
X2108517Y1630762D01*
X2108100Y1631974D01*
X2107465Y1632785D01*
X2106795Y1634732D01*
Y1636791D01*
X2107465Y1638738D01*
X2108100Y1639549D01*
X2108517Y1640762D01*
X2108100Y1641974D01*
X2107465Y1642785D01*
X2106795Y1644732D01*
Y1646791D01*
X2107465Y1648738D01*
X2108100Y1649549D01*
X2108517Y1650762D01*
X2108100Y1651974D01*
X2107465Y1652785D01*
X2106795Y1654732D01*
Y1656791D01*
X2107465Y1658738D01*
X2108100Y1659549D01*
X2108517Y1660762D01*
X2108100Y1661974D01*
X2107465Y1662785D01*
X2106795Y1664732D01*
Y1666791D01*
X2107465Y1668738D01*
X2108100Y1669549D01*
X2108517Y1670762D01*
G37*
G74*
*
*
G04 PC Copper Outlines (4)*
G04 Layer Name board.pcb - dark (4)*
%LPD*%
*
*
G04 PC Area=ANP000009*
G75*
G36*
G01*
X2089542Y1683019D02*
X2088966Y1684410D01*
X2087574Y1684987D01*
X2086583D01*
X2085191Y1684410D01*
X2084615Y1683019D01*
X2084908Y1681985D01*
X2085701Y1681259D01*
X2086432Y1680826D01*
X2087787Y1680494D01*
X2089023Y1681143D01*
X2089517Y1682448D01*
Y1682468D01*
X2089542Y1683019D01*
G37*
G74*
*
*
G04 PC Copper Outlines (5)*
G04 Layer Name board.pcb - dark (5)*
%LPD*%
*
*
G04 PC Area=ANP000008*
G75*
G36*
G01*
X2078517Y1620762D02*
X2078100Y1621974D01*
X2077465Y1622785D01*
X2076795Y1624732D01*
Y1625762D01*
X2077176Y1627894D01*
X2077098Y1629442D01*
X2075924Y1630453D01*
X2074382Y1630302D01*
X2072915Y1629495D01*
X2069569Y1629592D01*
X2066733Y1631371D01*
X2065190Y1634342D01*
X2065366Y1637685D01*
X2066289Y1639081D01*
X2066615Y1640166D01*
X2066034Y1641563D01*
X2065279Y1642313D01*
X2064361Y1644233D01*
X2064251Y1645291D01*
X2063586Y1646572D01*
X2062225Y1647055D01*
X2060901Y1646480D01*
X2057337Y1642916D01*
X2056761Y1641524D01*
Y1628240D01*
X2057527Y1626682D01*
X2059060Y1624615D01*
X2059508Y1623920D01*
X2070557Y1612872D01*
X2071820Y1612300D01*
X2074277Y1611608D01*
X2075777Y1611472D01*
X2076935Y1612436D01*
X2077072Y1613936D01*
X2076623Y1615380D01*
X2077168Y1618357D01*
X2078100Y1619549D01*
X2078517Y1620762D01*
G37*
G74*
*
*
G04 PC Copper Outlines (6)*
G04 Layer Name board.pcb - dark (6)*
%LPD*%
*
*
G04 PC Area=ANP000007*
G75*
G36*
G01*
X2077493Y1652916D02*
X2076953Y1653949D01*
X2076706Y1656266D01*
X2077014Y1657390D01*
X2076733Y1659034D01*
X2075292Y1659872D01*
X2073724Y1659303D01*
X2069813Y1655392D01*
X2069238Y1654068D01*
X2069721Y1652708D01*
X2071002Y1652042D01*
X2071960Y1651943D01*
X2073722Y1651169D01*
X2074443Y1650531D01*
X2076141Y1650076D01*
X2077525Y1651159D01*
X2077493Y1652916D01*
G37*
G74*
*
*
G04 PC Copper Outlines (7)*
G04 Layer Name board.pcb - dark (7)*
%LPD*%
*
*
G04 PC Area=ANP000006*
G75*
G36*
G01*
X2081274Y1683019D02*
X2080698Y1684410D01*
X2079306Y1684987D01*
X2073312D01*
X2071742Y1684206D01*
X2071418Y1682482D01*
X2072598Y1681184D01*
X2075036Y1679456D01*
X2076578Y1678770D01*
X2078085Y1679531D01*
X2080188Y1681259D01*
X2080981Y1681985D01*
X2081274Y1683019D01*
G37*
G74*
*
*
G04 PC Copper Outlines (8)*
G04 Layer Name board.pcb - dark (8)*
%LPD*%
*
*
G04 PC Area=ANP000005*
G75*
G36*
G01*
X2067830Y1668701D02*
X2066954Y1670338D01*
X2064862Y1672713D01*
X2063809Y1673672D01*
X2062385Y1673670D01*
X2061335Y1672708D01*
X2060755Y1671773D01*
X2060351Y1670578D01*
Y1669034D01*
X2059722Y1667514D01*
X2057337Y1665130D01*
X2056761Y1663738D01*
Y1661569D01*
X2057337Y1660177D01*
X2058729Y1659600D01*
X2060121Y1660177D01*
X2067253Y1667309D01*
X2067830Y1668701D01*
G37*
G74*
*
*
G04 PC Copper Outlines (9)*
G04 Layer Name board.pcb - dark (9)*
%LPD*%
*
*
G04 PC Area=ANP000004*
G75*
G36*
G01*
X2066841Y1684890D02*
X2064185Y1684780D01*
X2062488Y1684273D01*
X2061885Y1682608D01*
X2061926Y1681929D01*
Y1680352D01*
X2062568Y1678898D01*
X2064075Y1678392D01*
X2065464Y1679164D01*
X2068078Y1681161D01*
X2069281Y1682630D01*
X2068683Y1684432D01*
X2066841Y1684890D01*
G37*
G74*
*
*
G04 PC Copper Outlines (10)*
G04 Layer Name board.pcb - dark (10)*
%LPD*%
*
*
G04 PC Area=ANP000003*
G75*
G36*
G01*
X2055123Y1523502D02*
X2054547Y1524894D01*
X2053155Y1525470D01*
X2014416D01*
X2013024Y1524894D01*
X2012447Y1523502D01*
X2012448Y1523450D01*
X2012470Y1522591D01*
X2011907Y1520967D01*
X2011358Y1520306D01*
X2010906Y1518927D01*
X2011522Y1517613D01*
X2012871Y1517079D01*
X2017734D01*
X2018741Y1517356D01*
X2020106Y1518168D01*
X2023281Y1518268D01*
X2026107Y1516818D01*
X2027878Y1514181D01*
X2028150Y1511016D01*
X2026856Y1508115D01*
X2024319Y1506204D01*
X2021173Y1505760D01*
X2018206Y1506896D01*
X2017183Y1508110D01*
X2015678Y1508811D01*
X2007080D01*
X2005626Y1508169D01*
X2004619Y1507065D01*
X2001885Y1505858D01*
X1998896D01*
X1996162Y1507065D01*
X1995155Y1508169D01*
X1993700Y1508811D01*
X1983458D01*
X1982004Y1508169D01*
X1980868Y1506924D01*
X1977719Y1505723D01*
X1974366Y1506068D01*
X1972946Y1506977D01*
X1971885Y1507288D01*
X1963303D01*
X1962005Y1506799D01*
X1959109Y1505382D01*
X1957924Y1504655D01*
X1957515Y1503325D01*
X1958088Y1502057D01*
X1959665Y1500480D01*
X1960285Y1499129D01*
X1960340Y1498388D01*
X1960864Y1497190D01*
X1962024Y1496585D01*
X1963306Y1496840D01*
X1964340Y1497453D01*
X1966725Y1497741D01*
X1969024Y1497044D01*
X1969935Y1496261D01*
X1971217Y1495787D01*
X1972499Y1496261D01*
X1973543Y1497157D01*
X1976217Y1497801D01*
X1978891Y1497157D01*
X1979935Y1496261D01*
X1981217Y1495787D01*
X1982499Y1496261D01*
X1983768Y1497351D01*
X1987081Y1497815D01*
X1990121Y1496418D01*
X1991926Y1493602D01*
Y1485237D01*
X1991436Y1482923D01*
X1991585Y1481052D01*
X1993235Y1480157D01*
X1999120D01*
X2000770Y1481052D01*
X2000919Y1482923D01*
X2000430Y1485237D01*
Y1492817D01*
X2000969Y1494508D01*
X2001482Y1495232D01*
X2001845Y1496371D01*
Y1497768D01*
X2002400Y1499205D01*
X2002918Y1499775D01*
X2003303Y1500406D01*
X2003760Y1501622D01*
X2005789Y1503244D01*
X2008362Y1503602D01*
X2010756Y1502593D01*
X2012298Y1500502D01*
X2012426Y1499210D01*
X2013240Y1497803D01*
X2014835Y1497487D01*
X2016165Y1497799D01*
X2018819Y1497151D01*
X2019856Y1496261D01*
X2021138Y1495787D01*
X2022420Y1496261D01*
X2023464Y1497157D01*
X2026138Y1497801D01*
X2028813Y1497157D01*
X2029856Y1496261D01*
X2031138Y1495787D01*
X2032420Y1496261D01*
X2033435Y1497132D01*
X2036027Y1497792D01*
X2038643Y1497231D01*
X2039690Y1496399D01*
X2041266Y1496003D01*
X2042603Y1496928D01*
X2043226Y1497726D01*
X2046912Y1501413D01*
X2048988Y1502536D01*
X2050308Y1503511D01*
X2050431Y1505147D01*
X2049271Y1506308D01*
X2047663Y1506906D01*
X2045531Y1509593D01*
X2045098Y1512997D01*
X2046489Y1516133D01*
X2049302Y1518096D01*
X2051014Y1518208D01*
X2052277Y1518781D01*
X2054547Y1521050D01*
X2055123Y1522442D01*
Y1523502D01*
G37*
G74*
*
*
G04 PC Copper Outlines (11)*
G04 Layer Name board.pcb - dark (11)*
%LPD*%
*
*
G04 PC Area=ANP000002*
G75*
G36*
G01*
X1998921Y1523729D02*
X1996051Y1525058D01*
X1994846Y1525470D01*
X1982312D01*
X1981107Y1525058D01*
X1978238Y1523729D01*
X1977322Y1523260D01*
X1976768Y1522393D01*
X1976214Y1523260D01*
X1975299Y1523729D01*
X1972429Y1525058D01*
X1971224Y1525470D01*
X1943606D01*
X1942214Y1524894D01*
X1941637Y1523502D01*
Y1507281D01*
X1942214Y1505889D01*
X1943606Y1505312D01*
X1950967D01*
X1952238Y1505778D01*
X1952908Y1506954D01*
X1952660Y1508285D01*
X1951907Y1509554D01*
X1951718Y1512500D01*
X1952885Y1515210D01*
X1955156Y1517096D01*
X1958035Y1517745D01*
X1960896Y1517018D01*
X1962005Y1516044D01*
X1963303Y1515556D01*
X1968956D01*
X1969935Y1515816D01*
X1970655Y1516529D01*
X1971411Y1517818D01*
X1973836Y1519567D01*
X1975299Y1519877D01*
X1976214Y1520346D01*
X1976768Y1521213D01*
X1977322Y1520346D01*
X1978238Y1519877D01*
X1979325Y1519647D01*
X1981255Y1518542D01*
X1982004Y1517721D01*
X1983458Y1517079D01*
X1993700D01*
X1995155Y1517721D01*
X1995904Y1518542D01*
X1997833Y1519647D01*
X1998921Y1519877D01*
X2000281Y1520940D01*
Y1522666D01*
X1998921Y1523729D01*
G37*
G74*
*
*
G04 PC Copper Outlines (12)*
G04 Layer Name board.pcb - dark (12)*
%LPD*%
*
*
G04 PC Area=ANP000001*
G75*
G36*
G01*
X2074040Y1525110D02*
X2073300Y1526647D01*
X2071638Y1527030D01*
X2070306Y1526729D01*
X2067639Y1527311D01*
X2066554Y1528139D01*
X2065184Y1528535D01*
X2063907Y1527903D01*
X2063391Y1526574D01*
Y1519092D01*
X2062762Y1517572D01*
X2058124Y1512934D01*
X2057551Y1511671D01*
X2057437Y1509929D01*
X2055414Y1507084D01*
X2053805Y1506406D01*
X2052667Y1505093D01*
X2053011Y1503390D01*
X2054570Y1502623D01*
X2062239D01*
X2063534Y1503109D01*
X2064190Y1504327D01*
X2064424Y1506056D01*
X2066637Y1508751D01*
X2069937Y1509884D01*
X2071638Y1509500D01*
X2073300Y1509882D01*
X2074040Y1511420D01*
Y1525110D01*
G37*
G74*
*
*
G04 PC Copper Outlines (13)*
G04 Layer Name board.pcb - dark (13)*
%LPD*%
*
*
G04 PC Area=ANP000000*
G75*
G36*
G01*
X2088393Y1597666D02*
X2087750Y1599122D01*
X2086240Y1599626D01*
X2085944Y1599612D01*
X2079245D01*
X2077979Y1600203D01*
X2077530Y1600739D01*
X2076287Y1601426D01*
X2074905Y1601097D01*
X2073538Y1600156D01*
X2070229Y1599906D01*
X2067243Y1601353D01*
X2065391Y1604107D01*
X2065283Y1605762D01*
X2064710Y1607026D01*
X2060121Y1611615D01*
X2058729Y1612192D01*
X2057337Y1611615D01*
X2056761Y1610223D01*
Y1584334D01*
X2057337Y1582942D01*
X2065801Y1574479D01*
X2067193Y1573902D01*
X2084779D01*
X2086373Y1574715D01*
X2086651Y1576482D01*
X2086347Y1578391D01*
Y1579510D01*
X2087135Y1581605D01*
X2087874Y1582447D01*
X2088362Y1583745D01*
Y1597054D01*
X2088393Y1597666D01*
G37*
G74*
*
*
G04 PC Copper Outlines (14)*
G04 Layer Name board.pcb - dark (14)*
%LPD*%
*
*
G04 PC Area=Custom_Thermal*
*
G04 PC Custom Flashes*
G04 Layer Name board.pcb - flashes*
%LPD*%
*
*
G04 PC Circuitry*
G04 Layer Name board.pcb - circuitry*
%LPD*%
*
G54D18*
G01X1886080Y1648731D03*
Y1658731D03*
X1856080D03*
Y1648731D03*
X1885948Y1628595D03*
Y1638595D03*
X1855948D03*
Y1628595D03*
G54D23*
X2082944Y1635762D02*
Y1645762D01*
X2112944Y1636215D02*
Y1645762D01*
Y1635762D02*
X2082944D01*
G54D30*
X1817185Y1550404D02*
X1818366D01*
X1825059Y1574026D02*
X1826240D01*
X1821122Y1542530D02*
X1822303D01*
X1817185Y1706687D02*
X1818366D01*
X1825059Y1730309D02*
X1826240D01*
X1821122Y1698813D02*
X1822303D01*
X1817185Y1500684D02*
X1818366D01*
X1825059Y1524306D02*
X1826240D01*
X1821122Y1492810D02*
X1822303D01*
G54D33*
X1986217Y1536671D02*
X1994855Y1545309D01*
X2004439*
X2020162Y1561032*
X2041086*
X2056548Y1576494*
X2048777Y1584265*
Y1641594*
X2082944Y1675762*
X1986217Y1536671D02*
X1994855Y1545309D01*
X2004439*
X2020162Y1561032*
X2041086*
X2056548Y1576494*
X2113607Y1528016D02*
X2129190D01*
X2143703Y1542530*
X2146111*
X2112188Y1515550D02*
X2143737D01*
X2170717Y1542530*
X2157922Y1561427*
X2146111Y1542530D02*
X2141762Y1546879D01*
Y1576517*
X2121171Y1597108*
Y1620729*
X2116139Y1625762*
X2112944*
X2064257Y1568784D02*
X2104563D01*
X2105274Y1569495*
X2064257Y1568784D02*
X2056548Y1576494D01*
X2157922Y1561427D02*
Y1568163D01*
X2126379Y1599706*
Y1648176*
X2118793Y1655762*
X2112944*
X2128547Y1482125D02*
Y1483078D01*
G75*
G03X2126578Y1485046I-1969J-0D01*
G01X2117348*
G03X2116168Y1484653I0J-1968*
G01X2114925Y1483931D02*
G03X2116168Y1484653I-2446J5643D01*
G01X2114925Y1483931D02*
G03X2115708Y1480157I783J-1806D01*
G01X2126578*
G03X2128547Y1482125I0J1968*
G01Y1535427D02*
Y1553638D01*
G03X2126083Y1555543I-1969J0*
G01X2119185Y1564525D02*
G03X2126083Y1555543I5351J-3030D01*
G01X2119185Y1564525D02*
G03Y1566465I-1713J970D01*
G01X2119913Y1573551D02*
G03X2119185Y1566465I4623J-4056D01*
G01X2119913Y1573551D02*
G03X2120402Y1574849I-1479J1298D01*
G01Y1581485*
G03X2119826Y1582877I-1968J-0*
G01X2110021Y1592681*
X2108810Y1595604D02*
G03X2110021Y1592681I4134J-0D01*
G01X2108810Y1595604D02*
Y1599659D01*
G03X2106842Y1601628I-1968J0*
G01X2103731*
G03X2102339Y1601051I0J-1969*
G01X2097207Y1595919*
Y1595918D02*
G03X2096630Y1594527I1392J-1391D01*
G01Y1583745*
G03X2097119Y1582447I1969J-0*
G01X2098342Y1576482D02*
G03X2097119Y1582447I-5846J1909D01*
G01X2098342Y1576482D02*
G03X2100213Y1573902I1871J-611D01*
G01X2100249*
G03X2101467Y1574325I-0J1969*
G01X2110625Y1566465D02*
G03X2101467Y1574325I-5351J3030D01*
G01X2110625Y1566465D02*
G03Y1564525I1713J-970D01*
G01X2099126Y1561648D02*
G03X2110625Y1564525I6148J-153D01*
G01X2099126Y1561648D02*
G03X2097159Y1563666I-1967J50D01*
G01X2064257*
X2060638Y1565165D02*
G03X2064257Y1563666I3619J3619D01*
G01X2060638Y1565165D02*
X2060121Y1565682D01*
G03X2056761Y1564290I-1392J-1392*
G01Y1550414*
G03X2060121Y1549022I1968J0*
G01X2062885Y1551787*
X2065809Y1552997D02*
G03X2062885Y1551787I-0J-4134D01*
G01X2065809Y1552997D02*
X2087142D01*
G03X2088441Y1553486I0J1969*
G01Y1544241D02*
G03Y1553486I4055J4622D01*
G01Y1544241D02*
G03X2087142Y1544730I-1299J-1480D01*
G01X2068336*
G03X2066944Y1544153I0J-1969*
G01X2063968Y1541176*
G03X2063391Y1539784I1392J-1392*
G01Y1539483*
G03X2066554Y1537918I1969J-0*
G01X2075769Y1535809D02*
G03X2066554Y1537918I-5485J-2780D01*
G01X2075769Y1535809D02*
G03X2077715Y1534740I1755J890D01*
G01X2082481Y1528098D02*
G03X2077715Y1534740I-4307J1940D01*
G01X2082481Y1528098D02*
G03X2082307Y1527289I1795J-809D01*
G01Y1502792*
X2081097Y1499869D02*
G03X2082307Y1502792I-2923J2923D01*
G01X2081097Y1499869D02*
X2076794Y1495566D01*
X2073871Y1494356D02*
G03X2076794Y1495566I0J4134D01*
G01X2073871Y1494356D02*
X2063802D01*
G03X2061837Y1492270I-0J-1969*
G01X2061847Y1491929D02*
G03X2061837Y1492270I-5709J0D01*
G01X2061847Y1491929D02*
Y1485237D01*
X2061357Y1482923D02*
G03X2061847Y1485237I-5219J2314D01*
G01X2061357Y1482923D02*
G03X2063157Y1480157I1800J-798D01*
G01X2084045*
G03X2084841Y1480325I0J1968*
G01X2088141Y1480796D02*
G03X2084841Y1480325I-813J-6096D01*
G01X2088141Y1480796D02*
G03X2089466Y1484403I260J1951D01*
G01X2089347Y1494667D02*
G03X2089466Y1484403I3447J-5093D01*
G01X2089347Y1494667D02*
G03X2089612Y1497712I-1103J1630D01*
G01X2089957Y1506863D02*
G03X2089612Y1497712I3930J-4730D01*
G01X2089957Y1506863D02*
G03X2089622Y1510117I-1258J1515D01*
G01X2089162Y1520713D02*
G03X2089622Y1510117I3341J-5163D01*
G01X2089162Y1520713D02*
G03X2089506Y1523736I-1069J1653D01*
G01X2097262Y1522853D02*
G03X2089506Y1523736I-3340J5163D01*
G01X2097262Y1522853D02*
G03X2096918Y1519830I1070J-1653D01*
G01X2096432Y1510819D02*
G03X2096918Y1519830I-3929J4731D01*
G01X2096432Y1510819D02*
G03X2096768Y1507566I1258J-1514D01*
G01X2097334Y1497040D02*
G03X2096768Y1507566I-3447J5093D01*
G01X2097334Y1497040D02*
G03X2097069Y1493995I1103J-1630D01*
G01X2095240Y1483931D02*
G03X2097069Y1493995I-2446J5643D01*
G01X2095240Y1483931D02*
G03X2096023Y1480157I783J-1806D01*
G01X2109251*
G03X2110034Y1483931I0J1968*
G01X2109032Y1494667D02*
G03X2110034Y1483931I3447J-5093D01*
G01X2109032Y1494667D02*
G03X2109297Y1497712I-1103J1630D01*
G01X2109642Y1506863D02*
G03X2109297Y1497712I3930J-4730D01*
G01X2109642Y1506863D02*
G03X2109307Y1510117I-1258J1515D01*
G01X2108847Y1520713D02*
G03X2109307Y1510117I3341J-5163D01*
G01X2108847Y1520713D02*
G03X2109191Y1523736I-1069J1653D01*
G01X2116607Y1533384D02*
G03X2109191Y1523736I-3000J-5368D01*
G01X2116607Y1533384D02*
G03X2117567Y1533134I960J1719D01*
G01X2126254*
G03X2127646Y1533711I0J1969*
G01X2127970Y1534035*
G03X2128547Y1535427I-1392J1392*
G01Y1657998D02*
Y1663863D01*
G03X2125186Y1665255I-1969J0*
G01X2122770Y1662838*
X2122397Y1662508D02*
G03X2122770Y1662838I-2550J3254D01*
G01X2122397Y1662508D02*
G03X2122273Y1659515I1214J-1550D01*
G01X2122412Y1659381D02*
G03X2122273Y1659515I-3619J-3619D01*
G01X2122412Y1659381D02*
X2125186Y1656606D01*
G03X2128547Y1657998I1392J1392*
G01X2108100Y1669549D02*
G03Y1671974I-1551J1213D01*
G01X2106912Y1674569D02*
G03X2108100Y1671974I6032J1193D01*
G01X2106912Y1674569D02*
G03X2103339Y1675273I-1932J-382D01*
G01X2099649Y1673163D02*
G03X2103339Y1675273I-250J4718D01*
G01X2099649Y1673163D02*
G03X2097785Y1671197I104J-1966D01*
G01Y1669412*
X2096574Y1666489D02*
G03X2097785Y1669412I-2923J2923D01*
G01X2096574Y1666489D02*
X2092923Y1662838D01*
X2090044Y1661628D02*
G03X2092923Y1662838I-44J4134D01*
G01X2090044Y1661628D02*
G03X2088339Y1658714I21J-1968D01*
G01X2087789Y1651974D02*
G03X2088339Y1658714I-4845J3788D01*
G01X2087789Y1651974D02*
G03Y1649549I1551J-1212D01*
G01Y1641974D02*
G03Y1649549I-4845J3788D01*
G01Y1641974D02*
G03Y1639549I1551J-1212D01*
G01Y1631974D02*
G03Y1639549I-4845J3788D01*
G01Y1631974D02*
G03Y1629549I1551J-1212D01*
G01Y1621974D02*
G03Y1629549I-4845J3788D01*
G01Y1621974D02*
G03Y1619549I1551J-1212D01*
G01X2088323Y1612780D02*
G03X2087789Y1619549I-5379J2982D01*
G01X2088323Y1612780D02*
G03X2088467Y1610647I1721J-955D01*
G01X2089094Y1608762D02*
G03X2088467Y1610647I-3150J-0D01*
G01X2089094Y1608762D02*
Y1604250D01*
G03X2092454Y1602859I1968J0*
G01X2098281Y1608685*
X2101204Y1609895D02*
G03X2098281Y1608685I-0J-4133D01*
G01X2101204Y1609895D02*
X2105823D01*
G03X2107550Y1612809I0J1969*
G01X2108100Y1619549D02*
G03X2107550Y1612809I4844J-3787D01*
G01X2108100Y1619549D02*
G03Y1621974I-1551J1213D01*
G01Y1629549D02*
G03Y1621974I4844J-3787D01*
G01Y1629549D02*
G03Y1631974I-1551J1213D01*
G01Y1639549D02*
G03Y1631974I4844J-3787D01*
G01Y1639549D02*
G03Y1641974I-1551J1213D01*
G01Y1649549D02*
G03Y1641974I4844J-3787D01*
G01Y1649549D02*
G03Y1651974I-1551J1213D01*
G01Y1659549D02*
G03Y1651974I4844J-3787D01*
G01Y1659549D02*
G03Y1661974I-1551J1213D01*
G01Y1669549D02*
G03Y1661974I4844J-3787D01*
G01X2089534Y1682841D02*
G03X2087574Y1684987I-1960J178D01*
G01X2086583*
G03X2085701Y1681259I0J-1968*
G01X2086432Y1680826D02*
G03X2085701Y1681259I-3488J-5064D01*
G01X2086432Y1680826D02*
G03X2089517Y1682448I1117J1622D01*
G01Y1682468*
X2089534Y1682841D02*
G03X2089517Y1682468I4117J-373D01*
G01X2078100Y1619549D02*
G03Y1621974I-1551J1213D01*
G01X2077176Y1627894D02*
G03X2078100Y1621974I5768J-2132D01*
G01X2077176Y1627894D02*
G03X2074382Y1630302I-1846J683D01*
G01X2066289Y1639081D02*
G03X2074382Y1630302I5130J-3390D01*
G01X2066289Y1639081D02*
G03X2066034Y1641563I-1643J1085D01*
G01X2064251Y1645291D02*
G03X2066034Y1641563I6117J635D01*
G01X2064251Y1645291D02*
G03X2060901Y1646480I-1958J-203D01*
G01X2057337Y1642916*
G03X2056761Y1641524I1392J-1392*
G01Y1628240*
G03X2057527Y1626682I1968J0*
G01X2059060Y1624615D02*
G03X2057527Y1626682I-4418J-1674D01*
G01X2059060Y1624615D02*
G03X2059508Y1623920I1840J697D01*
G01X2070557Y1612872*
G03X2071820Y1612300I1391J1392*
G01X2074277Y1611608D02*
G03X2071820Y1612300I-2858J-5445D01*
G01X2074277Y1611608D02*
G03X2077072Y1613936I915J1743D01*
G01X2078100Y1619549D02*
G03X2077072Y1613936I4844J-3787D01*
G01X2074443Y1650531D02*
G03X2077493Y1652916I1305J1474D01*
G01X2077014Y1657390D02*
G03X2077493Y1652916I5930J-1628D01*
G01X2077014Y1657390D02*
G03X2073724Y1659303I-1898J521D01*
G01X2069813Y1655392*
G03X2071002Y1652042I1392J-1392*
G01X2074443Y1650531D02*
G03X2071002Y1652042I-4075J-4605D01*
G01X2080188Y1681259D02*
G03X2079306Y1684987I-882J1760D01*
G01X2073312*
G03X2072598Y1681184I0J-1968*
G01X2075036Y1679456D02*
G03X2072598Y1681184I-4668J-4003D01*
G01X2075036Y1679456D02*
G03X2078085Y1679531I1494J1282D01*
G01X2080188Y1681259D02*
G03X2078085Y1679531I2756J-5497D01*
G01X2067253Y1667309D02*
G03X2066954Y1670338I-1392J1392D01*
G01X2064862Y1672713D02*
G03X2066954Y1670338I5506J2740D01*
G01X2064862Y1672713D02*
G03X2061335Y1672708I-1762J-877D01*
G01X2060755Y1671773D02*
G03X2061335Y1672708I-4538J3464D01*
G01X2060755Y1671773D02*
G03X2060351Y1670578I1564J-1195D01*
G01Y1669856*
X2059140Y1666933D02*
G03X2060351Y1669856I-2923J2923D01*
G01X2059140Y1666933D02*
X2057337Y1665130D01*
G03X2056761Y1663738I1392J-1392*
G01Y1661569*
G03X2060121Y1660177I1968J-0*
G01X2067253Y1667309*
X2068078Y1681161D02*
G03X2066841Y1684890I-733J1827D01*
G01X2064185Y1684780D02*
G03X2066841Y1684890I1078J6054D01*
G01X2064185Y1684780D02*
G03X2061885Y1682608I-345J-1938D01*
G01X2061926Y1681929D02*
G03X2061885Y1682608I-5709J0D01*
G01X2061926Y1681929D02*
Y1680352D01*
G03X2065464Y1679164I1968J0*
G01X2068078Y1681161D02*
G03X2065464Y1679164I2290J-5708D01*
G01X2055123Y1522442D02*
Y1523502D01*
G03X2053155Y1525470I-1968J-0*
G01X2014416*
G03X2012448Y1523450I-0J-1968*
G01X2011358Y1520306D02*
G03X2012448Y1523450I-3633J3021D01*
G01X2011358Y1520306D02*
G03X2012871Y1517079I1513J-1259D01*
G01X2017734*
G03X2018741Y1517356I0J1968*
G01X2017183Y1508110D02*
G03X2018741Y1517356I4704J3962D01*
G01X2017183Y1508110D02*
G03X2015678Y1508811I-1505J-1268D01*
G01X2007080*
G03X2005626Y1508169I0J-1969*
G01X1995155D02*
G03X2005626I5235J4776D01*
G01X1995155D02*
G03X1993700Y1508811I-1455J-1327D01*
G01X1983458*
G03X1982004Y1508169I0J-1969*
G01X1972946Y1506977D02*
G03X1982004Y1508169I3822J5968D01*
G01X1972946Y1506977D02*
G03X1971885Y1507288I-1061J-1658D01*
G01X1963303*
G03X1962005Y1506799I0J-1969*
G01X1959109Y1505382D02*
G03X1962005Y1506799I-1160J6040D01*
G01X1959109Y1505382D02*
G03X1958088Y1502057I371J-1933D01*
G01X1959140Y1501005*
X1960340Y1498388D02*
G03X1959140Y1501005I-4123J-306D01*
G01X1960340Y1498388D02*
G03X1963306Y1496840I1963J146D01*
G01X1969935Y1496261D02*
G03X1963306Y1496840I-3718J-4332D01*
G01X1969935Y1496261D02*
G03X1972499I1282J1494D01*
G01X1979935D02*
G03X1972499I-3718J-4332D01*
G01X1979935D02*
G03X1982499I1282J1494D01*
G01X1991926Y1491929D02*
G03X1982499Y1496261I-5709J0D01*
G01X1991926Y1491929D02*
Y1485237D01*
X1991436Y1482923D02*
G03X1991926Y1485237I-5219J2314D01*
G01X1991436Y1482923D02*
G03X1993235Y1480157I1799J-798D01*
G01X1999120*
G03X2000919Y1482923I-0J1968*
G01X2000430Y1485237D02*
G03X2000919Y1482923I5708J-0D01*
G01X2000430Y1485237D02*
Y1491929D01*
X2001482Y1495232D02*
G03X2000430Y1491929I4656J-3303D01*
G01X2001482Y1495232D02*
G03X2001845Y1496371I-1605J1139D01*
G01Y1496997*
X2002918Y1499775D02*
G03X2001845Y1496997I3061J-2778D01*
G01X2002918Y1499775D02*
G03X2003303Y1500406I-1458J1323D01*
G01X2012426Y1499210D02*
G03X2003303Y1500406I-4701J-467D01*
G01X2012426Y1499210D02*
G03X2014835Y1497487I1959J194D01*
G01X2019856Y1496261D02*
G03X2014835Y1497487I-3718J-4332D01*
G01X2019856Y1496261D02*
G03X2022420I1282J1494D01*
G01X2029856D02*
G03X2022420I-3718J-4332D01*
G01X2029856D02*
G03X2032420I1282J1494D01*
G01X2039690Y1496399D02*
G03X2032420Y1496261I-3552J-4470D01*
G01X2039690Y1496399D02*
G03X2042603Y1496928I1224J1541D01*
G01X2043226Y1497726D02*
G03X2042603Y1496928I2923J-2923D01*
G01X2043226Y1497726D02*
X2046912Y1501413D01*
X2048988Y1502536D02*
G03X2046912Y1501413I847J-4046D01*
G01X2048988Y1502536D02*
G03X2049271Y1506308I-403J1927D01*
G01X2051014Y1518208D02*
G03X2049271Y1506308I401J-6136D01*
G01X2051014Y1518208D02*
G03X2052277Y1518781I-128J1964D01*
G01X2054547Y1521050*
G03X2055123Y1522442I-1392J1392*
G01X1998921Y1519877D02*
G03Y1523729I-409J1926D01*
G01X1996051Y1525058D02*
G03X1998921Y1523729I4339J5603D01*
G01X1996051Y1525058D02*
G03X1994846Y1525470I-1205J-1556D01*
G01X1982312*
G03X1981107Y1525058I0J-1968*
G01X1978238Y1523729D02*
G03X1981107Y1525058I-1470J6932D01*
G01X1978238Y1523729D02*
G03X1976768Y1522393I408J-1926D01*
X1975299Y1523729I-1878J-590*
G01X1972429Y1525058D02*
G03X1975299Y1523729I4339J5603D01*
G01X1972429Y1525058D02*
G03X1971224Y1525470I-1205J-1556D01*
G01X1943606*
G03X1941637Y1523502I-0J-1968*
G01Y1507281*
G03X1943606Y1505312I1969J-0*
G01X1950967*
G03X1952660Y1508285I-0J1969*
G01X1962005Y1516044D02*
G03X1952660Y1508285I-4056J-4622D01*
G01X1962005Y1516044D02*
G03X1963303Y1515556I1298J1480D01*
G01X1968956*
G03X1970655Y1516529I0J1968*
G01X1975299Y1519877D02*
G03X1970655Y1516529I1469J-6932D01*
G01X1975299Y1519877D02*
G03X1976768Y1521213I-409J1926D01*
X1978238Y1519877I1878J590*
G01X1982004Y1517721D02*
G03X1978238Y1519877I-5236J-4776D01*
G01X1982004Y1517721D02*
G03X1983458Y1517079I1454J1326D01*
G01X1993700*
G03X1995155Y1517721I0J1968*
G01X1998921Y1519877D02*
G03X1995155Y1517721I1469J-6932D01*
G01X2074040Y1511420D02*
Y1525110D01*
G03X2071638Y1527030I-1969J-0*
G01X2066554Y1528139D02*
G03X2071638Y1527030I3730J4890D01*
G01X2066554Y1528139D02*
G03X2063391Y1526574I-1194J-1565D01*
G01Y1519914*
X2062180Y1516991D02*
G03X2063391Y1519914I-2923J2923D01*
G01X2062180Y1516991D02*
X2058124Y1512934D01*
G03X2057551Y1511671I1392J-1392*
G01X2053805Y1506406D02*
G03X2057551Y1511671I-2390J5666D01*
G01X2053805Y1506406D02*
G03X2054570Y1502623I765J-1814D01*
G01X2062239*
G03X2064190Y1504327I0J1969*
G01X2071638Y1509500D02*
G03X2064190Y1504327I-1354J-5999D01*
G01X2071638Y1509500D02*
G03X2074040Y1511420I433J1920D01*
G01X2088383Y1597469D02*
G03X2086240Y1599626I-1958J197D01*
G01X2085944Y1599612D02*
G03X2086240Y1599626I0J3150D01*
G01X2085944Y1599612D02*
X2079944D01*
X2077530Y1600739D02*
G03X2079944Y1599612I2414J2023D01*
G01X2077530Y1600739D02*
G03X2074905Y1601097I-1509J-1264D01*
G01X2065283Y1605762D02*
G03X2074905Y1601097I6136J401D01*
G01X2065283Y1605762D02*
G03X2064710Y1607026I-1965J-128D01*
G01X2060121Y1611615*
G03X2056761Y1610223I-1392J-1392*
G01Y1584334*
G03X2057337Y1582942I1968J0*
G01X2060167Y1580113*
X2065801Y1574479*
G03X2067193Y1573902I1392J1392*
G01X2084779*
G03X2086651Y1576482I0J1969*
G01X2087874Y1582447D02*
G03X2086651Y1576482I4622J-4056D01*
G01X2087874Y1582447D02*
G03X2088362Y1583745I-1480J1298D01*
G01Y1597054*
X2088383Y1597469D02*
G03X2088362Y1597054I4113J-415D01*
G54D42*
G01X1817776Y1730309D02*
X1818513D01*
X1807559Y1446613D02*
Y1753387D01*
X2192441*
Y1446613*
X1807559*
G54D43*
X1966217Y1488583D02*
X1976217D01*
Y1497390*
X1982328Y1503501*
X2068822*
Y1507161*
X2063024Y1512959*
Y1538717*
X2066829Y1542522*
X2094375*
X2105274Y1553420*
Y1561495*
X1981801Y1474403D02*
X1976614Y1479590D01*
Y1488186*
X1976217Y1488583*
X1981801Y1474403D02*
X1921022D01*
X1888053Y1507373*
Y1533347*
X2070284Y1503501D02*
X2068822D01*
Y1507161*
X2063024Y1512959*
Y1538717*
X2066829Y1542522*
X2094375*
X2105274Y1553420*
Y1561495*
X2087328Y1474700D02*
Y1511419D01*
X2088372*
X2092503Y1515550*
X2113572Y1502133D02*
X2152285D01*
X2157922Y1507770*
X2170717Y1488873D02*
X2157922Y1507770D01*
X2146111Y1488873D02*
X2146812Y1489574D01*
X2112479*
X1864431Y1533347D02*
X1840137Y1557640D01*
X1855919Y1573422*
Y1597687*
X1874625Y1616393*
X1883182*
X1864431Y1533347D02*
X1840137Y1557640D01*
X1821024*
X1864431Y1533347D02*
X1888053D01*
X2093922Y1528016D02*
X2094375Y1528470D01*
Y1542522*
X2105274Y1553420*
Y1561495*
X2092503Y1515550D02*
Y1524675D01*
X2093922Y1526095*
Y1528016*
X1817776Y1550404D02*
Y1554392D01*
X1821024Y1557640*
X2124536Y1561495D02*
X2105274D01*
X2138572Y1596587D02*
X2152638D01*
X2071419Y1635691D02*
X2071490Y1635762D01*
X2082944*
X2112944D02*
Y1636215D01*
X1910233Y1678583D02*
Y1686988D01*
X1888907Y1708314*
X1889445Y1708853*
Y1710276*
X1910233Y1678583D02*
Y1686988D01*
X1929445Y1706200*
Y1710276*
Y1719170*
X1932632Y1722358*
X2039445Y1710276D02*
Y1717351D01*
X2034439Y1722358*
X1932632*
G54D45*
X1817776Y1500684D02*
X1811221Y1507238D01*
Y1543815*
X1815314Y1547908*
Y1547942*
X1817776Y1550404*
X1956217Y1488583D02*
Y1498082D01*
X1953121Y1501178*
X1921849*
X1904472Y1518556*
Y1543373*
X2006138Y1488583D02*
X2005979Y1488742D01*
Y1496997*
X2007725Y1498743*
X2011329Y1474403D02*
X2016138Y1479212D01*
Y1488583*
X2046138D02*
X2046149Y1488593D01*
Y1494803*
X2049835Y1498490*
X2073871*
X2078174Y1502792*
Y1530038*
X2057801Y1474700D02*
X2031603D01*
X2026138Y1480165*
Y1488583*
X2092794Y1489574D02*
Y1490113D01*
X2092213Y1490694*
X2093887Y1492368*
Y1502133*
X1930901Y1533347D02*
X1921646Y1542602D01*
X1928422Y1511422D02*
Y1532389D01*
X1929943*
X1930901Y1533347*
X1954523*
X1957949Y1511422D02*
X1975245D01*
X1976768Y1512945*
X2007725Y1523327D02*
X2000390Y1530661D01*
X2020792Y1551063*
X2022752*
X1976768Y1512945D02*
X2000390D01*
X1976768Y1530661D02*
Y1538670D01*
X1968613Y1546825*
Y1569401*
X1970728Y1571516*
X1976768*
X2000390Y1530661D02*
X1976768D01*
X1974925*
X1954523Y1551063*
X2046374Y1533347D02*
X2022752D01*
X2051415Y1512072D02*
X2059257Y1519914D01*
Y1542312*
X2065809Y1548863*
X2092496*
X2021887Y1512072D02*
X2021014Y1512945D01*
X2000390*
X1847590Y1559059D02*
X1873613D01*
X1961898Y1647344*
X2013837*
X2036217Y1669724*
Y1678583*
X1858472Y1563465D02*
X1870218D01*
X1959742Y1652990*
X2009146*
X2026217Y1670061*
Y1678583*
X1878449Y1556227D02*
X1964316Y1642094D01*
X2017451*
X2046217Y1670860*
Y1678583*
X1930901Y1551063D02*
X1888053D01*
X1864431*
X1921646Y1557992D02*
X1922886D01*
X1928147Y1563253*
X1930901Y1551063D02*
X1954523D01*
X2000390Y1571516D02*
X1976768D01*
Y1553799D02*
X2000390D01*
X2046374Y1551063D02*
X2022752D01*
X2124536Y1569495D02*
Y1584012D01*
X2112944Y1595604*
Y1605762*
X2092496Y1578391D02*
Y1597054D01*
X2101204Y1605762*
X2112944*
X1848033Y1622128D02*
X1890075D01*
X1895837Y1627890*
Y1636679*
X1848033Y1622128D02*
X1823517Y1646645D01*
Y1669864*
X1853655Y1616393D02*
X1835666D01*
X1817499Y1634561*
Y1676188*
X1821175Y1679864*
X1823517*
X1904472Y1617540D02*
X1931971Y1645039D01*
X1895837Y1607151D02*
X1890778D01*
X1888370Y1609560*
X1877391*
X1951426Y1620534D02*
X1968003Y1637111D01*
X2023473*
X2056217Y1669856*
Y1678583*
X2082944Y1605762D02*
X2082543Y1606163D01*
X2071419*
X2054642Y1622941*
X2145446Y1608135D02*
X2174213D01*
X2179692Y1613614*
Y1630893*
X2174845Y1635740*
X2145446Y1608135D02*
X2138494Y1615087D01*
Y1625087D02*
Y1635087D01*
X2168494Y1625087D02*
X2162267Y1631314D01*
X2161781*
Y1681888*
X2156513Y1687156*
X2129751*
X2179542Y1600870D02*
X2142521D01*
X2137629Y1605762*
X2179542Y1600870D02*
X2189340Y1610668D01*
Y1688507*
X2178684Y1699163*
X2153561*
X2147400Y1705324*
X2136769*
X1873506Y1634162D02*
X1864372Y1643295D01*
X1855948Y1638595D02*
X1848309Y1646235D01*
Y1653317*
X1853549Y1658557*
X1855906*
X1856080Y1658731*
X1885948Y1638595D02*
X1893587Y1646235D01*
Y1658731*
X1893821*
X1902494Y1667404*
X1907470*
X1910233Y1670167*
Y1678583*
X1885948Y1638595D02*
X1893587Y1646235D01*
Y1658731*
X1886080*
X1885948Y1628595D02*
X1869011Y1645532D01*
Y1674593*
X1860847Y1682758*
Y1690775*
X1895837Y1636679D02*
X1895871Y1636713D01*
Y1640165*
X1900001Y1644295*
X1912642*
X1922642D02*
Y1650891D01*
X1933246Y1661495*
X1937529*
X1908002D02*
X1914586D01*
X1920233Y1667142*
Y1678583*
X1932642Y1644295D02*
X1931971Y1644965D01*
Y1645039*
X2008265Y1661701D02*
X2006217Y1663749D01*
Y1678583*
X2082944Y1665762D02*
X2090000D01*
X2093651Y1669412*
Y1682468*
X2101784Y1690601*
X2112944Y1665762D02*
X2119847D01*
X2125747Y1671662*
Y1683152*
X2129751Y1687156*
X2138494Y1655087D02*
Y1665087D01*
X2168494Y1645087D02*
Y1635087D01*
X2174193*
X2174845Y1635740*
X2168494Y1655087D02*
X2169847D01*
X2177752Y1662992*
Y1680328*
X2167478Y1690601*
X2101784*
X2168494Y1665087D02*
Y1675087D01*
X1832850Y1685282D02*
Y1690440D01*
X1838583Y1696172*
Y1710808*
X1829802Y1719589*
Y1726156*
X1825650Y1730309*
X1821713Y1698813D02*
X1829587D01*
X1855004Y1698764D02*
X1881728D01*
X1885578Y1702614*
Y1706408*
X1889445Y1710276*
X1855004Y1698764D02*
X1845264Y1708504D01*
X1879728Y1704951D02*
Y1720804D01*
X1884614Y1725690*
X1899445*
X1903476Y1729720*
X1890374Y1690775D02*
X1898721D01*
X1930233Y1678583D02*
Y1685924D01*
X1925382Y1690775*
X1970233Y1678583D02*
Y1689778D01*
X1976877Y1696422*
X1995422*
X1999445Y1700446*
Y1710276*
X1960233Y1678583D02*
Y1688966D01*
X1962788Y1691522*
X1940233Y1678583D02*
Y1689712D01*
X1950391Y1699871*
X1986571*
X1989445Y1702745*
Y1710276*
X1986217Y1678583D02*
Y1688289D01*
X1990795Y1692866*
X2000254*
X2009445Y1702058*
Y1710276*
X2016217Y1678583D02*
Y1679247D01*
X2015730Y1679734*
Y1695078*
X2019445Y1698793*
Y1710276*
X2035709Y1700708D02*
X2029445Y1706972D01*
Y1710276*
X2081813Y1705341D02*
X2087618Y1711146D01*
X2087896*
X2090054Y1713304*
X2101648*
X2065263Y1690834D02*
X2069384Y1694955D01*
X2119460*
X2126572Y1702067*
Y1705128*
X2126769Y1705324*
X2110952Y1699507D02*
X2065237D01*
Y1700708*
X2110952Y1699507D02*
X2116769Y1705324D01*
X2099399Y1677881D02*
X2106942Y1685424D01*
X2118726Y1683181D02*
X2116484Y1685424D01*
X2106942*
X2136769Y1705324D02*
X2136671Y1705421D01*
Y1708895*
X2132262Y1713304*
X2101648*
Y1719180*
X2136769Y1705324D02*
X2136671Y1705421D01*
Y1708895*
X2132262Y1713304*
X2101648*
X1818513Y1730309D02*
X1825650D01*
X1909445Y1710276D02*
Y1721482D01*
X1913780Y1725816*
X2038363*
X1899445Y1710276D02*
Y1725690D01*
X1903476Y1729720*
X2067145Y1714959D02*
X2049221D01*
X2038363Y1725816*
X2067145Y1714959D02*
X2070496Y1718310D01*
X2078687*
X2086193Y1725816*
X2090865*
X2052867Y1719050D02*
X2066353D01*
X2069621Y1722318*
X2075305*
X2077152Y1724166*
X2052867Y1719050D02*
X2042197Y1729720D01*
X1903476*
X2091655Y1725026D02*
X2090865Y1725816D01*
G54D84*
G54D87*
X2071419Y1606163D03*
Y1635691D03*
X2011329Y1474403D03*
X1981801D03*
X2070368Y1675453D03*
Y1645926D03*
X1908002Y1661495D03*
X1937529D03*
X1853655Y1616393D03*
X1883182D03*
X1890374Y1690775D03*
X1860847D03*
X2112479Y1489574D03*
X2092794D03*
X2093887Y1502133D03*
X2113572D03*
X2112188Y1515550D03*
X2092503D03*
X2093922Y1528016D03*
X2113607D03*
X2057801Y1474700D03*
X2087328D03*
X2092496Y1548863D03*
Y1578391D03*
X2021887Y1512072D03*
X2051415D03*
X1928422Y1511422D03*
X1957949D03*
X1957674Y1563253D03*
X1928147D03*
X2070284Y1503501D03*
Y1533029D03*
X2035709Y1700708D03*
X2065237D03*
X2065263Y1690834D03*
X2035736D03*
X1823517Y1669864D03*
Y1679864D03*
X2082944Y1615762D03*
Y1625762D03*
Y1635762D03*
Y1645762D03*
Y1655762D03*
Y1665762D03*
Y1675762D03*
X2112944D03*
Y1665762D03*
Y1655762D03*
Y1645762D03*
Y1635762D03*
Y1625762D03*
Y1615762D03*
Y1605762D03*
X2124536Y1569495D03*
Y1561495D03*
X2105274Y1569495D03*
Y1561495D03*
X1922642Y1644295D03*
X1932642D03*
X2126769Y1705324D03*
X2136769D03*
X2168494Y1665087D03*
Y1655087D03*
Y1645087D03*
Y1635087D03*
Y1625087D03*
Y1615087D03*
X2138494D03*
Y1625087D03*
Y1635087D03*
Y1645087D03*
Y1655087D03*
Y1665087D03*
Y1675087D03*
X1895837Y1636679D03*
Y1607151D03*
G54D101*
X1867595Y1588268D03*
X2162831Y1710394D03*
Y1588268D03*
X1867516Y1710276D03*
X2137674Y1739174D03*
X1861412D03*
Y1460719D03*
X2137674D03*
G54D102*
X1817776Y1574026D03*
X1829587Y1542530D03*
X1825650Y1550404D03*
X1837461Y1566152D03*
X1821713D03*
X1817776Y1730309D03*
X1829587Y1698813D03*
X1825650Y1706687D03*
X1837461Y1722435D03*
X1821713D03*
X1817776Y1524306D03*
X1829587Y1492810D03*
X1825650Y1500684D03*
X1837461Y1516432D03*
X1821713D03*
G54D103*
X1900233Y1675237D02*
Y1681929D01*
X1910233Y1675237D02*
Y1681929D01*
X1920233Y1675237D02*
Y1681929D01*
X1930233Y1675237D02*
Y1681929D01*
X1940233Y1675237D02*
Y1681929D01*
X1950233Y1675237D02*
Y1681929D01*
X1960233Y1675237D02*
Y1681929D01*
X1970233Y1675237D02*
Y1681929D01*
X1986217Y1675237D02*
Y1681929D01*
X1996217Y1675237D02*
Y1681929D01*
X2006217Y1675237D02*
Y1681929D01*
X2016217Y1675237D02*
Y1681929D01*
X2026217Y1675237D02*
Y1681929D01*
X2036217Y1675237D02*
Y1681929D01*
X2046217Y1675237D02*
Y1681929D01*
X2056217Y1675237D02*
Y1681929D01*
X2006138Y1485237D02*
Y1491929D01*
X2016138Y1485237D02*
Y1491929D01*
X2026138Y1485237D02*
Y1491929D01*
X2036138Y1485237D02*
Y1491929D01*
X2046138Y1485237D02*
Y1491929D01*
X2056138Y1485237D02*
Y1491929D01*
X1936217Y1485237D02*
Y1491929D01*
X1946217Y1485237D02*
Y1491929D01*
X1956217Y1485237D02*
Y1491929D01*
X1966217Y1485237D02*
Y1491929D01*
X1976217Y1485237D02*
Y1491929D01*
X1986217Y1485237D02*
Y1491929D01*
X1889445Y1706929D02*
Y1713622D01*
X1899445Y1706929D02*
Y1713622D01*
X1909445Y1706929D02*
Y1713622D01*
X1919445Y1706929D02*
Y1713622D01*
X1929445Y1706929D02*
Y1713622D01*
X1939445Y1706929D02*
Y1713622D01*
X1949445Y1706929D02*
Y1713622D01*
X1959445Y1706929D02*
Y1713622D01*
X1969445Y1706929D02*
Y1713622D01*
X1979445Y1706929D02*
Y1713622D01*
X1989445Y1706929D02*
Y1713622D01*
X1999445Y1706929D02*
Y1713622D01*
X2009445Y1706929D02*
Y1713622D01*
X2019445Y1706929D02*
Y1713622D01*
X2029445Y1706929D02*
Y1713622D01*
X2039445Y1706929D02*
Y1713622D01*
G54D104*
X2082944Y1605762D03*
X1912642Y1644295D03*
X2116769Y1705324D03*
X2168494Y1675087D03*
G54D105*
X2146111Y1488873D03*
Y1542530D03*
G54D106*
X2170717Y1488873D03*
X2157922Y1507770D03*
X2170717Y1542530D03*
X2157922Y1561427D03*
G54D107*
X2007725Y1498743D03*
X1921646Y1542602D03*
X1904472Y1543373D03*
X2007725Y1523327D03*
X1986217Y1536671D03*
X2078174Y1530038D03*
X1847590Y1559059D03*
X1858472Y1563465D03*
X1878449Y1556227D03*
X1921646Y1557992D03*
X1877391Y1609560D03*
X1904472Y1617540D03*
X1951426Y1620534D03*
X2054642Y1622941D03*
X2152638Y1596587D03*
X2138572D03*
X2137629Y1605762D03*
X1873506Y1634162D03*
X1864372Y1643295D03*
X2008265Y1661701D03*
X1832850Y1685282D03*
X1879728Y1704951D03*
X1925382Y1690775D03*
X1898721D03*
X1962788Y1691522D03*
X2099399Y1677881D03*
X2118726Y1683181D03*
X1845264Y1708504D03*
X2077152Y1724166D03*
X2101648Y1719180D03*
G54D115*
X1976768Y1571516D03*
Y1553799D03*
X2000390D03*
Y1571516D03*
X1976768Y1530661D03*
Y1512945D03*
X2000390D03*
Y1530661D03*
X1930901Y1551063D03*
Y1533347D03*
X1954523D03*
Y1551063D03*
X2022752D03*
Y1533347D03*
X2046374D03*
Y1551063D03*
X1864431D03*
Y1533347D03*
X1888053D03*
Y1551063D03*
X2101498Y1705341D03*
X2091655Y1725026D03*
X2081813Y1705341D03*
G74*
X0Y0D02*
M02*
