*
*
G04 PADS Layout (Build Number 2007.42.1) generated Gerber (RS-274-X) file*
G04 PC Version=2.1*
*
%IN "board.pcb"*%
*
%MOIN*%
*
%FSLAX35Y35*%
*
*
*
*
G04 PC Standard Apertures*
*
*
G04 Thermal Relief Aperture macro.*
%AMTER*
1,1,$1,0,0*
1,0,$1-$2,0,0*
21,0,$3,$4,0,0,45*
21,0,$3,$4,0,0,135*
%
*
*
G04 Annular Aperture macro.*
%AMANN*
1,1,$1,0,0*
1,0,$2,0,0*
%
*
*
G04 Odd Aperture macro.*
%AMODD*
1,1,$1,0,0*
1,0,$1-0.005,0,0*
%
*
*
G04 PC Custom Aperture Macros*
*
*
*
*
*
*
G04 PC Aperture Table*
*
%ADD010C,0.01*%
%ADD042C,0.00787*%
*
*
*
*
G04 PC Copper Outlines (0)*
G04 Layer Name board.pcb - dark (0)*
%LPD*%
*
*
G04 PC Area=Custom_Thermal*
*
G04 PC Custom Flashes*
G04 Layer Name board.pcb - flashes*
%LPD*%
*
*
G04 PC Circuitry*
G04 Layer Name board.pcb - circuitry*
%LPD*%
*
G54D10*
G01X1782169Y1534032D02*
X1786169Y1538032D01*
X1782169Y1542032*
X1778169Y1538032*
X1782169Y1534032*
Y1538032D02*
Y1542032D01*
X1784138Y1534032D02*
X1788138Y1538032D01*
X1784138Y1542032*
X1780138Y1538032*
X1784138Y1534032*
Y1538032D02*
Y1542032D01*
X1782169Y1539213D02*
G75*
G03Y1536851I0J-1181D01*
G01X1784138*
G03Y1539213I-0J1181*
G01X1782169*
X1790043Y1557654D02*
X1794043Y1561654D01*
X1790043Y1565654*
X1786043Y1561654*
X1790043Y1557654*
Y1561654D02*
Y1565654D01*
X1792012Y1557654D02*
X1796012Y1561654D01*
X1792012Y1565654*
X1788012Y1561654*
X1792012Y1557654*
Y1561654D02*
Y1565654D01*
X1790043Y1562835D02*
G03Y1560473I0J-1181D01*
G01X1792012*
G03Y1562835I-0J1181*
G01X1790043*
X1786106Y1526158D02*
X1790106Y1530158D01*
X1786106Y1534158*
X1782106Y1530158*
X1786106Y1526158*
Y1530158D02*
Y1534158D01*
X1788075Y1526158D02*
X1792075Y1530158D01*
X1788075Y1534158*
X1784075Y1530158*
X1788075Y1526158*
Y1530158D02*
Y1534158D01*
X1786106Y1531339D02*
G03Y1528977I0J-1181D01*
G01X1788075*
G03Y1531339I-0J1181*
G01X1786106*
X1782169Y1690315D02*
X1786169Y1694315D01*
X1782169Y1698315*
X1778169Y1694315*
X1782169Y1690315*
Y1694315D02*
Y1698315D01*
X1784138Y1690315D02*
X1788138Y1694315D01*
X1784138Y1698315*
X1780138Y1694315*
X1784138Y1690315*
Y1694315D02*
Y1698315D01*
X1782169Y1695496D02*
G03Y1693134I0J-1181D01*
G01X1784138*
G03Y1695496I-0J1181*
G01X1782169*
X1790043Y1713937D02*
X1794043Y1717937D01*
X1790043Y1721937*
X1786043Y1717937*
X1790043Y1713937*
Y1717937D02*
Y1721937D01*
X1792012Y1713937D02*
X1796012Y1717937D01*
X1792012Y1721937*
X1788012Y1717937*
X1792012Y1713937*
Y1717937D02*
Y1721937D01*
X1790043Y1719118D02*
G03Y1716756I0J-1181D01*
G01X1792012*
G03Y1719118I-0J1181*
G01X1790043*
X1786106Y1682441D02*
X1790106Y1686441D01*
X1786106Y1690441*
X1782106Y1686441*
X1786106Y1682441*
Y1686441D02*
Y1690441D01*
X1788075Y1682441D02*
X1792075Y1686441D01*
X1788075Y1690441*
X1784075Y1686441*
X1788075Y1682441*
Y1686441D02*
Y1690441D01*
X1786106Y1687622D02*
G03Y1685260I0J-1181D01*
G01X1788075*
G03Y1687622I-0J1181*
G01X1786106*
X1782169Y1484312D02*
X1786169Y1488312D01*
X1782169Y1492312*
X1778169Y1488312*
X1782169Y1484312*
Y1488312D02*
Y1492312D01*
X1784138Y1484312D02*
X1788138Y1488312D01*
X1784138Y1492312*
X1780138Y1488312*
X1784138Y1484312*
Y1488312D02*
Y1492312D01*
X1782169Y1489493D02*
G03Y1487131I0J-1181D01*
G01X1784138*
G03Y1489493I-0J1181*
G01X1782169*
X1790043Y1507934D02*
X1794043Y1511934D01*
X1790043Y1515934*
X1786043Y1511934*
X1790043Y1507934*
Y1511934D02*
Y1515934D01*
X1792012Y1507934D02*
X1796012Y1511934D01*
X1792012Y1515934*
X1788012Y1511934*
X1792012Y1507934*
Y1511934D02*
Y1515934D01*
X1790043Y1513115D02*
G03Y1510753I0J-1181D01*
G01X1792012*
G03Y1513115I-0J1181*
G01X1790043*
X1786106Y1476438D02*
X1790106Y1480438D01*
X1786106Y1484438*
X1782106Y1480438*
X1786106Y1476438*
Y1480438D02*
Y1484438D01*
X1788075Y1476438D02*
X1792075Y1480438D01*
X1788075Y1484438*
X1784075Y1480438*
X1788075Y1476438*
Y1480438D02*
Y1484438D01*
X1786106Y1481619D02*
G03Y1479257I0J-1181D01*
G01X1788075*
G03Y1481619I-0J1181*
G01X1786106*
X2032797Y1593791D02*
X2040797D01*
X2036797Y1589791D02*
Y1597791D01*
X2032797Y1623319D02*
X2040797D01*
X2036797Y1619319D02*
Y1627319D01*
X1972707Y1462031D02*
X1980707D01*
X1976707Y1458031D02*
Y1466031D01*
X1943179Y1462031D02*
X1951179D01*
X1947179Y1458031D02*
Y1466031D01*
X2031745Y1663081D02*
X2039745D01*
X2035745Y1659081D02*
Y1667081D01*
X2031745Y1633554D02*
X2039745D01*
X2035745Y1629554D02*
Y1637554D01*
X1869379Y1649123D02*
X1877379D01*
X1873379Y1645123D02*
Y1653123D01*
X1898907Y1649123D02*
X1906907D01*
X1902907Y1645123D02*
Y1653123D01*
X1815032Y1604021D02*
X1823032D01*
X1819032Y1600021D02*
Y1608021D01*
X1844560Y1604021D02*
X1852560D01*
X1848560Y1600021D02*
Y1608021D01*
X1851752Y1678403D02*
X1859752D01*
X1855752Y1674403D02*
Y1682403D01*
X1822224Y1678403D02*
X1830224D01*
X1826224Y1674403D02*
Y1682403D01*
X2073857Y1473202D02*
X2081857Y1481202D01*
X2073857D02*
X2081857Y1473202D01*
X2054172D02*
X2062172Y1481202D01*
X2054172D02*
X2062172Y1473202D01*
X2055265Y1485761D02*
X2063265Y1493761D01*
X2055265D02*
X2063265Y1485761D01*
X2074950D02*
X2082950Y1493761D01*
X2074950D02*
X2082950Y1485761D01*
X2073565Y1499178D02*
X2081565Y1507178D01*
X2073565D02*
X2081565Y1499178D01*
X2053880D02*
X2061880Y1507178D01*
X2053880D02*
X2061880Y1499178D01*
X2055300Y1511644D02*
X2063300Y1519644D01*
X2055300D02*
X2063300Y1511644D01*
X2074985D02*
X2082985Y1519644D01*
X2074985D02*
X2082985Y1511644D01*
X2019178Y1462329D02*
X2027178D01*
X2023178Y1458329D02*
Y1466329D01*
X2048706Y1462329D02*
X2056706D01*
X2052706Y1458329D02*
Y1466329D01*
X2053874Y1536492D02*
X2061874D01*
X2057874Y1532492D02*
Y1540492D01*
X2053874Y1566019D02*
X2061874D01*
X2057874Y1562019D02*
Y1570019D01*
X1983265Y1499700D02*
X1991265D01*
X1987265Y1495700D02*
Y1503700D01*
X2012793Y1499700D02*
X2020793D01*
X2016793Y1495700D02*
Y1503700D01*
X1889799Y1499050D02*
X1897799D01*
X1893799Y1495050D02*
Y1503050D01*
X1919327Y1499050D02*
X1927327D01*
X1923327Y1495050D02*
Y1503050D01*
X1919052Y1550881D02*
X1927052D01*
X1923052Y1546881D02*
Y1554881D01*
X1889525Y1550881D02*
X1897525D01*
X1893525Y1546881D02*
Y1554881D01*
X2031661Y1491129D02*
X2039661D01*
X2035661Y1487129D02*
Y1495129D01*
X2031661Y1520657D02*
X2039661D01*
X2035661Y1516657D02*
Y1524657D01*
X1997087Y1688337D02*
X2005087D01*
X2001087Y1684337D02*
Y1692337D01*
X2026615Y1688337D02*
X2034615D01*
X2030615Y1684337D02*
Y1692337D01*
X2026641Y1678463D02*
X2034641D01*
X2030641Y1674463D02*
Y1682463D01*
X1997113Y1678463D02*
X2005113D01*
X2001113Y1674463D02*
Y1682463D01*
X1828973Y1571896D02*
X1836973D01*
Y1579896*
X1828973*
Y1571896*
X1832973Y1575896D02*
Y1579896D01*
X2124209Y1694022D02*
X2132209D01*
Y1702022*
X2124209*
Y1694022*
X2128209Y1698022D02*
Y1702022D01*
X2124209Y1571896D02*
X2132209D01*
Y1579896*
X2124209*
Y1571896*
X2128209Y1575896D02*
Y1579896D01*
X1779153Y1557654D02*
X1787153D01*
X1779153Y1565654*
X1787153*
X1779153Y1557654*
X1790964Y1526158D02*
X1798964D01*
X1790964Y1534158*
X1798964*
X1790964Y1526158*
X1787027Y1534032D02*
X1795027Y1542032D01*
Y1534032*
X1787027Y1542032*
Y1534032*
X1798839Y1549780D02*
X1806839Y1557780D01*
Y1549780*
X1798839Y1557780*
Y1549780*
X1783090D02*
X1791090Y1557780D01*
Y1549780*
X1783090Y1557780*
Y1549780*
X1779153Y1713937D02*
X1787153D01*
X1779153Y1721937*
X1787153*
X1779153Y1713937*
X1790965Y1682441D02*
X1798965D01*
X1798965D02*
X1790965Y1690441D01*
X1790965D02*
X1798965D01*
X1798965D02*
X1790965Y1682441D01*
X1787027Y1690315D02*
X1795027Y1698315D01*
Y1690315*
X1787027Y1698315*
Y1690315*
X1798839Y1706063D02*
X1806839Y1714063D01*
Y1706063*
X1798839Y1714063*
Y1706063*
X1783090D02*
X1791090Y1714063D01*
Y1706063*
X1783090Y1714063*
Y1706063*
X1779153Y1507934D02*
X1787153D01*
X1779153Y1515934*
X1787153*
X1779153Y1507934*
X1790964Y1476438D02*
X1798964D01*
X1790964Y1484438*
X1798964*
X1790964Y1476438*
X1787027Y1484312D02*
X1795027Y1492312D01*
Y1484312*
X1787027Y1492312*
Y1484312*
X1798839Y1500060D02*
X1806839Y1508060D01*
Y1500060*
X1798839Y1508060*
Y1500060*
X1783090D02*
X1791090Y1508060D01*
Y1500060*
X1783090Y1508060*
Y1500060*
X1784894Y1657492D02*
X1792894D01*
X1788894Y1653492D02*
Y1661492D01*
X1784894Y1667492D02*
X1792894D01*
X1788894Y1663492D02*
Y1671492D01*
X1861611Y1662211D02*
X1869611D01*
X1861611Y1670211*
X1869611*
X1861611Y1662211*
X1871611D02*
X1879611D01*
X1871611Y1670211*
X1879611*
X1871611Y1662211*
X1881611D02*
X1889611D01*
X1881611Y1670211*
X1889611*
X1881611Y1662211*
X1891611D02*
X1899611D01*
X1891611Y1670211*
X1899611*
X1891611Y1662211*
X1901611D02*
X1909611D01*
X1901611Y1670211*
X1909611*
X1901611Y1662211*
X1911611D02*
X1919611D01*
X1911611Y1670211*
X1919611*
X1911611Y1662211*
X1921611D02*
X1929611D01*
X1921611Y1670211*
X1929611*
X1921611Y1662211*
X1931611D02*
X1939611D01*
X1931611Y1670211*
X1939611*
X1931611Y1662211*
X1947595D02*
X1955595D01*
X1947595Y1670211*
X1955595*
X1947595Y1662211*
X1957595D02*
X1965595D01*
X1957595Y1670211*
X1965595*
X1957595Y1662211*
X1967595D02*
X1975595D01*
X1967595Y1670211*
X1975595*
X1967595Y1662211*
X1977595D02*
X1985595D01*
X1977595Y1670211*
X1985595*
X1977595Y1662211*
X1987595D02*
X1995595D01*
X1987595Y1670211*
X1995595*
X1987595Y1662211*
X1997595D02*
X2005595D01*
X1997595Y1670211*
X2005595*
X1997595Y1662211*
X2007595D02*
X2015595D01*
X2007595Y1670211*
X2015595*
X2007595Y1662211*
X2017595D02*
X2025595D01*
X2017595Y1670211*
X2025595*
X2017595Y1662211*
X1967516Y1472211D02*
X1975516D01*
X1967516Y1480211*
X1975516*
X1967516Y1472211*
X1977516D02*
X1985516D01*
X1977516Y1480211*
X1985516*
X1977516Y1472211*
X1987516D02*
X1995516D01*
X1987516Y1480211*
X1995516*
X1987516Y1472211*
X1997516D02*
X2005516D01*
X1997516Y1480211*
X2005516*
X1997516Y1472211*
X2007516D02*
X2015516D01*
X2007516Y1480211*
X2015516*
X2007516Y1472211*
X2017516D02*
X2025516D01*
X2017516Y1480211*
X2025516*
X2017516Y1472211*
X1897595D02*
X1905595D01*
X1897595Y1480211*
X1905595*
X1897595Y1472211*
X1907595D02*
X1915595D01*
X1907595Y1480211*
X1915595*
X1907595Y1472211*
X1917595D02*
X1925595D01*
X1917595Y1480211*
X1925595*
X1917595Y1472211*
X1927595D02*
X1935595D01*
X1927595Y1480211*
X1935595*
X1927595Y1472211*
X1937595D02*
X1945595D01*
X1937595Y1480211*
X1945595*
X1937595Y1472211*
X1947595D02*
X1955595D01*
X1947595Y1480211*
X1955595*
X1947595Y1472211*
X2044322Y1589390D02*
X2052322Y1597390D01*
X2044322D02*
X2052322Y1589390D01*
X2044322Y1599390D02*
X2052322Y1607390D01*
X2044322D02*
X2052322Y1599390D01*
X2044322Y1609390D02*
X2052322Y1617390D01*
X2044322D02*
X2052322Y1609390D01*
X2044322Y1619390D02*
X2052322Y1627390D01*
X2044322D02*
X2052322Y1619390D01*
X2044322Y1629390D02*
X2052322Y1637390D01*
X2044322D02*
X2052322Y1629390D01*
X2044322Y1639390D02*
X2052322Y1647390D01*
X2044322D02*
X2052322Y1639390D01*
X2044322Y1649390D02*
X2052322Y1657390D01*
X2044322D02*
X2052322Y1649390D01*
X2044322Y1659390D02*
X2052322Y1667390D01*
X2044322D02*
X2052322Y1659390D01*
X2074322D02*
X2082322Y1667390D01*
X2074322D02*
X2082322Y1659390D01*
X2074322Y1649390D02*
X2082322Y1657390D01*
X2074322D02*
X2082322Y1649390D01*
X2074322Y1639390D02*
X2082322Y1647390D01*
X2074322D02*
X2082322Y1639390D01*
X2074322Y1629390D02*
X2082322Y1637390D01*
X2074322D02*
X2082322Y1629390D01*
X2074322Y1619390D02*
X2082322Y1627390D01*
X2074322D02*
X2082322Y1619390D01*
X2074322Y1609390D02*
X2082322Y1617390D01*
X2074322D02*
X2082322Y1609390D01*
X2074322Y1599390D02*
X2082322Y1607390D01*
X2074322D02*
X2082322Y1599390D01*
X2074322Y1589390D02*
X2082322Y1597390D01*
X2074322D02*
X2082322Y1589390D01*
X2107489Y1476501D02*
X2115489D01*
X2111489Y1472501D02*
Y1480501D01*
X2114398Y1481782D02*
X2113489Y1478501D01*
X2114398Y1481782D02*
X2115307Y1478501D01*
X2113830Y1479595D02*
X2114966D01*
X2132095Y1476501D02*
X2140095D01*
X2136095Y1472501D02*
Y1480501D01*
X2138095Y1481782D02*
Y1478501D01*
Y1481782D02*
X2139118D01*
X2139459Y1481626*
X2139572Y1481470*
X2139686Y1481157*
Y1480845*
X2139572Y1480532*
X2139459Y1480376*
X2139118Y1480220*
X2138095D02*
X2139118D01*
X2139459Y1480063*
X2139572Y1479907*
X2139686Y1479595*
Y1479126*
X2139572Y1478813*
X2139459Y1478657*
X2139118Y1478501*
X2138095*
X2119300Y1495398D02*
X2127300D01*
X2123300Y1491398D02*
Y1499398D01*
X2125300Y1500680D02*
Y1497398D01*
Y1500680D02*
X2126322D01*
X2126663Y1500523*
X2126777Y1500367*
X2126891Y1500055*
Y1499742*
X2126777Y1499430*
X2126663Y1499273*
X2126322Y1499117*
X2125300D02*
X2126322D01*
X2126663Y1498961*
X2126777Y1498805*
X2126891Y1498492*
Y1498023*
X2126777Y1497711*
X2126663Y1497555*
X2126322Y1497398*
X2125300*
X2107489Y1530158D02*
X2115489D01*
X2111489Y1526158D02*
Y1534158D01*
X2114398Y1535439D02*
X2113489Y1532158D01*
X2114398Y1535439D02*
X2115307Y1532158D01*
X2113830Y1533252D02*
X2114966D01*
X2132095Y1530158D02*
X2140095D01*
X2136095Y1526158D02*
Y1534158D01*
X2138095Y1535439D02*
Y1532158D01*
Y1535439D02*
X2139118D01*
X2139459Y1535283*
X2139572Y1535127*
X2139686Y1534814*
Y1534502*
X2139572Y1534189*
X2139459Y1534033*
X2139118Y1533877*
X2138095D02*
X2139118D01*
X2139459Y1533720*
X2139572Y1533564*
X2139686Y1533252*
Y1532783*
X2139572Y1532470*
X2139459Y1532314*
X2139118Y1532158*
X2138095*
X2119300Y1549056D02*
X2127300D01*
X2123300Y1545056D02*
Y1553056D01*
X2125300Y1554337D02*
Y1551056D01*
Y1554337D02*
X2126322D01*
X2126663Y1554181*
X2126777Y1554024*
X2126891Y1553712*
Y1553399*
X2126777Y1553087*
X2126663Y1552931*
X2126322Y1552774*
X2125300D02*
X2126322D01*
X2126663Y1552618*
X2126777Y1552462*
X2126891Y1552149*
Y1551681*
X2126777Y1551368*
X2126663Y1551212*
X2126322Y1551056*
X2125300*
X1938146Y1559144D02*
X1946146D01*
X1942146Y1555144D02*
Y1563144D01*
X1945851Y1563644D02*
X1945737Y1563956D01*
X1945510Y1564269*
X1945282Y1564425*
X1944828*
X1944601Y1564269*
X1944373Y1563956*
X1944260Y1563644*
X1944146Y1563175*
Y1562394*
X1944260Y1561925*
X1944373Y1561613*
X1944601Y1561300*
X1944828Y1561144*
X1945282*
X1945510Y1561300*
X1945737Y1561613*
X1945851Y1561925*
X1938146Y1541427D02*
X1946146D01*
X1942146Y1537427D02*
Y1545427D01*
X1945851Y1545927D02*
X1945737Y1546240D01*
X1945510Y1546552*
X1945282Y1546709*
X1944828*
X1944601Y1546552*
X1944373Y1546240*
X1944260Y1545927*
X1944146Y1545459*
Y1544677*
X1944260Y1544209*
X1944373Y1543896*
X1944601Y1543584*
X1944828Y1543427*
X1945282*
X1945510Y1543584*
X1945737Y1543896*
X1945851Y1544209*
X1961768Y1541427D02*
X1969768D01*
X1965768Y1537427D02*
Y1545427D01*
X1969473Y1545927D02*
X1969359Y1546240D01*
X1969132Y1546552*
X1968904Y1546709*
X1968450*
X1968223Y1546552*
X1967995Y1546240*
X1967882Y1545927*
X1967768Y1545459*
Y1544677*
X1967882Y1544209*
X1967995Y1543896*
X1968223Y1543584*
X1968450Y1543427*
X1968904*
X1969132Y1543584*
X1969359Y1543896*
X1969473Y1544209*
X1961768Y1559144D02*
X1969768D01*
X1965768Y1555144D02*
Y1563144D01*
X1969473Y1563644D02*
X1969359Y1563956D01*
X1969132Y1564269*
X1968904Y1564425*
X1968450*
X1968223Y1564269*
X1967995Y1563956*
X1967882Y1563644*
X1967768Y1563175*
Y1562394*
X1967882Y1561925*
X1967995Y1561613*
X1968223Y1561300*
X1968450Y1561144*
X1968904*
X1969132Y1561300*
X1969359Y1561613*
X1969473Y1561925*
X1938146Y1518290D02*
X1946146D01*
X1942146Y1514290D02*
Y1522290D01*
X1945851Y1522790D02*
X1945737Y1523102D01*
X1945510Y1523415*
X1945282Y1523571*
X1944828*
X1944601Y1523415*
X1944373Y1523102*
X1944260Y1522790*
X1944146Y1522321*
Y1521540*
X1944260Y1521071*
X1944373Y1520758*
X1944601Y1520446*
X1944828Y1520290*
X1945282*
X1945510Y1520446*
X1945737Y1520758*
X1945851Y1521071*
X1938146Y1500573D02*
X1946146D01*
X1942146Y1496573D02*
Y1504573D01*
X1945851Y1505073D02*
X1945737Y1505385D01*
X1945510Y1505698*
X1945282Y1505854*
X1944828*
X1944601Y1505698*
X1944373Y1505385*
X1944260Y1505073*
X1944146Y1504604*
Y1503823*
X1944260Y1503354*
X1944373Y1503042*
X1944601Y1502729*
X1944828Y1502573*
X1945282*
X1945510Y1502729*
X1945737Y1503042*
X1945851Y1503354*
X1961768Y1500573D02*
X1969768D01*
X1965768Y1496573D02*
Y1504573D01*
X1969473Y1505073D02*
X1969359Y1505385D01*
X1969132Y1505698*
X1968904Y1505854*
X1968450*
X1968223Y1505698*
X1967995Y1505385*
X1967882Y1505073*
X1967768Y1504604*
Y1503823*
X1967882Y1503354*
X1967995Y1503042*
X1968223Y1502729*
X1968450Y1502573*
X1968904*
X1969132Y1502729*
X1969359Y1503042*
X1969473Y1503354*
X1961768Y1518290D02*
X1969768D01*
X1965768Y1514290D02*
Y1522290D01*
X1969473Y1522790D02*
X1969359Y1523102D01*
X1969132Y1523415*
X1968904Y1523571*
X1968450*
X1968223Y1523415*
X1967995Y1523102*
X1967882Y1522790*
X1967768Y1522321*
Y1521540*
X1967882Y1521071*
X1967995Y1520758*
X1968223Y1520446*
X1968450Y1520290*
X1968904*
X1969132Y1520446*
X1969359Y1520758*
X1969473Y1521071*
X1892279Y1538691D02*
X1900279D01*
X1896279Y1534691D02*
Y1542691D01*
X1899983Y1543191D02*
X1899870Y1543504D01*
X1899642Y1543816*
X1899415Y1543973*
X1898961*
X1898733Y1543816*
X1898506Y1543504*
X1898392Y1543191*
X1898279Y1542723*
Y1541941*
X1898392Y1541473*
X1898506Y1541160*
X1898733Y1540848*
X1898961Y1540691*
X1899415*
X1899642Y1540848*
X1899870Y1541160*
X1899983Y1541473*
X1892279Y1520975D02*
X1900279D01*
X1896279Y1516975D02*
Y1524975D01*
X1899983Y1525475D02*
X1899870Y1525787D01*
X1899642Y1526100*
X1899415Y1526256*
X1898961*
X1898733Y1526100*
X1898506Y1525787*
X1898392Y1525475*
X1898279Y1525006*
Y1524225*
X1898392Y1523756*
X1898506Y1523444*
X1898733Y1523131*
X1898961Y1522975*
X1899415*
X1899642Y1523131*
X1899870Y1523444*
X1899983Y1523756*
X1915901Y1520975D02*
X1923901D01*
X1919901Y1516975D02*
Y1524975D01*
X1923605Y1525475D02*
X1923492Y1525787D01*
X1923264Y1526100*
X1923037Y1526256*
X1922583*
X1922355Y1526100*
X1922128Y1525787*
X1922014Y1525475*
X1921901Y1525006*
Y1524225*
X1922014Y1523756*
X1922128Y1523444*
X1922355Y1523131*
X1922583Y1522975*
X1923037*
X1923264Y1523131*
X1923492Y1523444*
X1923605Y1523756*
X1915901Y1538691D02*
X1923901D01*
X1919901Y1534691D02*
Y1542691D01*
X1923605Y1543191D02*
X1923492Y1543504D01*
X1923264Y1543816*
X1923037Y1543973*
X1922583*
X1922355Y1543816*
X1922128Y1543504*
X1922014Y1543191*
X1921901Y1542723*
Y1541941*
X1922014Y1541473*
X1922128Y1541160*
X1922355Y1540848*
X1922583Y1540691*
X1923037*
X1923264Y1540848*
X1923492Y1541160*
X1923605Y1541473*
X1984130Y1538691D02*
X1992130D01*
X1988130Y1534691D02*
Y1542691D01*
X1991834Y1543191D02*
X1991721Y1543504D01*
X1991493Y1543816*
X1991266Y1543973*
X1990812*
X1990584Y1543816*
X1990357Y1543504*
X1990243Y1543191*
X1990130Y1542723*
Y1541941*
X1990243Y1541473*
X1990357Y1541160*
X1990584Y1540848*
X1990812Y1540691*
X1991266*
X1991493Y1540848*
X1991721Y1541160*
X1991834Y1541473*
X1984130Y1520975D02*
X1992130D01*
X1988130Y1516975D02*
Y1524975D01*
X1991834Y1525475D02*
X1991721Y1525787D01*
X1991493Y1526100*
X1991266Y1526256*
X1990812*
X1990584Y1526100*
X1990357Y1525787*
X1990243Y1525475*
X1990130Y1525006*
Y1524225*
X1990243Y1523756*
X1990357Y1523444*
X1990584Y1523131*
X1990812Y1522975*
X1991266*
X1991493Y1523131*
X1991721Y1523444*
X1991834Y1523756*
X2007752Y1520975D02*
X2015752D01*
X2011752Y1516975D02*
Y1524975D01*
X2015456Y1525475D02*
X2015343Y1525787D01*
X2015115Y1526100*
X2014888Y1526256*
X2014434*
X2014206Y1526100*
X2013979Y1525787*
X2013865Y1525475*
X2013752Y1525006*
Y1524225*
X2013865Y1523756*
X2013979Y1523444*
X2014206Y1523131*
X2014434Y1522975*
X2014888*
X2015115Y1523131*
X2015343Y1523444*
X2015456Y1523756*
X2007752Y1538691D02*
X2015752D01*
X2011752Y1534691D02*
Y1542691D01*
X2015456Y1543191D02*
X2015343Y1543504D01*
X2015115Y1543816*
X2014888Y1543973*
X2014434*
X2014206Y1543816*
X2013979Y1543504*
X2013865Y1543191*
X2013752Y1542723*
Y1541941*
X2013865Y1541473*
X2013979Y1541160*
X2014206Y1540848*
X2014434Y1540691*
X2014888*
X2015115Y1540848*
X2015343Y1541160*
X2015456Y1541473*
X1825808Y1538691D02*
X1833808D01*
X1829808Y1534691D02*
Y1542691D01*
X1833513Y1543191D02*
X1833399Y1543504D01*
X1833172Y1543816*
X1832945Y1543973*
X1832490*
X1832263Y1543816*
X1832036Y1543504*
X1831922Y1543191*
X1831808Y1542723*
Y1541941*
X1831922Y1541473*
X1832036Y1541160*
X1832263Y1540848*
X1832490Y1540691*
X1832945*
X1833172Y1540848*
X1833399Y1541160*
X1833513Y1541473*
X1825808Y1520975D02*
X1833808D01*
X1829808Y1516975D02*
Y1524975D01*
X1833513Y1525475D02*
X1833399Y1525787D01*
X1833172Y1526100*
X1832945Y1526256*
X1832490*
X1832263Y1526100*
X1832036Y1525787*
X1831922Y1525475*
X1831808Y1525006*
Y1524225*
X1831922Y1523756*
X1832036Y1523444*
X1832263Y1523131*
X1832490Y1522975*
X1832945*
X1833172Y1523131*
X1833399Y1523444*
X1833513Y1523756*
X1849430Y1520975D02*
X1857430D01*
X1853430Y1516975D02*
Y1524975D01*
X1857135Y1525475D02*
X1857021Y1525787D01*
X1856794Y1526100*
X1856567Y1526256*
X1856112*
X1855885Y1526100*
X1855658Y1525787*
X1855544Y1525475*
X1855430Y1525006*
Y1524225*
X1855544Y1523756*
X1855658Y1523444*
X1855885Y1523131*
X1856112Y1522975*
X1856567*
X1856794Y1523131*
X1857021Y1523444*
X1857135Y1523756*
X1849430Y1538691D02*
X1857430D01*
X1853430Y1534691D02*
Y1542691D01*
X1857135Y1543191D02*
X1857021Y1543504D01*
X1856794Y1543816*
X1856567Y1543973*
X1856112*
X1855885Y1543816*
X1855658Y1543504*
X1855544Y1543191*
X1855430Y1542723*
Y1541941*
X1855544Y1541473*
X1855658Y1541160*
X1855885Y1540848*
X1856112Y1540691*
X1856567*
X1856794Y1540848*
X1857021Y1541160*
X1857135Y1541473*
X1850823Y1693904D02*
X1858823D01*
X1850823Y1701904*
X1858823*
X1850823Y1693904*
X1860823D02*
X1868823D01*
X1860823Y1701904*
X1868823*
X1860823Y1693904*
X1870823D02*
X1878823D01*
X1870823Y1701904*
X1878823*
X1870823Y1693904*
X1880823D02*
X1888823D01*
X1880823Y1701904*
X1888823*
X1880823Y1693904*
X1890823D02*
X1898823D01*
X1890823Y1701904*
X1898823*
X1890823Y1693904*
X1900823D02*
X1908823D01*
X1900823Y1701904*
X1908823*
X1900823Y1693904*
X1910823D02*
X1918823D01*
X1910823Y1701904*
X1918823*
X1910823Y1693904*
X1920823D02*
X1928823D01*
X1920823Y1701904*
X1928823*
X1920823Y1693904*
X1930823D02*
X1938823D01*
X1930823Y1701904*
X1938823*
X1930823Y1693904*
X1940823D02*
X1948823D01*
X1940823Y1701904*
X1948823*
X1940823Y1693904*
X1950823D02*
X1958823D01*
X1950823Y1701904*
X1958823*
X1950823Y1693904*
X1960823D02*
X1968823D01*
X1960823Y1701904*
X1968823*
X1960823Y1693904*
X1970823D02*
X1978823D01*
X1970823Y1701904*
X1978823*
X1970823Y1693904*
X1980823D02*
X1988823D01*
X1980823Y1701904*
X1988823*
X1980823Y1693904*
X1990823D02*
X1998823D01*
X1990823Y1701904*
X1998823*
X1990823Y1693904*
X2000823D02*
X2008823D01*
X2000823Y1701904*
X2008823*
X2000823Y1693904*
X2085914Y1553123D02*
X2093914Y1561123D01*
X2085914D02*
X2093914Y1553123D01*
X2085914Y1545123D02*
X2093914Y1553123D01*
X2085914D02*
X2093914Y1545123D01*
X2066652Y1553123D02*
X2074652Y1561123D01*
X2066652D02*
X2074652Y1553123D01*
X2066652Y1545123D02*
X2074652Y1553123D01*
X2066652D02*
X2074652Y1545123D01*
X1874020Y1627923D02*
X1882020Y1635923D01*
X1874020D02*
X1882020Y1627923D01*
X1884020D02*
X1892020Y1635923D01*
X1884020D02*
X1892020Y1627923D01*
X1894020D02*
X1902020Y1635923D01*
X1894020D02*
X1902020Y1627923D01*
X2078146Y1688952D02*
X2086146Y1696952D01*
X2078146D02*
X2086146Y1688952D01*
X2088146D02*
X2096146Y1696952D01*
X2088146D02*
X2096146Y1688952D01*
X2098146D02*
X2106146Y1696952D01*
X2098146D02*
X2106146Y1688952D01*
X2129872Y1658715D02*
X2137872Y1666715D01*
X2129872D02*
X2137872Y1658715D01*
X2129872Y1648715D02*
X2137872Y1656715D01*
X2129872D02*
X2137872Y1648715D01*
X2129872Y1638715D02*
X2137872Y1646715D01*
X2129872D02*
X2137872Y1638715D01*
X2129872Y1628715D02*
X2137872Y1636715D01*
X2129872D02*
X2137872Y1628715D01*
X2129872Y1618715D02*
X2137872Y1626715D01*
X2129872D02*
X2137872Y1618715D01*
X2129872Y1608715D02*
X2137872Y1616715D01*
X2129872D02*
X2137872Y1608715D01*
X2129872Y1598715D02*
X2137872Y1606715D01*
X2129872D02*
X2137872Y1598715D01*
X2099872D02*
X2107872Y1606715D01*
X2099872D02*
X2107872Y1598715D01*
X2099872Y1608715D02*
X2107872Y1616715D01*
X2099872D02*
X2107872Y1608715D01*
X2099872Y1618715D02*
X2107872Y1626715D01*
X2099872D02*
X2107872Y1618715D01*
X2099872Y1628715D02*
X2107872Y1636715D01*
X2099872D02*
X2107872Y1628715D01*
X2099872Y1638715D02*
X2107872Y1646715D01*
X2099872D02*
X2107872Y1638715D01*
X2099872Y1648715D02*
X2107872Y1656715D01*
X2099872D02*
X2107872Y1648715D01*
X2099872Y1658715D02*
X2107872Y1666715D01*
X2099872D02*
X2107872Y1658715D01*
X1828894Y1693904D02*
X1836894D01*
Y1701904*
X1828894*
Y1693904*
X1832894Y1697904D02*
Y1701904D01*
X1857215Y1624307D02*
X1865215D01*
X1861215Y1620307D02*
Y1628307D01*
X1857215Y1594780D02*
X1865215D01*
X1861215Y1590780D02*
Y1598780D01*
X2062876Y1692969D02*
X2070876D01*
X2066876Y1688969D02*
Y1696969D01*
X2068876Y1698251D02*
Y1694969D01*
Y1698251D02*
X2069671D01*
X2070012Y1698094*
X2070239Y1697782*
X2070353Y1697469*
X2070467Y1697001*
Y1696219*
X2070353Y1695751*
X2070239Y1695438*
X2070012Y1695126*
X2069671Y1694969*
X2068876*
X2053033Y1712654D02*
X2061033D01*
X2057033Y1708654D02*
Y1716654D01*
X2059033Y1717936D02*
Y1714654D01*
Y1717936D02*
X2059829D01*
X2060170Y1717779*
X2060397Y1717467*
X2060510Y1717154*
X2060624Y1716686*
Y1715904*
X2060510Y1715436*
X2060397Y1715123*
X2060170Y1714811*
X2059829Y1714654*
X2059033*
X2043191Y1692969D02*
X2051191D01*
X2047191Y1688969D02*
Y1696969D01*
X2049191Y1698251D02*
Y1694969D01*
Y1698251D02*
X2049986D01*
X2050327Y1698094*
X2050554Y1697782*
X2050668Y1697469*
X2050782Y1697001*
Y1696219*
X2050668Y1695751*
X2050554Y1695438*
X2050327Y1695126*
X2049986Y1694969*
X2049191*
X1847458Y1636360D02*
X1855458D01*
X1851458Y1632360D02*
Y1640360D01*
X1853458Y1641641D02*
Y1638360D01*
Y1641641D02*
X1854935D01*
X1853458Y1640078D02*
X1854367D01*
X1853458Y1638360D02*
X1854935D01*
X1847458Y1646360D02*
X1855458D01*
X1851458Y1642360D02*
Y1650360D01*
X1853458Y1651641D02*
Y1648360D01*
Y1651641D02*
X1854935D01*
X1853458Y1650078D02*
X1854367D01*
X1853458Y1648360D02*
X1854935D01*
X1817458Y1646360D02*
X1825458D01*
X1821458Y1642360D02*
Y1650360D01*
X1823458Y1651641D02*
Y1648360D01*
Y1651641D02*
X1824935D01*
X1823458Y1650078D02*
X1824367D01*
X1823458Y1648360D02*
X1824935D01*
X1817458Y1636360D02*
X1825458D01*
X1821458Y1632360D02*
Y1640360D01*
X1823458Y1641641D02*
Y1638360D01*
Y1641641D02*
X1824935D01*
X1823458Y1640078D02*
X1824367D01*
X1823458Y1638360D02*
X1824935D01*
X1847326Y1616224D02*
X1855326D01*
X1851326Y1612224D02*
Y1620224D01*
X1853326Y1621505D02*
Y1618224D01*
Y1621505D02*
X1854803D01*
X1853326Y1619942D02*
X1854235D01*
X1853326Y1618224D02*
X1854803D01*
X1847326Y1626224D02*
X1855326D01*
X1851326Y1622224D02*
Y1630224D01*
X1853326Y1631505D02*
Y1628224D01*
Y1631505D02*
X1854803D01*
X1853326Y1629942D02*
X1854235D01*
X1853326Y1628224D02*
X1854803D01*
X1817326Y1626224D02*
X1825326D01*
X1821326Y1622224D02*
Y1630224D01*
X1823326Y1631505D02*
Y1628224D01*
Y1631505D02*
X1824803D01*
X1823326Y1629942D02*
X1824235D01*
X1823326Y1628224D02*
X1824803D01*
X1817326Y1616224D02*
X1825326D01*
X1821326Y1612224D02*
Y1620224D01*
X1823326Y1621505D02*
Y1618224D01*
Y1621505D02*
X1824803D01*
X1823326Y1619942D02*
X1824235D01*
X1823326Y1618224D02*
X1824803D01*
X2099052Y1722802D02*
X2107052D01*
X2107052D02*
Y1730802D01*
X2107052D02*
X2099052D01*
X2099052D02*
Y1722802D01*
X2103052Y1726802D02*
Y1730802D01*
X1822790Y1722802D02*
X1830790D01*
Y1730802*
X1822790*
Y1722802*
X1826790Y1726802D02*
Y1730802D01*
X1822790Y1444348D02*
X1830790D01*
Y1452348*
X1822790*
Y1444348*
X1826790Y1448348D02*
Y1452348D01*
X2099052Y1444348D02*
X2107052D01*
X2107052D02*
Y1452348D01*
X2107052D02*
X2099052D01*
X2099052D02*
Y1444348D01*
X2103052Y1448348D02*
Y1452348D01*
X1969103Y1486372D02*
X1977103D01*
X1973103Y1482372D02*
Y1490372D01*
X1975103Y1491653D02*
Y1488372D01*
Y1491653D02*
X1976580D01*
X1975103Y1490090D02*
X1976012D01*
X1883024Y1530230D02*
X1891024D01*
X1887024Y1526230D02*
Y1534230D01*
X1889024Y1535511D02*
Y1532230D01*
Y1535511D02*
X1890501D01*
X1889024Y1533949D02*
X1889933D01*
X1865850Y1531001D02*
X1873850D01*
X1869850Y1527001D02*
Y1535001D01*
X1871850Y1536282D02*
Y1533001D01*
Y1536282D02*
X1873327D01*
X1871850Y1534720D02*
X1872759D01*
X1969103Y1510955D02*
X1977103D01*
X1973103Y1506955D02*
Y1514955D01*
X1975103Y1516236D02*
Y1512955D01*
Y1516236D02*
X1976580D01*
X1975103Y1514674D02*
X1976012D01*
X1947595Y1524299D02*
X1955595D01*
X1951595Y1520299D02*
Y1528299D01*
X1953595Y1529580D02*
Y1526299D01*
Y1529580D02*
X1955072D01*
X1953595Y1528018D02*
X1954504D01*
X2039551Y1517666D02*
X2047551D01*
X2043551Y1513666D02*
Y1521666D01*
X2045551Y1522947D02*
Y1519666D01*
Y1522947D02*
X2047029D01*
X2045551Y1521385D02*
X2046460D01*
X1808968Y1546687D02*
X1816968D01*
X1812968Y1542687D02*
Y1550687D01*
X1814968Y1551969D02*
Y1548687D01*
Y1551969D02*
X1816445D01*
X1814968Y1550406D02*
X1815877D01*
X1819850Y1551093D02*
X1827850D01*
X1823850Y1547093D02*
Y1555093D01*
X1825850Y1556374D02*
Y1553093D01*
Y1556374D02*
X1827327D01*
X1825850Y1554812D02*
X1826759D01*
X1839827Y1543855D02*
X1847827D01*
X1843827Y1539855D02*
Y1547855D01*
X1845827Y1549137D02*
Y1545855D01*
Y1549137D02*
X1847304D01*
X1845827Y1547574D02*
X1846736D01*
X1883024Y1545620D02*
X1891024D01*
X1887024Y1541620D02*
Y1549620D01*
X1889024Y1550901D02*
Y1547620D01*
Y1550901D02*
X1890501D01*
X1889024Y1549339D02*
X1889933D01*
X1838768Y1597188D02*
X1846768D01*
X1842768Y1593188D02*
Y1601188D01*
X1844768Y1602469D02*
Y1599188D01*
Y1602469D02*
X1846246D01*
X1844768Y1600907D02*
X1845677D01*
X1865850Y1605168D02*
X1873850D01*
X1869850Y1601168D02*
Y1609168D01*
X1871850Y1610449D02*
Y1607168D01*
Y1610449D02*
X1873327D01*
X1871850Y1608886D02*
X1872759D01*
X1912803Y1608162D02*
X1920803D01*
X1916803Y1604162D02*
Y1612162D01*
X1918803Y1613444D02*
Y1610162D01*
Y1613444D02*
X1920281D01*
X1918803Y1611881D02*
X1919713D01*
X2016019Y1610569D02*
X2024019D01*
X2020019Y1606569D02*
Y1614569D01*
X2022019Y1615850D02*
Y1612569D01*
Y1615850D02*
X2023497D01*
X2022019Y1614288D02*
X2022928D01*
X2114016Y1584216D02*
X2122016D01*
X2118016Y1580216D02*
Y1588216D01*
X2120016Y1589497D02*
Y1586216D01*
Y1589497D02*
X2121493D01*
X2120016Y1587934D02*
X2120925D01*
X2099950Y1584216D02*
X2107950D01*
X2103950Y1580216D02*
Y1588216D01*
X2105950Y1589497D02*
Y1586216D01*
Y1589497D02*
X2107427D01*
X2105950Y1587934D02*
X2106859D01*
X2099007Y1593390D02*
X2107007D01*
X2103007Y1589390D02*
Y1597390D01*
X2105007Y1598671D02*
Y1595390D01*
Y1598671D02*
X2106484D01*
X2105007Y1597108D02*
X2105916D01*
X1834884Y1621790D02*
X1842884D01*
X1838884Y1617790D02*
Y1625790D01*
X1840884Y1627071D02*
Y1623790D01*
Y1627071D02*
X1842361D01*
X1840884Y1625508D02*
X1841793D01*
X1825750Y1630923D02*
X1833750D01*
X1829750Y1626923D02*
Y1634923D01*
X1831750Y1636204D02*
Y1632923D01*
Y1636204D02*
X1833228D01*
X1831750Y1634642D02*
X1832659D01*
X1969643Y1649330D02*
X1977643D01*
X1973643Y1645330D02*
Y1653330D01*
X1975643Y1654611D02*
Y1651330D01*
Y1654611D02*
X1977120D01*
X1975643Y1653048D02*
X1976552D01*
X1794228Y1672910D02*
X1802228D01*
X1798228Y1668910D02*
Y1676910D01*
X1800228Y1678192D02*
Y1674910D01*
Y1678192D02*
X1801705D01*
X1800228Y1676629D02*
X1801137D01*
X1841106Y1692579D02*
X1849106D01*
X1845106Y1688579D02*
Y1696579D01*
X1847106Y1697860D02*
Y1694579D01*
Y1697860D02*
X1848583D01*
X1847106Y1696297D02*
X1848015D01*
X1886760Y1678403D02*
X1894760D01*
X1890760Y1674403D02*
Y1682403D01*
X1892760Y1683685D02*
Y1680403D01*
Y1683685D02*
X1894237D01*
X1892760Y1682122D02*
X1893669D01*
X1860099Y1678403D02*
X1868099D01*
X1864099Y1674403D02*
Y1682403D01*
X1866099Y1683685D02*
Y1680403D01*
Y1683685D02*
X1867576D01*
X1866099Y1682122D02*
X1867008D01*
X1924166Y1679150D02*
X1932166D01*
X1928166Y1675150D02*
Y1683150D01*
X1930166Y1684431D02*
Y1681150D01*
Y1684431D02*
X1931643D01*
X1930166Y1682869D02*
X1931075D01*
X2060777Y1665509D02*
X2068777D01*
X2064777Y1661509D02*
Y1669509D01*
X2066777Y1670790D02*
Y1667509D01*
Y1670790D02*
X2068254D01*
X2066777Y1669228D02*
X2067686D01*
X2080104Y1670810D02*
X2088104D01*
X2084104Y1666810D02*
Y1674810D01*
X2086104Y1676091D02*
Y1672810D01*
Y1676091D02*
X2087581D01*
X2086104Y1674528D02*
X2087013D01*
X1806642Y1696132D02*
X1814642D01*
X1810642Y1692132D02*
Y1700132D01*
X1812642Y1701413D02*
Y1698132D01*
Y1701413D02*
X1814119D01*
X1812642Y1699851D02*
X1813551D01*
X2038530Y1711794D02*
X2046530D01*
X2042530Y1707794D02*
Y1715794D01*
X2044530Y1717075D02*
Y1713794D01*
Y1717075D02*
X2046007D01*
X2044530Y1715512D02*
X2045439D01*
X2063026Y1706809D02*
X2071026D01*
X2067026Y1702809D02*
Y1710809D01*
X2069026Y1712090D02*
Y1708809D01*
Y1712090D02*
X2070503D01*
X2069026Y1710527D02*
X2069935D01*
X1968957Y1765652D02*
X2226957D01*
X1968957Y1741652D02*
X2226957D01*
X1968957Y1717652D02*
X2226957D01*
X1968957Y1693652D02*
X2226957D01*
X1968957Y1669652D02*
X2226957D01*
X1968957Y1645652D02*
X2226957D01*
X1968957Y1621652D02*
X2226957D01*
X1968957Y1597652D02*
X2226957D01*
X1968957Y1573652D02*
X2226957D01*
X1968957Y1549652D02*
X2226957D01*
X1968957Y1525652D02*
X2226957D01*
X1968957Y1501652D02*
X2226957D01*
X1968957Y1477652D02*
X2226957D01*
X1968957Y1453652D02*
X2226957D01*
X1968957Y1765652D02*
Y1453652D01*
X2052957Y1765652D02*
Y1453652D01*
X2088957Y1765652D02*
Y1453652D01*
X2124957Y1765652D02*
Y1453652D01*
X2178957Y1765652D02*
Y1453652D01*
X2226957Y1765652D02*
Y1453652D01*
X2004457Y1754402D02*
X2003912Y1755152D01*
X2003093Y1755527*
X2002002*
X2001184Y1755152*
X2000639Y1754402*
Y1753652*
X2000912Y1752902*
X2001184Y1752527*
X2001730Y1752152*
X2003366Y1751402*
X2003912Y1751027*
X2004184Y1750652*
X2004457Y1749902*
Y1748777*
X2003912Y1748027*
X2003093Y1747652*
X2002002*
X2001184Y1748027*
X2000639Y1748777*
X2006912Y1755527D02*
Y1747652D01*
X2013184Y1755527D02*
X2009366Y1747652D01*
Y1755527D02*
X2013184D01*
X2009366Y1747652D02*
X2013184D01*
X2015639Y1755527D02*
Y1747652D01*
Y1755527D02*
X2019184D01*
X2015639Y1751777D02*
X2017821D01*
X2015639Y1747652D02*
X2019184D01*
X2062821Y1755527D02*
X2062275Y1755152D01*
X2061730Y1754402*
X2061457Y1753652*
X2061184Y1752527*
Y1750652*
X2061457Y1749527*
X2061730Y1748777*
X2062275Y1748027*
X2062821Y1747652*
X2063912*
X2064457Y1748027*
X2065002Y1748777*
X2065275Y1749527*
X2065548Y1750652*
Y1752527*
X2065275Y1753652*
X2065002Y1754402*
X2064457Y1755152*
X2063912Y1755527*
X2062821*
X2063639Y1749152D02*
X2065275Y1746902D01*
X2069912Y1755527D02*
Y1747652D01*
X2068002Y1755527D02*
X2071821D01*
X2074275D02*
X2076457Y1751777D01*
Y1747652*
X2078639Y1755527D02*
X2076457Y1751777D01*
X2101002Y1754402D02*
X2100457Y1755152D01*
X2099639Y1755527*
X2098548*
X2097730Y1755152*
X2097184Y1754402*
Y1753652*
X2097457Y1752902*
X2097730Y1752527*
X2098275Y1752152*
X2099912Y1751402*
X2100457Y1751027*
X2100730Y1750652*
X2101002Y1749902*
Y1748777*
X2100457Y1748027*
X2099639Y1747652*
X2098548*
X2097730Y1748027*
X2097184Y1748777*
X2103457Y1755527D02*
X2105639Y1751777D01*
Y1747652*
X2107821Y1755527D02*
X2105639Y1751777D01*
X2110275Y1755527D02*
Y1747652D01*
Y1755527D02*
X2112457Y1747652D01*
X2114639Y1755527D02*
X2112457Y1747652D01*
X2114639Y1755527D02*
Y1747652D01*
X2136457Y1755527D02*
Y1747652D01*
Y1755527D02*
X2138912D01*
X2139730Y1755152*
X2140002Y1754777*
X2140275Y1754027*
Y1752902*
X2140002Y1752152*
X2139730Y1751777*
X2138912Y1751402*
X2136457*
X2142730Y1755527D02*
Y1747652D01*
X2146002*
X2150639Y1755527D02*
X2148457Y1747652D01*
X2150639Y1755527D02*
X2152821Y1747652D01*
X2149275Y1750277D02*
X2152002D01*
X2157184Y1755527D02*
Y1747652D01*
X2155275Y1755527D02*
X2159093D01*
X2161548D02*
Y1747652D01*
Y1755527D02*
X2165093D01*
X2161548Y1751777D02*
X2163730D01*
X2161548Y1747652D02*
X2165093D01*
X2167548Y1755527D02*
Y1747652D01*
Y1755527D02*
X2169457D01*
X2170275Y1755152*
X2170821Y1754402*
X2171093Y1753652*
X2171366Y1752527*
Y1750652*
X2171093Y1749527*
X2170821Y1748777*
X2170275Y1748027*
X2169457Y1747652*
X2167548*
X2195639Y1755527D02*
Y1747652D01*
X2193730Y1755527D02*
X2197548D01*
X2201639D02*
X2201093Y1755152D01*
X2200548Y1754402*
X2200275Y1753652*
X2200002Y1752527*
Y1750652*
X2200275Y1749527*
X2200548Y1748777*
X2201093Y1748027*
X2201639Y1747652*
X2202730*
X2203275Y1748027*
X2203821Y1748777*
X2204093Y1749527*
X2204366Y1750652*
Y1752527*
X2204093Y1753652*
X2203821Y1754402*
X2203275Y1755152*
X2202730Y1755527*
X2201639*
X2206821D02*
Y1747652D01*
X2210093*
X1976593Y1731527D02*
X1975775Y1731152D01*
X1975230Y1730027*
X1974957Y1728152*
Y1727027*
X1975230Y1725152*
X1975775Y1724027*
X1976593Y1723652*
X1977139*
X1977957Y1724027*
X1978502Y1725152*
X1978775Y1727027*
Y1728152*
X1978502Y1730027*
X1977957Y1731152*
X1977139Y1731527*
X1976593*
X1981502Y1724402D02*
X1981230Y1724027D01*
X1981502Y1723652*
X1981775Y1724027*
X1981502Y1724402*
X1987775Y1728902D02*
X1987502Y1727777D01*
X1986957Y1727027*
X1986139Y1726652*
X1985866*
X1985048Y1727027*
X1984502Y1727777*
X1984230Y1728902*
Y1729277*
X1984502Y1730402*
X1985048Y1731152*
X1985866Y1731527*
X1986139*
X1986957Y1731152*
X1987502Y1730402*
X1987775Y1728902*
Y1727027*
X1987502Y1725152*
X1986957Y1724027*
X1986139Y1723652*
X1985593*
X1984775Y1724027*
X1984502Y1724777*
X1990775Y1731527D02*
X1993775D01*
X1992139Y1728527*
X1992957*
X1993502Y1728152*
X1993775Y1727777*
X1994048Y1726652*
Y1725902*
X1993775Y1724777*
X1993230Y1724027*
X1992412Y1723652*
X1991593*
X1990775Y1724027*
X1990502Y1724402*
X1990230Y1725152*
X2000048Y1728902D02*
X1999775Y1727777D01*
X1999230Y1727027*
X1998412Y1726652*
X1998139*
X1997321Y1727027*
X1996775Y1727777*
X1996502Y1728902*
Y1729277*
X1996775Y1730402*
X1997321Y1731152*
X1998139Y1731527*
X1998412*
X1999230Y1731152*
X1999775Y1730402*
X2000048Y1728902*
Y1727027*
X1999775Y1725152*
X1999230Y1724027*
X1998412Y1723652*
X1997866*
X1997048Y1724027*
X1996775Y1724777*
X2003866Y1731527D02*
X2003048Y1731152D01*
X2002775Y1730402*
Y1729652*
X2003048Y1728902*
X2003593Y1728527*
X2004684Y1728152*
X2005502Y1727777*
X2006048Y1727027*
X2006321Y1726277*
Y1725152*
X2006048Y1724402*
X2005775Y1724027*
X2004957Y1723652*
X2003866*
X2003048Y1724027*
X2002775Y1724402*
X2002502Y1725152*
Y1726277*
X2002775Y1727027*
X2003321Y1727777*
X2004139Y1728152*
X2005230Y1728527*
X2005775Y1728902*
X2006048Y1729652*
Y1730402*
X2005775Y1731152*
X2004957Y1731527*
X2003866*
X2065412D02*
X2068412D01*
X2066775Y1728527*
X2067593*
X2068139Y1728152*
X2068412Y1727777*
X2068684Y1726652*
Y1725902*
X2068412Y1724777*
X2067866Y1724027*
X2067048Y1723652*
X2066230*
X2065412Y1724027*
X2065139Y1724402*
X2064866Y1725152*
X2071412Y1729652D02*
Y1730027D01*
X2071684Y1730777*
X2071957Y1731152*
X2072502Y1731527*
X2073593*
X2074139Y1731152*
X2074412Y1730777*
X2074684Y1730027*
Y1729277*
X2074412Y1728527*
X2073866Y1727402*
X2071139Y1723652*
X2074957*
X2100957Y1729652D02*
X2112957D01*
X2106957Y1723652D02*
Y1735652D01*
X2133593Y1731527D02*
X2135775Y1727777D01*
Y1723652*
X2137957Y1731527D02*
X2135775Y1727777D01*
X2140412Y1731527D02*
Y1723652D01*
Y1731527D02*
X2143957D01*
X2140412Y1727777D02*
X2142593D01*
X2140412Y1723652D02*
X2143957D01*
X2150230Y1730402D02*
X2149684Y1731152D01*
X2148866Y1731527*
X2147775*
X2146957Y1731152*
X2146412Y1730402*
Y1729652*
X2146684Y1728902*
X2146957Y1728527*
X2147502Y1728152*
X2149139Y1727402*
X2149684Y1727027*
X2149957Y1726652*
X2150230Y1725902*
Y1724777*
X2149684Y1724027*
X2148866Y1723652*
X2147775*
X2146957Y1724027*
X2146412Y1724777*
X2186775Y1730402D02*
Y1723652D01*
X2184321Y1727027D02*
X2189230D01*
X2196593Y1733027D02*
X2191684Y1721027D01*
X2199048Y1727027D02*
X2203957D01*
X2208048Y1731527D02*
X2207230Y1731152D01*
X2206684Y1730027*
X2206412Y1728152*
Y1727027*
X2206684Y1725152*
X2207230Y1724027*
X2208048Y1723652*
X2208593*
X2209412Y1724027*
X2209957Y1725152*
X2210230Y1727027*
Y1728152*
X2209957Y1730027*
X2209412Y1731152*
X2208593Y1731527*
X2208048*
X2212957Y1724402D02*
X2212684Y1724027D01*
X2212957Y1723652*
X2213230Y1724027*
X2212957Y1724402*
X2217321Y1731527D02*
X2216502Y1731152D01*
X2215957Y1730027*
X2215684Y1728152*
Y1727027*
X2215957Y1725152*
X2216502Y1724027*
X2217321Y1723652*
X2217866*
X2218684Y1724027*
X2219230Y1725152*
X2219502Y1727027*
Y1728152*
X2219230Y1730027*
X2218684Y1731152*
X2217866Y1731527*
X2217321*
X1976593Y1707527D02*
X1975775Y1707152D01*
X1975230Y1706027*
X1974957Y1704152*
Y1703027*
X1975230Y1701152*
X1975775Y1700027*
X1976593Y1699652*
X1977139*
X1977957Y1700027*
X1978502Y1701152*
X1978775Y1703027*
Y1704152*
X1978502Y1706027*
X1977957Y1707152*
X1977139Y1707527*
X1976593*
X1981502Y1700402D02*
X1981230Y1700027D01*
X1981502Y1699652*
X1981775Y1700027*
X1981502Y1700402*
X1985593Y1707527D02*
X1984775Y1707152D01*
X1984502Y1706402*
Y1705652*
X1984775Y1704902*
X1985321Y1704527*
X1986412Y1704152*
X1987230Y1703777*
X1987775Y1703027*
X1988048Y1702277*
Y1701152*
X1987775Y1700402*
X1987502Y1700027*
X1986684Y1699652*
X1985593*
X1984775Y1700027*
X1984502Y1700402*
X1984230Y1701152*
Y1702277*
X1984502Y1703027*
X1985048Y1703777*
X1985866Y1704152*
X1986957Y1704527*
X1987502Y1704902*
X1987775Y1705652*
Y1706402*
X1987502Y1707152*
X1986684Y1707527*
X1985593*
X1991866D02*
X1991048Y1707152D01*
X1990775Y1706402*
Y1705652*
X1991048Y1704902*
X1991593Y1704527*
X1992684Y1704152*
X1993502Y1703777*
X1994048Y1703027*
X1994321Y1702277*
Y1701152*
X1994048Y1700402*
X1993775Y1700027*
X1992957Y1699652*
X1991866*
X1991048Y1700027*
X1990775Y1700402*
X1990502Y1701152*
Y1702277*
X1990775Y1703027*
X1991321Y1703777*
X1992139Y1704152*
X1993230Y1704527*
X1993775Y1704902*
X1994048Y1705652*
Y1706402*
X1993775Y1707152*
X1992957Y1707527*
X1991866*
X2000321Y1704902D02*
X2000048Y1703777D01*
X1999502Y1703027*
X1998684Y1702652*
X1998412*
X1997593Y1703027*
X1997048Y1703777*
X1996775Y1704902*
Y1705277*
X1997048Y1706402*
X1997593Y1707152*
X1998412Y1707527*
X1998684*
X1999502Y1707152*
X2000048Y1706402*
X2000321Y1704902*
Y1703027*
X2000048Y1701152*
X1999502Y1700027*
X1998684Y1699652*
X1998139*
X1997321Y1700027*
X1997048Y1700777*
X2067457Y1707527D02*
X2064730Y1702277D01*
X2068821*
X2067457Y1707527D02*
Y1699652D01*
X2072639Y1707527D02*
X2071821Y1707152D01*
X2071548Y1706402*
Y1705652*
X2071821Y1704902*
X2072366Y1704527*
X2073457Y1704152*
X2074275Y1703777*
X2074821Y1703027*
X2075093Y1702277*
Y1701152*
X2074821Y1700402*
X2074548Y1700027*
X2073730Y1699652*
X2072639*
X2071821Y1700027*
X2071548Y1700402*
X2071275Y1701152*
Y1702277*
X2071548Y1703027*
X2072093Y1703777*
X2072912Y1704152*
X2074002Y1704527*
X2074548Y1704902*
X2074821Y1705652*
Y1706402*
X2074548Y1707152*
X2073730Y1707527*
X2072639*
X2100957Y1699652D02*
X2112957Y1711652D01*
X2100957D02*
X2112957Y1699652D01*
X2133593Y1707527D02*
X2135775Y1703777D01*
Y1699652*
X2137957Y1707527D02*
X2135775Y1703777D01*
X2140412Y1707527D02*
Y1699652D01*
Y1707527D02*
X2143957D01*
X2140412Y1703777D02*
X2142593D01*
X2140412Y1699652D02*
X2143957D01*
X2150230Y1706402D02*
X2149684Y1707152D01*
X2148866Y1707527*
X2147775*
X2146957Y1707152*
X2146412Y1706402*
Y1705652*
X2146684Y1704902*
X2146957Y1704527*
X2147502Y1704152*
X2149139Y1703402*
X2149684Y1703027*
X2149957Y1702652*
X2150230Y1701902*
Y1700777*
X2149684Y1700027*
X2148866Y1699652*
X2147775*
X2146957Y1700027*
X2146412Y1700777*
X2186775Y1706402D02*
Y1699652D01*
X2184321Y1703027D02*
X2189230D01*
X2196593Y1709027D02*
X2191684Y1697027D01*
X2199048Y1703027D02*
X2203957D01*
X2208048Y1707527D02*
X2207230Y1707152D01*
X2206684Y1706027*
X2206412Y1704152*
Y1703027*
X2206684Y1701152*
X2207230Y1700027*
X2208048Y1699652*
X2208593*
X2209412Y1700027*
X2209957Y1701152*
X2210230Y1703027*
Y1704152*
X2209957Y1706027*
X2209412Y1707152*
X2208593Y1707527*
X2208048*
X2212957Y1700402D02*
X2212684Y1700027D01*
X2212957Y1699652*
X2213230Y1700027*
X2212957Y1700402*
X2217321Y1707527D02*
X2216502Y1707152D01*
X2215957Y1706027*
X2215684Y1704152*
Y1703027*
X2215957Y1701152*
X2216502Y1700027*
X2217321Y1699652*
X2217866*
X2218684Y1700027*
X2219230Y1701152*
X2219502Y1703027*
Y1704152*
X2219230Y1706027*
X2218684Y1707152*
X2217866Y1707527*
X2217321*
X1975502Y1683527D02*
X1978502D01*
X1976866Y1680527*
X1977684*
X1978230Y1680152*
X1978502Y1679777*
X1978775Y1678652*
Y1677902*
X1978502Y1676777*
X1977957Y1676027*
X1977139Y1675652*
X1976321*
X1975502Y1676027*
X1975230Y1676402*
X1974957Y1677152*
X2069366Y1683527D02*
X2068548Y1683152D01*
X2068275Y1682402*
Y1681652*
X2068548Y1680902*
X2069093Y1680527*
X2070184Y1680152*
X2071002Y1679777*
X2071548Y1679027*
X2071821Y1678277*
Y1677152*
X2071548Y1676402*
X2071275Y1676027*
X2070457Y1675652*
X2069366*
X2068548Y1676027*
X2068275Y1676402*
X2068002Y1677152*
Y1678277*
X2068275Y1679027*
X2068821Y1679777*
X2069639Y1680152*
X2070730Y1680527*
X2071275Y1680902*
X2071548Y1681652*
Y1682402*
X2071275Y1683152*
X2070457Y1683527*
X2069366*
X2100957Y1675652D02*
X2112957D01*
Y1687652*
X2100957*
Y1675652*
X2106957Y1681652D02*
Y1687652D01*
X2133593Y1683527D02*
X2135775Y1679777D01*
Y1675652*
X2137957Y1683527D02*
X2135775Y1679777D01*
X2140412Y1683527D02*
Y1675652D01*
Y1683527D02*
X2143957D01*
X2140412Y1679777D02*
X2142593D01*
X2140412Y1675652D02*
X2143957D01*
X2150230Y1682402D02*
X2149684Y1683152D01*
X2148866Y1683527*
X2147775*
X2146957Y1683152*
X2146412Y1682402*
Y1681652*
X2146684Y1680902*
X2146957Y1680527*
X2147502Y1680152*
X2149139Y1679402*
X2149684Y1679027*
X2149957Y1678652*
X2150230Y1677902*
Y1676777*
X2149684Y1676027*
X2148866Y1675652*
X2147775*
X2146957Y1676027*
X2146412Y1676777*
X2186775Y1682402D02*
Y1675652D01*
X2184321Y1679027D02*
X2189230D01*
X2196593Y1685027D02*
X2191684Y1673027D01*
X2199048Y1679027D02*
X2203957D01*
X2208048Y1683527D02*
X2207230Y1683152D01*
X2206684Y1682027*
X2206412Y1680152*
Y1679027*
X2206684Y1677152*
X2207230Y1676027*
X2208048Y1675652*
X2208593*
X2209412Y1676027*
X2209957Y1677152*
X2210230Y1679027*
Y1680152*
X2209957Y1682027*
X2209412Y1683152*
X2208593Y1683527*
X2208048*
X2212957Y1676402D02*
X2212684Y1676027D01*
X2212957Y1675652*
X2213230Y1676027*
X2212957Y1676402*
X2217321Y1683527D02*
X2216502Y1683152D01*
X2215957Y1682027*
X2215684Y1680152*
Y1679027*
X2215957Y1677152*
X2216502Y1676027*
X2217321Y1675652*
X2217866*
X2218684Y1676027*
X2219230Y1677152*
X2219502Y1679027*
Y1680152*
X2219230Y1682027*
X2218684Y1683152*
X2217866Y1683527*
X2217321*
X1976593Y1659527D02*
X1975775Y1659152D01*
X1975230Y1658027*
X1974957Y1656152*
Y1655027*
X1975230Y1653152*
X1975775Y1652027*
X1976593Y1651652*
X1977139*
X1977957Y1652027*
X1978502Y1653152*
X1978775Y1655027*
Y1656152*
X1978502Y1658027*
X1977957Y1659152*
X1977139Y1659527*
X1976593*
X1981502Y1652402D02*
X1981230Y1652027D01*
X1981502Y1651652*
X1981775Y1652027*
X1981502Y1652402*
X1987502Y1658402D02*
X1987230Y1659152D01*
X1986412Y1659527*
X1985866*
X1985048Y1659152*
X1984502Y1658027*
X1984230Y1656152*
Y1654277*
X1984502Y1652777*
X1985048Y1652027*
X1985866Y1651652*
X1986139*
X1986957Y1652027*
X1987502Y1652777*
X1987775Y1653902*
Y1654277*
X1987502Y1655402*
X1986957Y1656152*
X1986139Y1656527*
X1985866*
X1985048Y1656152*
X1984502Y1655402*
X1984230Y1654277*
X1996502Y1656902D02*
X1999502Y1651652D01*
Y1656902D02*
X1996502Y1651652D01*
X2008230Y1658027D02*
X2008775Y1658402D01*
X2009593Y1659527*
Y1651652*
X2012321Y1652402D02*
X2012048Y1652027D01*
X2012321Y1651652*
X2012593Y1652027*
X2012321Y1652402*
X2015048Y1658027D02*
X2015593Y1658402D01*
X2016412Y1659527*
Y1651652*
X2071684Y1656902D02*
X2071412Y1655777D01*
X2070866Y1655027*
X2070048Y1654652*
X2069775*
X2068957Y1655027*
X2068412Y1655777*
X2068139Y1656902*
Y1657277*
X2068412Y1658402*
X2068957Y1659152*
X2069775Y1659527*
X2070048*
X2070866Y1659152*
X2071412Y1658402*
X2071684Y1656902*
Y1655027*
X2071412Y1653152*
X2070866Y1652027*
X2070048Y1651652*
X2069502*
X2068684Y1652027*
X2068412Y1652777*
X2106957Y1651652D02*
X2112957Y1657652D01*
X2106957Y1663652*
X2100957Y1657652*
X2106957Y1651652*
Y1657652D02*
Y1663652D01*
X2136593Y1659527D02*
Y1651652D01*
Y1659527D02*
X2140412Y1651652D01*
Y1659527D02*
Y1651652D01*
X2144502Y1659527D02*
X2143957Y1659152D01*
X2143412Y1658402*
X2143139Y1657652*
X2142866Y1656527*
Y1654652*
X2143139Y1653527*
X2143412Y1652777*
X2143957Y1652027*
X2144502Y1651652*
X2145593*
X2146139Y1652027*
X2146684Y1652777*
X2146957Y1653527*
X2147230Y1654652*
Y1656527*
X2146957Y1657652*
X2146684Y1658402*
X2146139Y1659152*
X2145593Y1659527*
X2144502*
X2186775Y1658402D02*
Y1651652D01*
X2184321Y1655027D02*
X2189230D01*
X2196593Y1661027D02*
X2191684Y1649027D01*
X2199048Y1655027D02*
X2203957D01*
X2208048Y1659527D02*
X2207230Y1659152D01*
X2206684Y1658027*
X2206412Y1656152*
Y1655027*
X2206684Y1653152*
X2207230Y1652027*
X2208048Y1651652*
X2208593*
X2209412Y1652027*
X2209957Y1653152*
X2210230Y1655027*
Y1656152*
X2209957Y1658027*
X2209412Y1659152*
X2208593Y1659527*
X2208048*
X2212957Y1652402D02*
X2212684Y1652027D01*
X2212957Y1651652*
X2213230Y1652027*
X2212957Y1652402*
X2217321Y1659527D02*
X2216502Y1659152D01*
X2215957Y1658027*
X2215684Y1656152*
Y1655027*
X2215957Y1653152*
X2216502Y1652027*
X2217321Y1651652*
X2217866*
X2218684Y1652027*
X2219230Y1653152*
X2219502Y1655027*
Y1656152*
X2219230Y1658027*
X2218684Y1659152*
X2217866Y1659527*
X2217321*
X1976593Y1635527D02*
X1975775Y1635152D01*
X1975230Y1634027*
X1974957Y1632152*
Y1631027*
X1975230Y1629152*
X1975775Y1628027*
X1976593Y1627652*
X1977139*
X1977957Y1628027*
X1978502Y1629152*
X1978775Y1631027*
Y1632152*
X1978502Y1634027*
X1977957Y1635152*
X1977139Y1635527*
X1976593*
X1981502Y1628402D02*
X1981230Y1628027D01*
X1981502Y1627652*
X1981775Y1628027*
X1981502Y1628402*
X1987775Y1632902D02*
X1987502Y1631777D01*
X1986957Y1631027*
X1986139Y1630652*
X1985866*
X1985048Y1631027*
X1984502Y1631777*
X1984230Y1632902*
Y1633277*
X1984502Y1634402*
X1985048Y1635152*
X1985866Y1635527*
X1986139*
X1986957Y1635152*
X1987502Y1634402*
X1987775Y1632902*
Y1631027*
X1987502Y1629152*
X1986957Y1628027*
X1986139Y1627652*
X1985593*
X1984775Y1628027*
X1984502Y1628777*
X2068275Y1635527D02*
X2065548D01*
X2065275Y1632152*
X2065548Y1632527*
X2066366Y1632902*
X2067184*
X2068002Y1632527*
X2068548Y1631777*
X2068821Y1630652*
X2068548Y1629902*
X2068275Y1628777*
X2067730Y1628027*
X2066912Y1627652*
X2066093*
X2065275Y1628027*
X2065002Y1628402*
X2064730Y1629152*
X2072912Y1635527D02*
X2072093Y1635152D01*
X2071548Y1634027*
X2071275Y1632152*
Y1631027*
X2071548Y1629152*
X2072093Y1628027*
X2072912Y1627652*
X2073457*
X2074275Y1628027*
X2074821Y1629152*
X2075093Y1631027*
Y1632152*
X2074821Y1634027*
X2074275Y1635152*
X2073457Y1635527*
X2072912*
X2100957Y1627652D02*
X2112957D01*
X2100957Y1639652*
X2112957*
X2100957Y1627652*
X2133593Y1635527D02*
X2135775Y1631777D01*
Y1627652*
X2137957Y1635527D02*
X2135775Y1631777D01*
X2140412Y1635527D02*
Y1627652D01*
Y1635527D02*
X2143957D01*
X2140412Y1631777D02*
X2142593D01*
X2140412Y1627652D02*
X2143957D01*
X2150230Y1634402D02*
X2149684Y1635152D01*
X2148866Y1635527*
X2147775*
X2146957Y1635152*
X2146412Y1634402*
Y1633652*
X2146684Y1632902*
X2146957Y1632527*
X2147502Y1632152*
X2149139Y1631402*
X2149684Y1631027*
X2149957Y1630652*
X2150230Y1629902*
Y1628777*
X2149684Y1628027*
X2148866Y1627652*
X2147775*
X2146957Y1628027*
X2146412Y1628777*
X2186775Y1634402D02*
Y1627652D01*
X2184321Y1631027D02*
X2189230D01*
X2196593Y1637027D02*
X2191684Y1625027D01*
X2199048Y1631027D02*
X2203957D01*
X2208048Y1635527D02*
X2207230Y1635152D01*
X2206684Y1634027*
X2206412Y1632152*
Y1631027*
X2206684Y1629152*
X2207230Y1628027*
X2208048Y1627652*
X2208593*
X2209412Y1628027*
X2209957Y1629152*
X2210230Y1631027*
Y1632152*
X2209957Y1634027*
X2209412Y1635152*
X2208593Y1635527*
X2208048*
X2212957Y1628402D02*
X2212684Y1628027D01*
X2212957Y1627652*
X2213230Y1628027*
X2212957Y1628402*
X2217321Y1635527D02*
X2216502Y1635152D01*
X2215957Y1634027*
X2215684Y1632152*
Y1631027*
X2215957Y1629152*
X2216502Y1628027*
X2217321Y1627652*
X2217866*
X2218684Y1628027*
X2219230Y1629152*
X2219502Y1631027*
Y1632152*
X2219230Y1634027*
X2218684Y1635152*
X2217866Y1635527*
X2217321*
X1974957Y1610027D02*
X1975502Y1610402D01*
X1976321Y1611527*
Y1603652*
X1979048Y1604402D02*
X1978775Y1604027D01*
X1979048Y1603652*
X1979321Y1604027*
X1979048Y1604402*
X1983139Y1611527D02*
X1982321Y1611152D01*
X1982048Y1610402*
Y1609652*
X1982321Y1608902*
X1982866Y1608527*
X1983957Y1608152*
X1984775Y1607777*
X1985321Y1607027*
X1985593Y1606277*
Y1605152*
X1985321Y1604402*
X1985048Y1604027*
X1984230Y1603652*
X1983139*
X1982321Y1604027*
X1982048Y1604402*
X1981775Y1605152*
Y1606277*
X1982048Y1607027*
X1982593Y1607777*
X1983412Y1608152*
X1984502Y1608527*
X1985048Y1608902*
X1985321Y1609652*
Y1610402*
X1985048Y1611152*
X1984230Y1611527*
X1983139*
X2071684Y1608902D02*
X2071412Y1607777D01*
X2070866Y1607027*
X2070048Y1606652*
X2069775*
X2068957Y1607027*
X2068412Y1607777*
X2068139Y1608902*
Y1609277*
X2068412Y1610402*
X2068957Y1611152*
X2069775Y1611527*
X2070048*
X2070866Y1611152*
X2071412Y1610402*
X2071684Y1608902*
Y1607027*
X2071412Y1605152*
X2070866Y1604027*
X2070048Y1603652*
X2069502*
X2068684Y1604027*
X2068412Y1604777*
X2100957Y1603652D02*
X2112957Y1615652D01*
Y1603652*
X2100957Y1615652*
Y1603652*
X2133593Y1611527D02*
X2135775Y1607777D01*
Y1603652*
X2137957Y1611527D02*
X2135775Y1607777D01*
X2140412Y1611527D02*
Y1603652D01*
Y1611527D02*
X2143957D01*
X2140412Y1607777D02*
X2142593D01*
X2140412Y1603652D02*
X2143957D01*
X2150230Y1610402D02*
X2149684Y1611152D01*
X2148866Y1611527*
X2147775*
X2146957Y1611152*
X2146412Y1610402*
Y1609652*
X2146684Y1608902*
X2146957Y1608527*
X2147502Y1608152*
X2149139Y1607402*
X2149684Y1607027*
X2149957Y1606652*
X2150230Y1605902*
Y1604777*
X2149684Y1604027*
X2148866Y1603652*
X2147775*
X2146957Y1604027*
X2146412Y1604777*
X2186775Y1610402D02*
Y1603652D01*
X2184321Y1607027D02*
X2189230D01*
X2196593Y1613027D02*
X2191684Y1601027D01*
X2199048Y1607027D02*
X2203957D01*
X2208048Y1611527D02*
X2207230Y1611152D01*
X2206684Y1610027*
X2206412Y1608152*
Y1607027*
X2206684Y1605152*
X2207230Y1604027*
X2208048Y1603652*
X2208593*
X2209412Y1604027*
X2209957Y1605152*
X2210230Y1607027*
Y1608152*
X2209957Y1610027*
X2209412Y1611152*
X2208593Y1611527*
X2208048*
X2212957Y1604402D02*
X2212684Y1604027D01*
X2212957Y1603652*
X2213230Y1604027*
X2212957Y1604402*
X2217321Y1611527D02*
X2216502Y1611152D01*
X2215957Y1610027*
X2215684Y1608152*
Y1607027*
X2215957Y1605152*
X2216502Y1604027*
X2217321Y1603652*
X2217866*
X2218684Y1604027*
X2219230Y1605152*
X2219502Y1607027*
Y1608152*
X2219230Y1610027*
X2218684Y1611152*
X2217866Y1611527*
X2217321*
X1975502Y1587527D02*
X1978502D01*
X1976866Y1584527*
X1977684*
X1978230Y1584152*
X1978502Y1583777*
X1978775Y1582652*
Y1581902*
X1978502Y1580777*
X1977957Y1580027*
X1977139Y1579652*
X1976321*
X1975502Y1580027*
X1975230Y1580402*
X1974957Y1581152*
X1981502Y1580402D02*
X1981230Y1580027D01*
X1981502Y1579652*
X1981775Y1580027*
X1981502Y1580402*
X1987775Y1587527D02*
X1985048D01*
X1984775Y1584152*
X1985048Y1584527*
X1985866Y1584902*
X1986684*
X1987502Y1584527*
X1988048Y1583777*
X1988321Y1582652*
X1988048Y1581902*
X1987775Y1580777*
X1987230Y1580027*
X1986412Y1579652*
X1985593*
X1984775Y1580027*
X1984502Y1580402*
X1984230Y1581152*
X2068275Y1585652D02*
Y1586027D01*
X2068548Y1586777*
X2068821Y1587152*
X2069366Y1587527*
X2070457*
X2071002Y1587152*
X2071275Y1586777*
X2071548Y1586027*
Y1585277*
X2071275Y1584527*
X2070730Y1583402*
X2068002Y1579652*
X2071821*
X2100957Y1585652D02*
X2112957D01*
X2106957Y1579652D02*
Y1591652D01*
X2111702Y1594952D02*
X2109957Y1588652D01*
X2111702Y1594952D02*
X2113448Y1588652D01*
X2110612Y1590752D02*
X2112793D01*
X2133593Y1587527D02*
X2135775Y1583777D01*
Y1579652*
X2137957Y1587527D02*
X2135775Y1583777D01*
X2140412Y1587527D02*
Y1579652D01*
Y1587527D02*
X2143957D01*
X2140412Y1583777D02*
X2142593D01*
X2140412Y1579652D02*
X2143957D01*
X2150230Y1586402D02*
X2149684Y1587152D01*
X2148866Y1587527*
X2147775*
X2146957Y1587152*
X2146412Y1586402*
Y1585652*
X2146684Y1584902*
X2146957Y1584527*
X2147502Y1584152*
X2149139Y1583402*
X2149684Y1583027*
X2149957Y1582652*
X2150230Y1581902*
Y1580777*
X2149684Y1580027*
X2148866Y1579652*
X2147775*
X2146957Y1580027*
X2146412Y1580777*
X2186775Y1586402D02*
Y1579652D01*
X2184321Y1583027D02*
X2189230D01*
X2196593Y1589027D02*
X2191684Y1577027D01*
X2199048Y1583027D02*
X2203957D01*
X2208048Y1587527D02*
X2207230Y1587152D01*
X2206684Y1586027*
X2206412Y1584152*
Y1583027*
X2206684Y1581152*
X2207230Y1580027*
X2208048Y1579652*
X2208593*
X2209412Y1580027*
X2209957Y1581152*
X2210230Y1583027*
Y1584152*
X2209957Y1586027*
X2209412Y1587152*
X2208593Y1587527*
X2208048*
X2212957Y1580402D02*
X2212684Y1580027D01*
X2212957Y1579652*
X2213230Y1580027*
X2212957Y1580402*
X2217321Y1587527D02*
X2216502Y1587152D01*
X2215957Y1586027*
X2215684Y1584152*
Y1583027*
X2215957Y1581152*
X2216502Y1580027*
X2217321Y1579652*
X2217866*
X2218684Y1580027*
X2219230Y1581152*
X2219502Y1583027*
Y1584152*
X2219230Y1586027*
X2218684Y1587152*
X2217866Y1587527*
X2217321*
X1975502Y1563527D02*
X1978502D01*
X1976866Y1560527*
X1977684*
X1978230Y1560152*
X1978502Y1559777*
X1978775Y1558652*
Y1557902*
X1978502Y1556777*
X1977957Y1556027*
X1977139Y1555652*
X1976321*
X1975502Y1556027*
X1975230Y1556402*
X1974957Y1557152*
X1981502Y1556402D02*
X1981230Y1556027D01*
X1981502Y1555652*
X1981775Y1556027*
X1981502Y1556402*
X1984230Y1562027D02*
X1984775Y1562402D01*
X1985593Y1563527*
Y1555652*
X2070593Y1563527D02*
X2067866Y1558277D01*
X2071957*
X2070593Y1563527D02*
Y1555652D01*
X2100957Y1561652D02*
X2112957D01*
X2106957Y1555652D02*
Y1567652D01*
X2109957Y1570952D02*
Y1564652D01*
Y1570952D02*
X2111921D01*
X2112575Y1570652*
X2112793Y1570352*
X2113012Y1569752*
Y1569152*
X2112793Y1568552*
X2112575Y1568252*
X2111921Y1567952*
X2109957D02*
X2111921D01*
X2112575Y1567652*
X2112793Y1567352*
X2113012Y1566752*
Y1565852*
X2112793Y1565252*
X2112575Y1564952*
X2111921Y1564652*
X2109957*
X2133593Y1563527D02*
X2135775Y1559777D01*
Y1555652*
X2137957Y1563527D02*
X2135775Y1559777D01*
X2140412Y1563527D02*
Y1555652D01*
Y1563527D02*
X2143957D01*
X2140412Y1559777D02*
X2142593D01*
X2140412Y1555652D02*
X2143957D01*
X2150230Y1562402D02*
X2149684Y1563152D01*
X2148866Y1563527*
X2147775*
X2146957Y1563152*
X2146412Y1562402*
Y1561652*
X2146684Y1560902*
X2146957Y1560527*
X2147502Y1560152*
X2149139Y1559402*
X2149684Y1559027*
X2149957Y1558652*
X2150230Y1557902*
Y1556777*
X2149684Y1556027*
X2148866Y1555652*
X2147775*
X2146957Y1556027*
X2146412Y1556777*
X2186775Y1562402D02*
Y1555652D01*
X2184321Y1559027D02*
X2189230D01*
X2196593Y1565027D02*
X2191684Y1553027D01*
X2199048Y1559027D02*
X2203957D01*
X2208048Y1563527D02*
X2207230Y1563152D01*
X2206684Y1562027*
X2206412Y1560152*
Y1559027*
X2206684Y1557152*
X2207230Y1556027*
X2208048Y1555652*
X2208593*
X2209412Y1556027*
X2209957Y1557152*
X2210230Y1559027*
Y1560152*
X2209957Y1562027*
X2209412Y1563152*
X2208593Y1563527*
X2208048*
X2212957Y1556402D02*
X2212684Y1556027D01*
X2212957Y1555652*
X2213230Y1556027*
X2212957Y1556402*
X2217321Y1563527D02*
X2216502Y1563152D01*
X2215957Y1562027*
X2215684Y1560152*
Y1559027*
X2215957Y1557152*
X2216502Y1556027*
X2217321Y1555652*
X2217866*
X2218684Y1556027*
X2219230Y1557152*
X2219502Y1559027*
Y1560152*
X2219230Y1562027*
X2218684Y1563152*
X2217866Y1563527*
X2217321*
X1974957Y1538027D02*
X1975502Y1538402D01*
X1976321Y1539527*
Y1531652*
X1979048Y1532402D02*
X1978775Y1532027D01*
X1979048Y1531652*
X1979321Y1532027*
X1979048Y1532402*
X1982321Y1539527D02*
X1985321D01*
X1983684Y1536527*
X1984502*
X1985048Y1536152*
X1985321Y1535777*
X1985593Y1534652*
Y1533902*
X1985321Y1532777*
X1984775Y1532027*
X1983957Y1531652*
X1983139*
X1982321Y1532027*
X1982048Y1532402*
X1981775Y1533152*
X2065139Y1537652D02*
Y1538027D01*
X2065412Y1538777*
X2065684Y1539152*
X2066230Y1539527*
X2067321*
X2067866Y1539152*
X2068139Y1538777*
X2068412Y1538027*
Y1537277*
X2068139Y1536527*
X2067593Y1535402*
X2064866Y1531652*
X2068684*
X2072775Y1539527D02*
X2071957Y1539152D01*
X2071412Y1538027*
X2071139Y1536152*
Y1535027*
X2071412Y1533152*
X2071957Y1532027*
X2072775Y1531652*
X2073321*
X2074139Y1532027*
X2074684Y1533152*
X2074957Y1535027*
Y1536152*
X2074684Y1538027*
X2074139Y1539152*
X2073321Y1539527*
X2072775*
X2100957Y1537652D02*
X2112957D01*
X2106957Y1531652D02*
Y1543652D01*
X2113230Y1545452D02*
X2113012Y1546052D01*
X2112575Y1546652*
X2112139Y1546952*
X2111266*
X2110830Y1546652*
X2110393Y1546052*
X2110175Y1545452*
X2109957Y1544552*
Y1543052*
X2110175Y1542152*
X2110393Y1541552*
X2110830Y1540952*
X2111266Y1540652*
X2112139*
X2112575Y1540952*
X2113012Y1541552*
X2113230Y1542152*
X2133593Y1539527D02*
X2135775Y1535777D01*
Y1531652*
X2137957Y1539527D02*
X2135775Y1535777D01*
X2140412Y1539527D02*
Y1531652D01*
Y1539527D02*
X2143957D01*
X2140412Y1535777D02*
X2142593D01*
X2140412Y1531652D02*
X2143957D01*
X2150230Y1538402D02*
X2149684Y1539152D01*
X2148866Y1539527*
X2147775*
X2146957Y1539152*
X2146412Y1538402*
Y1537652*
X2146684Y1536902*
X2146957Y1536527*
X2147502Y1536152*
X2149139Y1535402*
X2149684Y1535027*
X2149957Y1534652*
X2150230Y1533902*
Y1532777*
X2149684Y1532027*
X2148866Y1531652*
X2147775*
X2146957Y1532027*
X2146412Y1532777*
X2186775Y1538402D02*
Y1531652D01*
X2184321Y1535027D02*
X2189230D01*
X2196593Y1541027D02*
X2191684Y1529027D01*
X2199048Y1535027D02*
X2203957D01*
X2208048Y1539527D02*
X2207230Y1539152D01*
X2206684Y1538027*
X2206412Y1536152*
Y1535027*
X2206684Y1533152*
X2207230Y1532027*
X2208048Y1531652*
X2208593*
X2209412Y1532027*
X2209957Y1533152*
X2210230Y1535027*
Y1536152*
X2209957Y1538027*
X2209412Y1539152*
X2208593Y1539527*
X2208048*
X2212957Y1532402D02*
X2212684Y1532027D01*
X2212957Y1531652*
X2213230Y1532027*
X2212957Y1532402*
X2217321Y1539527D02*
X2216502Y1539152D01*
X2215957Y1538027*
X2215684Y1536152*
Y1535027*
X2215957Y1533152*
X2216502Y1532027*
X2217321Y1531652*
X2217866*
X2218684Y1532027*
X2219230Y1533152*
X2219502Y1535027*
Y1536152*
X2219230Y1538027*
X2218684Y1539152*
X2217866Y1539527*
X2217321*
X1974957Y1514027D02*
X1975502Y1514402D01*
X1976321Y1515527*
Y1507652*
X1979048Y1508402D02*
X1978775Y1508027D01*
X1979048Y1507652*
X1979321Y1508027*
X1979048Y1508402*
X1981775Y1514027D02*
X1982321Y1514402D01*
X1983139Y1515527*
Y1507652*
X2068548Y1515527D02*
X2071548D01*
X2069912Y1512527*
X2070730*
X2071275Y1512152*
X2071548Y1511777*
X2071821Y1510652*
Y1509902*
X2071548Y1508777*
X2071002Y1508027*
X2070184Y1507652*
X2069366*
X2068548Y1508027*
X2068275Y1508402*
X2068002Y1509152*
X2100957Y1513652D02*
X2112957D01*
X2106957Y1507652D02*
Y1519652D01*
X2109957Y1522952D02*
Y1516652D01*
Y1522952D02*
X2111484D01*
X2112139Y1522652*
X2112575Y1522052*
X2112793Y1521452*
X2113012Y1520552*
Y1519052*
X2112793Y1518152*
X2112575Y1517552*
X2112139Y1516952*
X2111484Y1516652*
X2109957*
X2133593Y1515527D02*
X2135775Y1511777D01*
Y1507652*
X2137957Y1515527D02*
X2135775Y1511777D01*
X2140412Y1515527D02*
Y1507652D01*
Y1515527D02*
X2143957D01*
X2140412Y1511777D02*
X2142593D01*
X2140412Y1507652D02*
X2143957D01*
X2150230Y1514402D02*
X2149684Y1515152D01*
X2148866Y1515527*
X2147775*
X2146957Y1515152*
X2146412Y1514402*
Y1513652*
X2146684Y1512902*
X2146957Y1512527*
X2147502Y1512152*
X2149139Y1511402*
X2149684Y1511027*
X2149957Y1510652*
X2150230Y1509902*
Y1508777*
X2149684Y1508027*
X2148866Y1507652*
X2147775*
X2146957Y1508027*
X2146412Y1508777*
X2186775Y1514402D02*
Y1507652D01*
X2184321Y1511027D02*
X2189230D01*
X2196593Y1517027D02*
X2191684Y1505027D01*
X2199048Y1511027D02*
X2203957D01*
X2208048Y1515527D02*
X2207230Y1515152D01*
X2206684Y1514027*
X2206412Y1512152*
Y1511027*
X2206684Y1509152*
X2207230Y1508027*
X2208048Y1507652*
X2208593*
X2209412Y1508027*
X2209957Y1509152*
X2210230Y1511027*
Y1512152*
X2209957Y1514027*
X2209412Y1515152*
X2208593Y1515527*
X2208048*
X2212957Y1508402D02*
X2212684Y1508027D01*
X2212957Y1507652*
X2213230Y1508027*
X2212957Y1508402*
X2217321Y1515527D02*
X2216502Y1515152D01*
X2215957Y1514027*
X2215684Y1512152*
Y1511027*
X2215957Y1509152*
X2216502Y1508027*
X2217321Y1507652*
X2217866*
X2218684Y1508027*
X2219230Y1509152*
X2219502Y1511027*
Y1512152*
X2219230Y1514027*
X2218684Y1515152*
X2217866Y1515527*
X2217321*
X1976593Y1491527D02*
X1975775Y1491152D01*
X1975230Y1490027*
X1974957Y1488152*
Y1487027*
X1975230Y1485152*
X1975775Y1484027*
X1976593Y1483652*
X1977139*
X1977957Y1484027*
X1978502Y1485152*
X1978775Y1487027*
Y1488152*
X1978502Y1490027*
X1977957Y1491152*
X1977139Y1491527*
X1976593*
X1981502Y1484402D02*
X1981230Y1484027D01*
X1981502Y1483652*
X1981775Y1484027*
X1981502Y1484402*
X1985593Y1491527D02*
X1984775Y1491152D01*
X1984502Y1490402*
Y1489652*
X1984775Y1488902*
X1985321Y1488527*
X1986412Y1488152*
X1987230Y1487777*
X1987775Y1487027*
X1988048Y1486277*
Y1485152*
X1987775Y1484402*
X1987502Y1484027*
X1986684Y1483652*
X1985593*
X1984775Y1484027*
X1984502Y1484402*
X1984230Y1485152*
Y1486277*
X1984502Y1487027*
X1985048Y1487777*
X1985866Y1488152*
X1986957Y1488527*
X1987502Y1488902*
X1987775Y1489652*
Y1490402*
X1987502Y1491152*
X1986684Y1491527*
X1985593*
X2069366D02*
X2068548Y1491152D01*
X2068275Y1490402*
Y1489652*
X2068548Y1488902*
X2069093Y1488527*
X2070184Y1488152*
X2071002Y1487777*
X2071548Y1487027*
X2071821Y1486277*
Y1485152*
X2071548Y1484402*
X2071275Y1484027*
X2070457Y1483652*
X2069366*
X2068548Y1484027*
X2068275Y1484402*
X2068002Y1485152*
Y1486277*
X2068275Y1487027*
X2068821Y1487777*
X2069639Y1488152*
X2070730Y1488527*
X2071275Y1488902*
X2071548Y1489652*
Y1490402*
X2071275Y1491152*
X2070457Y1491527*
X2069366*
X2100957Y1489652D02*
X2112957D01*
X2106957Y1483652D02*
Y1495652D01*
X2109957Y1498952D02*
Y1492652D01*
Y1498952D02*
X2112793D01*
X2109957Y1495952D02*
X2111702D01*
X2109957Y1492652D02*
X2112793D01*
X2133593Y1491527D02*
X2135775Y1487777D01*
Y1483652*
X2137957Y1491527D02*
X2135775Y1487777D01*
X2140412Y1491527D02*
Y1483652D01*
Y1491527D02*
X2143957D01*
X2140412Y1487777D02*
X2142593D01*
X2140412Y1483652D02*
X2143957D01*
X2150230Y1490402D02*
X2149684Y1491152D01*
X2148866Y1491527*
X2147775*
X2146957Y1491152*
X2146412Y1490402*
Y1489652*
X2146684Y1488902*
X2146957Y1488527*
X2147502Y1488152*
X2149139Y1487402*
X2149684Y1487027*
X2149957Y1486652*
X2150230Y1485902*
Y1484777*
X2149684Y1484027*
X2148866Y1483652*
X2147775*
X2146957Y1484027*
X2146412Y1484777*
X2186775Y1490402D02*
Y1483652D01*
X2184321Y1487027D02*
X2189230D01*
X2196593Y1493027D02*
X2191684Y1481027D01*
X2199048Y1487027D02*
X2203957D01*
X2208048Y1491527D02*
X2207230Y1491152D01*
X2206684Y1490027*
X2206412Y1488152*
Y1487027*
X2206684Y1485152*
X2207230Y1484027*
X2208048Y1483652*
X2208593*
X2209412Y1484027*
X2209957Y1485152*
X2210230Y1487027*
Y1488152*
X2209957Y1490027*
X2209412Y1491152*
X2208593Y1491527*
X2208048*
X2212957Y1484402D02*
X2212684Y1484027D01*
X2212957Y1483652*
X2213230Y1484027*
X2212957Y1484402*
X2217321Y1491527D02*
X2216502Y1491152D01*
X2215957Y1490027*
X2215684Y1488152*
Y1487027*
X2215957Y1485152*
X2216502Y1484027*
X2217321Y1483652*
X2217866*
X2218684Y1484027*
X2219230Y1485152*
X2219502Y1487027*
Y1488152*
X2219230Y1490027*
X2218684Y1491152*
X2217866Y1491527*
X2217321*
X1976593Y1467527D02*
X1975775Y1467152D01*
X1975230Y1466027*
X1974957Y1464152*
Y1463027*
X1975230Y1461152*
X1975775Y1460027*
X1976593Y1459652*
X1977139*
X1977957Y1460027*
X1978502Y1461152*
X1978775Y1463027*
Y1464152*
X1978502Y1466027*
X1977957Y1467152*
X1977139Y1467527*
X1976593*
X1981502Y1460402D02*
X1981230Y1460027D01*
X1981502Y1459652*
X1981775Y1460027*
X1981502Y1460402*
X1986957Y1467527D02*
X1984230Y1462277D01*
X1988321*
X1986957Y1467527D02*
Y1459652D01*
X2065412Y1467527D02*
X2068412D01*
X2066775Y1464527*
X2067593*
X2068139Y1464152*
X2068412Y1463777*
X2068684Y1462652*
Y1461902*
X2068412Y1460777*
X2067866Y1460027*
X2067048Y1459652*
X2066230*
X2065412Y1460027*
X2065139Y1460402*
X2064866Y1461152*
X2072775Y1467527D02*
X2071957Y1467152D01*
X2071412Y1466027*
X2071139Y1464152*
Y1463027*
X2071412Y1461152*
X2071957Y1460027*
X2072775Y1459652*
X2073321*
X2074139Y1460027*
X2074684Y1461152*
X2074957Y1463027*
Y1464152*
X2074684Y1466027*
X2074139Y1467152*
X2073321Y1467527*
X2072775*
X2100957Y1465652D02*
X2112957D01*
X2106957Y1459652D02*
Y1471652D01*
X2109957Y1474952D02*
Y1468652D01*
Y1474952D02*
X2112793D01*
X2109957Y1471952D02*
X2111702D01*
X2133593Y1467527D02*
X2135775Y1463777D01*
Y1459652*
X2137957Y1467527D02*
X2135775Y1463777D01*
X2140412Y1467527D02*
Y1459652D01*
Y1467527D02*
X2143957D01*
X2140412Y1463777D02*
X2142593D01*
X2140412Y1459652D02*
X2143957D01*
X2150230Y1466402D02*
X2149684Y1467152D01*
X2148866Y1467527*
X2147775*
X2146957Y1467152*
X2146412Y1466402*
Y1465652*
X2146684Y1464902*
X2146957Y1464527*
X2147502Y1464152*
X2149139Y1463402*
X2149684Y1463027*
X2149957Y1462652*
X2150230Y1461902*
Y1460777*
X2149684Y1460027*
X2148866Y1459652*
X2147775*
X2146957Y1460027*
X2146412Y1460777*
X2186775Y1466402D02*
Y1459652D01*
X2184321Y1463027D02*
X2189230D01*
X2196593Y1469027D02*
X2191684Y1457027D01*
X2199048Y1463027D02*
X2203957D01*
X2208048Y1467527D02*
X2207230Y1467152D01*
X2206684Y1466027*
X2206412Y1464152*
Y1463027*
X2206684Y1461152*
X2207230Y1460027*
X2208048Y1459652*
X2208593*
X2209412Y1460027*
X2209957Y1461152*
X2210230Y1463027*
Y1464152*
X2209957Y1466027*
X2209412Y1467152*
X2208593Y1467527*
X2208048*
X2212957Y1460402D02*
X2212684Y1460027D01*
X2212957Y1459652*
X2213230Y1460027*
X2212957Y1460402*
X2217321Y1467527D02*
X2216502Y1467152D01*
X2215957Y1466027*
X2215684Y1464152*
Y1463027*
X2215957Y1461152*
X2216502Y1460027*
X2217321Y1459652*
X2217866*
X2218684Y1460027*
X2219230Y1461152*
X2219502Y1463027*
Y1464152*
X2219230Y1466027*
X2218684Y1467152*
X2217866Y1467527*
X2217321*
G54D42*
X1772937Y1434242D02*
Y1741015D01*
X2157819*
Y1434242*
X1772937*
G74*
X0Y0D02*
M02*
