%
T1C.01575F095S3
X017172Y01902
X014086Y019304
X015174Y019744
X017066Y024354
X016678Y026814
X015764Y027727
X012612Y031926
X0173Y033893
X013854Y034248
X019199Y032475
X021865Y032475
X019774Y025152
X021492Y019197
X019774Y017735
X021492Y017658
X0301Y013272
X0301Y01573
X027949Y017065
X02447Y025451
X030154Y029568
X025606Y03255
X037042Y035814
X039492Y035316
X039267Y031186
X034791Y025692
X037144Y016401
X043184Y023056
X044591Y023056
X04309Y023974
X0412Y031716
T2C.02362F197S55
X011006Y018438G85X011203Y018438
X011794Y0208G85X011991Y0208
X0114Y017651G85X011597Y017651
X011006Y034066G85X011203Y034066
X011794Y036428G85X011991Y036428
X0114Y033279G85X011597Y033279
X011006Y013466G85X011203Y013466
X011794Y015828G85X011991Y015828
X0114Y012679G85X011597Y012679
T3C.0315F197S55
X014922Y026257
X017922Y026257
X014922Y027257
X017922Y027257
X014935Y028271
X017935Y028271
X014935Y029271
X017935Y029271
T4C.035F197S55
X020591Y027827
X021591Y027827
X022591Y027827
X037622Y030974
X037622Y029974
X037622Y028974
X037622Y027974
X037622Y026974
X037622Y025974
X037622Y024974
X037622Y023974
X040575Y012355
X038607Y012355
X040684Y013611
X038716Y013611
X038577Y014953
X040546Y014953
X038719Y016199
X040688Y016199
X039855Y019547
X039855Y020347
X040622Y023974
X040622Y024974
X040622Y025974
X040622Y026974
X040622Y027974
X040622Y028974
X040622Y029974
X040622Y030974
X041004Y03393
X042004Y03393
X043004Y03393
X043176Y030906
X043176Y029906
X043176Y028906
X043176Y027906
X043176Y026906
X043176Y025906
X043176Y024906
X041781Y020347
X041781Y019547
X046176Y024906
X046176Y025906
X046176Y026906
X046176Y027906
X046176Y028906
X046176Y029906
X046176Y030906
T5C.03543F197S55
X012286Y012679
X011105Y015828
X012286Y017651
X011105Y0208
X012286Y033279
X011105Y036428
X018272Y034425
X019272Y034425
X020272Y034425
X021272Y034425
X022272Y034425
X023272Y034425
X02135Y031256
X02235Y031256
X02335Y031256
X02035Y031256
X01935Y031256
X022949Y012256
X023949Y012256
X024949Y012256
X025949Y012256
X026949Y012256
X027949Y012256
X02435Y031256
X02535Y031256
X02635Y031256
X027949Y031256
X024272Y034425
X025272Y034425
X026272Y034425
X027272Y034425
X028272Y034425
X029272Y034425
X030272Y034425
X031272Y034425
X032272Y034425
X033272Y034425
X028949Y031256
X031949Y031256
X032949Y031256
X029949Y031256
X030949Y031256
X032941Y012256
X031941Y012256
X029941Y012256
X030941Y012256
X034941Y012256
X033941Y012256
X034949Y031256
X033949Y031256
T6C.037F197S55
X014693Y025037
X017645Y025037
X011679Y030384
X011679Y031384
X015412Y032475
X018365Y032475
X020127Y029547
X02308Y029547
X018911Y027066
X018911Y024113
X022142Y019723
X022169Y01454
X027507Y010838
X03046Y010838
X025122Y01454
X025095Y019723
X032898Y033468
X035851Y033468
X032901Y032481
X035853Y032481
X034469Y014605
X031516Y014605
X035107Y010868
X03806Y010868
X036355Y013748
X036355Y0167
X038577Y018284
X038577Y021237
X036469Y024014
X036469Y026967
X036364Y02799
X036364Y030943
T7C.04331F139S55
X037508Y033932
X038493Y0359
X039477Y033932
T8C.05118F107S55
X01577Y016732
X018132Y016732
X01577Y018504
X018132Y018504
X022417Y018504
X024779Y018504
X024779Y016732
X022417Y016732
X027004Y014692
X029366Y014692
X027004Y016464
X029366Y016464
X027004Y018778
X029366Y018778
X027004Y020549
X029366Y020549
X031602Y018504
X033965Y018504
X033965Y016732
X031602Y016732
T9C.07087F081S55
X011892Y013466
X013073Y015041
X011498Y015041
X011892Y018438
X013073Y020013
X011498Y020013
X011892Y034066
X013073Y035641
X011498Y035641
T10C.11811F069S658
X015468Y00947
X016087Y022224
X016079Y034425
X015468Y037315
X043094Y037315
X043094Y00947
X04561Y022224
X04561Y034437
T11C.12205F035S794
X045119Y014175
X045119Y01954
X046399Y017651
X046399Y012285
T12C.1378F035S794
X043938Y012285
X043938Y017651
M30
