*
*
G04 PADS Layout (Build Number 2007.42.1) generated Gerber (RS-274-X) file*
G04 PC Version=2.1*
*
%IN "board.pcb"*%
*
%MOIN*%
*
%FSLAX35Y35*%
*
*
*
*
G04 PC Standard Apertures*
*
*
G04 Thermal Relief Aperture macro.*
%AMTER*
1,1,$1,0,0*
1,0,$1-$2,0,0*
21,0,$3,$4,0,0,45*
21,0,$3,$4,0,0,135*
%
*
*
G04 Annular Aperture macro.*
%AMANN*
1,1,$1,0,0*
1,0,$2,0,0*
%
*
*
G04 Odd Aperture macro.*
%AMODD*
1,1,$1,0,0*
1,0,$1-0.005,0,0*
%
*
*
G04 PC Custom Aperture Macros*
*
*
*
*
*
*
G04 PC Aperture Table*
*
%ADD010C,0.01*%
%ADD042C,0.00787*%
%ADD084C,0.001*%
%ADD094C,0.005*%
*
*
*
*
G04 PC Copper Outlines (0)*
G04 Layer Name board.pcb - dark (0)*
%LPD*%
*
*
G04 PC Area=Custom_Thermal*
*
G04 PC Custom Flashes*
G04 Layer Name board.pcb - flashes*
%LPD*%
*
*
G04 PC Circuitry*
G04 Layer Name board.pcb - circuitry*
%LPD*%
*
G54D10*
G01X2071419Y1633604D02*
Y1630454D01*
X2067463Y1612069D02*
X2075730D01*
Y1630179*
X2067463*
Y1612069*
X2071419Y1609195D02*
Y1611557D01*
X1983888Y1474403D02*
X1987038D01*
X2005423Y1470446D02*
Y1478714D01*
X1987313*
Y1470446*
X2005423*
X2008297Y1474403D02*
X2005935D01*
X2070368Y1648012D02*
Y1651162D01*
X2074324Y1669548D02*
X2066057D01*
Y1651437*
X2074324*
Y1669548*
X2070368Y1672422D02*
Y1670059D01*
X1935443Y1661495D02*
X1932293D01*
X1913907Y1665452D02*
Y1657184D01*
X1932017*
Y1665452*
X1913907*
X1911033Y1661495D02*
X1913395D01*
X1881095Y1616393D02*
X1877946D01*
X1859560Y1620350D02*
Y1612082D01*
X1877670*
Y1620350*
X1859560*
X1856686Y1616393D02*
X1859048D01*
X1862933Y1690775D02*
X1866083D01*
X1884469Y1686819D02*
Y1695086D01*
X1866358*
Y1686819*
X1884469*
X1887343Y1690775D02*
X1884980D01*
X2118385Y1495086D02*
Y1483668D01*
X2088070*
Y1495086*
X2118385*
X2087981Y1496621D02*
Y1508038D01*
X2118296*
Y1496621*
X2087981*
X2118093Y1521062D02*
Y1509644D01*
X2087778*
Y1521062*
X2118093*
X2088016Y1522504D02*
Y1533922D01*
X2118331*
Y1522504*
X2088016*
X2085242Y1474700D02*
X2082092D01*
X2063706Y1478657D02*
Y1470389D01*
X2081816*
Y1478657*
X2063706*
X2060832Y1474700D02*
X2063194D01*
X2092496Y1576304D02*
Y1573155D01*
X2088540Y1554769D02*
X2096807D01*
Y1572879*
X2088540*
Y1554769*
X2092496Y1551895D02*
Y1554257D01*
X2049328Y1512072D02*
X2046179D01*
X2027793Y1516028D02*
Y1507761D01*
X2045903*
Y1516028*
X2027793*
X2024919Y1512072D02*
X2027281D01*
X1955863Y1511422D02*
X1952713D01*
X1934327Y1515378D02*
Y1507111D01*
X1952437*
Y1515378*
X1934327*
X1931453Y1511422D02*
X1933815D01*
X1930233Y1563253D02*
X1933383D01*
X1951769Y1559296D02*
Y1567564D01*
X1933659*
Y1559296*
X1951769*
X1954643Y1563253D02*
X1952281D01*
X2070284Y1530942D02*
Y1527792D01*
X2066327Y1509407D02*
X2074595D01*
Y1527517*
X2066327*
Y1509407*
X2070284Y1506533D02*
Y1508895D01*
X2063150Y1700708D02*
X2060001D01*
X2041615Y1704665D02*
Y1696397D01*
X2059725*
Y1704665*
X2041615*
X2038741Y1700708D02*
X2041103D01*
X2037822Y1690834D02*
X2040972D01*
X2059358Y1686878D02*
Y1695145D01*
X2041247*
Y1686878*
X2059358*
X2062232Y1690834D02*
X2059869D01*
X2100444Y1600762D02*
X2100444D01*
G75*
G03X2095444I-2500J-0D01*
G01X2095444*
X2087944D02*
Y1680762D01*
X2107944*
Y1600762*
X2087944*
X1909742Y1651895D02*
G03X1935242I12750J-8123D01*
G01X1910342Y1651795D02*
X1934842D01*
X2113869Y1712924D02*
G03X2139369I12750J-8123D01*
G01X2114469Y1712824D02*
X2138969D01*
X2150994Y1680087D02*
X2150994D01*
G03X2155994I2500J0*
G01X2155994*
X2163494D02*
Y1610087D01*
X2143494*
Y1680087*
X2163494*
X2109607Y1712822D02*
G03X2109607I-17558J0D01*
G54D42*
G01X1807559Y1446613D02*
Y1753387D01*
X2192441*
Y1446613*
X1807559*
G54D84*
X2030178Y1575745D02*
X2029178D01*
X2030278Y1575845D02*
X2029178D01*
X2030778Y1575945D02*
X2028578D01*
X2030878Y1576045D02*
X2028478D01*
X2031178Y1576145D02*
X2028178D01*
X2031278Y1576245D02*
X2028078D01*
X2031378Y1576345D02*
X2027978D01*
X1979878D02*
X1978578D01*
X2031478Y1576445D02*
X2027878D01*
X1979978D02*
X1978478D01*
X2031578Y1576545D02*
X2027778D01*
X2013478D02*
X2012578D01*
X2010178D02*
X2009078D01*
X2007878D02*
X2006978D01*
X2005478D02*
X2004478D01*
X2002978D02*
X2001778D01*
X2000878D02*
X1997478D01*
X1995378D02*
X1994378D01*
X1992078D02*
X1990878D01*
X1989178D02*
X1987978D01*
X1987478D02*
X1986378D01*
X1983778D02*
X1982678D01*
X1980478D02*
X1977978D01*
X1976978D02*
X1975878D01*
X1974078D02*
X1972778D01*
X2031678Y1576645D02*
X2027678D01*
X2013478D02*
X2012478D01*
X2010178D02*
X2008978D01*
X2007978D02*
X2006878D01*
X2005478D02*
X2004478D01*
X2002978D02*
X2001778D01*
X2000978D02*
X1997478D01*
X1995378D02*
X1994378D01*
X1992078D02*
X1990878D01*
X1989178D02*
X1987978D01*
X1987578D02*
X1986278D01*
X1983878D02*
X1982678D01*
X1980578D02*
X1977878D01*
X1977078D02*
X1975778D01*
X1974178D02*
X1972778D01*
X2031778Y1576745D02*
X2027578D01*
X2013478D02*
X2012478D01*
X2010178D02*
X2008978D01*
X2007978D02*
X2006878D01*
X2005478D02*
X2004478D01*
X2002978D02*
X2001778D01*
X2000778D02*
X1997478D01*
X1995378D02*
X1994378D01*
X1992078D02*
X1990878D01*
X1989178D02*
X1987978D01*
X1987578D02*
X1986278D01*
X1983978D02*
X1982778D01*
X1980878D02*
X1977878D01*
X1977078D02*
X1975778D01*
X1974178D02*
X1972878D01*
X2031878Y1576845D02*
X2027478D01*
X2013478D02*
X2012478D01*
X2010178D02*
X2008978D01*
X2007978D02*
X2006878D01*
X2005478D02*
X2004478D01*
X2002978D02*
X2001778D01*
X2000778D02*
X1997478D01*
X1995378D02*
X1994378D01*
X1992078D02*
X1990878D01*
X1989178D02*
X1987978D01*
X1987578D02*
X1986278D01*
X1984078D02*
X1982778D01*
X1980978D02*
X1977878D01*
X1977078D02*
X1975778D01*
X1974178D02*
X1972978D01*
X2031878Y1576945D02*
X2027378D01*
X2013478D02*
X2012478D01*
X2010178D02*
X2008978D01*
X2007978D02*
X2006878D01*
X2005578D02*
X2004478D01*
X2002978D02*
X2001878D01*
X2000778D02*
X1997478D01*
X1995378D02*
X1994378D01*
X1992078D02*
X1990878D01*
X1989378D02*
X1988078D01*
X1987378D02*
X1986278D01*
X1984078D02*
X1982778D01*
X1981078D02*
X1977978D01*
X1977078D02*
X1975778D01*
X1974278D02*
X1972978D01*
X2031878Y1577045D02*
X2027278D01*
X2013478D02*
X2012478D01*
X2010178D02*
X2008978D01*
X2007978D02*
X2006878D01*
X2005678D02*
X2004478D01*
X2002978D02*
X2001978D01*
X2000778D02*
X1997478D01*
X1995378D02*
X1994378D01*
X1992078D02*
X1990878D01*
X1989378D02*
X1988178D01*
X1987378D02*
X1986278D01*
X1984078D02*
X1982778D01*
X1981178D02*
X1978078D01*
X1977078D02*
X1975778D01*
X1974378D02*
X1972978D01*
X2031978Y1577145D02*
X2027178D01*
X2013478D02*
X2012478D01*
X2010178D02*
X2008978D01*
X2007978D02*
X2006878D01*
X2005678D02*
X2004278D01*
X2002978D02*
X2001978D01*
X2000778D02*
X1997478D01*
X1995378D02*
X1994378D01*
X1992078D02*
X1990878D01*
X1989378D02*
X1988178D01*
X1987378D02*
X1986178D01*
X1984078D02*
X1982778D01*
X1981278D02*
X1978078D01*
X1977078D02*
X1975778D01*
X1974378D02*
X1973078D01*
X2032078Y1577245D02*
X2027078D01*
X2013478D02*
X2012478D01*
X2010178D02*
X2008978D01*
X2007978D02*
X2006878D01*
X2005678D02*
X2004278D01*
X2002978D02*
X2001978D01*
X2000778D02*
X1997478D01*
X1995378D02*
X1994378D01*
X1992078D02*
X1990878D01*
X1989378D02*
X1988178D01*
X1987378D02*
X1986078D01*
X1984078D02*
X1982778D01*
X1981378D02*
X1978078D01*
X1977078D02*
X1975778D01*
X1974378D02*
X1973178D01*
X2032078Y1577345D02*
X2026978D01*
X2013478D02*
X2012478D01*
X2010178D02*
X2008978D01*
X2007978D02*
X2006878D01*
X2005678D02*
X2004278D01*
X2002978D02*
X2001978D01*
X2000778D02*
X1997478D01*
X1995378D02*
X1994378D01*
X1992078D02*
X1990878D01*
X1989378D02*
X1988178D01*
X1987378D02*
X1986078D01*
X1984178D02*
X1982778D01*
X1981478D02*
X1979478D01*
X1978578D02*
X1978078D01*
X1977078D02*
X1975778D01*
X1974478D02*
X1973178D01*
X2032078Y1577445D02*
X2026878D01*
X2013478D02*
X2012478D01*
X2010178D02*
X2008978D01*
X2007978D02*
X2006878D01*
X2005678D02*
X2004278D01*
X2002978D02*
X2001978D01*
X2000778D02*
X1997478D01*
X1995378D02*
X1994378D01*
X1992078D02*
X1990878D01*
X1989378D02*
X1988178D01*
X1987378D02*
X1986078D01*
X1984278D02*
X1982778D01*
X1981578D02*
X1979578D01*
X1978478D02*
X1978078D01*
X1977078D02*
X1975778D01*
X1974578D02*
X1973178D01*
X2032178Y1577545D02*
X2026778D01*
X2013478D02*
X2012478D01*
X2010178D02*
X2008978D01*
X2007978D02*
X2006878D01*
X2005678D02*
X2004278D01*
X2002978D02*
X2001978D01*
X2000878D02*
X1999578D01*
X1995378D02*
X1994378D01*
X1992078D02*
X1990878D01*
X1989378D02*
X1988178D01*
X1987378D02*
X1986078D01*
X1984278D02*
X1982978D01*
X1981678D02*
X1980078D01*
X1977078D02*
X1975778D01*
X1974578D02*
X1973278D01*
X2032278Y1577645D02*
X2026678D01*
X2013478D02*
X2012478D01*
X2010178D02*
X2008978D01*
X2007978D02*
X2006878D01*
X2005678D02*
X2004278D01*
X2002978D02*
X2001978D01*
X2000978D02*
X1999678D01*
X1995378D02*
X1994378D01*
X1992078D02*
X1990878D01*
X1989378D02*
X1988178D01*
X1987378D02*
X1986078D01*
X1984278D02*
X1982978D01*
X1981778D02*
X1980178D01*
X1977078D02*
X1975778D01*
X1974578D02*
X1973378D01*
X2032278Y1577745D02*
X2026578D01*
X2013478D02*
X2012478D01*
X2010178D02*
X2008978D01*
X2007978D02*
X2006778D01*
X2005778D02*
X2004178D01*
X2002978D02*
X2001978D01*
X2000978D02*
X1999678D01*
X1995378D02*
X1994378D01*
X1992078D02*
X1990878D01*
X1989478D02*
X1988278D01*
X1987278D02*
X1986078D01*
X1984278D02*
X1982978D01*
X1981778D02*
X1980278D01*
X1977078D02*
X1975778D01*
X1974678D02*
X1973378D01*
X2032278Y1577845D02*
X2026478D01*
X2013478D02*
X2012478D01*
X2010178D02*
X2008978D01*
X2007978D02*
X2006678D01*
X2005878D02*
X2004078D01*
X2002978D02*
X2001978D01*
X2000978D02*
X1999678D01*
X1995378D02*
X1994378D01*
X1992078D02*
X1990878D01*
X1989578D02*
X1988378D01*
X1987178D02*
X1986078D01*
X1984278D02*
X1982978D01*
X1981778D02*
X1980378D01*
X1977078D02*
X1975778D01*
X1974778D02*
X1973378D01*
X2032278Y1577945D02*
X2026378D01*
X2013478D02*
X2012478D01*
X2010178D02*
X2008978D01*
X2007978D02*
X2006678D01*
X2005878D02*
X2004078D01*
X2002978D02*
X2001978D01*
X2000878D02*
X1999678D01*
X1995378D02*
X1994378D01*
X1992078D02*
X1990878D01*
X1989578D02*
X1988378D01*
X1987178D02*
X1986078D01*
X1984378D02*
X1982978D01*
X1981878D02*
X1980478D01*
X1977078D02*
X1975778D01*
X1974778D02*
X1973478D01*
X2032278Y1578045D02*
X2026278D01*
X2013478D02*
X2012478D01*
X2010178D02*
X2008978D01*
X2007978D02*
X2006678D01*
X2005878D02*
X2004078D01*
X2002978D02*
X2001978D01*
X2000778D02*
X1999678D01*
X1995378D02*
X1994378D01*
X1992078D02*
X1990878D01*
X1989578D02*
X1988378D01*
X1987178D02*
X1982978D01*
X1981978D02*
X1980578D01*
X1977078D02*
X1975778D01*
X1974778D02*
X1973578D01*
X2032278Y1578145D02*
X2026178D01*
X2013478D02*
X2012478D01*
X2010178D02*
X2008978D01*
X2007978D02*
X2006678D01*
X2005878D02*
X2004078D01*
X2002978D02*
X2001978D01*
X2000778D02*
X1999678D01*
X1995378D02*
X1994378D01*
X1992078D02*
X1990878D01*
X1989578D02*
X1988378D01*
X1987178D02*
X1983078D01*
X1981978D02*
X1980578D01*
X1977078D02*
X1975778D01*
X1974878D02*
X1973578D01*
X2032278Y1578245D02*
X2026078D01*
X2013478D02*
X2012478D01*
X2010178D02*
X2008978D01*
X2007978D02*
X2006678D01*
X2005878D02*
X2004078D01*
X2002978D02*
X2001978D01*
X2000778D02*
X1999678D01*
X1995378D02*
X1994378D01*
X1992078D02*
X1990878D01*
X1989578D02*
X1988378D01*
X1987178D02*
X1983178D01*
X1981978D02*
X1980578D01*
X1977078D02*
X1975778D01*
X1974978D02*
X1973578D01*
X2032278Y1578345D02*
X2025978D01*
X2013478D02*
X2012478D01*
X2010178D02*
X2008978D01*
X2007978D02*
X2006678D01*
X2005978D02*
X2004078D01*
X2002978D02*
X2001978D01*
X2000778D02*
X1999678D01*
X1995378D02*
X1994378D01*
X1992078D02*
X1990878D01*
X1989578D02*
X1988378D01*
X1987078D02*
X1983278D01*
X1981978D02*
X1980578D01*
X1977078D02*
X1975778D01*
X1974978D02*
X1973578D01*
X2032278Y1578445D02*
X2025878D01*
X2013478D02*
X2012478D01*
X2010178D02*
X2008978D01*
X2007978D02*
X2006678D01*
X2006078D02*
X2005078D01*
X2004878D02*
X2004078D01*
X2002978D02*
X2001978D01*
X2000778D02*
X1999678D01*
X1995378D02*
X1994378D01*
X1992078D02*
X1990878D01*
X1989578D02*
X1988378D01*
X1986978D02*
X1983278D01*
X1981978D02*
X1980778D01*
X1977078D02*
X1975778D01*
X1974978D02*
X1973778D01*
X2032278Y1578545D02*
X2025778D01*
X2013478D02*
X2012478D01*
X2010178D02*
X2008978D01*
X2007878D02*
X2006678D01*
X2006078D02*
X2005078D01*
X2004878D02*
X2003978D01*
X2002978D02*
X2001978D01*
X2000778D02*
X1999678D01*
X1995378D02*
X1994378D01*
X1992078D02*
X1990878D01*
X1989678D02*
X1988478D01*
X1986978D02*
X1983278D01*
X1982078D02*
X1980778D01*
X1977078D02*
X1975778D01*
X1975078D02*
X1973778D01*
X2032278Y1578645D02*
X2025678D01*
X2013478D02*
X2012478D01*
X2010178D02*
X2008978D01*
X2007778D02*
X2006678D01*
X2006078D02*
X2005078D01*
X2004878D02*
X2003878D01*
X2002978D02*
X2001978D01*
X2000778D02*
X1999678D01*
X1995378D02*
X1994378D01*
X1992078D02*
X1990878D01*
X1989778D02*
X1988578D01*
X1986978D02*
X1983278D01*
X1982178D02*
X1980778D01*
X1977078D02*
X1975778D01*
X1975178D02*
X1973978D01*
X2032278Y1578745D02*
X2025578D01*
X2013478D02*
X2012478D01*
X2010178D02*
X2008978D01*
X2007778D02*
X2006678D01*
X2006078D02*
X2005078D01*
X2004778D02*
X2003878D01*
X2003078D02*
X2001978D01*
X2000778D02*
X1999678D01*
X1995378D02*
X1994378D01*
X1992078D02*
X1990878D01*
X1989878D02*
X1988578D01*
X1986978D02*
X1983278D01*
X1982178D02*
X1980778D01*
X1977078D02*
X1975778D01*
X1975178D02*
X1973978D01*
X2032278Y1578845D02*
X2025478D01*
X2013478D02*
X2012478D01*
X2010178D02*
X2008978D01*
X2007778D02*
X2006678D01*
X2006078D02*
X2005078D01*
X2004678D02*
X2003878D01*
X2003178D02*
X2001978D01*
X2000778D02*
X1999678D01*
X1995378D02*
X1994378D01*
X1992078D02*
X1990878D01*
X1990178D02*
X1988578D01*
X1986978D02*
X1983278D01*
X1982178D02*
X1980778D01*
X1977078D02*
X1975678D01*
X1975178D02*
X1973978D01*
X2032278Y1578945D02*
X2025378D01*
X2013478D02*
X2012478D01*
X2010178D02*
X2008978D01*
X2007778D02*
X2006678D01*
X2006078D02*
X2005078D01*
X2004678D02*
X2003878D01*
X2003178D02*
X2001978D01*
X2000778D02*
X1999678D01*
X1995378D02*
X1994378D01*
X1992078D02*
X1990778D01*
X1990278D02*
X1988678D01*
X1986978D02*
X1983278D01*
X1982178D02*
X1980778D01*
X1977078D02*
X1975578D01*
X1975278D02*
X1973978D01*
X2032278Y1579045D02*
X2025278D01*
X2013478D02*
X2012478D01*
X2010178D02*
X2008978D01*
X2007778D02*
X2006678D01*
X2006078D02*
X2005078D01*
X2004678D02*
X2003878D01*
X2003178D02*
X2001978D01*
X2000778D02*
X1999578D01*
X1995378D02*
X1994378D01*
X1992078D02*
X1988778D01*
X1986978D02*
X1985678D01*
X1984478D02*
X1983378D01*
X1982178D02*
X1980978D01*
X1977078D02*
X1974178D01*
X2032178Y1579145D02*
X2025178D01*
X2013478D02*
X2012478D01*
X2010178D02*
X2008978D01*
X2007778D02*
X2006678D01*
X2006178D02*
X2005078D01*
X2004678D02*
X2003778D01*
X2003178D02*
X2001978D01*
X2000778D02*
X1999478D01*
X1995378D02*
X1994378D01*
X1992078D02*
X1988878D01*
X1986878D02*
X1985678D01*
X1984478D02*
X1983478D01*
X1982178D02*
X1980978D01*
X1977078D02*
X1974178D01*
X2032078Y1579245D02*
X2025078D01*
X2013478D02*
X2012478D01*
X2010178D02*
X2008978D01*
X2007778D02*
X2006678D01*
X2006278D02*
X2005078D01*
X2004678D02*
X2003678D01*
X2003178D02*
X2001978D01*
X2000778D02*
X1997678D01*
X1995378D02*
X1994378D01*
X1992078D02*
X1988978D01*
X1986778D02*
X1985678D01*
X1984678D02*
X1983478D01*
X1982178D02*
X1980978D01*
X1977078D02*
X1974178D01*
X2032078Y1579345D02*
X2024978D01*
X2013478D02*
X2012478D01*
X2010178D02*
X2008978D01*
X2007778D02*
X2006678D01*
X2006278D02*
X2005078D01*
X2004678D02*
X2003578D01*
X2003178D02*
X2001978D01*
X2000778D02*
X1997678D01*
X1995378D02*
X1994378D01*
X1992078D02*
X1988978D01*
X1986778D02*
X1985678D01*
X1984678D02*
X1983478D01*
X1982178D02*
X1980978D01*
X1977078D02*
X1974178D01*
X2032078Y1579445D02*
X2024878D01*
X2013478D02*
X2012478D01*
X2010178D02*
X2008978D01*
X2007778D02*
X2006678D01*
X2006278D02*
X2005278D01*
X2004678D02*
X2003578D01*
X2003178D02*
X2001978D01*
X2000778D02*
X1997678D01*
X1995378D02*
X1994378D01*
X1992078D02*
X1988978D01*
X1986778D02*
X1985678D01*
X1984678D02*
X1983478D01*
X1982178D02*
X1980978D01*
X1977078D02*
X1974378D01*
X2031978Y1579545D02*
X2024778D01*
X2013478D02*
X2012478D01*
X2010178D02*
X2008978D01*
X2007778D02*
X2006678D01*
X2006278D02*
X2005278D01*
X2004578D02*
X2003578D01*
X2003178D02*
X2001978D01*
X2000778D02*
X1997678D01*
X1995378D02*
X1994378D01*
X1992078D02*
X1988978D01*
X1986778D02*
X1985678D01*
X1984678D02*
X1983478D01*
X1982178D02*
X1980978D01*
X1977078D02*
X1974378D01*
X2031878Y1579645D02*
X2024678D01*
X2013478D02*
X2012478D01*
X2010178D02*
X2008978D01*
X2007778D02*
X2006678D01*
X2006278D02*
X2005278D01*
X2004478D02*
X2003578D01*
X2003178D02*
X2001978D01*
X2000778D02*
X1997678D01*
X1995378D02*
X1994378D01*
X1992078D02*
X1988678D01*
X1986778D02*
X1985578D01*
X1984678D02*
X1983578D01*
X1982178D02*
X1980978D01*
X1977078D02*
X1974378D01*
X2031878Y1579745D02*
X2024578D01*
X2013478D02*
X2012478D01*
X2010178D02*
X2008978D01*
X2007778D02*
X2006678D01*
X2006278D02*
X2005278D01*
X2004478D02*
X2003578D01*
X2003178D02*
X2001978D01*
X2000778D02*
X1997678D01*
X1995378D02*
X1994378D01*
X1992078D02*
X1988578D01*
X1986678D02*
X1985478D01*
X1984678D02*
X1983678D01*
X1982178D02*
X1980978D01*
X1977078D02*
X1974378D01*
X2031878Y1579845D02*
X2024478D01*
X2013478D02*
X2012478D01*
X2010178D02*
X2008978D01*
X2007778D02*
X2006678D01*
X2006278D02*
X2005278D01*
X2004478D02*
X2003578D01*
X2003178D02*
X2001978D01*
X2000778D02*
X1997678D01*
X1995378D02*
X1994378D01*
X1992078D02*
X1990778D01*
X1990078D02*
X1988478D01*
X1986578D02*
X1985478D01*
X1984678D02*
X1983678D01*
X1982178D02*
X1980978D01*
X1977078D02*
X1974578D01*
X2031878Y1579945D02*
X2024378D01*
X2013478D02*
X2012478D01*
X2010178D02*
X2008978D01*
X2007778D02*
X2006678D01*
X2006278D02*
X2005278D01*
X2004478D02*
X2003578D01*
X2003178D02*
X2001978D01*
X2000778D02*
X1997678D01*
X1995378D02*
X1994378D01*
X1992078D02*
X1990878D01*
X1989978D02*
X1988378D01*
X1986578D02*
X1985478D01*
X1984678D02*
X1983678D01*
X1982178D02*
X1980978D01*
X1977078D02*
X1974578D01*
X2031678Y1580045D02*
X2024278D01*
X2013478D02*
X2012478D01*
X2010178D02*
X2008978D01*
X2007778D02*
X2006678D01*
X2006478D02*
X2005378D01*
X2004478D02*
X2003478D01*
X2003178D02*
X2001978D01*
X2000778D02*
X1997678D01*
X1995378D02*
X1994378D01*
X1992078D02*
X1990878D01*
X1989678D02*
X1988378D01*
X1986578D02*
X1985478D01*
X1984778D02*
X1983678D01*
X1982178D02*
X1980778D01*
X1977078D02*
X1975778D01*
X1975678D02*
X1974478D01*
X2031578Y1580145D02*
X2024178D01*
X2013478D02*
X2012478D01*
X2010178D02*
X2008978D01*
X2007778D02*
X2006678D01*
X2006478D02*
X2005478D01*
X2004478D02*
X2003378D01*
X2003178D02*
X2001978D01*
X2000778D02*
X1997678D01*
X1995378D02*
X1994378D01*
X1992078D02*
X1990878D01*
X1989578D02*
X1988378D01*
X1986578D02*
X1985478D01*
X1984878D02*
X1983678D01*
X1982178D02*
X1980778D01*
X1977078D02*
X1975778D01*
X1975578D02*
X1974378D01*
X2031478Y1580245D02*
X2024078D01*
X2013478D02*
X2012478D01*
X2010178D02*
X2008978D01*
X2007778D02*
X2006678D01*
X2006478D02*
X2005478D01*
X2004478D02*
X2003378D01*
X2003178D02*
X2001978D01*
X2000778D02*
X1999678D01*
X1995378D02*
X1994378D01*
X1992078D02*
X1990878D01*
X1989478D02*
X1988278D01*
X1986578D02*
X1985478D01*
X1984878D02*
X1983678D01*
X1982078D02*
X1980778D01*
X1977078D02*
X1975778D01*
X1975578D02*
X1974378D01*
X2031378Y1580345D02*
X2023978D01*
X2013478D02*
X2012478D01*
X2010178D02*
X2008978D01*
X2007778D02*
X2006678D01*
X2006478D02*
X2005478D01*
X2004478D02*
X2003378D01*
X2003178D02*
X2001978D01*
X2000778D02*
X1999678D01*
X1995378D02*
X1994378D01*
X1992078D02*
X1990878D01*
X1989378D02*
X1988178D01*
X1986578D02*
X1985478D01*
X1984878D02*
X1983678D01*
X1981978D02*
X1980778D01*
X1977078D02*
X1975778D01*
X1975578D02*
X1974378D01*
X2031278Y1580445D02*
X2023878D01*
X2013478D02*
X2012478D01*
X2010178D02*
X2008978D01*
X2007778D02*
X2006678D01*
X2006478D02*
X2005478D01*
X2004278D02*
X2003378D01*
X2003178D02*
X2001978D01*
X2000778D02*
X1999678D01*
X1995378D02*
X1994378D01*
X1992078D02*
X1990878D01*
X1989378D02*
X1988178D01*
X1986578D02*
X1985378D01*
X1984878D02*
X1983778D01*
X1981978D02*
X1980778D01*
X1977078D02*
X1975778D01*
X1975478D02*
X1974278D01*
X2031178Y1580545D02*
X2023778D01*
X2013478D02*
X2012478D01*
X2010178D02*
X2008978D01*
X2007778D02*
X2006678D01*
X2006478D02*
X2005478D01*
X2004278D02*
X2003378D01*
X2003178D02*
X2001978D01*
X2000778D02*
X1999678D01*
X1995378D02*
X1994378D01*
X1992078D02*
X1990878D01*
X1989378D02*
X1988178D01*
X1986478D02*
X1985278D01*
X1984878D02*
X1983878D01*
X1981978D02*
X1980778D01*
X1977078D02*
X1975778D01*
X1975378D02*
X1974178D01*
X2031078Y1580645D02*
X2023678D01*
X2013478D02*
X2012478D01*
X2010178D02*
X2008978D01*
X2007778D02*
X2005478D01*
X2004278D02*
X2002078D01*
X2000778D02*
X1999678D01*
X1995378D02*
X1994378D01*
X1992078D02*
X1990878D01*
X1989378D02*
X1988178D01*
X1986378D02*
X1985278D01*
X1984878D02*
X1983878D01*
X1981978D02*
X1980678D01*
X1977078D02*
X1975778D01*
X1975378D02*
X1974078D01*
X2030978Y1580745D02*
X2023578D01*
X2013478D02*
X2012478D01*
X2010178D02*
X2008978D01*
X2007778D02*
X2005478D01*
X2004278D02*
X2002178D01*
X2000778D02*
X1999678D01*
X1995378D02*
X1994378D01*
X1992078D02*
X1990878D01*
X1989378D02*
X1988178D01*
X1986278D02*
X1985278D01*
X1984878D02*
X1983878D01*
X1981978D02*
X1980578D01*
X1977078D02*
X1975778D01*
X1975378D02*
X1973978D01*
X2030878Y1580845D02*
X2023478D01*
X2013478D02*
X2012478D01*
X2010178D02*
X2008978D01*
X2007778D02*
X2005578D01*
X2004278D02*
X2002178D01*
X2000778D02*
X1999678D01*
X1995378D02*
X1994378D01*
X1992078D02*
X1990878D01*
X1989378D02*
X1988178D01*
X1986278D02*
X1985278D01*
X1984978D02*
X1983878D01*
X1981878D02*
X1980578D01*
X1977078D02*
X1975778D01*
X1975278D02*
X1973978D01*
X2030778Y1580945D02*
X2023378D01*
X2013478D02*
X2012478D01*
X2010178D02*
X2008978D01*
X2007778D02*
X2005678D01*
X2004278D02*
X2002178D01*
X2000778D02*
X1999678D01*
X1995378D02*
X1994378D01*
X1992078D02*
X1990878D01*
X1989378D02*
X1988178D01*
X1986278D02*
X1985278D01*
X1985078D02*
X1983878D01*
X1981778D02*
X1980578D01*
X1977078D02*
X1975778D01*
X1975178D02*
X1973978D01*
X2030678Y1581045D02*
X2023278D01*
X2013478D02*
X2012478D01*
X2010178D02*
X2008978D01*
X2007778D02*
X2005678D01*
X2004178D02*
X2002178D01*
X2000778D02*
X1999678D01*
X1995378D02*
X1994378D01*
X1992078D02*
X1990878D01*
X1989378D02*
X1988178D01*
X1986278D02*
X1985278D01*
X1985078D02*
X1983878D01*
X1981778D02*
X1980478D01*
X1977078D02*
X1975778D01*
X1975078D02*
X1973878D01*
X2030578Y1581145D02*
X2023178D01*
X2013478D02*
X2012478D01*
X2010178D02*
X2008978D01*
X2007778D02*
X2005678D01*
X2004078D02*
X2002178D01*
X2000778D02*
X1999678D01*
X1995378D02*
X1994378D01*
X1992078D02*
X1990878D01*
X1989378D02*
X1988178D01*
X1986278D02*
X1985278D01*
X1985078D02*
X1983878D01*
X1981778D02*
X1980378D01*
X1977078D02*
X1975778D01*
X1974978D02*
X1973778D01*
X2030478Y1581245D02*
X2023078D01*
X2013478D02*
X2012478D01*
X2010178D02*
X2008978D01*
X2007778D02*
X2005678D01*
X2004078D02*
X2002178D01*
X2000778D02*
X1999678D01*
X1995378D02*
X1994378D01*
X1992078D02*
X1990878D01*
X1989378D02*
X1988178D01*
X1986278D02*
X1983978D01*
X1981678D02*
X1980278D01*
X1977078D02*
X1975778D01*
X1974978D02*
X1973678D01*
X2030378Y1581345D02*
X2022978D01*
X2013478D02*
X2012478D01*
X2010178D02*
X2008978D01*
X2007778D02*
X2005678D01*
X2004078D02*
X2002178D01*
X2000778D02*
X1999678D01*
X1995378D02*
X1994378D01*
X1992078D02*
X1990878D01*
X1989378D02*
X1988178D01*
X1986278D02*
X1984078D01*
X1981578D02*
X1980178D01*
X1977078D02*
X1975778D01*
X1974978D02*
X1973578D01*
X2030278Y1581445D02*
X2022878D01*
X2013578D02*
X2012378D01*
X2010178D02*
X2008978D01*
X2007778D02*
X2005678D01*
X2004078D02*
X2002178D01*
X2000778D02*
X1999678D01*
X1995478D02*
X1994278D01*
X1992078D02*
X1990878D01*
X1989478D02*
X1988178D01*
X1986278D02*
X1984078D01*
X1981578D02*
X1980078D01*
X1977078D02*
X1975778D01*
X1974878D02*
X1973478D01*
X2030178Y1581545D02*
X2022778D01*
X2014978D02*
X2011078D01*
X2010178D02*
X2008978D01*
X2007778D02*
X2005678D01*
X2004078D02*
X2002178D01*
X2000778D02*
X1999478D01*
X1996778D02*
X1992878D01*
X1992078D02*
X1990878D01*
X1989578D02*
X1988178D01*
X1986078D02*
X1984078D01*
X1981578D02*
X1979778D01*
X1978278D02*
X1978078D01*
X1977078D02*
X1975778D01*
X1974778D02*
X1973378D01*
X2030178Y1581645D02*
X2022678D01*
X2014978D02*
X2010978D01*
X2010178D02*
X2008978D01*
X2007678D02*
X2005778D01*
X2004078D02*
X2002178D01*
X2000778D02*
X1999478D01*
X1996878D02*
X1992878D01*
X1992078D02*
X1990778D01*
X1989678D02*
X1988278D01*
X1986078D02*
X1984078D01*
X1981478D02*
X1979678D01*
X1978378D02*
X1978078D01*
X1977078D02*
X1975778D01*
X1974778D02*
X1973378D01*
X2029978Y1581745D02*
X2022578D01*
X2015178D02*
X2010878D01*
X2010178D02*
X2008978D01*
X2007578D02*
X2005878D01*
X2004078D02*
X2002178D01*
X2000778D02*
X1997478D01*
X1996978D02*
X1992678D01*
X1992078D02*
X1988378D01*
X1986078D02*
X1984078D01*
X1981378D02*
X1978078D01*
X1977078D02*
X1975778D01*
X1974778D02*
X1973378D01*
X2029978Y1581845D02*
X2022478D01*
X2015178D02*
X2010878D01*
X2010178D02*
X2008978D01*
X2007578D02*
X2005878D01*
X2003978D02*
X2002178D01*
X2000778D02*
X1997478D01*
X1997078D02*
X1992678D01*
X1992078D02*
X1988378D01*
X1986078D02*
X1984078D01*
X1981278D02*
X1977978D01*
X1977078D02*
X1975778D01*
X1974678D02*
X1973278D01*
X2029778Y1581945D02*
X2022378D01*
X2015178D02*
X2010878D01*
X2010178D02*
X2008978D01*
X2007578D02*
X2005878D01*
X2003878D02*
X2002178D01*
X2000778D02*
X1997478D01*
X1997078D02*
X1992678D01*
X1992078D02*
X1988378D01*
X1986078D02*
X1984278D01*
X1981178D02*
X1977878D01*
X1977078D02*
X1975778D01*
X1974578D02*
X1973178D01*
X2029778Y1582045D02*
X2022278D01*
X2015178D02*
X2010878D01*
X2010178D02*
X2008978D01*
X2007578D02*
X2005878D01*
X2003878D02*
X2002178D01*
X2000778D02*
X1997478D01*
X1997078D02*
X1992678D01*
X1992078D02*
X1988478D01*
X1986078D02*
X1984278D01*
X1981078D02*
X1977878D01*
X1977078D02*
X1975778D01*
X1974478D02*
X1973078D01*
X2029578Y1582145D02*
X2022178D01*
X2015178D02*
X2010878D01*
X2010178D02*
X2008978D01*
X2007578D02*
X2005878D01*
X2003878D02*
X2002178D01*
X2000778D02*
X1997478D01*
X1997078D02*
X1992678D01*
X1992078D02*
X1988578D01*
X1985978D02*
X1984278D01*
X1980978D02*
X1977878D01*
X1977078D02*
X1975778D01*
X1974378D02*
X1972978D01*
X2029578Y1582245D02*
X2022078D01*
X2015178D02*
X2010878D01*
X2010178D02*
X2008978D01*
X2007578D02*
X2005978D01*
X2003878D02*
X2002178D01*
X2000778D02*
X1997478D01*
X1997078D02*
X1992678D01*
X1992078D02*
X1988678D01*
X1985878D02*
X1984278D01*
X1980878D02*
X1977878D01*
X1977078D02*
X1975778D01*
X1974378D02*
X1972978D01*
X2029378Y1582345D02*
X2021978D01*
X2015178D02*
X2010878D01*
X2010178D02*
X2008978D01*
X2007578D02*
X2006078D01*
X2003878D02*
X2002178D01*
X2000878D02*
X1997478D01*
X1997078D02*
X1992678D01*
X1992078D02*
X1988978D01*
X1985878D02*
X1984278D01*
X1980578D02*
X1977878D01*
X1977078D02*
X1975778D01*
X1974378D02*
X1972978D01*
X2029378Y1582445D02*
X2021878D01*
X2015078D02*
X2010878D01*
X2010178D02*
X2008978D01*
X2007578D02*
X2006078D01*
X2003778D02*
X2002178D01*
X2000878D02*
X1997478D01*
X1996978D02*
X1992778D01*
X1992078D02*
X1989078D01*
X1985878D02*
X1984278D01*
X1980478D02*
X1977878D01*
X1977078D02*
X1975878D01*
X1974378D02*
X1972978D01*
X2029178Y1582545D02*
X2021778D01*
X2014978D02*
X2010978D01*
X2010178D02*
X2009178D01*
X2007578D02*
X2006078D01*
X2003678D02*
X2002378D01*
X2000778D02*
X1997578D01*
X1996878D02*
X1992878D01*
X1991678D02*
X1989578D01*
X1985778D02*
X1984478D01*
X1979978D02*
X1978278D01*
X1977078D02*
X1975978D01*
X1974178D02*
X1972978D01*
X2029178Y1582645D02*
X2021678D01*
X2014878D02*
X2011078D01*
X2010178D02*
X2009178D01*
X2007478D02*
X2006178D01*
X2003578D02*
X2002378D01*
X2000678D02*
X1997678D01*
X1996778D02*
X1992978D01*
X1991678D02*
X1989678D01*
X1985678D02*
X1984478D01*
X1979878D02*
X1978278D01*
X1976978D02*
X1976078D01*
X1974178D02*
X1972978D01*
X2028978Y1582745D02*
X2021578D01*
X2028978Y1582845D02*
X2021478D01*
X2028778Y1582945D02*
X2021378D01*
X2028778Y1583045D02*
X2021278D01*
X2028578Y1583145D02*
X2021178D01*
X2028578Y1583245D02*
X2021078D01*
X2028378Y1583345D02*
X2020978D01*
X2028378Y1583445D02*
X2020878D01*
X2028178Y1583545D02*
X2020778D01*
X2028178Y1583645D02*
X2020678D01*
X2032978Y1583745D02*
X2020578D01*
X2033078Y1583845D02*
X2020478D01*
X2034278Y1583945D02*
X2020378D01*
X2034278Y1584045D02*
X2020278D01*
X2035278Y1584145D02*
X2020178D01*
X2035378Y1584245D02*
X2020078D01*
X2036078Y1584345D02*
X2019978D01*
X2003778D02*
X2002678D01*
X1982678D02*
X1982078D01*
X2036178Y1584445D02*
X2019878D01*
X2003878D02*
X2002578D01*
X1982778D02*
X1981978D01*
X2036278Y1584545D02*
X2019778D01*
X2003878D02*
X2002478D01*
X1982878D02*
X1981878D01*
X2036978Y1584645D02*
X2019678D01*
X2004278D02*
X2002178D01*
X1983478D02*
X1981578D01*
X2037078Y1584745D02*
X2019578D01*
X2004278D02*
X2002078D01*
X1983478D02*
X1981478D01*
X2037578Y1584845D02*
X2019478D01*
X2004478D02*
X2003778D01*
X2002578D02*
X2001978D01*
X1983878D02*
X1982978D01*
X1981978D02*
X1981378D01*
X2037678Y1584945D02*
X2019378D01*
X2004478D02*
X2003878D01*
X2002478D02*
X2001978D01*
X1983878D02*
X1983078D01*
X1981878D02*
X1981278D01*
X2038178Y1585045D02*
X2019278D01*
X2004678D02*
X2003978D01*
X2002378D02*
X2001978D01*
X1983878D02*
X1983378D01*
X1981778D02*
X1981178D01*
X2038278Y1585145D02*
X2019178D01*
X2004578D02*
X2004078D01*
X2002378D02*
X2001878D01*
X1983878D02*
X1983478D01*
X1981778D02*
X1981178D01*
X2038678Y1585245D02*
X2019078D01*
X2002178D02*
X2001778D01*
X1983878D02*
X1983678D01*
X1981578D02*
X1981178D01*
X2038678Y1585345D02*
X2018978D01*
X2002178D02*
X2001778D01*
X1983778D02*
X1983678D01*
X1981578D02*
X1981078D01*
X2039278Y1585445D02*
X2018878D01*
X2002178D02*
X2001778D01*
X1981378D02*
X1980978D01*
X2039278Y1585545D02*
X2018778D01*
X2002178D02*
X2001778D01*
X1981378D02*
X1980978D01*
X2039678Y1585645D02*
X2018678D01*
X2009978D02*
X2009178D01*
X2008378D02*
X2008178D01*
X2002178D02*
X2001778D01*
X1981378D02*
X1980978D01*
X2039678Y1585745D02*
X2018578D01*
X2010078D02*
X2009178D01*
X2008378D02*
X2008078D01*
X2002178D02*
X2001778D01*
X1981378D02*
X1980978D01*
X2040078Y1585845D02*
X2018478D01*
X2013678D02*
X2012078D01*
X2010378D02*
X2008778D01*
X2008378D02*
X2007978D01*
X2007478D02*
X2007178D01*
X2005478D02*
X2005078D01*
X2003778D02*
X2002378D01*
X2002178D02*
X2001778D01*
X2001078D02*
X2000978D01*
X1999278D02*
X1998878D01*
X1997378D02*
X1997078D01*
X1995978D02*
X1994378D01*
X1993278D02*
X1992978D01*
X1991278D02*
X1991078D01*
X1988978D02*
X1988578D01*
X1988178D02*
X1987778D01*
X1987078D02*
X1986778D01*
X1984878D02*
X1984478D01*
X1983178D02*
X1981778D01*
X1981378D02*
X1980978D01*
X2040078Y1585945D02*
X2018378D01*
X2013778D02*
X2012078D01*
X2010478D02*
X2008778D01*
X2008378D02*
X2007978D01*
X2007578D02*
X2007178D01*
X2005478D02*
X2005078D01*
X2003878D02*
X2002378D01*
X2002178D02*
X2001778D01*
X2001178D02*
X2000878D01*
X1999278D02*
X1998878D01*
X1997478D02*
X1997078D01*
X1996078D02*
X1994278D01*
X1993378D02*
X1992878D01*
X1991278D02*
X1991078D01*
X1988978D02*
X1988578D01*
X1988178D02*
X1987778D01*
X1987178D02*
X1986778D01*
X1984878D02*
X1984478D01*
X1983278D02*
X1981778D01*
X1981378D02*
X1980978D01*
X2040478Y1586045D02*
X2018278D01*
X2013878D02*
X2011878D01*
X2010578D02*
X2009978D01*
X2009178D02*
X2007978D01*
X2007578D02*
X2007178D01*
X2005478D02*
X2005078D01*
X2004178D02*
X2001778D01*
X2001178D02*
X2000778D01*
X1999278D02*
X1998878D01*
X1997478D02*
X1997078D01*
X1996178D02*
X1995378D01*
X1994978D02*
X1994178D01*
X1993378D02*
X1992878D01*
X1991278D02*
X1991078D01*
X1988978D02*
X1988578D01*
X1988178D02*
X1987778D01*
X1987178D02*
X1986778D01*
X1984878D02*
X1984478D01*
X1983578D02*
X1982578D01*
X1982478D02*
X1980978D01*
X2040578Y1586145D02*
X2018178D01*
X2013978D02*
X2011878D01*
X2010678D02*
X2010078D01*
X2009178D02*
X2007978D01*
X2007578D02*
X2007178D01*
X2005478D02*
X2005078D01*
X2004278D02*
X2001778D01*
X2001178D02*
X2000778D01*
X1999278D02*
X1998878D01*
X1997478D02*
X1997078D01*
X1996278D02*
X1995378D01*
X1994978D02*
X1994078D01*
X1993378D02*
X1992878D01*
X1991278D02*
X1991078D01*
X1988978D02*
X1988578D01*
X1988178D02*
X1987778D01*
X1987178D02*
X1986778D01*
X1984878D02*
X1984478D01*
X1983678D02*
X1982678D01*
X1982378D02*
X1980978D01*
X2040878Y1586245D02*
X2018078D01*
X2014078D02*
X2013478D01*
X2012278D02*
X2011678D01*
X2010778D02*
X2010178D01*
X2008778D02*
X2007978D01*
X2007578D02*
X2007178D01*
X2005478D02*
X2005078D01*
X2004278D02*
X2003778D01*
X2002678D02*
X2001778D01*
X2001178D02*
X2000878D01*
X1999278D02*
X1998878D01*
X1997478D02*
X1997078D01*
X1996378D02*
X1995778D01*
X1994578D02*
X1993978D01*
X1993378D02*
X1992878D01*
X1991278D02*
X1991078D01*
X1988978D02*
X1988578D01*
X1988178D02*
X1987778D01*
X1987178D02*
X1986778D01*
X1984878D02*
X1984478D01*
X1983678D02*
X1983178D01*
X1981878D02*
X1980978D01*
X2040978Y1586345D02*
X2017978D01*
X2014178D02*
X2013578D01*
X2012278D02*
X2011678D01*
X2010878D02*
X2010278D01*
X2008778D02*
X2007978D01*
X2007578D02*
X2007178D01*
X2005478D02*
X2005078D01*
X2004278D02*
X2003878D01*
X2002578D02*
X2001778D01*
X2001178D02*
X2000978D01*
X1999278D02*
X1998878D01*
X1997478D02*
X1997078D01*
X1996378D02*
X1995778D01*
X1994578D02*
X1993878D01*
X1993378D02*
X1992878D01*
X1991278D02*
X1991078D01*
X1988978D02*
X1988578D01*
X1988178D02*
X1987778D01*
X1987178D02*
X1986778D01*
X1984878D02*
X1984478D01*
X1983678D02*
X1983278D01*
X1981778D02*
X1980978D01*
X2041278Y1586445D02*
X2017878D01*
X2014278D02*
X2013678D01*
X2011878D02*
X2011478D01*
X2010978D02*
X2010378D01*
X2008578D02*
X2007978D01*
X2007578D02*
X2007178D01*
X2005478D02*
X2005078D01*
X2004378D02*
X2003978D01*
X2002478D02*
X2001778D01*
X2001178D02*
X2000978D01*
X1999278D02*
X1998878D01*
X1997478D02*
X1997078D01*
X1996378D02*
X1995978D01*
X1994378D02*
X1993778D01*
X1993378D02*
X1992878D01*
X1991278D02*
X1991078D01*
X1988978D02*
X1988578D01*
X1988178D02*
X1987778D01*
X1987178D02*
X1986778D01*
X1984878D02*
X1984478D01*
X1983778D02*
X1983378D01*
X1981678D02*
X1980978D01*
X2041378Y1586545D02*
X2017778D01*
X2014378D02*
X2013778D01*
X2011878D02*
X2011478D01*
X2011078D02*
X2010478D01*
X2008578D02*
X2007978D01*
X2007578D02*
X2007178D01*
X2005478D02*
X2005078D01*
X2004478D02*
X2004078D01*
X2002378D02*
X2001778D01*
X2001178D02*
X2000978D01*
X1999278D02*
X1998878D01*
X1997478D02*
X1997078D01*
X1996478D02*
X1995978D01*
X1994378D02*
X1993778D01*
X1993378D02*
X1992878D01*
X1991278D02*
X1991078D01*
X1988978D02*
X1988578D01*
X1988178D02*
X1987778D01*
X1987178D02*
X1986778D01*
X1984878D02*
X1984478D01*
X1983878D02*
X1983478D01*
X1981578D02*
X1980978D01*
X2041678Y1586645D02*
X2017678D01*
X2014378D02*
X2013878D01*
X2011878D02*
X2011478D01*
X2011078D02*
X2010578D01*
X2008578D02*
X2007978D01*
X2007578D02*
X2007178D01*
X2005478D02*
X2005078D01*
X2004478D02*
X2004078D01*
X2002278D02*
X2001778D01*
X2001178D02*
X2000978D01*
X1999278D02*
X1998878D01*
X1997478D02*
X1997078D01*
X1996578D02*
X1996178D01*
X1994178D02*
X1993778D01*
X1993378D02*
X1992878D01*
X1991278D02*
X1991078D01*
X1988978D02*
X1988578D01*
X1988178D02*
X1987778D01*
X1987178D02*
X1986778D01*
X1984878D02*
X1984478D01*
X1983878D02*
X1983478D01*
X1981578D02*
X1980978D01*
X2041778Y1586745D02*
X2017578D01*
X2014378D02*
X2013978D01*
X2011878D02*
X2011478D01*
X2011078D02*
X2010678D01*
X2008578D02*
X2007978D01*
X2007578D02*
X2007178D01*
X2005478D02*
X2005078D01*
X2004478D02*
X2004078D01*
X2002178D02*
X2001778D01*
X2001178D02*
X2000978D01*
X1999278D02*
X1998878D01*
X1997478D02*
X1997078D01*
X1996578D02*
X1996178D01*
X1994178D02*
X1993678D01*
X1993378D02*
X1992878D01*
X1991278D02*
X1991078D01*
X1988978D02*
X1988578D01*
X1988178D02*
X1987778D01*
X1987178D02*
X1986778D01*
X1984878D02*
X1984478D01*
X1983878D02*
X1983478D01*
X1981578D02*
X1980978D01*
X2042078Y1586845D02*
X2017478D01*
X2014378D02*
X2014078D01*
X2011078D02*
X2010678D01*
X2008378D02*
X2007978D01*
X2007578D02*
X2007178D01*
X2005478D02*
X2005078D01*
X2004578D02*
X2004178D01*
X2002178D02*
X2001778D01*
X2001178D02*
X2000978D01*
X1999278D02*
X1998878D01*
X1997478D02*
X1997078D01*
X1996578D02*
X1996178D01*
X1993978D02*
X1993578D01*
X1993378D02*
X1992878D01*
X1991278D02*
X1991078D01*
X1988978D02*
X1988578D01*
X1988178D02*
X1987778D01*
X1987178D02*
X1986778D01*
X1984878D02*
X1984478D01*
X1983978D02*
X1983578D01*
X1981478D02*
X1980978D01*
X2042178Y1586945D02*
X2017378D01*
X2014378D02*
X2014078D01*
X2011078D02*
X2010678D01*
X2008378D02*
X2007978D01*
X2007578D02*
X2007178D01*
X2005478D02*
X2005078D01*
X2004678D02*
X2004278D01*
X2002178D02*
X2001778D01*
X2001178D02*
X2000978D01*
X1999278D02*
X1998878D01*
X1997478D02*
X1997078D01*
X1996578D02*
X1996178D01*
X1993978D02*
X1993578D01*
X1993378D02*
X1992878D01*
X1991278D02*
X1991078D01*
X1988978D02*
X1988578D01*
X1988178D02*
X1987778D01*
X1987178D02*
X1986778D01*
X1984878D02*
X1984478D01*
X1984078D02*
X1983678D01*
X1981378D02*
X1980978D01*
X2042278Y1587045D02*
X2017278D01*
X2014478D02*
X2013978D01*
X2011078D02*
X2010678D01*
X2008378D02*
X2007978D01*
X2007578D02*
X2007178D01*
X2005478D02*
X2005078D01*
X2004678D02*
X2004278D01*
X2002178D02*
X2001778D01*
X2001178D02*
X2000978D01*
X1999278D02*
X1998878D01*
X1997478D02*
X1997078D01*
X1996578D02*
X1996178D01*
X1993978D02*
X1993578D01*
X1993378D02*
X1992878D01*
X1991278D02*
X1991078D01*
X1988978D02*
X1988578D01*
X1988178D02*
X1987778D01*
X1987178D02*
X1986778D01*
X1984878D02*
X1984478D01*
X1984078D02*
X1983678D01*
X1981378D02*
X1980978D01*
X2042378Y1587145D02*
X2017178D01*
X2014578D02*
X2013878D01*
X2011078D02*
X2010678D01*
X2008378D02*
X2007978D01*
X2007578D02*
X2007178D01*
X2005478D02*
X2005078D01*
X2004678D02*
X2004278D01*
X2002178D02*
X2001778D01*
X2001178D02*
X2000978D01*
X1999278D02*
X1998878D01*
X1997478D02*
X1997078D01*
X1996578D02*
X1996178D01*
X1993978D02*
X1993578D01*
X1993378D02*
X1992878D01*
X1991278D02*
X1991078D01*
X1988978D02*
X1988578D01*
X1988178D02*
X1987778D01*
X1987178D02*
X1986778D01*
X1984878D02*
X1984478D01*
X1984078D02*
X1983678D01*
X1981378D02*
X1980978D01*
X2042678Y1587245D02*
X2017078D01*
X2014578D02*
X2011578D01*
X2011078D02*
X2010678D01*
X2008378D02*
X2007978D01*
X2007578D02*
X2007178D01*
X2005478D02*
X2005078D01*
X2004678D02*
X2004278D01*
X2002178D02*
X2001778D01*
X2001178D02*
X2000978D01*
X1999278D02*
X1998878D01*
X1997478D02*
X1997078D01*
X1996578D02*
X1996178D01*
X1993978D02*
X1993578D01*
X1993378D02*
X1992878D01*
X1991278D02*
X1991078D01*
X1988978D02*
X1988578D01*
X1988178D02*
X1987778D01*
X1987178D02*
X1986778D01*
X1984878D02*
X1984478D01*
X1984078D02*
X1983678D01*
X1981378D02*
X1980978D01*
X2042778Y1587345D02*
X2016978D01*
X2014578D02*
X2011478D01*
X2011078D02*
X2010678D01*
X2008378D02*
X2007978D01*
X2007578D02*
X2007178D01*
X2005478D02*
X2005078D01*
X2004678D02*
X2004278D01*
X2002178D02*
X2001778D01*
X2001178D02*
X2000978D01*
X1999278D02*
X1998878D01*
X1997478D02*
X1997078D01*
X1996578D02*
X1996178D01*
X1993978D02*
X1993578D01*
X1993378D02*
X1992878D01*
X1991278D02*
X1991078D01*
X1988978D02*
X1988578D01*
X1988178D02*
X1987778D01*
X1987178D02*
X1986778D01*
X1984878D02*
X1984478D01*
X1984078D02*
X1983678D01*
X1981378D02*
X1980978D01*
X2042878Y1587445D02*
X2016878D01*
X2014578D02*
X2011478D01*
X2011078D02*
X2010678D01*
X2008478D02*
X2007978D01*
X2007578D02*
X2007178D01*
X2005478D02*
X2005078D01*
X2004678D02*
X2004278D01*
X2002178D02*
X2001778D01*
X2001178D02*
X2000978D01*
X1999278D02*
X1998878D01*
X1997478D02*
X1997078D01*
X1996578D02*
X1996178D01*
X1994078D02*
X1993578D01*
X1993378D02*
X1992878D01*
X1991278D02*
X1991078D01*
X1988978D02*
X1988578D01*
X1988178D02*
X1987778D01*
X1987178D02*
X1986778D01*
X1984878D02*
X1984478D01*
X1984078D02*
X1983678D01*
X1981378D02*
X1980978D01*
X2042978Y1587545D02*
X2016778D01*
X2014578D02*
X2011478D01*
X2011078D02*
X2010678D01*
X2008578D02*
X2007978D01*
X2007578D02*
X2007178D01*
X2005478D02*
X2005078D01*
X2004678D02*
X2004278D01*
X2002178D02*
X2001778D01*
X2001178D02*
X2000978D01*
X1999278D02*
X1998878D01*
X1997478D02*
X1997078D01*
X1996578D02*
X1996178D01*
X1994178D02*
X1993578D01*
X1993378D02*
X1992878D01*
X1991278D02*
X1991078D01*
X1988978D02*
X1988578D01*
X1988178D02*
X1987778D01*
X1987178D02*
X1986778D01*
X1984878D02*
X1984478D01*
X1984078D02*
X1983678D01*
X1981378D02*
X1980978D01*
X2043278Y1587645D02*
X2016678D01*
X2014478D02*
X2013778D01*
X2011978D02*
X2011478D01*
X2011078D02*
X2010678D01*
X2008578D02*
X2008078D01*
X2007578D02*
X2007178D01*
X2005478D02*
X2005078D01*
X2004678D02*
X2004278D01*
X2002178D02*
X2001778D01*
X2001178D02*
X2000878D01*
X1999278D02*
X1998878D01*
X1997478D02*
X1997078D01*
X1996578D02*
X1996178D01*
X1994178D02*
X1993678D01*
X1993378D02*
X1992878D01*
X1991278D02*
X1990978D01*
X1989078D02*
X1988678D01*
X1988178D02*
X1987778D01*
X1987178D02*
X1986778D01*
X1984878D02*
X1984478D01*
X1983978D02*
X1983578D01*
X1981478D02*
X1981078D01*
X2043378Y1587745D02*
X2016578D01*
X2014378D02*
X2013878D01*
X2011878D02*
X2011478D01*
X2011078D02*
X2010678D01*
X2008578D02*
X2008178D01*
X2007578D02*
X2007178D01*
X2005478D02*
X2005078D01*
X2004678D02*
X2004278D01*
X2002178D02*
X2001778D01*
X2001178D02*
X2000778D01*
X1999278D02*
X1998878D01*
X1997478D02*
X1997078D01*
X1996578D02*
X1996178D01*
X1994178D02*
X1993778D01*
X1993378D02*
X1992878D01*
X1991278D02*
X1990878D01*
X1989178D02*
X1988778D01*
X1988178D02*
X1987778D01*
X1987178D02*
X1986778D01*
X1984878D02*
X1984478D01*
X1983878D02*
X1983478D01*
X1981578D02*
X1981178D01*
X2043478Y1587845D02*
X2016478D01*
X2014378D02*
X2013878D01*
X2011978D02*
X2011578D01*
X2010978D02*
X2010578D01*
X2008678D02*
X2008178D01*
X2007478D02*
X2007078D01*
X2005478D02*
X2005078D01*
X2004678D02*
X2004278D01*
X2002178D02*
X2001778D01*
X2001178D02*
X2000778D01*
X1999378D02*
X1998878D01*
X1997478D02*
X1997078D01*
X1996578D02*
X1996078D01*
X1994278D02*
X1993778D01*
X1993278D02*
X1992778D01*
X1991278D02*
X1990878D01*
X1989178D02*
X1988778D01*
X1988178D02*
X1987778D01*
X1987078D02*
X1986678D01*
X1984878D02*
X1984478D01*
X1983878D02*
X1983478D01*
X1981678D02*
X1981178D01*
X2043578Y1587945D02*
X2016378D01*
X2014378D02*
X2013878D01*
X2012078D02*
X2011678D01*
X2010878D02*
X2010478D01*
X2008778D02*
X2008178D01*
X2007378D02*
X2006878D01*
X2005478D02*
X2005078D01*
X2004678D02*
X2004278D01*
X2002178D02*
X2001778D01*
X2001178D02*
X2000778D01*
X1999478D02*
X1998878D01*
X1997478D02*
X1997078D01*
X1996378D02*
X1995978D01*
X1994378D02*
X1993778D01*
X1993078D02*
X1992678D01*
X1991278D02*
X1990878D01*
X1989178D02*
X1988778D01*
X1988178D02*
X1987778D01*
X1986978D02*
X1986578D01*
X1984878D02*
X1984478D01*
X1983878D02*
X1983478D01*
X1981778D02*
X1981178D01*
X2043678Y1588045D02*
X2016278D01*
X2014278D02*
X2013878D01*
X2012178D02*
X2011678D01*
X2010878D02*
X2010378D01*
X2008878D02*
X2008278D01*
X2007378D02*
X2006878D01*
X2005478D02*
X2005078D01*
X2004678D02*
X2004278D01*
X2002178D02*
X2001778D01*
X2001178D02*
X2000678D01*
X1999478D02*
X1998778D01*
X1997578D02*
X1997078D01*
X1996378D02*
X1995878D01*
X1994478D02*
X1993778D01*
X1993078D02*
X1992678D01*
X1991178D02*
X1990778D01*
X1989278D02*
X1988778D01*
X1988178D02*
X1987778D01*
X1986978D02*
X1986478D01*
X1984978D02*
X1984578D01*
X1983778D02*
X1983378D01*
X1981878D02*
X1981278D01*
X2043978Y1588145D02*
X2016178D01*
X2014178D02*
X2013778D01*
X2012278D02*
X2011678D01*
X2010878D02*
X2010178D01*
X2008978D02*
X2008378D01*
X2007378D02*
X2006878D01*
X2005478D02*
X2005078D01*
X2004678D02*
X2004278D01*
X2002178D02*
X2001778D01*
X2001178D02*
X2000578D01*
X1999478D02*
X1998678D01*
X1997678D02*
X1997078D01*
X1996378D02*
X1995778D01*
X1994578D02*
X1993978D01*
X1993078D02*
X1992678D01*
X1991078D02*
X1990678D01*
X1989378D02*
X1988778D01*
X1988178D02*
X1987778D01*
X1986978D02*
X1986378D01*
X1985078D02*
X1984678D01*
X1983678D02*
X1983078D01*
X1981978D02*
X1981378D01*
X2044078Y1588245D02*
X2016078D01*
X2014078D02*
X2013678D01*
X2012378D02*
X2011778D01*
X2010778D02*
X2010178D01*
X2009078D02*
X2008478D01*
X2007278D02*
X2006878D01*
X2005478D02*
X2005078D01*
X2004678D02*
X2004278D01*
X2002178D02*
X2001778D01*
X2001078D02*
X2000478D01*
X1999578D02*
X1998578D01*
X1997678D02*
X1997078D01*
X1996378D02*
X1995678D01*
X1994678D02*
X1993978D01*
X1993078D02*
X1992678D01*
X1991078D02*
X1990578D01*
X1989478D02*
X1988878D01*
X1988178D02*
X1987778D01*
X1986878D02*
X1986278D01*
X1985178D02*
X1984778D01*
X1983578D02*
X1982978D01*
X1982078D02*
X1981478D01*
X2044178Y1588345D02*
X2015978D01*
X2013978D02*
X2013278D01*
X2012678D02*
X2011878D01*
X2010678D02*
X2008578D01*
X2007178D02*
X2005878D01*
X2005478D02*
X2005078D01*
X2004678D02*
X2004278D01*
X2002178D02*
X2001778D01*
X2000978D02*
X2000378D01*
X1999878D02*
X1999278D01*
X1998878D02*
X1998278D01*
X1998078D02*
X1997278D01*
X1996178D02*
X1995378D01*
X1994978D02*
X1994178D01*
X1992878D02*
X1991678D01*
X1991078D02*
X1990278D01*
X1989778D02*
X1988978D01*
X1988178D02*
X1987778D01*
X1986778D02*
X1986178D01*
X1985478D02*
X1984878D01*
X1983478D02*
X1981578D01*
X2044278Y1588445D02*
X2015878D01*
X2013878D02*
X2013278D01*
X2012778D02*
X2011978D01*
X2010578D02*
X2008678D01*
X2007078D02*
X2005878D01*
X2005478D02*
X2005078D01*
X2004678D02*
X2004278D01*
X2002178D02*
X2001778D01*
X2000878D02*
X2000278D01*
X1999978D02*
X1999378D01*
X1998778D02*
X1997278D01*
X1996178D02*
X1995278D01*
X1995078D02*
X1994178D01*
X1992878D02*
X1991678D01*
X1990978D02*
X1990178D01*
X1989878D02*
X1989078D01*
X1988078D02*
X1987778D01*
X1986678D02*
X1986078D01*
X1985578D02*
X1984978D01*
X1983378D02*
X1981678D01*
X2044378Y1588545D02*
X2015778D01*
X2013778D02*
X2012078D01*
X2010278D02*
X2008978D01*
X2006978D02*
X2005878D01*
X2005478D02*
X2005078D01*
X2004678D02*
X2004278D01*
X2002178D02*
X2001778D01*
X2000778D02*
X1999478D01*
X1998678D02*
X1997478D01*
X1995978D02*
X1994378D01*
X1992678D02*
X1991678D01*
X1990878D02*
X1989178D01*
X1987978D02*
X1987778D01*
X1986578D02*
X1985078D01*
X1983278D02*
X1981778D01*
X2044478Y1588645D02*
X2015678D01*
X2013678D02*
X2012178D01*
X2010178D02*
X2009078D01*
X2006878D02*
X2005978D01*
X2005478D02*
X2005078D01*
X2004578D02*
X2004278D01*
X2002178D02*
X2001878D01*
X2000678D02*
X1999578D01*
X1998578D02*
X1997478D01*
X1995978D02*
X1994378D01*
X1992678D02*
X1991778D01*
X1990778D02*
X1989278D01*
X1987878D02*
X1987778D01*
X1986478D02*
X1985178D01*
X1983178D02*
X1981878D01*
X2044578Y1588745D02*
X2015578D01*
X2013078D02*
X2012678D01*
X2005478D02*
X2005078D01*
X1990278D02*
X1989778D01*
X1985978D02*
X1985678D01*
X2044678Y1588845D02*
X2015478D01*
X2013078D02*
X2012778D01*
X2005478D02*
X2005078D01*
X1990178D02*
X1989878D01*
X1985878D02*
X1985778D01*
X2044978Y1588945D02*
X2032478D01*
X2028178D02*
X2015378D01*
X2005478D02*
X2005078D01*
X2045078Y1589045D02*
X2032478D01*
X2028078D02*
X2015278D01*
X2005478D02*
X2005078D01*
X2045178Y1589145D02*
X2033678D01*
X2026778D02*
X2015178D01*
X2005478D02*
X2005078D01*
X2045278Y1589245D02*
X2033778D01*
X2026678D02*
X2015078D01*
X2005478D02*
X2005078D01*
X2045378Y1589345D02*
X2034478D01*
X2025878D02*
X2014978D01*
X2005478D02*
X2005078D01*
X1987978D02*
X1987778D01*
X2045478Y1589445D02*
X2034578D01*
X2025878D02*
X2014878D01*
X2005478D02*
X2005078D01*
X1987978D02*
X1987778D01*
X2045578Y1589545D02*
X2035278D01*
X2025078D02*
X2014778D01*
X2005478D02*
X2005078D01*
X1988178D02*
X1987578D01*
X2045678Y1589645D02*
X2035378D01*
X2024978D02*
X2014678D01*
X2005478D02*
X2005078D01*
X1988178D02*
X1987578D01*
X2045778Y1589745D02*
X2035878D01*
X2024478D02*
X2014578D01*
X2005478D02*
X2005078D01*
X1988178D02*
X1987578D01*
X2045878Y1589845D02*
X2035978D01*
X2024378D02*
X2014478D01*
X2005478D02*
X2005078D01*
X1988178D02*
X1987578D01*
X2045978Y1589945D02*
X2036578D01*
X2023878D02*
X2014378D01*
X1987978D02*
X1987678D01*
X2046078Y1590045D02*
X2036578D01*
X2023778D02*
X2014278D01*
X1987978D02*
X1987778D01*
X2046178Y1590145D02*
X2036978D01*
X2023478D02*
X2014178D01*
X2046278Y1590245D02*
X2036978D01*
X2023378D02*
X2014078D01*
X2046378Y1590345D02*
X2037578D01*
X2022878D02*
X2013978D01*
X2046478Y1590445D02*
X2037578D01*
X2022778D02*
X2013878D01*
X2046578Y1590545D02*
X2037978D01*
X2022478D02*
X2013778D01*
X2046678Y1590645D02*
X2038078D01*
X2022378D02*
X2013678D01*
X2046778Y1590745D02*
X2038378D01*
X2022078D02*
X2013578D01*
X2046878Y1590845D02*
X2038478D01*
X2021978D02*
X2013478D01*
X2046978Y1590945D02*
X2038778D01*
X2021678D02*
X2013378D01*
X2047078Y1591045D02*
X2038878D01*
X2021578D02*
X2013278D01*
X2047178Y1591145D02*
X2038978D01*
X2021478D02*
X2013178D01*
X2047278Y1591245D02*
X2039278D01*
X2021378D02*
X2013078D01*
X2047378Y1591345D02*
X2039378D01*
X2021278D02*
X2012978D01*
X2047478Y1591445D02*
X2039478D01*
X2020978D02*
X2012878D01*
X2047578Y1591545D02*
X2039578D01*
X2020878D02*
X2012778D01*
X2047678Y1591645D02*
X2039878D01*
X2020578D02*
X2012678D01*
X2047778Y1591745D02*
X2039978D01*
X2020478D02*
X2012578D01*
X2047878Y1591845D02*
X2040078D01*
X2020378D02*
X2012478D01*
X2047978Y1591945D02*
X2040178D01*
X2020278D02*
X2012378D01*
X2048078Y1592045D02*
X2040478D01*
X2019878D02*
X2012278D01*
X2048078Y1592145D02*
X2040578D01*
X2019878D02*
X2012278D01*
X2048078Y1592245D02*
X2040678D01*
X2019678D02*
X2012078D01*
X2048178Y1592345D02*
X2040778D01*
X2019678D02*
X2012078D01*
X2048278Y1592445D02*
X2041078D01*
X2019478D02*
X2011878D01*
X2048378Y1592545D02*
X2041178D01*
X2019478D02*
X2011878D01*
X2048478Y1592645D02*
X2041278D01*
X2019078D02*
X2011678D01*
X2048578Y1592745D02*
X2041378D01*
X2019078D02*
X2011678D01*
X2048678Y1592845D02*
X2041478D01*
X2018878D02*
X2011478D01*
X2048778Y1592945D02*
X2041578D01*
X2018878D02*
X2011478D01*
X2048878Y1593045D02*
X2041678D01*
X2018678D02*
X2011278D01*
X2048978Y1593145D02*
X2041778D01*
X2018678D02*
X2011178D01*
X2048978Y1593245D02*
X2041878D01*
X2018478D02*
X2011078D01*
X2048978Y1593345D02*
X2041978D01*
X2018478D02*
X2010978D01*
X2049078Y1593445D02*
X2042278D01*
X2018278D02*
X2010878D01*
X2049178Y1593545D02*
X2042378D01*
X2018278D02*
X2010778D01*
X2049278Y1593645D02*
X2042478D01*
X2018078D02*
X2010678D01*
X2049378Y1593745D02*
X2042578D01*
X2018078D02*
X2010578D01*
X2049378Y1593845D02*
X2042678D01*
X2017878D02*
X2010478D01*
X2049378Y1593945D02*
X2042778D01*
X2017878D02*
X2010378D01*
X2049478Y1594045D02*
X2042878D01*
X2017678D02*
X2010278D01*
X2049578Y1594145D02*
X2042978D01*
X2017678D02*
X2010178D01*
X2049678Y1594245D02*
X2043078D01*
X2017478D02*
X2010078D01*
X2049778Y1594345D02*
X2043178D01*
X2017478D02*
X2009978D01*
X2049778Y1594445D02*
X2043278D01*
X2017378D02*
X2009878D01*
X2049778Y1594545D02*
X2043378D01*
X2017178D02*
X2009778D01*
X2049878Y1594645D02*
X2043478D01*
X2017178D02*
X2009678D01*
X2049978Y1594745D02*
X2043578D01*
X2016978D02*
X2009578D01*
X2050078Y1594845D02*
X2043578D01*
X2016978D02*
X2009478D01*
X2050178Y1594945D02*
X2043578D01*
X2016778D02*
X2009378D01*
X2050178Y1595045D02*
X2043678D01*
X2016778D02*
X2009378D01*
X2050178Y1595145D02*
X2043778D01*
X2016578D02*
X2009178D01*
X2050278Y1595245D02*
X2043878D01*
X2016578D02*
X2009178D01*
X2050378Y1595345D02*
X2043978D01*
X2016378D02*
X2008978D01*
X2050378Y1595445D02*
X2044078D01*
X2016378D02*
X2008978D01*
X2068878Y1595545D02*
X2067278D01*
X2050378D02*
X2044178D01*
X2016178D02*
X2008778D01*
X2068978Y1595645D02*
X2067278D01*
X2050478D02*
X2044278D01*
X2016178D02*
X2008778D01*
X2069278Y1595745D02*
X2066678D01*
X2050578D02*
X2044378D01*
X2015978D02*
X2008578D01*
X2069378Y1595845D02*
X2066578D01*
X2050578D02*
X2044478D01*
X2015978D02*
X2008578D01*
X2069478Y1595945D02*
X2066478D01*
X2050578D02*
X2044578D01*
X2023978D02*
X2022778D01*
X2015978D02*
X2008378D01*
X2069578Y1596045D02*
X2066378D01*
X2050678D02*
X2044578D01*
X2024078D02*
X2022778D01*
X2015978D02*
X2008378D01*
X2069878Y1596145D02*
X2066278D01*
X2050778D02*
X2044578D01*
X2024378D02*
X2022178D01*
X2015778D02*
X2008178D01*
X2069978Y1596245D02*
X2066178D01*
X2050778D02*
X2044678D01*
X2024478D02*
X2022178D01*
X2015778D02*
X2008178D01*
X2069978Y1596345D02*
X2066078D01*
X2050778D02*
X2044778D01*
X2024778D02*
X2021978D01*
X2015578D02*
X2007978D01*
X2069978Y1596445D02*
X2065978D01*
X2050778D02*
X2044878D01*
X2024878D02*
X2021978D01*
X2015578D02*
X2007978D01*
X2070078Y1596545D02*
X2065878D01*
X2050978D02*
X2044978D01*
X2024978D02*
X2021778D01*
X2015378D02*
X2007778D01*
X2070178Y1596645D02*
X2065778D01*
X2050978D02*
X2045078D01*
X2025078D02*
X2021778D01*
X2015378D02*
X2007778D01*
X2070278Y1596745D02*
X2065678D01*
X2050978D02*
X2045078D01*
X2025178D02*
X2021578D01*
X2015378D02*
X2007578D01*
X2070378Y1596845D02*
X2065578D01*
X2050978D02*
X2045078D01*
X2025278D02*
X2021578D01*
X2015378D02*
X2007478D01*
X2070378Y1596945D02*
X2065478D01*
X2051178D02*
X2045178D01*
X2025378D02*
X2021378D01*
X2015278D02*
X2007378D01*
X2070378Y1597045D02*
X2065378D01*
X2051178D02*
X2045278D01*
X2025478D02*
X2021378D01*
X2015178D02*
X2007278D01*
X2070478Y1597145D02*
X2065278D01*
X2051178D02*
X2045378D01*
X2025578D02*
X2021378D01*
X2015078D02*
X2007178D01*
X2070578Y1597245D02*
X2065178D01*
X2051178D02*
X2045478D01*
X2025678D02*
X2021378D01*
X2014978D02*
X2007078D01*
X2070578Y1597345D02*
X2065078D01*
X2051378D02*
X2045478D01*
X2025778D02*
X2021378D01*
X2014978D02*
X2006978D01*
X2070578Y1597445D02*
X2064978D01*
X2051378D02*
X2045478D01*
X2025878D02*
X2021378D01*
X2014978D02*
X2006878D01*
X2070578Y1597545D02*
X2064878D01*
X2051378D02*
X2045578D01*
X2025978D02*
X2021378D01*
X2014878D02*
X2006778D01*
X2070578Y1597645D02*
X2064778D01*
X2051378D02*
X2045678D01*
X2026078D02*
X2021378D01*
X2014778D02*
X2006678D01*
X2070578Y1597745D02*
X2064678D01*
X2051478D02*
X2045778D01*
X2026178D02*
X2021378D01*
X2014778D02*
X2006578D01*
X2070578Y1597845D02*
X2064578D01*
X2051578D02*
X2045878D01*
X2026278D02*
X2021378D01*
X2014778D02*
X2006478D01*
X2070578Y1597945D02*
X2064478D01*
X2051578D02*
X2045878D01*
X2026378D02*
X2021378D01*
X2014678D02*
X2006378D01*
X2070578Y1598045D02*
X2064378D01*
X2051578D02*
X2045878D01*
X2026478D02*
X2021378D01*
X2014578D02*
X2006278D01*
X2070578Y1598145D02*
X2064278D01*
X2051578D02*
X2045978D01*
X2026578D02*
X2021378D01*
X2014478D02*
X2006178D01*
X2070578Y1598245D02*
X2064178D01*
X2051578D02*
X2046078D01*
X2026678D02*
X2021378D01*
X2014378D02*
X2006078D01*
X2070578Y1598345D02*
X2064078D01*
X2051678D02*
X2046078D01*
X2026778D02*
X2021378D01*
X2014378D02*
X2006078D01*
X2070578Y1598445D02*
X2063978D01*
X2051778D02*
X2046078D01*
X2026878D02*
X2021378D01*
X2014378D02*
X2005878D01*
X2070578Y1598545D02*
X2063878D01*
X2051878D02*
X2046078D01*
X2026978D02*
X2021378D01*
X2014278D02*
X2005878D01*
X2070578Y1598645D02*
X2063778D01*
X2051878D02*
X2046278D01*
X2027078D02*
X2021578D01*
X2014178D02*
X2005678D01*
X2070578Y1598745D02*
X2063678D01*
X2051878D02*
X2046278D01*
X2027178D02*
X2021578D01*
X2014178D02*
X2005678D01*
X2070578Y1598845D02*
X2063578D01*
X2051978D02*
X2046278D01*
X2027278D02*
X2021578D01*
X2014178D02*
X2005478D01*
X2070578Y1598945D02*
X2063478D01*
X2052078D02*
X2046278D01*
X2027378D02*
X2021578D01*
X2014078D02*
X2005478D01*
X2070378Y1599045D02*
X2063378D01*
X2052078D02*
X2046478D01*
X2027478D02*
X2021778D01*
X2013978D02*
X2005278D01*
X2070378Y1599145D02*
X2063278D01*
X2052078D02*
X2046478D01*
X2027578D02*
X2021778D01*
X2013878D02*
X2005278D01*
X2070378Y1599245D02*
X2063178D01*
X2052078D02*
X2046478D01*
X2027678D02*
X2021978D01*
X2013878D02*
X2005078D01*
X2070378Y1599345D02*
X2063078D01*
X2052078D02*
X2046478D01*
X2027778D02*
X2021978D01*
X2013878D02*
X2005078D01*
X2070178Y1599445D02*
X2062978D01*
X2052178D02*
X2046678D01*
X2027878D02*
X2022178D01*
X2013778D02*
X2004878D01*
X2070178Y1599545D02*
X2062878D01*
X2052278D02*
X2046678D01*
X2027978D02*
X2022178D01*
X2013678D02*
X2004878D01*
X2069978Y1599645D02*
X2062778D01*
X2052278D02*
X2046678D01*
X2028078D02*
X2022378D01*
X2013678D02*
X2004678D01*
X2069978Y1599745D02*
X2062678D01*
X2052278D02*
X2046678D01*
X2028178D02*
X2022378D01*
X2013678D02*
X2004678D01*
X2069778Y1599845D02*
X2062578D01*
X2052278D02*
X2046678D01*
X2028278D02*
X2022578D01*
X2013678D02*
X2004478D01*
X2069778Y1599945D02*
X2062478D01*
X2052278D02*
X2046678D01*
X2028378D02*
X2022578D01*
X2013678D02*
X2004478D01*
X2069578Y1600045D02*
X2062378D01*
X2052378D02*
X2046878D01*
X2028478D02*
X2022778D01*
X2013578D02*
X2004278D01*
X2069578Y1600145D02*
X2062278D01*
X2052478D02*
X2046878D01*
X2028578D02*
X2022778D01*
X2013478D02*
X2004278D01*
X2069378Y1600245D02*
X2062178D01*
X2052478D02*
X2046878D01*
X2028678D02*
X2022878D01*
X2013478D02*
X2004078D01*
X2069378Y1600345D02*
X2062078D01*
X2052478D02*
X2046878D01*
X2028778D02*
X2022978D01*
X2013478D02*
X2003978D01*
X2069178Y1600445D02*
X2061978D01*
X2052478D02*
X2046978D01*
X2028878D02*
X2023078D01*
X2013378D02*
X2003878D01*
X2069078Y1600545D02*
X2061878D01*
X2052478D02*
X2047078D01*
X2028978D02*
X2023178D01*
X2013278D02*
X2003778D01*
X2068978Y1600645D02*
X2061778D01*
X2052478D02*
X2047078D01*
X2029078D02*
X2023278D01*
X2013278D02*
X2003678D01*
X2068878Y1600745D02*
X2061678D01*
X2052478D02*
X2047078D01*
X2029178D02*
X2023378D01*
X2013278D02*
X2003578D01*
X2068778Y1600845D02*
X2061578D01*
X2052578D02*
X2047078D01*
X2029278D02*
X2023478D01*
X2013278D02*
X2003478D01*
X2068678Y1600945D02*
X2061478D01*
X2052678D02*
X2047078D01*
X2029378D02*
X2023578D01*
X2013278D02*
X2003378D01*
X2068578Y1601045D02*
X2061378D01*
X2052678D02*
X2047178D01*
X2029478D02*
X2023678D01*
X2013178D02*
X2003278D01*
X2068478Y1601145D02*
X2061278D01*
X2052678D02*
X2047278D01*
X2029578D02*
X2023778D01*
X2013078D02*
X2003178D01*
X2068478Y1601245D02*
X2061178D01*
X2052678D02*
X2047278D01*
X2029678D02*
X2023878D01*
X2013078D02*
X2003078D01*
X2068278Y1601345D02*
X2061078D01*
X2052678D02*
X2047278D01*
X2029778D02*
X2023978D01*
X2013078D02*
X2002978D01*
X2068278Y1601445D02*
X2060978D01*
X2052678D02*
X2047278D01*
X2029878D02*
X2024078D01*
X2013078D02*
X2002978D01*
X2068078Y1601545D02*
X2060878D01*
X2052678D02*
X2047278D01*
X2029978D02*
X2024178D01*
X2013078D02*
X2002778D01*
X2068078Y1601645D02*
X2060778D01*
X2052678D02*
X2047378D01*
X2030078D02*
X2024278D01*
X2013078D02*
X2002778D01*
X2067878Y1601745D02*
X2060678D01*
X2052878D02*
X2047478D01*
X2030178D02*
X2024378D01*
X2012878D02*
X2002578D01*
X2067878Y1601845D02*
X2060578D01*
X2052878D02*
X2047478D01*
X2030278D02*
X2024478D01*
X2012878D02*
X2002578D01*
X2067678Y1601945D02*
X2060478D01*
X2052878D02*
X2047478D01*
X2030378D02*
X2024578D01*
X2012878D02*
X2002378D01*
X2067678Y1602045D02*
X2060478D01*
X2052878D02*
X2047478D01*
X2030478D02*
X2024678D01*
X2012878D02*
X2002378D01*
X2067478Y1602145D02*
X2060278D01*
X2052878D02*
X2047478D01*
X2030578D02*
X2024778D01*
X2012878D02*
X2002178D01*
X2067478Y1602245D02*
X2060278D01*
X2052878D02*
X2047578D01*
X2030678D02*
X2024878D01*
X2012878D02*
X2002178D01*
X2067278Y1602345D02*
X2060078D01*
X2052878D02*
X2047678D01*
X2030778D02*
X2024978D01*
X2012878D02*
X2001978D01*
X2067278Y1602445D02*
X2060078D01*
X2052878D02*
X2047678D01*
X2030878D02*
X2025078D01*
X2012878D02*
X2001978D01*
X2067078Y1602545D02*
X2059878D01*
X2053078D02*
X2047678D01*
X2030978D02*
X2025178D01*
X2012678D02*
X2001778D01*
X2067078Y1602645D02*
X2059878D01*
X2053078D02*
X2047678D01*
X2031078D02*
X2025278D01*
X2012678D02*
X2001778D01*
X2066878Y1602745D02*
X2059678D01*
X2053078D02*
X2047678D01*
X2031178D02*
X2025378D01*
X2012678D02*
X2001578D01*
X2066878Y1602845D02*
X2059678D01*
X2053078D02*
X2047678D01*
X2031278D02*
X2025478D01*
X2012678D02*
X2001578D01*
X2066678Y1602945D02*
X2059478D01*
X2053078D02*
X2047678D01*
X2031378D02*
X2025578D01*
X2012678D02*
X2001378D01*
X2066678Y1603045D02*
X2059478D01*
X2053078D02*
X2047678D01*
X2031478D02*
X2025678D01*
X2012678D02*
X2001378D01*
X2066478Y1603145D02*
X2059278D01*
X2053078D02*
X2047678D01*
X2031578D02*
X2025778D01*
X2012678D02*
X2001178D01*
X2066478Y1603245D02*
X2059178D01*
X2053078D02*
X2047778D01*
X2031678D02*
X2025878D01*
X2012678D02*
X2001178D01*
X2066278Y1603345D02*
X2059078D01*
X2053078D02*
X2047878D01*
X2031778D02*
X2025978D01*
X2012578D02*
X2000978D01*
X2066278Y1603445D02*
X2058978D01*
X2053078D02*
X2047878D01*
X2031878D02*
X2026078D01*
X2012478D02*
X2000978D01*
X2066078Y1603545D02*
X2058878D01*
X2053078D02*
X2047878D01*
X2031978D02*
X2026178D01*
X2012478D02*
X2000778D01*
X2066078Y1603645D02*
X2058778D01*
X2053078D02*
X2047878D01*
X2032078D02*
X2026278D01*
X2012478D02*
X2000778D01*
X2065878Y1603745D02*
X2058678D01*
X2053078D02*
X2047878D01*
X2032178D02*
X2026378D01*
X2012478D02*
X2000578D01*
X2065878Y1603845D02*
X2058578D01*
X2053078D02*
X2047878D01*
X2032278D02*
X2026478D01*
X2012478D02*
X2000578D01*
X2065678Y1603945D02*
X2058478D01*
X2053178D02*
X2047878D01*
X2032378D02*
X2026578D01*
X2012478D02*
X2000378D01*
X2065578Y1604045D02*
X2058378D01*
X2053278D02*
X2047878D01*
X2032478D02*
X2026678D01*
X2012478D02*
X2000278D01*
X2065478Y1604145D02*
X2058278D01*
X2053278D02*
X2047878D01*
X2032578D02*
X2026778D01*
X2012478D02*
X2000178D01*
X2065378Y1604245D02*
X2058178D01*
X2053278D02*
X2047878D01*
X2032678D02*
X2026878D01*
X2012478D02*
X2000078D01*
X2065278Y1604345D02*
X2058078D01*
X2053278D02*
X2047878D01*
X2032778D02*
X2026978D01*
X2012478D02*
X1999978D01*
X2065178Y1604445D02*
X2057978D01*
X2053278D02*
X2047878D01*
X2032878D02*
X2027078D01*
X2012478D02*
X1999878D01*
X2065178Y1604545D02*
X2057878D01*
X2053278D02*
X2047978D01*
X2032978D02*
X2027178D01*
X2012378D02*
X1999878D01*
X2064978Y1604645D02*
X2057778D01*
X2053278D02*
X2048078D01*
X2033078D02*
X2027278D01*
X2012278D02*
X1999678D01*
X2064978Y1604745D02*
X2057678D01*
X2053278D02*
X2048078D01*
X2033078D02*
X2027378D01*
X2012278D02*
X1999678D01*
X2064778Y1604845D02*
X2057578D01*
X2053278D02*
X2048078D01*
X2033078D02*
X2027478D01*
X2012278D02*
X2007078D01*
X2006978D02*
X1999478D01*
X2064778Y1604945D02*
X2057578D01*
X2053278D02*
X2048078D01*
X2033178D02*
X2027578D01*
X2012278D02*
X2007178D01*
X2006878D02*
X1999478D01*
X2064578Y1605045D02*
X2057378D01*
X2053278D02*
X2048078D01*
X2033278D02*
X2027678D01*
X2012278D02*
X2007178D01*
X2006778D02*
X1999278D01*
X2064578Y1605145D02*
X2057378D01*
X2053278D02*
X2048078D01*
X2033278D02*
X2027778D01*
X2012278D02*
X2007178D01*
X2006678D02*
X1999278D01*
X2064378Y1605245D02*
X2057178D01*
X2053278D02*
X2048078D01*
X2033278D02*
X2027878D01*
X2012278D02*
X2007178D01*
X2006478D02*
X1999078D01*
X2064378Y1605345D02*
X2057178D01*
X2053278D02*
X2048078D01*
X2033378D02*
X2027978D01*
X2012278D02*
X2007178D01*
X2006478D02*
X1999078D01*
X2064178Y1605445D02*
X2056978D01*
X2053278D02*
X2048078D01*
X2033478D02*
X2028078D01*
X2012278D02*
X2007178D01*
X2006278D02*
X1998878D01*
X2064178Y1605545D02*
X2056978D01*
X2053278D02*
X2048078D01*
X2033478D02*
X2028178D01*
X2012278D02*
X2007178D01*
X2006278D02*
X1998878D01*
X2063978Y1605645D02*
X2056778D01*
X2053278D02*
X2048078D01*
X2033478D02*
X2028278D01*
X2012278D02*
X2007178D01*
X2006078D02*
X1998678D01*
X2063978Y1605745D02*
X2056778D01*
X2053278D02*
X2048078D01*
X2033478D02*
X2028378D01*
X2012278D02*
X2007178D01*
X2006078D02*
X1998678D01*
X2063778Y1605845D02*
X2056578D01*
X2053278D02*
X2048078D01*
X2033478D02*
X2028478D01*
X2012278D02*
X2007178D01*
X2005878D02*
X1998478D01*
X2063778Y1605945D02*
X2056578D01*
X2053278D02*
X2048078D01*
X2033478D02*
X2028578D01*
X2012278D02*
X2007178D01*
X2005878D02*
X1998478D01*
X2063578Y1606045D02*
X2056378D01*
X2053278D02*
X2048078D01*
X2033478D02*
X2028678D01*
X2012278D02*
X2007178D01*
X2005678D02*
X1998278D01*
X2063578Y1606145D02*
X2056378D01*
X2053278D02*
X2048078D01*
X2033478D02*
X2028778D01*
X2012278D02*
X2007178D01*
X2005678D02*
X1998278D01*
X2063378Y1606245D02*
X2056178D01*
X2053278D02*
X2048078D01*
X2033478D02*
X2028878D01*
X2012278D02*
X2007178D01*
X2005478D02*
X1998078D01*
X2063378Y1606345D02*
X2056178D01*
X2053278D02*
X2048078D01*
X2033478D02*
X2028978D01*
X2012278D02*
X2007178D01*
X2005478D02*
X1998078D01*
X2063178Y1606445D02*
X2055978D01*
X2053278D02*
X2048078D01*
X2033478D02*
X2029078D01*
X2012278D02*
X2007178D01*
X2005278D02*
X1997878D01*
X2063178Y1606545D02*
X2055978D01*
X2053278D02*
X2048078D01*
X2033478D02*
X2029178D01*
X2012278D02*
X2007178D01*
X2005278D02*
X1997878D01*
X2062978Y1606645D02*
X2055778D01*
X2053278D02*
X2048078D01*
X2033478D02*
X2029178D01*
X2012278D02*
X2007178D01*
X2005078D02*
X1997678D01*
X2062978Y1606745D02*
X2055778D01*
X2053278D02*
X2048078D01*
X2033478D02*
X2029178D01*
X2012278D02*
X2007178D01*
X2005078D02*
X1997678D01*
X2062778Y1606845D02*
X2055578D01*
X2053278D02*
X2048078D01*
X2033478D02*
X2029178D01*
X2012278D02*
X2007178D01*
X2004878D02*
X1997478D01*
X2062778Y1606945D02*
X2055478D01*
X2053278D02*
X2048078D01*
X2033478D02*
X2029178D01*
X2012278D02*
X2007178D01*
X2004878D02*
X1997478D01*
X2062578Y1607045D02*
X2055378D01*
X2053278D02*
X2048078D01*
X2033478D02*
X2029178D01*
X2012278D02*
X2007178D01*
X2004678D02*
X1997278D01*
X2062578Y1607145D02*
X2055278D01*
X2053278D02*
X2048078D01*
X2033478D02*
X2029178D01*
X2012278D02*
X2007178D01*
X2004678D02*
X1997278D01*
X2062378Y1607245D02*
X2055178D01*
X2053278D02*
X2048078D01*
X2033478D02*
X2029178D01*
X2012278D02*
X2007178D01*
X2004578D02*
X1997078D01*
X2062378Y1607345D02*
X2055078D01*
X2053278D02*
X2048078D01*
X2033478D02*
X2029178D01*
X2012278D02*
X2007178D01*
X2004478D02*
X1997078D01*
X2062178Y1607445D02*
X2054978D01*
X2053278D02*
X2048078D01*
X2033478D02*
X2029178D01*
X2012278D02*
X2007178D01*
X2004378D02*
X1996878D01*
X2062178Y1607545D02*
X2054878D01*
X2053278D02*
X2048078D01*
X2033478D02*
X2029178D01*
X2012278D02*
X2007178D01*
X2004278D02*
X1996778D01*
X2062078Y1607645D02*
X2054778D01*
X2053278D02*
X2048078D01*
X2033478D02*
X2029178D01*
X2012278D02*
X2007178D01*
X2004178D02*
X1996678D01*
X2061878Y1607745D02*
X2054678D01*
X2053278D02*
X2048078D01*
X2033478D02*
X2029178D01*
X2012278D02*
X2007178D01*
X2004078D02*
X1996578D01*
X2061878Y1607845D02*
X2054578D01*
X2053278D02*
X2048078D01*
X2033478D02*
X2029178D01*
X2012278D02*
X2007178D01*
X2003978D02*
X1996578D01*
X2061678Y1607945D02*
X2054478D01*
X2053278D02*
X2048078D01*
X2033478D02*
X2029178D01*
X2012278D02*
X2007178D01*
X2003878D02*
X1996378D01*
X2061678Y1608045D02*
X2054378D01*
X2053278D02*
X2048078D01*
X2033478D02*
X2029178D01*
X2012278D02*
X2007178D01*
X2003778D02*
X1996378D01*
X2061478Y1608145D02*
X2054278D01*
X2053278D02*
X2048078D01*
X2033478D02*
X2029178D01*
X2012278D02*
X2007178D01*
X2003678D02*
X1996178D01*
X2061478Y1608245D02*
X2054278D01*
X2053278D02*
X2048078D01*
X2033478D02*
X2029178D01*
X2012278D02*
X2007178D01*
X2003578D02*
X1996178D01*
X2061278Y1608345D02*
X2054078D01*
X2053278D02*
X2048078D01*
X2033478D02*
X2029178D01*
X2012278D02*
X2007178D01*
X2003478D02*
X1995978D01*
X2061278Y1608445D02*
X2054078D01*
X2053278D02*
X2048078D01*
X2033478D02*
X2029178D01*
X2012278D02*
X2007178D01*
X2003378D02*
X1995978D01*
X2061078Y1608545D02*
X2053878D01*
X2053278D02*
X2048078D01*
X2033478D02*
X2029178D01*
X2012278D02*
X2007178D01*
X2003278D02*
X1995778D01*
X2061078Y1608645D02*
X2053878D01*
X2053278D02*
X2048078D01*
X2033478D02*
X2029178D01*
X2012278D02*
X2007178D01*
X2003178D02*
X1995778D01*
X2060878Y1608745D02*
X2053678D01*
X2053278D02*
X2048078D01*
X2033478D02*
X2029178D01*
X2012278D02*
X2007178D01*
X2003078D02*
X1995578D01*
X2060878Y1608845D02*
X2053678D01*
X2053278D02*
X2048078D01*
X2033478D02*
X2029178D01*
X2012278D02*
X2007178D01*
X2002978D02*
X1995578D01*
X2060678Y1608945D02*
X2053478D01*
X2053278D02*
X2048078D01*
X2033478D02*
X2029178D01*
X2012278D02*
X2007178D01*
X2002878D02*
X1995378D01*
X2060678Y1609045D02*
X2053478D01*
X2053278D02*
X2048078D01*
X2033478D02*
X2029178D01*
X2012278D02*
X2007178D01*
X2002778D02*
X1995378D01*
X2060478Y1609145D02*
X2047978D01*
X2033478D02*
X2029178D01*
X2012478D02*
X2007178D01*
X2002578D02*
X1995178D01*
X2060478Y1609245D02*
X2047878D01*
X2033478D02*
X2029178D01*
X2012478D02*
X2007178D01*
X2002578D02*
X1995178D01*
X2060278Y1609345D02*
X2047878D01*
X2033478D02*
X2029178D01*
X2012478D02*
X2007178D01*
X2002378D02*
X1994978D01*
X2060278Y1609445D02*
X2047878D01*
X2033478D02*
X2029178D01*
X2012478D02*
X2007178D01*
X2002378D02*
X1994978D01*
X2060078Y1609545D02*
X2047878D01*
X2033478D02*
X2029178D01*
X2012478D02*
X2007178D01*
X2002178D02*
X1994778D01*
X2060078Y1609645D02*
X2047878D01*
X2033478D02*
X2029178D01*
X2012478D02*
X2007178D01*
X2002178D02*
X1994778D01*
X2059878Y1609745D02*
X2047878D01*
X2033478D02*
X2029178D01*
X2012478D02*
X2007278D01*
X2001978D02*
X1994578D01*
X2059878Y1609845D02*
X2047878D01*
X2033478D02*
X2029178D01*
X2012478D02*
X2007378D01*
X2001978D02*
X1994578D01*
X2059678Y1609945D02*
X2047878D01*
X2033478D02*
X2029178D01*
X2012478D02*
X2007378D01*
X2001778D02*
X1994378D01*
X2059678Y1610045D02*
X2047878D01*
X2033478D02*
X2029178D01*
X2012478D02*
X2007378D01*
X2001778D02*
X1994378D01*
X2059478Y1610145D02*
X2047878D01*
X2033478D02*
X2029178D01*
X2012478D02*
X2007378D01*
X2001678D02*
X1994178D01*
X2059478Y1610245D02*
X2047878D01*
X2033478D02*
X2029178D01*
X2012478D02*
X2007378D01*
X2001578D02*
X1994178D01*
X2059278Y1610345D02*
X2047778D01*
X2033478D02*
X2029178D01*
X2012578D02*
X2007378D01*
X2001478D02*
X1993978D01*
X2059278Y1610445D02*
X2047678D01*
X2033478D02*
X2029178D01*
X2012678D02*
X2007378D01*
X2001378D02*
X1993978D01*
X2059078Y1610545D02*
X2047678D01*
X2033478D02*
X2029178D01*
X2012678D02*
X2007378D01*
X2001278D02*
X1993778D01*
X2059078Y1610645D02*
X2047678D01*
X2033478D02*
X2029178D01*
X2012678D02*
X2007378D01*
X2001178D02*
X1993778D01*
X2058878Y1610745D02*
X2047678D01*
X2033478D02*
X2029178D01*
X2012678D02*
X2007378D01*
X2001078D02*
X1993578D01*
X2058878Y1610845D02*
X2047678D01*
X2033478D02*
X2029178D01*
X2012678D02*
X2007378D01*
X2000978D02*
X1993578D01*
X2058778Y1610945D02*
X2047678D01*
X2033478D02*
X2029178D01*
X2012678D02*
X2007478D01*
X2000878D02*
X1993378D01*
X2058678Y1611045D02*
X2047678D01*
X2033478D02*
X2029178D01*
X2012678D02*
X2007578D01*
X2000778D02*
X1993378D01*
X2058578Y1611145D02*
X2047678D01*
X2033478D02*
X2029178D01*
X2012778D02*
X2007578D01*
X2000678D02*
X1993278D01*
X2058378Y1611245D02*
X2047678D01*
X2033478D02*
X2029178D01*
X2012878D02*
X2007578D01*
X2000578D02*
X1993078D01*
X2058378Y1611345D02*
X2047678D01*
X2033478D02*
X2029178D01*
X2012878D02*
X2007578D01*
X2000478D02*
X1993078D01*
X2058178Y1611445D02*
X2047478D01*
X2033478D02*
X2029178D01*
X2012878D02*
X2007578D01*
X2000378D02*
X1992878D01*
X2058178Y1611545D02*
X2047478D01*
X2033478D02*
X2029178D01*
X2012878D02*
X2007578D01*
X2000278D02*
X1992878D01*
X2057978Y1611645D02*
X2047478D01*
X2033478D02*
X2029178D01*
X2012878D02*
X2007578D01*
X2000178D02*
X1992678D01*
X2057978Y1611745D02*
X2047478D01*
X2033478D02*
X2029178D01*
X2012878D02*
X2007578D01*
X2000078D02*
X1992678D01*
X2057778Y1611845D02*
X2047478D01*
X2033478D02*
X2029178D01*
X2012878D02*
X2007578D01*
X1999978D02*
X1992478D01*
X2057778Y1611945D02*
X2047478D01*
X2033478D02*
X2029178D01*
X2012978D02*
X2007578D01*
X1999878D02*
X1992478D01*
X2057578Y1612045D02*
X2047278D01*
X2033478D02*
X2029178D01*
X2013078D02*
X2007678D01*
X1999778D02*
X1992278D01*
X2057578Y1612145D02*
X2047278D01*
X2033478D02*
X2029178D01*
X2013078D02*
X2007778D01*
X1999678D02*
X1992278D01*
X2057378Y1612245D02*
X2047278D01*
X2033478D02*
X2029178D01*
X2013078D02*
X2007778D01*
X1999578D02*
X1992078D01*
X2057378Y1612345D02*
X2047278D01*
X2033478D02*
X2029178D01*
X2013078D02*
X2007778D01*
X1999478D02*
X1992078D01*
X2057178Y1612445D02*
X2047278D01*
X2033478D02*
X2029178D01*
X2013078D02*
X2007778D01*
X1999378D02*
X1991878D01*
X2057178Y1612545D02*
X2047278D01*
X2033478D02*
X2029178D01*
X2013178D02*
X2007778D01*
X1999278D02*
X1991878D01*
X2056978Y1612645D02*
X2047078D01*
X2033478D02*
X2029178D01*
X2013278D02*
X2007778D01*
X1999178D02*
X1991678D01*
X2056978Y1612745D02*
X2047078D01*
X2033478D02*
X2029178D01*
X2013278D02*
X2007778D01*
X1999078D02*
X1991678D01*
X2056778Y1612845D02*
X2047078D01*
X2033478D02*
X2029178D01*
X2013278D02*
X2007878D01*
X1998978D02*
X1991478D01*
X2056778Y1612945D02*
X2047078D01*
X2033478D02*
X2029178D01*
X2013278D02*
X2007978D01*
X1998878D02*
X1991478D01*
X2056578Y1613045D02*
X2047078D01*
X2033478D02*
X2029178D01*
X2013278D02*
X2007978D01*
X1998778D02*
X1991278D01*
X2056578Y1613145D02*
X2047078D01*
X2033478D02*
X2029178D01*
X2013378D02*
X2007978D01*
X1998678D02*
X1991278D01*
X2056378Y1613245D02*
X2046978D01*
X2033478D02*
X2029178D01*
X2013478D02*
X2007978D01*
X1998578D02*
X1991078D01*
X2056378Y1613345D02*
X2046878D01*
X2033478D02*
X2029178D01*
X2013478D02*
X2007978D01*
X1998478D02*
X1991078D01*
X2056178Y1613445D02*
X2046878D01*
X2033478D02*
X2029178D01*
X2013478D02*
X2007978D01*
X1998378D02*
X1990878D01*
X2056178Y1613545D02*
X2046878D01*
X2033478D02*
X2029178D01*
X2013578D02*
X2007978D01*
X1998278D02*
X1990878D01*
X2055978Y1613645D02*
X2046878D01*
X2033478D02*
X2029178D01*
X2013678D02*
X2008078D01*
X1998178D02*
X1990678D01*
X2055978Y1613745D02*
X2046878D01*
X2033478D02*
X2029178D01*
X2013678D02*
X2008178D01*
X1998078D02*
X1990678D01*
X2055778Y1613845D02*
X2046778D01*
X2033478D02*
X2029178D01*
X2013678D02*
X2008178D01*
X1997978D02*
X1990478D01*
X2055778Y1613945D02*
X2046678D01*
X2033478D02*
X2029178D01*
X2013678D02*
X2008178D01*
X1997878D02*
X1990478D01*
X2055578Y1614045D02*
X2046678D01*
X2033478D02*
X2029178D01*
X2013678D02*
X2008178D01*
X1997778D02*
X1990278D01*
X2055578Y1614145D02*
X2046678D01*
X2033478D02*
X2029178D01*
X2013678D02*
X2008178D01*
X1997678D02*
X1990278D01*
X2055478Y1614245D02*
X2046578D01*
X2033478D02*
X2029178D01*
X2013878D02*
X2008278D01*
X1997578D02*
X1990178D01*
X2055378Y1614345D02*
X2046478D01*
X2033478D02*
X2029178D01*
X2013878D02*
X2008378D01*
X1997478D02*
X1990078D01*
X2055278Y1614445D02*
X2046478D01*
X2033478D02*
X2029178D01*
X2013878D02*
X2008378D01*
X1997378D02*
X1989978D01*
X2055178Y1614545D02*
X2046478D01*
X2033478D02*
X2029178D01*
X2013878D02*
X2008378D01*
X1997278D02*
X1989878D01*
X2055078Y1614645D02*
X2046378D01*
X2033478D02*
X2029178D01*
X2013978D02*
X2008378D01*
X1997178D02*
X1989778D01*
X2054978Y1614745D02*
X2046278D01*
X2033478D02*
X2029178D01*
X2014078D02*
X2008378D01*
X1997078D02*
X1989578D01*
X2054878Y1614845D02*
X2046278D01*
X2033478D02*
X2029178D01*
X2014178D02*
X2008478D01*
X1996978D02*
X1989578D01*
X2054678Y1614945D02*
X2046278D01*
X2033478D02*
X2029178D01*
X2014178D02*
X2008578D01*
X1996878D02*
X1989378D01*
X2054678Y1615045D02*
X2046178D01*
X2033478D02*
X2029178D01*
X2014178D02*
X2008578D01*
X1996778D02*
X1989378D01*
X2054478Y1615145D02*
X2046078D01*
X2033478D02*
X2029178D01*
X2014278D02*
X2008578D01*
X1996678D02*
X1989178D01*
X2054478Y1615245D02*
X2046078D01*
X2033478D02*
X2029178D01*
X2014378D02*
X2008678D01*
X1996578D02*
X1989178D01*
X2054278Y1615345D02*
X2046078D01*
X2033478D02*
X2029178D01*
X2014378D02*
X2008778D01*
X1996478D02*
X1988978D01*
X2054278Y1615445D02*
X2045978D01*
X2033478D02*
X2029178D01*
X2014378D02*
X2008778D01*
X1996378D02*
X1988978D01*
X2054078Y1615545D02*
X2045878D01*
X2033478D02*
X2029178D01*
X2014478D02*
X2008778D01*
X1996278D02*
X1988778D01*
X2054078Y1615645D02*
X2045878D01*
X2033478D02*
X2029178D01*
X2014578D02*
X2008778D01*
X1996178D02*
X1988778D01*
X2053878Y1615745D02*
X2045878D01*
X2033478D02*
X2029178D01*
X2014578D02*
X2008778D01*
X1996078D02*
X1988578D01*
X2053878Y1615845D02*
X2045778D01*
X2033478D02*
X2029178D01*
X2014578D02*
X2008778D01*
X1995978D02*
X1988578D01*
X2053678Y1615945D02*
X2045678D01*
X2033478D02*
X2029178D01*
X2014678D02*
X2008978D01*
X1995878D02*
X1988378D01*
X2053678Y1616045D02*
X2045578D01*
X2033478D02*
X2029178D01*
X2014778D02*
X2008978D01*
X1995778D02*
X1988378D01*
X2053478Y1616145D02*
X2045478D01*
X2033478D02*
X2029178D01*
X2014878D02*
X2008978D01*
X1995678D02*
X1988178D01*
X2053478Y1616245D02*
X2045478D01*
X2033478D02*
X2029178D01*
X2014978D02*
X2008978D01*
X1995578D02*
X1988178D01*
X2053278Y1616345D02*
X2045478D01*
X2033478D02*
X2029178D01*
X2014978D02*
X2009178D01*
X1995478D02*
X1987978D01*
X2053278Y1616445D02*
X2045378D01*
X2033478D02*
X2029178D01*
X2014978D02*
X2009178D01*
X1995378D02*
X1987978D01*
X2053078Y1616545D02*
X2045278D01*
X2033478D02*
X2029178D01*
X2015078D02*
X2009178D01*
X1995278D02*
X1987778D01*
X2053078Y1616645D02*
X2045278D01*
X2033478D02*
X2029178D01*
X2015178D02*
X2009178D01*
X1995178D02*
X1987778D01*
X2052878Y1616745D02*
X2045278D01*
X2033478D02*
X2029178D01*
X2015278D02*
X2009378D01*
X1995078D02*
X1987578D01*
X2052878Y1616845D02*
X2045178D01*
X2033478D02*
X2029178D01*
X2015378D02*
X2009378D01*
X1994978D02*
X1987578D01*
X2052678Y1616945D02*
X2045078D01*
X2033478D02*
X2029178D01*
X2015378D02*
X2009378D01*
X1994878D02*
X1987378D01*
X2052678Y1617045D02*
X2044978D01*
X2033478D02*
X2029178D01*
X2015378D02*
X2009378D01*
X1994778D02*
X1987378D01*
X2052478Y1617145D02*
X2044878D01*
X2033478D02*
X2029178D01*
X2015478D02*
X2009478D01*
X1994678D02*
X1987178D01*
X2052478Y1617245D02*
X2044778D01*
X2033478D02*
X2029178D01*
X2015578D02*
X2009578D01*
X1994578D02*
X1987178D01*
X2052378Y1617345D02*
X2044678D01*
X2033478D02*
X2029178D01*
X2015678D02*
X2009578D01*
X1994478D02*
X1986978D01*
X2052278Y1617445D02*
X2044578D01*
X2033478D02*
X2029178D01*
X2015778D02*
X2009578D01*
X1994378D02*
X1986978D01*
X2052178Y1617545D02*
X2044578D01*
X2033478D02*
X2029178D01*
X2015778D02*
X2009678D01*
X1994278D02*
X1986878D01*
X2052078Y1617645D02*
X2044578D01*
X2033478D02*
X2029178D01*
X2015778D02*
X2009778D01*
X1994178D02*
X1986778D01*
X2051978Y1617745D02*
X2044478D01*
X2033478D02*
X2029178D01*
X2015878D02*
X2009778D01*
X1994078D02*
X1986678D01*
X2051878Y1617845D02*
X2044378D01*
X2033478D02*
X2029178D01*
X2015978D02*
X2009778D01*
X1993978D02*
X1986578D01*
X2051778Y1617945D02*
X2044378D01*
X2033478D02*
X2029178D01*
X2016078D02*
X2009878D01*
X1993878D02*
X1986478D01*
X2051678Y1618045D02*
X2044178D01*
X2033478D02*
X2029178D01*
X2016178D02*
X2009978D01*
X1993778D02*
X1986378D01*
X2051578Y1618145D02*
X2044178D01*
X2033478D02*
X2029178D01*
X2016278D02*
X2009978D01*
X1993678D02*
X1986278D01*
X2051478Y1618245D02*
X2043978D01*
X2033478D02*
X2029178D01*
X2016378D02*
X2009978D01*
X1993578D02*
X1986178D01*
X2051378Y1618345D02*
X2043978D01*
X2033478D02*
X2029178D01*
X2016478D02*
X2010078D01*
X1993478D02*
X1986078D01*
X2051178Y1618445D02*
X2043778D01*
X2033478D02*
X2029178D01*
X2016578D02*
X2010178D01*
X1993378D02*
X1985878D01*
X2051178Y1618545D02*
X2043778D01*
X2033478D02*
X2029178D01*
X2016578D02*
X2010178D01*
X1993278D02*
X1985878D01*
X2050978Y1618645D02*
X2043778D01*
X2033478D02*
X2029178D01*
X2016578D02*
X2010178D01*
X1993178D02*
X1985678D01*
X2050978Y1618745D02*
X2043778D01*
X2033478D02*
X2029178D01*
X2016678D02*
X2010278D01*
X1993078D02*
X1985678D01*
X2050778Y1618845D02*
X2043578D01*
X2033478D02*
X2029178D01*
X2016778D02*
X2010378D01*
X1992978D02*
X1985478D01*
X2050778Y1618945D02*
X2043578D01*
X2033478D02*
X2029178D01*
X2016878D02*
X2010478D01*
X1992878D02*
X1985478D01*
X2050578Y1619045D02*
X2043378D01*
X2033478D02*
X2029178D01*
X2016978D02*
X2010578D01*
X1992778D02*
X1985278D01*
X2050578Y1619145D02*
X2043378D01*
X2033478D02*
X2029178D01*
X2017078D02*
X2010678D01*
X1992678D02*
X1985278D01*
X2050378Y1619245D02*
X2043178D01*
X2033478D02*
X2029178D01*
X2017178D02*
X2010678D01*
X1992578D02*
X1985078D01*
X2050378Y1619345D02*
X2043178D01*
X2033478D02*
X2029178D01*
X2017278D02*
X2010678D01*
X1992478D02*
X1985078D01*
X2050178Y1619445D02*
X2042978D01*
X2033478D02*
X2029178D01*
X2017378D02*
X2010778D01*
X1992378D02*
X1984878D01*
X2050178Y1619545D02*
X2042978D01*
X2033478D02*
X2029178D01*
X2017478D02*
X2010878D01*
X1992278D02*
X1984878D01*
X2049978Y1619645D02*
X2042778D01*
X2033478D02*
X2029178D01*
X2017578D02*
X2010978D01*
X1992178D02*
X1984678D01*
X2049978Y1619745D02*
X2042778D01*
X2033478D02*
X2029178D01*
X2017678D02*
X2011078D01*
X1992078D02*
X1984678D01*
X2049778Y1619845D02*
X2042578D01*
X2033478D02*
X2029178D01*
X2017778D02*
X2011078D01*
X1991978D02*
X1984478D01*
X2049778Y1619945D02*
X2042578D01*
X2033478D02*
X2029178D01*
X2017878D02*
X2011078D01*
X1991878D02*
X1984478D01*
X2049578Y1620045D02*
X2042378D01*
X2033478D02*
X2029178D01*
X2017978D02*
X2011178D01*
X1991778D02*
X1984478D01*
X2049578Y1620145D02*
X2042378D01*
X2033478D02*
X2029178D01*
X2018078D02*
X2011278D01*
X1991678D02*
X1984478D01*
X2049378Y1620245D02*
X2042178D01*
X2033478D02*
X2029178D01*
X2018178D02*
X2011378D01*
X1991578D02*
X1984378D01*
X2049378Y1620345D02*
X2042178D01*
X2033478D02*
X2029178D01*
X2018278D02*
X2011478D01*
X1991478D02*
X1984278D01*
X2049278Y1620445D02*
X2041778D01*
X2033378D02*
X2029278D01*
X2018578D02*
X2011478D01*
X1991378D02*
X1984278D01*
X2049178Y1620545D02*
X2041778D01*
X2033278D02*
X2029378D01*
X2018678D02*
X2011478D01*
X1991278D02*
X1984278D01*
X2049078Y1620645D02*
X2041578D01*
X2033278D02*
X2029378D01*
X2018778D02*
X2011578D01*
X1991178D02*
X1984178D01*
X2048978Y1620745D02*
X2041478D01*
X2033278D02*
X2029378D01*
X2018878D02*
X2011678D01*
X1991078D02*
X1984078D01*
X2048878Y1620845D02*
X2041378D01*
X2033178D02*
X2029478D01*
X2018978D02*
X2011778D01*
X1990978D02*
X1984078D01*
X2048778Y1620945D02*
X2041278D01*
X2033078D02*
X2029578D01*
X2019078D02*
X2011878D01*
X1990878D02*
X1984078D01*
X2048678Y1621045D02*
X2041178D01*
X2033078D02*
X2029578D01*
X2019178D02*
X2011978D01*
X1990778D02*
X1984078D01*
X2048578Y1621145D02*
X2041078D01*
X2033078D02*
X2029578D01*
X2019278D02*
X2012078D01*
X1990678D02*
X1984078D01*
X2048478Y1621245D02*
X2041078D01*
X2032978D02*
X2029678D01*
X2019378D02*
X2012178D01*
X1990578D02*
X1984078D01*
X2048378Y1621345D02*
X2040678D01*
X2032878D02*
X2029778D01*
X2019678D02*
X2012278D01*
X1990478D02*
X1984078D01*
X2048278Y1621445D02*
X2040678D01*
X2032778D02*
X2029878D01*
X2019778D02*
X2012278D01*
X1990378D02*
X1984078D01*
X2048178Y1621545D02*
X2040478D01*
X2032678D02*
X2030178D01*
X2019878D02*
X2012278D01*
X1990278D02*
X1984078D01*
X2048078Y1621645D02*
X2040478D01*
X2032578D02*
X2030278D01*
X2019978D02*
X2012378D01*
X1990178D02*
X1984078D01*
X2047978Y1621745D02*
X2040278D01*
X2032278D02*
X2030378D01*
X2020278D02*
X2012478D01*
X1990078D02*
X1984078D01*
X2047878Y1621845D02*
X2040278D01*
X2032178D02*
X2030478D01*
X2020378D02*
X2012578D01*
X1989978D02*
X1984078D01*
X2047778Y1621945D02*
X2039878D01*
X2020478D02*
X2012678D01*
X1989878D02*
X1984078D01*
X2047678Y1622045D02*
X2039878D01*
X2020578D02*
X2012778D01*
X1989778D02*
X1984078D01*
X2047478Y1622145D02*
X2039478D01*
X2020878D02*
X2012878D01*
X1989678D02*
X1984078D01*
X2047478Y1622245D02*
X2039378D01*
X2020978D02*
X2012978D01*
X1989578D02*
X1984078D01*
X2047278Y1622345D02*
X2039278D01*
X2021078D02*
X2013078D01*
X1989478D02*
X1984278D01*
X2047278Y1622445D02*
X2039178D01*
X2021178D02*
X2013178D01*
X1989378D02*
X1984278D01*
X2047078Y1622545D02*
X2038878D01*
X2021478D02*
X2013278D01*
X1989278D02*
X1984278D01*
X2047078Y1622645D02*
X2038778D01*
X2021578D02*
X2013378D01*
X1989178D02*
X1984278D01*
X2046878Y1622745D02*
X2038478D01*
X2021878D02*
X2013478D01*
X1989078D02*
X1984478D01*
X2046878Y1622845D02*
X2038378D01*
X2021978D02*
X2013578D01*
X1988978D02*
X1984478D01*
X2046678Y1622945D02*
X2038078D01*
X2022378D02*
X2013678D01*
X1988878D02*
X1984478D01*
X2046678Y1623045D02*
X2037978D01*
X2022378D02*
X2013778D01*
X1988778D02*
X1984478D01*
X2046478Y1623145D02*
X2037678D01*
X2022778D02*
X2013878D01*
X1988678D02*
X1984578D01*
X2046478Y1623245D02*
X2037578D01*
X2022778D02*
X2013978D01*
X1988578D02*
X1984678D01*
X2046278Y1623345D02*
X2037278D01*
X2023178D02*
X2014078D01*
X1988478D02*
X1984778D01*
X2046278Y1623445D02*
X2037178D01*
X2023178D02*
X2014178D01*
X1988378D02*
X1984878D01*
X2046078Y1623545D02*
X2036678D01*
X2023778D02*
X2014278D01*
X1988278D02*
X1984978D01*
X2046078Y1623645D02*
X2036578D01*
X2023778D02*
X2014378D01*
X1988178D02*
X1985078D01*
X2045978Y1623745D02*
X2036278D01*
X2024178D02*
X2014478D01*
X1987878D02*
X1985378D01*
X2045878Y1623845D02*
X2036178D01*
X2024278D02*
X2014578D01*
X1987778D02*
X1985478D01*
X2045778Y1623945D02*
X2035678D01*
X2024978D02*
X2014678D01*
X1986978D02*
X1986278D01*
X2045678Y1624045D02*
X2035578D01*
X2025078D02*
X2014778D01*
X1986978D02*
X1986378D01*
X2045578Y1624145D02*
X2034778D01*
X2025578D02*
X2014878D01*
X2045478Y1624245D02*
X2034778D01*
X2025678D02*
X2014978D01*
X2045378Y1624345D02*
X2034678D01*
X2025778D02*
X2015078D01*
X2045278Y1624445D02*
X2033878D01*
X2026478D02*
X2015178D01*
X2045178Y1624545D02*
X2033778D01*
X2026578D02*
X2015278D01*
X2045078Y1624645D02*
X2032678D01*
X2027678D02*
X2015378D01*
X2044978Y1624745D02*
X2032578D01*
X2027778D02*
X2015478D01*
X2044878Y1624845D02*
X2015578D01*
X2044778Y1624945D02*
X2015678D01*
X2044678Y1625045D02*
X2015978D01*
X2044578Y1625145D02*
X2016078D01*
X2044478Y1625245D02*
X2016178D01*
X2044378Y1625345D02*
X2016278D01*
X2044278Y1625445D02*
X2016378D01*
X2044178Y1625545D02*
X2016478D01*
X2044078Y1625645D02*
X2016778D01*
X2043978Y1625745D02*
X2016878D01*
X2043778Y1625845D02*
X2016978D01*
X2043778Y1625945D02*
X2017078D01*
X2043578Y1626045D02*
X2017378D01*
X2043578Y1626145D02*
X2017478D01*
X2043378Y1626245D02*
X2017578D01*
X2043378Y1626345D02*
X2017678D01*
X2043178Y1626445D02*
X2017978D01*
X2043178Y1626545D02*
X2018078D01*
X2043078Y1626645D02*
X2018178D01*
X2042978Y1626745D02*
X2018278D01*
X2042878Y1626845D02*
X2018578D01*
X2042778Y1626945D02*
X2018678D01*
X2042678Y1627045D02*
X2018978D01*
X2042578Y1627145D02*
X2019078D01*
X2042478Y1627245D02*
X2019378D01*
X2042378Y1627345D02*
X2019478D01*
X2042278Y1627445D02*
X2019578D01*
X2042178Y1627545D02*
X2019678D01*
X2042078Y1627645D02*
X2019778D01*
X2041978Y1627745D02*
X2020278D01*
X2041878Y1627845D02*
X2020378D01*
X2041778Y1627945D02*
X2020678D01*
X2041678Y1628045D02*
X2020778D01*
X2041578Y1628145D02*
X2021178D01*
X2041478Y1628245D02*
X2021178D01*
X2041378Y1628345D02*
X2021578D01*
X2041278Y1628445D02*
X2021578D01*
X2041178Y1628545D02*
X2022178D01*
X2041078Y1628645D02*
X2022178D01*
X2040978Y1628745D02*
X2022778D01*
X2040878Y1628845D02*
X2022878D01*
X2040778Y1628945D02*
X2023378D01*
X2040678Y1629045D02*
X2023478D01*
X2040578Y1629145D02*
X2023978D01*
X2040478Y1629245D02*
X2024078D01*
X2040378Y1629345D02*
X2024778D01*
X2040278Y1629445D02*
X2024878D01*
X2040178Y1629545D02*
X2025878D01*
X2040078Y1629645D02*
X2025878D01*
X2039978Y1629745D02*
X2027078D01*
X2039878Y1629845D02*
X2027178D01*
X2039778Y1629945D02*
X2032378D01*
X2039678Y1630045D02*
X2032478D01*
X2039578Y1630145D02*
X2032278D01*
X2039478Y1630245D02*
X2032278D01*
X2039378Y1630345D02*
X2032078D01*
X2039278Y1630445D02*
X2032078D01*
X2039178Y1630545D02*
X2031978D01*
X2039078Y1630645D02*
X2031878D01*
X2038978Y1630745D02*
X2031778D01*
X2038878Y1630845D02*
X2031678D01*
X2038778Y1630945D02*
X2031578D01*
X2038678Y1631045D02*
X2031478D01*
X2038578Y1631145D02*
X2031378D01*
X2038478Y1631245D02*
X2031278D01*
X2038378Y1631345D02*
X2031178D01*
X2038278Y1631445D02*
X2031078D01*
X2038178Y1631545D02*
X2030978D01*
X2038078Y1631645D02*
X2030878D01*
X2037978Y1631745D02*
X2030778D01*
X2037878Y1631845D02*
X2030678D01*
X2037778Y1631945D02*
X2030578D01*
X2037678Y1632045D02*
X2030378D01*
X2037578Y1632145D02*
X2030378D01*
X2037478Y1632245D02*
X2030178D01*
X2037378Y1632345D02*
X2030178D01*
X2037278Y1632445D02*
X2029978D01*
X2037178Y1632545D02*
X2029978D01*
X2037078Y1632645D02*
X2029778D01*
X2036978Y1632745D02*
X2029778D01*
X2036878Y1632845D02*
X2029578D01*
X2036778Y1632945D02*
X2029578D01*
X2036678Y1633045D02*
X2029378D01*
X2036578Y1633145D02*
X2029378D01*
X2036478Y1633245D02*
X2029178D01*
X2036378Y1633345D02*
X2029178D01*
X2036278Y1633445D02*
X2028978D01*
X2036178Y1633545D02*
X2028978D01*
X2036078Y1633645D02*
X2028878D01*
X2035978Y1633745D02*
X2028778D01*
X2035878Y1633845D02*
X2028678D01*
X2035778Y1633945D02*
X2028578D01*
X2035678Y1634045D02*
X2028478D01*
X2035578Y1634145D02*
X2028378D01*
X2035478Y1634245D02*
X2028278D01*
X2035378Y1634345D02*
X2028178D01*
X2035278Y1634445D02*
X2028078D01*
X2035178Y1634545D02*
X2027978D01*
X2035078Y1634645D02*
X2027978D01*
X2034978Y1634745D02*
X2027978D01*
X2034878Y1634845D02*
X2027878D01*
X2034778Y1634945D02*
X2027778D01*
X2034678Y1635045D02*
X2027778D01*
X2034578Y1635145D02*
X2027778D01*
X2034478Y1635245D02*
X2027778D01*
X2034378Y1635345D02*
X2027778D01*
X2034278Y1635445D02*
X2027678D01*
X2034178Y1635545D02*
X2027578D01*
X2034078Y1635645D02*
X2027478D01*
X2033978Y1635745D02*
X2027478D01*
X2033878Y1635845D02*
X2027478D01*
X2033778Y1635945D02*
X2027478D01*
X2033678Y1636045D02*
X2027478D01*
X2033678Y1636145D02*
X2027478D01*
X2033678Y1636245D02*
X2027578D01*
X2033378Y1636345D02*
X2027678D01*
X2033278Y1636445D02*
X2027778D01*
X2033278Y1636545D02*
X2027778D01*
X2033278Y1636645D02*
X2027778D01*
X2032978Y1636745D02*
X2027778D01*
X2032878Y1636845D02*
X2027778D01*
X2032878Y1636945D02*
X2027778D01*
X2032878Y1637045D02*
X2027778D01*
X2032578Y1637145D02*
X2027878D01*
X2032478Y1637245D02*
X2027978D01*
X2032478Y1637345D02*
X2028078D01*
X2032478Y1637445D02*
X2028178D01*
X2032378Y1637545D02*
X2028178D01*
X2032278Y1637645D02*
X2028178D01*
X2032178Y1637745D02*
X2028278D01*
X2031878Y1637845D02*
X2028378D01*
X2031778Y1637945D02*
X2028478D01*
X2031678Y1638045D02*
X2028778D01*
X2031578Y1638145D02*
X2028878D01*
X2031478Y1638245D02*
X2028978D01*
X2031378Y1638345D02*
X2029078D01*
X2030878Y1638445D02*
X2029578D01*
X2030778Y1638545D02*
X2029678D01*
G54D94*
X2090657Y1567922D02*
X2094595D01*
X2090657D02*
Y1566695D01*
X2090845Y1566286*
X2091032Y1566150*
X2091407Y1566013*
X2091782*
X2092157Y1566150*
X2092345Y1566286*
X2092532Y1566695*
Y1567922*
Y1566968D02*
X2094595Y1566013D01*
X2090657Y1564104D02*
X2090845Y1564513D01*
X2091220Y1564650*
X2091595*
X2091970Y1564513*
X2092157Y1564240*
X2092345Y1563695*
X2092532Y1563286*
X2092907Y1563013*
X2093282Y1562877*
X2093845*
X2094220Y1563013*
X2094407Y1563150*
X2094595Y1563559*
Y1564104*
X2094407Y1564513*
X2094220Y1564650*
X2093845Y1564786*
X2093282*
X2092907Y1564650*
X2092532Y1564377*
X2092345Y1563968*
X2092157Y1563422*
X2091970Y1563150*
X2091595Y1563013*
X2091220*
X2090845Y1563150*
X2090657Y1563559*
Y1564104*
X2038117Y1514201D02*
Y1510263D01*
Y1514201D02*
X2036889D01*
X2036480Y1514013*
X2036344Y1513826*
X2036208Y1513451*
Y1513076*
X2036344Y1512701*
X2036480Y1512513*
X2036889Y1512326*
X2038117*
X2037162D02*
X2036208Y1510263D01*
X2033208Y1512888D02*
X2033344Y1512326D01*
X2033617Y1511951*
X2034026Y1511763*
X2034162*
X2034571Y1511951*
X2034844Y1512326*
X2034980Y1512888*
Y1513076*
X2034844Y1513638*
X2034571Y1514013*
X2034162Y1514201*
X2034026*
X2033617Y1514013*
X2033344Y1513638*
X2033208Y1512888*
Y1511951*
X2033344Y1511013*
X2033617Y1510451*
X2034026Y1510263*
X2034298*
X2034708Y1510451*
X2034844Y1510826*
X1947088Y1514187D02*
Y1510249D01*
Y1514187D02*
X1945860D01*
X1945451Y1513999*
X1945315Y1513812*
X1945179Y1513437*
Y1513062*
X1945315Y1512687*
X1945451Y1512499*
X1945860Y1512312*
X1947088*
X1946133D02*
X1945179Y1510249D01*
X1943951Y1513437D02*
X1943679Y1513624D01*
X1943270Y1514187*
Y1510249*
X1941224Y1514187D02*
X1941633Y1513999D01*
X1941906Y1513437*
X1942042Y1512499*
Y1511937*
X1941906Y1510999*
X1941633Y1510437*
X1941224Y1510249*
X1940951*
X1940542Y1510437*
X1940270Y1510999*
X1940133Y1511937*
Y1512499*
X1940270Y1513437*
X1940542Y1513999*
X1940951Y1514187*
X1941224*
X1945864Y1565724D02*
Y1561787D01*
Y1565724D02*
X1944637D01*
X1944228Y1565537*
X1944091Y1565349*
X1943955Y1564974*
Y1564599*
X1944091Y1564224*
X1944228Y1564037*
X1944637Y1563849*
X1945864*
X1944910D02*
X1943955Y1561787D01*
X1942728Y1564974D02*
X1942455Y1565162D01*
X1942046Y1565724*
Y1561787*
X1940819Y1564974D02*
X1940546Y1565162D01*
X1940137Y1565724*
Y1561787*
X2068141Y1522326D02*
X2072079D01*
X2068141D02*
Y1521098D01*
X2068329Y1520689*
X2068516Y1520553*
X2068891Y1520417*
X2069266*
X2069641Y1520553*
X2069829Y1520689*
X2070016Y1521098*
Y1522326*
Y1521371D02*
X2072079Y1520417D01*
X2068891Y1519189D02*
X2068704Y1518917D01*
X2068141Y1518507*
X2072079*
X2069079Y1517144D02*
X2068891D01*
X2068516Y1517007*
X2068329Y1516871*
X2068141Y1516598*
Y1516053*
X2068329Y1515780*
X2068516Y1515644*
X2068891Y1515507*
X2069266*
X2069641Y1515644*
X2070204Y1515917*
X2072079Y1517280*
Y1515371*
X1999124Y1476308D02*
Y1472371D01*
Y1476308D02*
X1997896D01*
X1997487Y1476121*
X1997351Y1475933*
X1997214Y1475558*
Y1475183*
X1997351Y1474808*
X1997487Y1474621*
X1997896Y1474433*
X1999124*
X1998169D02*
X1997214Y1472371D01*
X1994214Y1476308D02*
X1995578D01*
X1995714Y1474621*
X1995578Y1474808*
X1995169Y1474996*
X1994760*
X1994351Y1474808*
X1994078Y1474433*
X1993942Y1473871*
X1994078Y1473496*
X1994214Y1472933*
X1994487Y1472558*
X1994896Y1472371*
X1995305*
X1995714Y1472558*
X1995851Y1472746*
X1995987Y1473121*
X2074132Y1476483D02*
Y1472545D01*
Y1476483D02*
X2072905D01*
X2072496Y1476295*
X2072359Y1476108*
X2072223Y1475733*
Y1475358*
X2072359Y1474983*
X2072496Y1474795*
X2072905Y1474608*
X2074132*
X2073177D02*
X2072223Y1472545D01*
X2069087Y1476483D02*
X2070450Y1472545D01*
X2070996Y1476483D02*
X2069087D01*
X2068784Y1625082D02*
X2072722D01*
X2068784D02*
Y1623855D01*
X2068972Y1623446*
X2069159Y1623309*
X2069534Y1623173*
X2069909*
X2070284Y1623309*
X2070472Y1623446*
X2070659Y1623855*
Y1625082*
Y1624128D02*
X2072722Y1623173D01*
X2068784Y1620582D02*
X2071409Y1621946D01*
Y1619900*
X2068784Y1620582D02*
X2072722D01*
X2069073Y1663614D02*
X2073010D01*
X2069073D02*
Y1662387D01*
X2069260Y1661978*
X2069448Y1661841*
X2069823Y1661705*
X2070198*
X2070573Y1661841*
X2070760Y1661978*
X2070948Y1662387*
Y1663614*
Y1662660D02*
X2073010Y1661705D01*
X2069635Y1658841D02*
X2069260Y1658978D01*
X2069073Y1659387*
Y1659660*
X2069260Y1660069*
X2069823Y1660341*
X2070760Y1660478*
X2071698*
X2072448Y1660341*
X2072823Y1660069*
X2073010Y1659660*
Y1659523*
X2072823Y1659114*
X2072448Y1658841*
X2071885Y1658705*
X2071698*
X2071135Y1658841*
X2070760Y1659114*
X2070573Y1659523*
Y1659660*
X2070760Y1660069*
X2071135Y1660341*
X2071698Y1660478*
X2053210Y1701805D02*
Y1697868D01*
Y1701805D02*
X2051982D01*
X2051573Y1701618*
X2051437Y1701430*
X2051301Y1701055*
Y1700680*
X2051437Y1700305*
X2051573Y1700118*
X2051982Y1699930*
X2053210*
X2052255D02*
X2051301Y1697868D01*
X2050073Y1701055D02*
X2049801Y1701243D01*
X2049392Y1701805*
Y1697868*
X2046801Y1701805D02*
X2048164Y1699180D01*
X2046119*
X2046801Y1701805D02*
Y1697868D01*
X2053787Y1693148D02*
Y1689210D01*
Y1693148D02*
X2052560D01*
X2052150Y1692960*
X2052014Y1692773*
X2051878Y1692398*
Y1692023*
X2052014Y1691648*
X2052150Y1691460*
X2052560Y1691273*
X2053787*
X2052832D02*
X2051878Y1689210D01*
X2050650Y1692398D02*
X2050378Y1692585D01*
X2049969Y1693148*
Y1689210*
X2046969Y1693148D02*
X2048332D01*
X2048469Y1691460*
X2048332Y1691648*
X2047923Y1691835*
X2047514*
X2047105Y1691648*
X2046832Y1691273*
X2046696Y1690710*
X2046832Y1690335*
X2046969Y1689773*
X2047241Y1689398*
X2047650Y1689210*
X2048060*
X2048469Y1689398*
X2048605Y1689585*
X2048741Y1689960*
X1926002Y1664225D02*
Y1660288D01*
Y1664225D02*
X1924775D01*
X1924366Y1664038*
X1924230Y1663850*
X1924093Y1663475*
Y1663100*
X1924230Y1662725*
X1924366Y1662538*
X1924775Y1662350*
X1926002*
X1925048D02*
X1924093Y1660288D01*
X1922866Y1663475D02*
X1922593Y1663663D01*
X1922184Y1664225*
Y1660288*
X1871042Y1618596D02*
Y1614659D01*
Y1618596D02*
X1869815D01*
X1869406Y1618409*
X1869269Y1618221*
X1869133Y1617846*
Y1617471*
X1869269Y1617096*
X1869406Y1616909*
X1869815Y1616721*
X1871042*
X1870088D02*
X1869133Y1614659D01*
X1867769Y1617659D02*
Y1617846D01*
X1867633Y1618221*
X1867497Y1618409*
X1867224Y1618596*
X1866678*
X1866406Y1618409*
X1866269Y1618221*
X1866133Y1617846*
Y1617471*
X1866269Y1617096*
X1866542Y1616534*
X1867906Y1614659*
X1865997*
X1877518Y1692586D02*
Y1688649D01*
Y1692586D02*
X1876291D01*
X1875882Y1692399*
X1875745Y1692211*
X1875609Y1691836*
Y1691461*
X1875745Y1691086*
X1875882Y1690899*
X1876291Y1690711*
X1877518*
X1876563D02*
X1875609Y1688649D01*
X1874109Y1692586D02*
X1872609D01*
X1873427Y1691086*
X1873018*
X1872745Y1690899*
X1872609Y1690711*
X1872473Y1690149*
Y1689774*
X1872609Y1689211*
X1872882Y1688836*
X1873291Y1688649*
X1873700*
X1874109Y1688836*
X1874245Y1689024*
X1874382Y1689399*
X2103163Y1490916D02*
X2103299Y1491291D01*
X2103572Y1491666*
X2103844Y1491854*
X2104390*
X2104663Y1491666*
X2104935Y1491291*
X2105072Y1490916*
X2105208Y1490354*
Y1489416*
X2105072Y1488854*
X2104935Y1488479*
X2104663Y1488104*
X2104390Y1487916*
X2103844*
X2103572Y1488104*
X2103299Y1488479*
X2103163Y1488854*
X2101799Y1490916D02*
Y1491104D01*
X2101663Y1491479*
X2101526Y1491666*
X2101253Y1491854*
X2100708*
X2100435Y1491666*
X2100299Y1491479*
X2100163Y1491104*
Y1490729*
X2100299Y1490354*
X2100572Y1489791*
X2101935Y1487916*
X2100026*
X2104364Y1502929D02*
X2104500Y1503304D01*
X2104773Y1503679*
X2105046Y1503866*
X2105591*
X2105864Y1503679*
X2106137Y1503304*
X2106273Y1502929*
X2106409Y1502366*
Y1501429*
X2106273Y1500866*
X2106137Y1500491*
X2105864Y1500116*
X2105591Y1499929*
X2105046*
X2104773Y1500116*
X2104500Y1500491*
X2104364Y1500866*
X2102864Y1503866D02*
X2101364D01*
X2102182Y1502366*
X2101773*
X2101500Y1502179*
X2101364Y1501991*
X2101227Y1501429*
Y1501054*
X2101364Y1500491*
X2101637Y1500116*
X2102046Y1499929*
X2102455*
X2102864Y1500116*
X2103000Y1500304*
X2103137Y1500679*
X2103544Y1516332D02*
X2103680Y1516707D01*
X2103953Y1517082*
X2104226Y1517270*
X2104771*
X2105044Y1517082*
X2105317Y1516707*
X2105453Y1516332*
X2105590Y1515770*
Y1514832*
X2105453Y1514270*
X2105317Y1513895*
X2105044Y1513520*
X2104771Y1513332*
X2104226*
X2103953Y1513520*
X2103680Y1513895*
X2103544Y1514270*
X2100953Y1517270D02*
X2102317Y1514645D01*
X2100271*
X2100953Y1517270D02*
Y1513332D01*
X2104299Y1528809D02*
X2104435Y1529184D01*
X2104708Y1529559*
X2104980Y1529746*
X2105526*
X2105799Y1529559*
X2106071Y1529184*
X2106208Y1528809*
X2106344Y1528246*
Y1527309*
X2106208Y1526746*
X2106071Y1526371*
X2105799Y1525996*
X2105526Y1525809*
X2104980*
X2104708Y1525996*
X2104435Y1526371*
X2104299Y1526746*
X2101299Y1529746D02*
X2102662D01*
X2102799Y1528059*
X2102662Y1528246*
X2102253Y1528434*
X2101844*
X2101435Y1528246*
X2101162Y1527871*
X2101026Y1527309*
X2101162Y1526934*
X2101299Y1526371*
X2101571Y1525996*
X2101980Y1525809*
X2102389*
X2102799Y1525996*
X2102935Y1526184*
X2103071Y1526559*
X2096198Y1651060D02*
X2100136D01*
Y1649423*
X2097136Y1648060D02*
X2096948D01*
X2096573Y1647923*
X2096386Y1647787*
X2096198Y1647514*
Y1646969*
X2096386Y1646696*
X2096573Y1646560*
X2096948Y1646423*
X2097323*
X2097698Y1646560*
X2098261Y1646832*
X2100136Y1648196*
Y1646287*
X2097511Y1643287D02*
X2098073Y1643423D01*
X2098448Y1643696*
X2098636Y1644105*
Y1644241*
X2098448Y1644651*
X2098073Y1644923*
X2097511Y1645060*
X2097323*
X2096761Y1644923*
X2096386Y1644651*
X2096198Y1644241*
Y1644105*
X2096386Y1643696*
X2096761Y1643423*
X2097511Y1643287*
X2098448*
X2099386Y1643423*
X2099948Y1643696*
X2100136Y1644105*
Y1644378*
X2099948Y1644787*
X2099573Y1644923*
X2096198Y1641787D02*
Y1640287D01*
X2097698Y1641105*
Y1640696*
X2097886Y1640423*
X2098073Y1640287*
X2098636Y1640151*
X2099011*
X2099573Y1640287*
X2099948Y1640560*
X2100136Y1640969*
Y1641378*
X2099948Y1641787*
X2099761Y1641923*
X2099386Y1642060*
X2096198Y1638923D02*
X2100136D01*
X2096198D02*
Y1637151D01*
X2098073Y1638923D02*
Y1637832D01*
X2100136Y1638923D02*
Y1637151D01*
X2153335Y1652696D02*
X2157272Y1654060D01*
X2153335Y1654605D02*
Y1652696D01*
Y1650105D02*
X2155960Y1651469D01*
Y1649423*
X2153335Y1650105D02*
X2157272D01*
X2153335Y1648196D02*
X2157272D01*
X2153335Y1646287D02*
X2157272D01*
X2155210Y1648196D02*
Y1646287D01*
X2154272Y1643014D02*
X2153897Y1643151D01*
X2153522Y1643423*
X2153335Y1643696*
Y1644241*
X2153522Y1644514*
X2153897Y1644787*
X2154272Y1644923*
X2154835Y1645060*
X2155772*
X2156335Y1644923*
X2156710Y1644787*
X2157085Y1644514*
X2157272Y1644241*
Y1643696*
X2157085Y1643423*
X2156710Y1643151*
X2156335Y1643014*
X2153335Y1640969D02*
X2153522Y1641378D01*
X2154085Y1641651*
X2155022Y1641787*
X2155585*
X2156522Y1641651*
X2157085Y1641378*
X2157272Y1640969*
Y1640696*
X2157085Y1640287*
X2156522Y1640014*
X2155585Y1639878*
X2155022*
X2154085Y1640014*
X2153522Y1640287*
X2153335Y1640696*
Y1640969*
Y1637832D02*
X2153522Y1638241D01*
X2154085Y1638514*
X2155022Y1638651*
X2155585*
X2156522Y1638514*
X2157085Y1638241*
X2157272Y1637832*
Y1637560*
X2157085Y1637151*
X2156522Y1636878*
X2155585Y1636741*
X2155022*
X2154085Y1636878*
X2153522Y1637151*
X2153335Y1637560*
Y1637832*
Y1635514D02*
X2157272D01*
X2153335D02*
X2157272Y1633605D01*
X2153335D02*
X2157272D01*
X2134605Y1700579D02*
Y1700766D01*
X2134469Y1701141*
X2134333Y1701329*
X2134060Y1701516*
X2133514*
X2133242Y1701329*
X2133105Y1701141*
X2132969Y1700766*
Y1700391*
X2133105Y1700016*
X2133378Y1699454*
X2134742Y1697579*
X2132833*
X2131605Y1701516D02*
Y1697579D01*
Y1701516D02*
X2129696Y1697579D01*
Y1701516D02*
Y1697579D01*
X2127105Y1701516D02*
X2128469Y1698891D01*
X2126424*
X2127105Y1701516D02*
Y1697579D01*
X2125196Y1700766D02*
X2124924Y1700954D01*
X2124514Y1701516*
Y1697579*
X2123151Y1700579D02*
Y1700766D01*
X2123014Y1701141*
X2122878Y1701329*
X2122605Y1701516*
X2122060*
X2121787Y1701329*
X2121651Y1701141*
X2121514Y1700766*
Y1700391*
X2121651Y1700016*
X2121924Y1699454*
X2123287Y1697579*
X2121378*
X2118787Y1701516D02*
X2120151Y1698891D01*
X2118105*
X2118787Y1701516D02*
Y1697579D01*
X1931970Y1639501D02*
Y1639689D01*
X1931834Y1640064*
X1931697Y1640251*
X1931425Y1640439*
X1930879*
X1930606Y1640251*
X1930470Y1640064*
X1930334Y1639689*
Y1639314*
X1930470Y1638939*
X1930743Y1638376*
X1932106Y1636501*
X1930197*
X1928970Y1640439D02*
Y1636501D01*
Y1640439D02*
X1927061Y1636501D01*
Y1640439D02*
Y1636501D01*
X1924470Y1640439D02*
X1925834Y1637814D01*
X1923788*
X1924470Y1640439D02*
Y1636501D01*
X1922561Y1639689D02*
X1922288Y1639876D01*
X1921879Y1640439*
Y1636501*
X1920516Y1639501D02*
Y1639689D01*
X1920379Y1640064*
X1920243Y1640251*
X1919970Y1640439*
X1919425*
X1919152Y1640251*
X1919016Y1640064*
X1918879Y1639689*
Y1639314*
X1919016Y1638939*
X1919288Y1638376*
X1920652Y1636501*
X1918743*
X1916152Y1640439D02*
X1917516Y1637814D01*
X1915470*
X1916152Y1640439D02*
Y1636501D01*
X2096784Y1714142D02*
X2096920Y1714517D01*
X2097193Y1714892*
X2097465Y1715079*
X2098011*
X2098284Y1714892*
X2098556Y1714517*
X2098693Y1714142*
X2098829Y1713579*
Y1712642*
X2098693Y1712079*
X2098556Y1711704*
X2098284Y1711329*
X2098011Y1711142*
X2097465*
X2097193Y1711329*
X2096920Y1711704*
X2096784Y1712079*
X2094465Y1715079D02*
X2095556Y1711142D01*
X2094465Y1715079D02*
X2093375Y1711142D01*
X2095147Y1712454D02*
X2093784D01*
X2092147Y1715079D02*
Y1711142D01*
Y1715079D02*
X2091193D01*
X2090784Y1714892*
X2090511Y1714517*
X2090375Y1714142*
X2090238Y1713579*
Y1712642*
X2090375Y1712079*
X2090511Y1711704*
X2090784Y1711329*
X2091193Y1711142*
X2092147*
X2087647Y1715079D02*
Y1712079D01*
X2087784Y1711517*
X2087920Y1711329*
X2088193Y1711142*
X2088465*
X2088738Y1711329*
X2088875Y1711517*
X2089011Y1712079*
Y1712454*
X1878701Y1655506D02*
Y1651568D01*
Y1655506D02*
X1877474D01*
X1877065Y1655318*
X1876928Y1655131*
X1876928D02*
X1876792Y1654756D01*
Y1654193*
X1876928Y1653818*
X1876928D02*
X1877065Y1653631D01*
X1877474Y1653443*
X1878701*
X1873519Y1654568D02*
X1873656Y1654943D01*
X1873928Y1655318*
X1873928D02*
X1874201Y1655506D01*
X1874747*
X1875019Y1655318*
X1875292Y1654943*
X1875428Y1654568*
X1875428D02*
X1875565Y1654006D01*
Y1653068*
X1875428Y1652506*
X1875428D02*
X1875292Y1652131D01*
X1875019Y1651756*
X1874747Y1651568*
X1874201*
X1873928Y1651756*
X1873928D02*
X1873656Y1652131D01*
X1873519Y1652506*
X1871610Y1655506D02*
X1872019Y1655318D01*
X1872156Y1654943*
Y1654568*
X1872019Y1654193*
X1871747Y1654006*
X1871201Y1653818*
X1870792Y1653631*
X1870519Y1653256*
X1870383Y1652881*
Y1652318*
X1870519Y1651943*
X1870656Y1651756*
X1871065Y1651568*
X1871610*
X1872019Y1651756*
X1872156Y1651943*
X1872292Y1652318*
Y1652881*
X1872156Y1653256*
X1871883Y1653631*
X1871474Y1653818*
X1870928Y1654006*
X1870928D02*
X1870656Y1654193D01*
X1870519Y1654568*
Y1654943*
X1870656Y1655318*
X1871065Y1655506*
X1871610*
X1869156Y1654756D02*
X1868883Y1654943D01*
X1868474Y1655506*
Y1651568*
X1865338Y1655506D02*
X1866701Y1651568D01*
X1867247Y1655506D02*
X1865338D01*
X1877906Y1635301D02*
Y1631364D01*
Y1635301D02*
X1876678D01*
X1876269Y1635114*
X1876133Y1634926*
X1875997Y1634551*
Y1633989*
X1876133Y1633614*
X1876269Y1633426*
X1876678Y1633239*
X1877906*
X1872724Y1634364D02*
X1872860Y1634739D01*
X1873133Y1635114*
X1873406Y1635301*
X1873951*
X1874224Y1635114*
X1874497Y1634739*
X1874633Y1634364*
X1874769Y1633801*
Y1632864*
X1874633Y1632301*
X1874497Y1631926*
X1874224Y1631551*
X1873951Y1631364*
X1873406*
X1873133Y1631551*
X1872860Y1631926*
X1872724Y1632301*
X1870815Y1635301D02*
X1871224Y1635114D01*
X1871360Y1634739*
Y1634364*
X1871224Y1633989*
X1870951Y1633801*
X1870406Y1633614*
X1869997Y1633426*
X1869724Y1633051*
X1869588Y1632676*
Y1632114*
X1869724Y1631739*
X1869860Y1631551*
X1870269Y1631364*
X1870815*
X1871224Y1631551*
X1871360Y1631739*
X1871497Y1632114*
Y1632676*
X1871360Y1633051*
X1871088Y1633426*
X1870678Y1633614*
X1870133Y1633801*
X1869860Y1633989*
X1869724Y1634364*
Y1634739*
X1869860Y1635114*
X1870269Y1635301*
X1870815*
X1868360Y1634551D02*
X1868088Y1634739D01*
X1867678Y1635301*
Y1631364*
X1864542Y1635301D02*
X1865906Y1631364D01*
X1866451Y1635301D02*
X1864542D01*
G74*
X0Y0D02*
M02*
