*
*
G04 PADS Layout (Build Number 2007.42.1) generated Gerber (RS-274-X) file*
G04 PC Version=2.1*
*
%IN "board.pcb"*%
*
%MOIN*%
*
%FSLAX35Y35*%
*
*
*
*
G04 PC Standard Apertures*
*
*
G04 Thermal Relief Aperture macro.*
%AMTER*
1,1,$1,0,0*
1,0,$1-$2,0,0*
21,0,$3,$4,0,0,45*
21,0,$3,$4,0,0,135*
%
*
*
G04 Annular Aperture macro.*
%AMANN*
1,1,$1,0,0*
1,0,$2,0,0*
%
*
*
G04 Odd Aperture macro.*
%AMODD*
1,1,$1,0,0*
1,0,$1-0.005,0,0*
%
*
*
G04 PC Custom Aperture Macros*
*
*
*
*
*
*
G04 PC Aperture Table*
*
%ADD010C,0.01*%
%ADD042C,0.00787*%
%ADD045C,0.01969*%
%ADD084C,0.001*%
%ADD094C,0.005*%
*
*
*
*
G04 PC Copper Outlines (0)*
G04 Layer Name board.pcb - dark (0)*
%LPD*%
*
*
G04 PC Area=Custom_Thermal*
*
G04 PC Custom Flashes*
G04 Layer Name board.pcb - flashes*
%LPD*%
*
*
G04 PC Circuitry*
G04 Layer Name board.pcb - circuitry*
%LPD*%
*
G54D10*
G01X1821572Y1665064D02*
G75*
G03X1811572I-5000J9404D01*
G01X1811772Y1664864D02*
X1821772D01*
X1969923Y1553799D02*
Y1571516D01*
X1993545*
Y1553799*
X1969923*
Y1512945D02*
Y1530661D01*
X1993545*
Y1512945*
X1969923*
X1924056Y1533347D02*
Y1551063D01*
X1947678*
Y1533347*
X1924056*
X2015907D02*
Y1551063D01*
X2039529*
Y1533347*
X2015907*
X1857586D02*
Y1551063D01*
X1881208*
Y1533347*
X1857586*
X2125124Y1565495D02*
G03X2125124I-7433J0D01*
G01X2105862D02*
G03X2105862I-7433J0D01*
G01X1888992Y1609238D02*
Y1612388D01*
X1885035Y1630773D02*
X1893303D01*
Y1612663*
X1885035*
Y1630773*
X1888992Y1633647D02*
Y1631285D01*
X1853251Y1644794D02*
X1862862D01*
Y1645911*
X1865608*
Y1644794*
X1875219*
Y1662668*
X1853251*
Y1644794*
X1853119Y1624658D02*
X1862730D01*
Y1625775*
X1865476*
Y1624658*
X1875087*
Y1642532*
X1853119*
Y1624658*
G54D42*
X1806901Y1479596D02*
Y1471845D01*
Y1479596D02*
X1808780D01*
X1809585Y1479227*
X1810122Y1478489*
X1810391Y1477751*
X1810659Y1476643*
Y1474798*
X1810391Y1473691*
X1810122Y1472952*
X1809585Y1472214*
X1808780Y1471845*
X1806901*
X1814417Y1477012D02*
X1813880Y1476643D01*
X1813343Y1475905*
X1813075Y1474798*
Y1474060*
X1813343Y1472952*
X1813880Y1472214*
X1814417Y1471845*
X1815223*
X1815223D02*
X1815759Y1472214D01*
X1816296Y1472952*
X1816565Y1474060*
Y1474798*
X1816296Y1475905*
X1815759Y1476643*
X1815223Y1477012*
X1815223D02*
X1814417D01*
X1818981Y1479596D02*
Y1471845D01*
X1821396Y1479596D02*
Y1471845D01*
X1824081Y1477012D02*
X1825691Y1471845D01*
X1827302Y1477012D02*
X1825691Y1471845D01*
X1825154Y1470369*
X1824618Y1469630*
X1824081Y1469261*
X1823812*
X1833476Y1478489D02*
X1832939Y1479227D01*
X1832134Y1479596*
X1831060*
X1830255Y1479227*
X1829718Y1478489*
Y1477751*
X1829986Y1477012*
X1830255Y1476643*
X1830792Y1476274*
X1832402Y1475536*
X1832939Y1475167*
X1833207Y1474798*
X1833476Y1474060*
Y1472952*
X1832939Y1472214*
X1832134Y1471845*
X1831060*
X1830255Y1472214*
X1829718Y1472952*
X1835892Y1479596D02*
Y1471845D01*
Y1475536D02*
X1836697Y1476643D01*
X1837234Y1477012*
X1838039*
X1838576Y1476643*
X1838845Y1475536*
Y1471845*
X1841260Y1479596D02*
X1841529Y1479227D01*
X1841797Y1479596*
X1841529Y1479965*
X1841260Y1479596*
X1841529Y1477012D02*
Y1471845D01*
X1844213Y1474798D02*
X1847434D01*
Y1475536*
X1847166Y1476274*
X1846898Y1476643*
X1846361Y1477012*
X1845555*
X1845018Y1476643*
X1844482Y1475905*
X1844213Y1474798*
Y1474060*
X1844482Y1472952*
X1845018Y1472214*
X1845555Y1471845*
X1846361*
X1846898Y1472214*
X1847434Y1472952*
X1849850Y1479596D02*
Y1471845D01*
X1855487Y1479596D02*
Y1471845D01*
Y1475905D02*
X1854950Y1476643D01*
X1854414Y1477012*
X1853608*
X1853071Y1476643*
X1852535Y1475905*
X1852266Y1474798*
Y1474060*
X1852535Y1472952*
X1853071Y1472214*
X1853608Y1471845*
X1854414*
X1854950Y1472214*
X1855487Y1472952*
X1864077Y1477012D02*
X1865688Y1471845D01*
X1867298Y1477012D02*
X1865688Y1471845D01*
X1869714Y1478120D02*
X1870251Y1478489D01*
X1871056Y1479596*
Y1471845*
X1873741Y1472583D02*
X1873472Y1472214D01*
X1873741Y1471845*
X1874009Y1472214*
X1873741Y1472583*
X1878036Y1479596D02*
X1877230Y1479227D01*
X1876694Y1478120*
X1876425Y1476274*
Y1475167*
X1876694Y1473321*
X1877230Y1472214*
X1878036Y1471845*
X1878573*
X1879378Y1472214*
X1879915Y1473321*
X1880183Y1475167*
Y1476274*
X1879915Y1478120*
X1879378Y1479227*
X1878573Y1479596*
X1878036*
X1886089D02*
X1883404D01*
X1883136Y1476274*
X1883404Y1476643*
X1884210Y1477012*
X1885015*
X1885820Y1476643*
X1886357Y1475905*
X1886626Y1474798*
X1886357Y1474060*
X1886089Y1472952*
X1885552Y1472214*
X1884746Y1471845*
X1883941*
X1883136Y1472214*
X1882867Y1472583*
X1882599Y1473321*
X1800714Y1446613D02*
Y1753387D01*
X2185596*
Y1446613*
X1800714*
G54D45*
X1801088Y1538593D02*
Y1577963D01*
X1838490*
Y1538593*
X1801088*
Y1694876D02*
Y1734246D01*
X1838490*
Y1694876*
X1801088*
Y1488873D02*
Y1528243D01*
X1838490*
Y1488873*
X1801088*
X2139069Y1508558D02*
Y1473125D01*
X2198912*
Y1508558*
X2139069*
Y1562215D02*
Y1526782D01*
X2198912*
Y1562215*
X2139069*
G54D84*
X1823022Y1589954D02*
X1823522D01*
X1822722Y1590054D02*
X1823822D01*
X1822522Y1590154D02*
X1824022D01*
X1822422Y1590254D02*
X1824122D01*
X1847422D02*
X1848122D01*
X1822322Y1590354D02*
X1824222D01*
X1831122D02*
X1831622D01*
X1832722D02*
X1833322D01*
X1833822D02*
X1834322D01*
X1835022D02*
X1835522D01*
X1836222D02*
X1836822D01*
X1837222D02*
X1838922D01*
X1839922D02*
X1840422D01*
X1841522D02*
X1842122D01*
X1842922D02*
X1843522D01*
X1843722D02*
X1844322D01*
X1845522D02*
X1846122D01*
X1847122D02*
X1848422D01*
X1848822D02*
X1849422D01*
X1850222D02*
X1850922D01*
X1822222Y1590454D02*
X1824322D01*
X1831122D02*
X1831622D01*
X1832722D02*
X1833322D01*
X1833822D02*
X1834322D01*
X1835022D02*
X1835522D01*
X1836222D02*
X1836822D01*
X1837322D02*
X1838922D01*
X1839922D02*
X1840422D01*
X1841522D02*
X1842122D01*
X1842922D02*
X1843522D01*
X1843722D02*
X1844322D01*
X1845422D02*
X1846022D01*
X1846922D02*
X1848422D01*
X1848822D02*
X1849422D01*
X1850222D02*
X1850822D01*
X1822222Y1590554D02*
X1824422D01*
X1831122D02*
X1831622D01*
X1832722D02*
X1833322D01*
X1833822D02*
X1834322D01*
X1834922D02*
X1835522D01*
X1836222D02*
X1836722D01*
X1837322D02*
X1838922D01*
X1839922D02*
X1840422D01*
X1841522D02*
X1842122D01*
X1842822D02*
X1843422D01*
X1843822D02*
X1844322D01*
X1845422D02*
X1846022D01*
X1846822D02*
X1848322D01*
X1848822D02*
X1849422D01*
X1850122D02*
X1850822D01*
X1822122Y1590654D02*
X1824522D01*
X1831122D02*
X1831622D01*
X1832722D02*
X1833322D01*
X1833822D02*
X1834322D01*
X1834922D02*
X1835622D01*
X1836222D02*
X1836722D01*
X1837322D02*
X1838922D01*
X1839922D02*
X1840422D01*
X1841522D02*
X1842122D01*
X1842822D02*
X1843422D01*
X1843822D02*
X1844422D01*
X1845422D02*
X1846022D01*
X1846722D02*
X1848322D01*
X1848822D02*
X1849422D01*
X1850122D02*
X1850722D01*
X1822122Y1590754D02*
X1824622D01*
X1831122D02*
X1831622D01*
X1832722D02*
X1833322D01*
X1833822D02*
X1834322D01*
X1834922D02*
X1835622D01*
X1836222D02*
X1836722D01*
X1837322D02*
X1838922D01*
X1839922D02*
X1840422D01*
X1841522D02*
X1842122D01*
X1842822D02*
X1843422D01*
X1843822D02*
X1844422D01*
X1845322D02*
X1846022D01*
X1846622D02*
X1847622D01*
X1848122D02*
X1848322D01*
X1848822D02*
X1849422D01*
X1850022D02*
X1850722D01*
X1822022Y1590854D02*
X1824722D01*
X1831122D02*
X1831622D01*
X1832722D02*
X1833322D01*
X1833822D02*
X1834322D01*
X1834922D02*
X1835622D01*
X1836222D02*
X1836722D01*
X1837222D02*
X1837822D01*
X1839922D02*
X1840422D01*
X1841522D02*
X1842122D01*
X1842822D02*
X1843422D01*
X1843822D02*
X1844422D01*
X1845322D02*
X1845922D01*
X1846522D02*
X1847322D01*
X1848822D02*
X1849422D01*
X1850022D02*
X1850622D01*
X1822022Y1590954D02*
X1824822D01*
X1831122D02*
X1831622D01*
X1832722D02*
X1833322D01*
X1833822D02*
X1834422D01*
X1834822D02*
X1835722D01*
X1836222D02*
X1836722D01*
X1837222D02*
X1837822D01*
X1839922D02*
X1840422D01*
X1841522D02*
X1842122D01*
X1842722D02*
X1843322D01*
X1843922D02*
X1844422D01*
X1845322D02*
X1845922D01*
X1846522D02*
X1847222D01*
X1848822D02*
X1849422D01*
X1849922D02*
X1850622D01*
X1822022Y1591054D02*
X1824922D01*
X1831122D02*
X1831622D01*
X1832722D02*
X1833322D01*
X1833822D02*
X1834422D01*
X1834822D02*
X1835722D01*
X1836222D02*
X1836722D01*
X1837322D02*
X1837822D01*
X1839922D02*
X1840422D01*
X1841522D02*
X1842122D01*
X1842722D02*
X1843322D01*
X1843922D02*
X1845922D01*
X1846422D02*
X1847122D01*
X1848822D02*
X1849422D01*
X1849922D02*
X1850522D01*
X1822022Y1591154D02*
X1825022D01*
X1831122D02*
X1831622D01*
X1832722D02*
X1833322D01*
X1833822D02*
X1834422D01*
X1834822D02*
X1835722D01*
X1836222D02*
X1836722D01*
X1837322D02*
X1837822D01*
X1839922D02*
X1840422D01*
X1841522D02*
X1842122D01*
X1842722D02*
X1843322D01*
X1843922D02*
X1845822D01*
X1846422D02*
X1847122D01*
X1848822D02*
X1849422D01*
X1849822D02*
X1850522D01*
X1822022Y1591254D02*
X1825122D01*
X1831122D02*
X1831622D01*
X1832722D02*
X1833322D01*
X1833822D02*
X1834422D01*
X1834722D02*
X1835222D01*
X1835322D02*
X1835722D01*
X1836222D02*
X1836722D01*
X1837322D02*
X1837822D01*
X1839922D02*
X1840422D01*
X1841522D02*
X1842122D01*
X1842722D02*
X1843322D01*
X1844022D02*
X1845822D01*
X1846422D02*
X1847022D01*
X1848822D02*
X1849422D01*
X1849822D02*
X1850422D01*
X1822022Y1591354D02*
X1825222D01*
X1831122D02*
X1831622D01*
X1832722D02*
X1833322D01*
X1833922D02*
X1834422D01*
X1834722D02*
X1835222D01*
X1835322D02*
X1835822D01*
X1836222D02*
X1836722D01*
X1837322D02*
X1837822D01*
X1839922D02*
X1840422D01*
X1841522D02*
X1842122D01*
X1842622D02*
X1843222D01*
X1844022D02*
X1845822D01*
X1846322D02*
X1847022D01*
X1848822D02*
X1849422D01*
X1849722D02*
X1850322D01*
X1822022Y1591454D02*
X1825322D01*
X1831122D02*
X1831622D01*
X1832722D02*
X1833322D01*
X1833922D02*
X1834422D01*
X1834722D02*
X1835222D01*
X1835422D02*
X1835822D01*
X1836122D02*
X1836722D01*
X1837322D02*
X1837822D01*
X1839922D02*
X1840422D01*
X1841522D02*
X1842122D01*
X1842422D02*
X1843222D01*
X1844022D02*
X1845822D01*
X1846322D02*
X1847022D01*
X1848822D02*
X1849522D01*
X1849722D02*
X1850322D01*
X1822022Y1591554D02*
X1825422D01*
X1831122D02*
X1831622D01*
X1832722D02*
X1833322D01*
X1833922D02*
X1834422D01*
X1834722D02*
X1835222D01*
X1835422D02*
X1835822D01*
X1836122D02*
X1836722D01*
X1837322D02*
X1837922D01*
X1839922D02*
X1840422D01*
X1841522D02*
X1843122D01*
X1844022D02*
X1844622D01*
X1845222D02*
X1845722D01*
X1846322D02*
X1846922D01*
X1848822D02*
X1850222D01*
X1822122Y1591654D02*
X1825522D01*
X1831122D02*
X1831622D01*
X1832722D02*
X1833322D01*
X1833922D02*
X1834422D01*
X1834622D02*
X1835222D01*
X1835422D02*
X1835922D01*
X1836122D02*
X1836722D01*
X1837322D02*
X1838822D01*
X1839922D02*
X1840422D01*
X1841522D02*
X1843022D01*
X1844122D02*
X1844622D01*
X1845122D02*
X1845722D01*
X1846322D02*
X1846922D01*
X1848822D02*
X1850222D01*
X1822122Y1591754D02*
X1825622D01*
X1831122D02*
X1831622D01*
X1832722D02*
X1833322D01*
X1833922D02*
X1834422D01*
X1834622D02*
X1835122D01*
X1835422D02*
X1835922D01*
X1836122D02*
X1836722D01*
X1837322D02*
X1838822D01*
X1839922D02*
X1840422D01*
X1841522D02*
X1843022D01*
X1844122D02*
X1844622D01*
X1845122D02*
X1845722D01*
X1846322D02*
X1846922D01*
X1848822D02*
X1850122D01*
X1822222Y1591854D02*
X1825722D01*
X1831122D02*
X1831622D01*
X1832722D02*
X1833322D01*
X1833922D02*
X1834422D01*
X1834622D02*
X1835122D01*
X1835522D02*
X1835922D01*
X1836122D02*
X1836722D01*
X1837322D02*
X1838822D01*
X1839922D02*
X1840422D01*
X1841522D02*
X1843222D01*
X1844122D02*
X1844722D01*
X1845122D02*
X1845622D01*
X1846322D02*
X1846922D01*
X1848822D02*
X1850122D01*
X1822222Y1591954D02*
X1825822D01*
X1831122D02*
X1831622D01*
X1832722D02*
X1833322D01*
X1833922D02*
X1834422D01*
X1834622D02*
X1835122D01*
X1835522D02*
X1835922D01*
X1836122D02*
X1836722D01*
X1837322D02*
X1838822D01*
X1839922D02*
X1840422D01*
X1841522D02*
X1842122D01*
X1842522D02*
X1843322D01*
X1844222D02*
X1844722D01*
X1845122D02*
X1845622D01*
X1846322D02*
X1846922D01*
X1848822D02*
X1850022D01*
X1822322Y1592054D02*
X1825922D01*
X1831122D02*
X1831622D01*
X1832722D02*
X1833322D01*
X1833922D02*
X1834422D01*
X1834522D02*
X1835022D01*
X1835522D02*
X1836022D01*
X1836122D02*
X1836722D01*
X1837322D02*
X1838822D01*
X1839922D02*
X1840422D01*
X1841522D02*
X1842122D01*
X1842722D02*
X1843322D01*
X1844222D02*
X1844722D01*
X1845022D02*
X1845622D01*
X1846322D02*
X1847022D01*
X1848822D02*
X1849422D01*
X1849522D02*
X1850122D01*
X1822422Y1592154D02*
X1826022D01*
X1831122D02*
X1831622D01*
X1832722D02*
X1833322D01*
X1833922D02*
X1834422D01*
X1834522D02*
X1835022D01*
X1835522D02*
X1836022D01*
X1836122D02*
X1836722D01*
X1837322D02*
X1837822D01*
X1839922D02*
X1840422D01*
X1841522D02*
X1842122D01*
X1842822D02*
X1843422D01*
X1844222D02*
X1844722D01*
X1845022D02*
X1845622D01*
X1846422D02*
X1847022D01*
X1848822D02*
X1849422D01*
X1849522D02*
X1850122D01*
X1822522Y1592254D02*
X1826122D01*
X1831122D02*
X1831622D01*
X1832722D02*
X1833322D01*
X1833922D02*
X1834422D01*
X1834522D02*
X1835022D01*
X1835622D02*
X1836022D01*
X1836122D02*
X1836722D01*
X1837322D02*
X1837822D01*
X1839922D02*
X1840422D01*
X1841522D02*
X1842122D01*
X1842822D02*
X1843422D01*
X1844222D02*
X1844822D01*
X1845022D02*
X1845522D01*
X1846422D02*
X1847022D01*
X1848822D02*
X1849422D01*
X1849622D02*
X1850222D01*
X1822622Y1592354D02*
X1826222D01*
X1831122D02*
X1831622D01*
X1832722D02*
X1833322D01*
X1833922D02*
X1835022D01*
X1835622D02*
X1836622D01*
X1837322D02*
X1837822D01*
X1839922D02*
X1840422D01*
X1841522D02*
X1842122D01*
X1842822D02*
X1843422D01*
X1844322D02*
X1844822D01*
X1845022D02*
X1845522D01*
X1846422D02*
X1847122D01*
X1848822D02*
X1849422D01*
X1849622D02*
X1850322D01*
X1822722Y1592454D02*
X1826322D01*
X1831122D02*
X1831622D01*
X1832722D02*
X1833322D01*
X1833922D02*
X1834922D01*
X1835622D02*
X1836622D01*
X1837322D02*
X1837822D01*
X1839922D02*
X1840422D01*
X1841522D02*
X1842122D01*
X1842822D02*
X1843422D01*
X1844322D02*
X1844822D01*
X1844922D02*
X1845522D01*
X1846522D02*
X1847122D01*
X1848822D02*
X1849422D01*
X1849722D02*
X1850322D01*
X1822822Y1592554D02*
X1826422D01*
X1831122D02*
X1831622D01*
X1832722D02*
X1833322D01*
X1833922D02*
X1834922D01*
X1835722D02*
X1836622D01*
X1837322D02*
X1837822D01*
X1839922D02*
X1840422D01*
X1841522D02*
X1842122D01*
X1842822D02*
X1843422D01*
X1844322D02*
X1844822D01*
X1844922D02*
X1845522D01*
X1846522D02*
X1847222D01*
X1848822D02*
X1849422D01*
X1849822D02*
X1850422D01*
X1822922Y1592654D02*
X1826522D01*
X1831122D02*
X1831622D01*
X1832722D02*
X1833322D01*
X1833922D02*
X1834922D01*
X1835722D02*
X1836622D01*
X1837322D02*
X1837822D01*
X1839922D02*
X1840422D01*
X1841522D02*
X1842122D01*
X1842822D02*
X1843422D01*
X1844322D02*
X1845422D01*
X1846622D02*
X1847322D01*
X1848822D02*
X1849422D01*
X1849822D02*
X1850522D01*
X1823022Y1592754D02*
X1826622D01*
X1830422D02*
X1832322D01*
X1832722D02*
X1833322D01*
X1833922D02*
X1834922D01*
X1835722D02*
X1836622D01*
X1837322D02*
X1837922D01*
X1839222D02*
X1841122D01*
X1841522D02*
X1842122D01*
X1842722D02*
X1843422D01*
X1844422D02*
X1845422D01*
X1846622D02*
X1847522D01*
X1848222D02*
X1848322D01*
X1848822D02*
X1849422D01*
X1849922D02*
X1850622D01*
X1823122Y1592854D02*
X1826722D01*
X1830322D02*
X1832422D01*
X1832722D02*
X1833322D01*
X1834022D02*
X1834822D01*
X1835722D02*
X1836622D01*
X1837322D02*
X1838922D01*
X1839122D02*
X1841222D01*
X1841522D02*
X1843322D01*
X1844422D02*
X1845422D01*
X1846722D02*
X1848322D01*
X1848822D02*
X1849422D01*
X1849922D02*
X1850622D01*
X1823222Y1592954D02*
X1826822D01*
X1830322D02*
X1832422D01*
X1832722D02*
X1833322D01*
X1834022D02*
X1834822D01*
X1835822D02*
X1836622D01*
X1837322D02*
X1838922D01*
X1839122D02*
X1841222D01*
X1841522D02*
X1843322D01*
X1844422D02*
X1845322D01*
X1846822D02*
X1848422D01*
X1848822D02*
X1849422D01*
X1850022D02*
X1850722D01*
X1823322Y1593054D02*
X1826922D01*
X1830322D02*
X1832422D01*
X1832722D02*
X1833322D01*
X1834022D02*
X1834822D01*
X1835822D02*
X1836622D01*
X1837322D02*
X1838922D01*
X1839122D02*
X1841222D01*
X1841522D02*
X1843222D01*
X1844522D02*
X1845322D01*
X1846922D02*
X1848422D01*
X1848822D02*
X1849422D01*
X1850122D02*
X1850822D01*
X1823422Y1593154D02*
X1827022D01*
X1830322D02*
X1832422D01*
X1832722D02*
X1833322D01*
X1834022D02*
X1834722D01*
X1835822D02*
X1836622D01*
X1837222D02*
X1838922D01*
X1839122D02*
X1841222D01*
X1841522D02*
X1843022D01*
X1844522D02*
X1845322D01*
X1847122D02*
X1848422D01*
X1848822D02*
X1849422D01*
X1850122D02*
X1850822D01*
X1823522Y1593254D02*
X1827122D01*
X1830422D02*
X1832322D01*
X1832722D02*
X1833222D01*
X1834022D02*
X1834722D01*
X1835922D02*
X1836522D01*
X1837322D02*
X1838822D01*
X1839222D02*
X1841122D01*
X1841722D02*
X1842722D01*
X1844622D02*
X1845222D01*
X1847422D02*
X1848222D01*
X1848822D02*
X1849322D01*
X1850222D02*
X1850822D01*
X1823622Y1593354D02*
X1827222D01*
X1823722Y1593454D02*
X1827322D01*
X1823822Y1593554D02*
X1827422D01*
X1823922Y1593654D02*
X1827522D01*
X1824022Y1593754D02*
X1827622D01*
X1821622Y1593854D02*
X1827722D01*
X1821022Y1593954D02*
X1827822D01*
X1820522Y1594054D02*
X1827922D01*
X1820122Y1594154D02*
X1828022D01*
X1835822D02*
X1836422D01*
X1846022D02*
X1846422D01*
X1819722Y1594254D02*
X1828122D01*
X1835622D02*
X1836622D01*
X1845722D02*
X1846622D01*
X1819422Y1594354D02*
X1828222D01*
X1835522D02*
X1835822D01*
X1836422D02*
X1836722D01*
X1845522D02*
X1845922D01*
X1846422D02*
X1846722D01*
X1819122Y1594454D02*
X1828322D01*
X1835422D02*
X1835722D01*
X1836522D02*
X1836722D01*
X1845522D02*
X1845722D01*
X1846522D02*
X1846822D01*
X1818922Y1594554D02*
X1828422D01*
X1836622D02*
X1836822D01*
X1845522D02*
X1845622D01*
X1846622D02*
X1846822D01*
X1818622Y1594654D02*
X1828522D01*
X1836622D02*
X1836822D01*
X1846722D02*
X1846922D01*
X1818422Y1594754D02*
X1828622D01*
X1832822D02*
X1833222D01*
X1833622D02*
X1833722D01*
X1836622D02*
X1836822D01*
X1846722D02*
X1846922D01*
X1818222Y1594854D02*
X1828722D01*
X1831022D02*
X1831822D01*
X1832622D02*
X1833422D01*
X1833622D02*
X1833822D01*
X1834022D02*
X1834222D01*
X1835022D02*
X1835222D01*
X1835822D02*
X1836522D01*
X1836622D02*
X1836822D01*
X1837122D02*
X1837222D01*
X1838022D02*
X1838222D01*
X1838922D02*
X1839122D01*
X1839622D02*
X1840422D01*
X1840922D02*
X1841122D01*
X1841922D02*
X1842022D01*
X1843022D02*
X1843222D01*
X1843422D02*
X1843622D01*
X1843922D02*
X1844122D01*
X1845022D02*
X1845222D01*
X1845822D02*
X1846522D01*
X1846722D02*
X1846922D01*
X1818022Y1594954D02*
X1828822D01*
X1830922D02*
X1831922D01*
X1832522D02*
X1832822D01*
X1833222D02*
X1833822D01*
X1834022D02*
X1834222D01*
X1835022D02*
X1835222D01*
X1835622D02*
X1836822D01*
X1837122D02*
X1837322D01*
X1838022D02*
X1838222D01*
X1838922D02*
X1839122D01*
X1839522D02*
X1839922D01*
X1840122D02*
X1840522D01*
X1840922D02*
X1841122D01*
X1841922D02*
X1842022D01*
X1843022D02*
X1843222D01*
X1843422D02*
X1843622D01*
X1843922D02*
X1844122D01*
X1845022D02*
X1845222D01*
X1845622D02*
X1846122D01*
X1846222D02*
X1846922D01*
X1817822Y1595054D02*
X1828922D01*
X1830822D02*
X1831122D01*
X1831722D02*
X1832022D01*
X1832422D02*
X1832722D01*
X1833422D02*
X1833822D01*
X1834022D02*
X1834222D01*
X1835022D02*
X1835222D01*
X1835622D02*
X1835822D01*
X1836422D02*
X1836822D01*
X1837122D02*
X1837222D01*
X1838022D02*
X1838222D01*
X1838922D02*
X1839122D01*
X1839422D02*
X1839722D01*
X1840322D02*
X1840622D01*
X1840922D02*
X1841122D01*
X1841922D02*
X1842022D01*
X1843022D02*
X1843222D01*
X1843422D02*
X1843622D01*
X1843922D02*
X1844122D01*
X1845022D02*
X1845222D01*
X1845622D02*
X1845822D01*
X1846522D02*
X1846922D01*
X1817622Y1595154D02*
X1829022D01*
X1830722D02*
X1831022D01*
X1831922D02*
X1832122D01*
X1832322D02*
X1832622D01*
X1833522D02*
X1833822D01*
X1834022D02*
X1834222D01*
X1835022D02*
X1835222D01*
X1835522D02*
X1835722D01*
X1836522D02*
X1836822D01*
X1837122D02*
X1837222D01*
X1838022D02*
X1838222D01*
X1838922D02*
X1839122D01*
X1839422D02*
X1839622D01*
X1840422D02*
X1840722D01*
X1840922D02*
X1841122D01*
X1841922D02*
X1842022D01*
X1843022D02*
X1843222D01*
X1843422D02*
X1843622D01*
X1843922D02*
X1844122D01*
X1845022D02*
X1845222D01*
X1845522D02*
X1845722D01*
X1846622D02*
X1846922D01*
X1817422Y1595254D02*
X1829122D01*
X1830722D02*
X1830922D01*
X1831922D02*
X1832122D01*
X1832322D02*
X1832522D01*
X1833522D02*
X1833822D01*
X1834022D02*
X1834222D01*
X1835022D02*
X1835222D01*
X1835522D02*
X1835722D01*
X1836622D02*
X1836822D01*
X1837122D02*
X1837222D01*
X1838022D02*
X1838222D01*
X1838922D02*
X1839122D01*
X1839322D02*
X1839522D01*
X1840522D02*
X1840722D01*
X1840922D02*
X1841122D01*
X1841922D02*
X1842022D01*
X1843022D02*
X1843222D01*
X1843422D02*
X1843622D01*
X1843922D02*
X1844122D01*
X1845022D02*
X1845222D01*
X1845522D02*
X1845722D01*
X1846622D02*
X1846922D01*
X1817222Y1595354D02*
X1829222D01*
X1830722D02*
X1830822D01*
X1832322D02*
X1832522D01*
X1833622D02*
X1833822D01*
X1834022D02*
X1834222D01*
X1835022D02*
X1835222D01*
X1835422D02*
X1835622D01*
X1836622D02*
X1836822D01*
X1837122D02*
X1837222D01*
X1838022D02*
X1838222D01*
X1838922D02*
X1839122D01*
X1839322D02*
X1839522D01*
X1840622D02*
X1840822D01*
X1840922D02*
X1841122D01*
X1841922D02*
X1842022D01*
X1843022D02*
X1843222D01*
X1843422D02*
X1843622D01*
X1843922D02*
X1844122D01*
X1845022D02*
X1845222D01*
X1845422D02*
X1845622D01*
X1846722D02*
X1846922D01*
X1817122Y1595454D02*
X1829322D01*
X1830622D02*
X1830922D01*
X1832322D02*
X1832522D01*
X1833622D02*
X1833822D01*
X1834022D02*
X1834222D01*
X1835022D02*
X1835222D01*
X1835422D02*
X1835622D01*
X1836622D02*
X1836822D01*
X1837122D02*
X1837222D01*
X1838022D02*
X1838222D01*
X1838922D02*
X1839122D01*
X1839322D02*
X1839522D01*
X1840622D02*
X1840822D01*
X1840922D02*
X1841122D01*
X1841922D02*
X1842022D01*
X1843022D02*
X1843222D01*
X1843422D02*
X1843622D01*
X1843922D02*
X1844122D01*
X1845022D02*
X1845222D01*
X1845422D02*
X1845622D01*
X1846722D02*
X1846922D01*
X1816922Y1595554D02*
X1829422D01*
X1830622D02*
X1832122D01*
X1832322D02*
X1832522D01*
X1833622D02*
X1833822D01*
X1834022D02*
X1834222D01*
X1835022D02*
X1835222D01*
X1835422D02*
X1835622D01*
X1836622D02*
X1836822D01*
X1837122D02*
X1837222D01*
X1838022D02*
X1838222D01*
X1838922D02*
X1839122D01*
X1839322D02*
X1839522D01*
X1840622D02*
X1840822D01*
X1840922D02*
X1841122D01*
X1841922D02*
X1842022D01*
X1843022D02*
X1843222D01*
X1843422D02*
X1843622D01*
X1843922D02*
X1844122D01*
X1845022D02*
X1845222D01*
X1845422D02*
X1845622D01*
X1846722D02*
X1846922D01*
X1816822Y1595654D02*
X1829522D01*
X1830622D02*
X1832122D01*
X1832322D02*
X1832522D01*
X1833522D02*
X1833822D01*
X1834022D02*
X1834222D01*
X1835022D02*
X1835222D01*
X1835422D02*
X1835622D01*
X1836622D02*
X1836822D01*
X1837122D02*
X1837222D01*
X1838022D02*
X1838222D01*
X1838922D02*
X1839122D01*
X1839322D02*
X1839522D01*
X1840522D02*
X1840822D01*
X1840922D02*
X1841122D01*
X1841922D02*
X1842022D01*
X1843022D02*
X1843222D01*
X1843422D02*
X1843622D01*
X1843922D02*
X1844122D01*
X1845022D02*
X1845222D01*
X1845422D02*
X1845622D01*
X1846722D02*
X1846922D01*
X1816622Y1595754D02*
X1829622D01*
X1830722D02*
X1830922D01*
X1831922D02*
X1832122D01*
X1832322D02*
X1832522D01*
X1833522D02*
X1833722D01*
X1834022D02*
X1834222D01*
X1835022D02*
X1835222D01*
X1835422D02*
X1835622D01*
X1836622D02*
X1836822D01*
X1837122D02*
X1837322D01*
X1838022D02*
X1838222D01*
X1838922D02*
X1839122D01*
X1839322D02*
X1839522D01*
X1840522D02*
X1840722D01*
X1840922D02*
X1841122D01*
X1841922D02*
X1842122D01*
X1842922D02*
X1843122D01*
X1843422D02*
X1843622D01*
X1843922D02*
X1844122D01*
X1845022D02*
X1845222D01*
X1845522D02*
X1845722D01*
X1846622D02*
X1846822D01*
X1816522Y1595854D02*
X1829722D01*
X1830722D02*
X1830922D01*
X1831822D02*
X1832022D01*
X1832422D02*
X1832622D01*
X1833422D02*
X1833722D01*
X1834122D02*
X1834322D01*
X1835022D02*
X1835222D01*
X1835422D02*
X1835622D01*
X1836622D02*
X1836822D01*
X1837122D02*
X1837322D01*
X1837922D02*
X1838222D01*
X1838922D02*
X1839122D01*
X1839422D02*
X1839622D01*
X1840422D02*
X1840722D01*
X1841022D02*
X1841222D01*
X1841922D02*
X1842122D01*
X1842922D02*
X1843122D01*
X1843422D02*
X1843622D01*
X1844022D02*
X1844222D01*
X1845022D02*
X1845222D01*
X1845522D02*
X1845722D01*
X1846522D02*
X1846822D01*
X1816322Y1595954D02*
X1829822D01*
X1830822D02*
X1831022D01*
X1831722D02*
X1832022D01*
X1832422D02*
X1832722D01*
X1833322D02*
X1833622D01*
X1834122D02*
X1834322D01*
X1835022D02*
X1835222D01*
X1835422D02*
X1835622D01*
X1836622D02*
X1836822D01*
X1837122D02*
X1837422D01*
X1837922D02*
X1838322D01*
X1838822D02*
X1839122D01*
X1839422D02*
X1839722D01*
X1840322D02*
X1840622D01*
X1841022D02*
X1841222D01*
X1842022D02*
X1842222D01*
X1842822D02*
X1843122D01*
X1843422D02*
X1843622D01*
X1844022D02*
X1844322D01*
X1844922D02*
X1845122D01*
X1845622D02*
X1845922D01*
X1846422D02*
X1846722D01*
X1816222Y1596054D02*
X1829922D01*
X1830922D02*
X1831222D01*
X1831522D02*
X1831922D01*
X1832522D02*
X1833522D01*
X1834222D02*
X1834822D01*
X1835022D02*
X1835222D01*
X1835422D02*
X1835622D01*
X1836622D02*
X1836822D01*
X1837222D02*
X1837522D01*
X1837722D02*
X1838022D01*
X1838222D02*
X1838522D01*
X1838622D02*
X1839022D01*
X1839522D02*
X1839922D01*
X1840122D02*
X1840522D01*
X1841122D02*
X1841722D01*
X1842022D02*
X1842422D01*
X1842622D02*
X1843022D01*
X1843422D02*
X1843622D01*
X1844122D02*
X1844422D01*
X1844722D02*
X1845022D01*
X1845722D02*
X1846622D01*
X1816122Y1596154D02*
X1830022D01*
X1831022D02*
X1831822D01*
X1832722D02*
X1833322D01*
X1834322D02*
X1834822D01*
X1835022D02*
X1835222D01*
X1835422D02*
X1835622D01*
X1836622D02*
X1836822D01*
X1837322D02*
X1837922D01*
X1838322D02*
X1838922D01*
X1839622D02*
X1840422D01*
X1841222D02*
X1841722D01*
X1842122D02*
X1842922D01*
X1843522D02*
X1843622D01*
X1844222D02*
X1844922D01*
X1845822D02*
X1846522D01*
X1816022Y1596254D02*
X1830122D01*
X1831322D02*
X1831522D01*
X1835022D02*
X1835222D01*
X1842422D02*
X1842622D01*
X1844522D02*
X1844622D01*
X1815822Y1596354D02*
X1821922D01*
X1824022D02*
X1830222D01*
X1835022D02*
X1835222D01*
X1815722Y1596454D02*
X1821322D01*
X1824722D02*
X1830322D01*
X1835022D02*
X1835222D01*
X1815622Y1596554D02*
X1820922D01*
X1825122D02*
X1830422D01*
X1835022D02*
X1835222D01*
X1843522D02*
X1843622D01*
X1815522Y1596654D02*
X1820522D01*
X1825522D02*
X1830522D01*
X1835022D02*
X1835222D01*
X1843422D02*
X1843722D01*
X1815422Y1596754D02*
X1820222D01*
X1825822D02*
X1830622D01*
X1835022D02*
X1835222D01*
X1843422D02*
X1843722D01*
X1815322Y1596854D02*
X1819922D01*
X1826122D02*
X1830722D01*
X1843522D02*
X1843622D01*
X1815222Y1596954D02*
X1819722D01*
X1826322D02*
X1830822D01*
X1815122Y1597054D02*
X1819422D01*
X1826622D02*
X1830922D01*
X1815022Y1597154D02*
X1819222D01*
X1826822D02*
X1831022D01*
X1814922Y1597254D02*
X1819022D01*
X1827022D02*
X1831122D01*
X1814822Y1597354D02*
X1818822D01*
X1827222D02*
X1831222D01*
X1814722Y1597454D02*
X1818622D01*
X1827322D02*
X1831322D01*
X1814622Y1597554D02*
X1818522D01*
X1827522D02*
X1831422D01*
X1814522Y1597654D02*
X1818322D01*
X1827722D02*
X1831522D01*
X1814422Y1597754D02*
X1818222D01*
X1827822D02*
X1831622D01*
X1814322Y1597854D02*
X1818022D01*
X1828022D02*
X1831722D01*
X1814322Y1597954D02*
X1817922D01*
X1828122D02*
X1831822D01*
X1814222Y1598054D02*
X1817722D01*
X1828222D02*
X1831922D01*
X1814122Y1598154D02*
X1817622D01*
X1828422D02*
X1832022D01*
X1814022Y1598254D02*
X1817522D01*
X1828522D02*
X1832122D01*
X1813922Y1598354D02*
X1817422D01*
X1828622D02*
X1832222D01*
X1813922Y1598454D02*
X1817322D01*
X1828722D02*
X1832322D01*
X1813822Y1598554D02*
X1817122D01*
X1828822D02*
X1832422D01*
X1813722Y1598654D02*
X1817022D01*
X1828922D02*
X1832522D01*
X1813722Y1598754D02*
X1816922D01*
X1829022D02*
X1832622D01*
X1813622Y1598854D02*
X1816822D01*
X1829122D02*
X1832722D01*
X1813522Y1598954D02*
X1816722D01*
X1829222D02*
X1832822D01*
X1813522Y1599054D02*
X1816622D01*
X1829322D02*
X1832922D01*
X1813422Y1599154D02*
X1816522D01*
X1829422D02*
X1833022D01*
X1813322Y1599254D02*
X1816522D01*
X1829522D02*
X1833122D01*
X1813322Y1599354D02*
X1816422D01*
X1829622D02*
X1833222D01*
X1813222Y1599454D02*
X1816322D01*
X1829722D02*
X1833322D01*
X1804222Y1599554D02*
X1805022D01*
X1813222D02*
X1816222D01*
X1829822D02*
X1833422D01*
X1804022Y1599654D02*
X1805322D01*
X1813122D02*
X1816122D01*
X1829922D02*
X1833522D01*
X1803922Y1599754D02*
X1805422D01*
X1813122D02*
X1816022D01*
X1826022D02*
X1826622D01*
X1829922D02*
X1833622D01*
X1803722Y1599854D02*
X1805522D01*
X1813022D02*
X1816022D01*
X1825822D02*
X1826922D01*
X1830022D02*
X1833722D01*
X1803722Y1599954D02*
X1805622D01*
X1813022D02*
X1815922D01*
X1825622D02*
X1827022D01*
X1830122D02*
X1833822D01*
X1803622Y1600054D02*
X1805722D01*
X1812922D02*
X1815822D01*
X1825522D02*
X1827122D01*
X1830222D02*
X1833922D01*
X1803522Y1600154D02*
X1805822D01*
X1812922D02*
X1815822D01*
X1825422D02*
X1827222D01*
X1830222D02*
X1834022D01*
X1803522Y1600254D02*
X1805922D01*
X1812822D02*
X1815722D01*
X1825322D02*
X1827322D01*
X1830322D02*
X1834122D01*
X1803422Y1600354D02*
X1806022D01*
X1812822D02*
X1815622D01*
X1825222D02*
X1827322D01*
X1830422D02*
X1834222D01*
X1803422Y1600454D02*
X1806122D01*
X1812722D02*
X1815622D01*
X1825122D02*
X1827322D01*
X1830422D02*
X1834322D01*
X1803422Y1600554D02*
X1806222D01*
X1812722D02*
X1815522D01*
X1825022D02*
X1827322D01*
X1830522D02*
X1834422D01*
X1803422Y1600654D02*
X1806322D01*
X1812622D02*
X1815422D01*
X1824922D02*
X1827322D01*
X1830522D02*
X1834522D01*
X1803422Y1600754D02*
X1806422D01*
X1812622D02*
X1815422D01*
X1824822D02*
X1827322D01*
X1830622D02*
X1834622D01*
X1803422Y1600854D02*
X1806522D01*
X1812622D02*
X1815322D01*
X1824722D02*
X1827322D01*
X1830722D02*
X1834722D01*
X1803422Y1600954D02*
X1806622D01*
X1812522D02*
X1815322D01*
X1824622D02*
X1827322D01*
X1830722D02*
X1834822D01*
X1803422Y1601054D02*
X1806722D01*
X1812522D02*
X1815222D01*
X1824522D02*
X1827222D01*
X1830822D02*
X1834922D01*
X1803422Y1601154D02*
X1806822D01*
X1812422D02*
X1815222D01*
X1824422D02*
X1827222D01*
X1830822D02*
X1835022D01*
X1803522Y1601254D02*
X1806922D01*
X1812422D02*
X1815122D01*
X1824322D02*
X1827122D01*
X1830922D02*
X1835122D01*
X1803522Y1601354D02*
X1807022D01*
X1812422D02*
X1815122D01*
X1824222D02*
X1827022D01*
X1830922D02*
X1835222D01*
X1803622Y1601454D02*
X1807122D01*
X1812322D02*
X1815022D01*
X1824122D02*
X1826922D01*
X1831022D02*
X1835322D01*
X1803722Y1601554D02*
X1807222D01*
X1812322D02*
X1815022D01*
X1824022D02*
X1826822D01*
X1831022D02*
X1835422D01*
X1803822Y1601654D02*
X1807322D01*
X1812322D02*
X1815022D01*
X1823922D02*
X1826722D01*
X1831022D02*
X1835522D01*
X1803922Y1601754D02*
X1807422D01*
X1812222D02*
X1814922D01*
X1823822D02*
X1826622D01*
X1831122D02*
X1835622D01*
X1804022Y1601854D02*
X1807522D01*
X1812222D02*
X1814922D01*
X1823722D02*
X1826522D01*
X1831122D02*
X1835722D01*
X1804122Y1601954D02*
X1807622D01*
X1812222D02*
X1814822D01*
X1823622D02*
X1826422D01*
X1831222D02*
X1835822D01*
X1804222Y1602054D02*
X1807722D01*
X1812222D02*
X1814822D01*
X1823522D02*
X1826322D01*
X1831222D02*
X1835922D01*
X1804322Y1602154D02*
X1807822D01*
X1812122D02*
X1814822D01*
X1823422D02*
X1826222D01*
X1831222D02*
X1836022D01*
X1804422Y1602254D02*
X1807922D01*
X1812122D02*
X1814722D01*
X1823322D02*
X1826122D01*
X1831322D02*
X1836122D01*
X1804522Y1602354D02*
X1808022D01*
X1812122D02*
X1814722D01*
X1823222D02*
X1826022D01*
X1831322D02*
X1836222D01*
X1804622Y1602454D02*
X1808122D01*
X1812122D02*
X1814722D01*
X1823122D02*
X1825922D01*
X1831322D02*
X1836322D01*
X1804722Y1602554D02*
X1808222D01*
X1812022D02*
X1814622D01*
X1823022D02*
X1825822D01*
X1831422D02*
X1836422D01*
X1804822Y1602654D02*
X1808322D01*
X1812022D02*
X1814622D01*
X1822922D02*
X1825722D01*
X1831422D02*
X1836522D01*
X1804922Y1602754D02*
X1808422D01*
X1812022D02*
X1814622D01*
X1822822D02*
X1825622D01*
X1831422D02*
X1836622D01*
X1805022Y1602854D02*
X1808522D01*
X1812022D02*
X1814522D01*
X1822722D02*
X1825522D01*
X1831422D02*
X1836722D01*
X1805122Y1602954D02*
X1808622D01*
X1811922D02*
X1814522D01*
X1822622D02*
X1825422D01*
X1831522D02*
X1836822D01*
X1805222Y1603054D02*
X1808722D01*
X1811922D02*
X1814522D01*
X1822522D02*
X1825322D01*
X1831522D02*
X1836922D01*
X1805322Y1603154D02*
X1808822D01*
X1811922D02*
X1814522D01*
X1822422D02*
X1825222D01*
X1831522D02*
X1837022D01*
X1805422Y1603254D02*
X1808922D01*
X1811922D02*
X1814522D01*
X1822322D02*
X1825122D01*
X1831522D02*
X1837122D01*
X1805522Y1603354D02*
X1809022D01*
X1811922D02*
X1814422D01*
X1822222D02*
X1825022D01*
X1831622D02*
X1837222D01*
X1805622Y1603454D02*
X1809122D01*
X1811922D02*
X1814422D01*
X1822122D02*
X1824922D01*
X1831622D02*
X1837322D01*
X1805722Y1603554D02*
X1809222D01*
X1811922D02*
X1814422D01*
X1822022D02*
X1824822D01*
X1831622D02*
X1837422D01*
X1805822Y1603654D02*
X1809322D01*
X1811822D02*
X1814422D01*
X1821922D02*
X1824722D01*
X1831622D02*
X1837522D01*
X1805922Y1603754D02*
X1809422D01*
X1811822D02*
X1814422D01*
X1821822D02*
X1824622D01*
X1831622D02*
X1837622D01*
X1806022Y1603854D02*
X1809522D01*
X1811822D02*
X1814422D01*
X1821722D02*
X1824522D01*
X1831622D02*
X1837722D01*
X1806122Y1603954D02*
X1809622D01*
X1811822D02*
X1814322D01*
X1821622D02*
X1824422D01*
X1831722D02*
X1837822D01*
X1806222Y1604054D02*
X1809722D01*
X1811822D02*
X1814322D01*
X1821622D02*
X1824322D01*
X1831722D02*
X1834222D01*
X1834322D02*
X1837922D01*
X1806322Y1604154D02*
X1809822D01*
X1811822D02*
X1814322D01*
X1821522D02*
X1824222D01*
X1831722D02*
X1834222D01*
X1834422D02*
X1838022D01*
X1806422Y1604254D02*
X1809922D01*
X1811822D02*
X1814322D01*
X1821522D02*
X1824122D01*
X1831722D02*
X1834222D01*
X1834522D02*
X1838122D01*
X1806522Y1604354D02*
X1810022D01*
X1811822D02*
X1814322D01*
X1821422D02*
X1824022D01*
X1831722D02*
X1834222D01*
X1834622D02*
X1838222D01*
X1806622Y1604454D02*
X1810122D01*
X1811822D02*
X1814322D01*
X1821422D02*
X1823922D01*
X1831722D02*
X1834222D01*
X1834722D02*
X1838322D01*
X1806722Y1604554D02*
X1810222D01*
X1811822D02*
X1814322D01*
X1821422D02*
X1823822D01*
X1831722D02*
X1834222D01*
X1834822D02*
X1838422D01*
X1806822Y1604654D02*
X1810322D01*
X1811822D02*
X1814322D01*
X1821422D02*
X1823722D01*
X1831722D02*
X1834222D01*
X1834922D02*
X1838522D01*
X1806922Y1604754D02*
X1810422D01*
X1811822D02*
X1814322D01*
X1821422D02*
X1823622D01*
X1831722D02*
X1834222D01*
X1835022D02*
X1838622D01*
X1807022Y1604854D02*
X1810522D01*
X1811822D02*
X1814322D01*
X1821422D02*
X1823522D01*
X1831722D02*
X1834222D01*
X1835122D02*
X1838722D01*
X1807122Y1604954D02*
X1810622D01*
X1811822D02*
X1814322D01*
X1821422D02*
X1823522D01*
X1831722D02*
X1834222D01*
X1835222D02*
X1838822D01*
X1807222Y1605054D02*
X1810722D01*
X1811822D02*
X1814322D01*
X1821422D02*
X1823522D01*
X1831722D02*
X1834222D01*
X1835322D02*
X1838922D01*
X1807322Y1605154D02*
X1810822D01*
X1811822D02*
X1814322D01*
X1821422D02*
X1823522D01*
X1831722D02*
X1834222D01*
X1835422D02*
X1839022D01*
X1807422Y1605254D02*
X1810922D01*
X1811822D02*
X1814322D01*
X1821422D02*
X1823522D01*
X1831722D02*
X1834222D01*
X1835522D02*
X1839122D01*
X1807522Y1605354D02*
X1811022D01*
X1811822D02*
X1814322D01*
X1821422D02*
X1823522D01*
X1831722D02*
X1834222D01*
X1835622D02*
X1839222D01*
X1807622Y1605454D02*
X1811122D01*
X1811822D02*
X1814322D01*
X1821422D02*
X1823522D01*
X1831722D02*
X1834222D01*
X1835722D02*
X1839322D01*
X1807722Y1605554D02*
X1811222D01*
X1811822D02*
X1814322D01*
X1821422D02*
X1823522D01*
X1831722D02*
X1834222D01*
X1835822D02*
X1839422D01*
X1807822Y1605654D02*
X1811322D01*
X1811822D02*
X1814322D01*
X1821422D02*
X1823522D01*
X1831722D02*
X1834222D01*
X1835922D02*
X1839522D01*
X1807922Y1605754D02*
X1811422D01*
X1811822D02*
X1814322D01*
X1821422D02*
X1823522D01*
X1831722D02*
X1834222D01*
X1836022D02*
X1839622D01*
X1808022Y1605854D02*
X1811522D01*
X1811822D02*
X1814322D01*
X1821422D02*
X1823522D01*
X1831722D02*
X1834222D01*
X1836122D02*
X1839722D01*
X1808122Y1605954D02*
X1811622D01*
X1811822D02*
X1814322D01*
X1821422D02*
X1823522D01*
X1831722D02*
X1834222D01*
X1836222D02*
X1839822D01*
X1808222Y1606054D02*
X1811722D01*
X1811822D02*
X1814322D01*
X1821422D02*
X1823522D01*
X1831722D02*
X1834222D01*
X1836322D02*
X1839922D01*
X1808322Y1606154D02*
X1814422D01*
X1821422D02*
X1823522D01*
X1831622D02*
X1834222D01*
X1836422D02*
X1840022D01*
X1808422Y1606254D02*
X1814422D01*
X1821422D02*
X1823522D01*
X1831622D02*
X1834222D01*
X1836522D02*
X1840122D01*
X1808522Y1606354D02*
X1814422D01*
X1821422D02*
X1823522D01*
X1831622D02*
X1834222D01*
X1836622D02*
X1840222D01*
X1808622Y1606454D02*
X1814422D01*
X1821422D02*
X1823522D01*
X1831622D02*
X1834122D01*
X1836722D02*
X1840322D01*
X1808722Y1606554D02*
X1814422D01*
X1821422D02*
X1823522D01*
X1831622D02*
X1834122D01*
X1836822D02*
X1840422D01*
X1808822Y1606654D02*
X1814422D01*
X1821422D02*
X1823522D01*
X1831622D02*
X1834122D01*
X1836922D02*
X1840522D01*
X1808922Y1606754D02*
X1814522D01*
X1821422D02*
X1823522D01*
X1831522D02*
X1834122D01*
X1837022D02*
X1840622D01*
X1809022Y1606854D02*
X1814522D01*
X1821422D02*
X1823522D01*
X1831522D02*
X1834122D01*
X1837122D02*
X1840722D01*
X1809122Y1606954D02*
X1814522D01*
X1821422D02*
X1823522D01*
X1831522D02*
X1834122D01*
X1837222D02*
X1840822D01*
X1809222Y1607054D02*
X1814522D01*
X1821422D02*
X1823522D01*
X1831522D02*
X1834022D01*
X1837322D02*
X1840922D01*
X1809322Y1607154D02*
X1814522D01*
X1821422D02*
X1823522D01*
X1831422D02*
X1834022D01*
X1837422D02*
X1841022D01*
X1809422Y1607254D02*
X1814622D01*
X1821422D02*
X1823522D01*
X1831422D02*
X1834022D01*
X1837522D02*
X1841122D01*
X1809522Y1607354D02*
X1814622D01*
X1821422D02*
X1823522D01*
X1831422D02*
X1834022D01*
X1837622D02*
X1841222D01*
X1809622Y1607454D02*
X1814622D01*
X1821422D02*
X1823522D01*
X1831422D02*
X1834022D01*
X1837722D02*
X1841322D01*
X1809722Y1607554D02*
X1814722D01*
X1821422D02*
X1823522D01*
X1831322D02*
X1833922D01*
X1837822D02*
X1841422D01*
X1809822Y1607654D02*
X1814722D01*
X1821422D02*
X1823522D01*
X1831322D02*
X1833922D01*
X1837922D02*
X1841522D01*
X1809922Y1607754D02*
X1814722D01*
X1821422D02*
X1823522D01*
X1831322D02*
X1833922D01*
X1838022D02*
X1841622D01*
X1810022Y1607854D02*
X1814822D01*
X1821422D02*
X1823522D01*
X1831222D02*
X1833922D01*
X1838122D02*
X1841722D01*
X1810122Y1607954D02*
X1814822D01*
X1821422D02*
X1823522D01*
X1831222D02*
X1833822D01*
X1838222D02*
X1841822D01*
X1810222Y1608054D02*
X1814822D01*
X1821422D02*
X1823522D01*
X1831222D02*
X1833822D01*
X1838322D02*
X1841922D01*
X1810322Y1608154D02*
X1814922D01*
X1821422D02*
X1823522D01*
X1831122D02*
X1833822D01*
X1838422D02*
X1842022D01*
X1810422Y1608254D02*
X1814922D01*
X1821422D02*
X1823522D01*
X1831122D02*
X1833822D01*
X1838522D02*
X1842122D01*
X1810522Y1608354D02*
X1814922D01*
X1821422D02*
X1823522D01*
X1831022D02*
X1833722D01*
X1838622D02*
X1842222D01*
X1810622Y1608454D02*
X1815022D01*
X1821422D02*
X1823522D01*
X1831022D02*
X1833722D01*
X1838722D02*
X1842322D01*
X1810722Y1608554D02*
X1815022D01*
X1821422D02*
X1823522D01*
X1831022D02*
X1833722D01*
X1838822D02*
X1842422D01*
X1810822Y1608654D02*
X1815122D01*
X1821422D02*
X1823522D01*
X1830922D02*
X1833622D01*
X1838922D02*
X1842522D01*
X1810922Y1608754D02*
X1815122D01*
X1821422D02*
X1823522D01*
X1830922D02*
X1833622D01*
X1839022D02*
X1842622D01*
X1811022Y1608854D02*
X1815222D01*
X1821422D02*
X1823522D01*
X1830822D02*
X1833622D01*
X1839122D02*
X1842722D01*
X1811122Y1608954D02*
X1815222D01*
X1821422D02*
X1823522D01*
X1830822D02*
X1833522D01*
X1839222D02*
X1842822D01*
X1811222Y1609054D02*
X1815322D01*
X1821422D02*
X1823522D01*
X1830722D02*
X1833522D01*
X1839322D02*
X1842922D01*
X1811322Y1609154D02*
X1815322D01*
X1821422D02*
X1823522D01*
X1830722D02*
X1833422D01*
X1839422D02*
X1843022D01*
X1811422Y1609254D02*
X1815422D01*
X1821422D02*
X1823522D01*
X1830622D02*
X1833422D01*
X1839522D02*
X1843122D01*
X1811522Y1609354D02*
X1815422D01*
X1821422D02*
X1823522D01*
X1830622D02*
X1833422D01*
X1839622D02*
X1843222D01*
X1811622Y1609454D02*
X1815522D01*
X1821422D02*
X1823522D01*
X1830522D02*
X1833322D01*
X1839722D02*
X1843322D01*
X1811722Y1609554D02*
X1815622D01*
X1821422D02*
X1823522D01*
X1830422D02*
X1833322D01*
X1839822D02*
X1843422D01*
X1811822Y1609654D02*
X1815622D01*
X1821422D02*
X1823522D01*
X1830422D02*
X1833222D01*
X1839922D02*
X1843522D01*
X1811922Y1609754D02*
X1815722D01*
X1821422D02*
X1823522D01*
X1830322D02*
X1833222D01*
X1840022D02*
X1843622D01*
X1812022Y1609854D02*
X1815722D01*
X1821422D02*
X1823522D01*
X1830222D02*
X1833122D01*
X1840122D02*
X1843722D01*
X1812122Y1609954D02*
X1815822D01*
X1821422D02*
X1823522D01*
X1830222D02*
X1833122D01*
X1840222D02*
X1843822D01*
X1812222Y1610054D02*
X1815922D01*
X1821422D02*
X1823522D01*
X1830122D02*
X1833022D01*
X1840322D02*
X1843922D01*
X1812322Y1610154D02*
X1816022D01*
X1821422D02*
X1823522D01*
X1830022D02*
X1833022D01*
X1840422D02*
X1844022D01*
X1812422Y1610254D02*
X1816022D01*
X1821422D02*
X1823522D01*
X1830022D02*
X1832922D01*
X1840522D02*
X1844122D01*
X1812522Y1610354D02*
X1816122D01*
X1821422D02*
X1823522D01*
X1829922D02*
X1832922D01*
X1840622D02*
X1844222D01*
X1812622Y1610454D02*
X1816222D01*
X1821422D02*
X1823522D01*
X1829822D02*
X1832822D01*
X1840722D02*
X1844322D01*
X1812722Y1610554D02*
X1816322D01*
X1821422D02*
X1823522D01*
X1829722D02*
X1832822D01*
X1840822D02*
X1844422D01*
X1812822Y1610654D02*
X1816422D01*
X1821422D02*
X1823522D01*
X1829622D02*
X1832722D01*
X1840922D02*
X1844522D01*
X1812922Y1610754D02*
X1816422D01*
X1821422D02*
X1823522D01*
X1829622D02*
X1832722D01*
X1841022D02*
X1844622D01*
X1813022Y1610854D02*
X1816522D01*
X1821422D02*
X1823522D01*
X1829522D02*
X1832622D01*
X1841122D02*
X1844722D01*
X1813122Y1610954D02*
X1816622D01*
X1821422D02*
X1823522D01*
X1829422D02*
X1832522D01*
X1841222D02*
X1844822D01*
X1813222Y1611054D02*
X1816722D01*
X1821422D02*
X1823522D01*
X1829322D02*
X1832522D01*
X1841322D02*
X1844922D01*
X1813322Y1611154D02*
X1816822D01*
X1821422D02*
X1823522D01*
X1829222D02*
X1832422D01*
X1841422D02*
X1845022D01*
X1813422Y1611254D02*
X1816922D01*
X1821422D02*
X1823522D01*
X1829122D02*
X1832322D01*
X1841522D02*
X1845122D01*
X1813522Y1611354D02*
X1817022D01*
X1821422D02*
X1823522D01*
X1829022D02*
X1832322D01*
X1841622D02*
X1845222D01*
X1813622Y1611454D02*
X1817122D01*
X1821422D02*
X1823522D01*
X1828922D02*
X1832222D01*
X1841722D02*
X1845222D01*
X1813722Y1611554D02*
X1817222D01*
X1821422D02*
X1823522D01*
X1828822D02*
X1832122D01*
X1841822D02*
X1845322D01*
X1813822Y1611654D02*
X1817422D01*
X1821522D02*
X1823422D01*
X1828622D02*
X1832122D01*
X1841922D02*
X1845322D01*
X1813922Y1611754D02*
X1817522D01*
X1821522D02*
X1823422D01*
X1828522D02*
X1832022D01*
X1842022D02*
X1845422D01*
X1814022Y1611854D02*
X1817622D01*
X1821622D02*
X1823322D01*
X1828422D02*
X1831922D01*
X1842122D02*
X1845422D01*
X1814122Y1611954D02*
X1817722D01*
X1821622D02*
X1823322D01*
X1828322D02*
X1831822D01*
X1842222D02*
X1845422D01*
X1814222Y1612054D02*
X1817922D01*
X1821722D02*
X1823222D01*
X1828122D02*
X1831722D01*
X1842322D02*
X1845422D01*
X1814322Y1612154D02*
X1818022D01*
X1821822D02*
X1823022D01*
X1828022D02*
X1831722D01*
X1842422D02*
X1845422D01*
X1814422Y1612254D02*
X1818122D01*
X1822022D02*
X1822922D01*
X1827822D02*
X1831622D01*
X1842522D02*
X1845422D01*
X1814522Y1612354D02*
X1818322D01*
X1827722D02*
X1831522D01*
X1842622D02*
X1845422D01*
X1814622Y1612454D02*
X1818522D01*
X1827522D02*
X1831422D01*
X1842722D02*
X1845422D01*
X1814722Y1612554D02*
X1818622D01*
X1827422D02*
X1831322D01*
X1842822D02*
X1845322D01*
X1814822Y1612654D02*
X1818822D01*
X1827222D02*
X1831222D01*
X1842922D02*
X1845322D01*
X1814922Y1612754D02*
X1819022D01*
X1827022D02*
X1831122D01*
X1843022D02*
X1845222D01*
X1815022Y1612854D02*
X1819222D01*
X1826822D02*
X1831022D01*
X1843122D02*
X1845222D01*
X1815122Y1612954D02*
X1819422D01*
X1826622D02*
X1830922D01*
X1843222D02*
X1845122D01*
X1815222Y1613054D02*
X1819622D01*
X1826422D02*
X1830822D01*
X1843322D02*
X1845022D01*
X1815322Y1613154D02*
X1819922D01*
X1826122D02*
X1830722D01*
X1843422D02*
X1844922D01*
X1815422Y1613254D02*
X1820122D01*
X1825922D02*
X1830622D01*
X1843622D02*
X1844722D01*
X1815522Y1613354D02*
X1820422D01*
X1825522D02*
X1830522D01*
X1844022D02*
X1844322D01*
X1815622Y1613454D02*
X1820822D01*
X1825222D02*
X1830422D01*
X1815722Y1613554D02*
X1821222D01*
X1824822D02*
X1830322D01*
X1815822Y1613654D02*
X1821822D01*
X1824222D02*
X1830222D01*
X1815922Y1613754D02*
X1830122D01*
X1816022Y1613854D02*
X1829922D01*
X1816122Y1613954D02*
X1829822D01*
X1816222Y1614054D02*
X1829722D01*
X1816322Y1614154D02*
X1829522D01*
X1816422Y1614254D02*
X1829422D01*
X1816522Y1614354D02*
X1829222D01*
X1816622Y1614454D02*
X1829122D01*
X1816722Y1614554D02*
X1828922D01*
X1816822Y1614654D02*
X1828822D01*
X1816922Y1614754D02*
X1828622D01*
X1817022Y1614854D02*
X1828422D01*
X1817122Y1614954D02*
X1828222D01*
X1817222Y1615054D02*
X1828122D01*
X1817322Y1615154D02*
X1827822D01*
X1817422Y1615254D02*
X1827622D01*
X1817522Y1615354D02*
X1827422D01*
X1817622Y1615454D02*
X1827222D01*
X1817722Y1615554D02*
X1826922D01*
X1817822Y1615654D02*
X1826622D01*
X1817922Y1615754D02*
X1826322D01*
X1818022Y1615854D02*
X1826022D01*
X1818122Y1615954D02*
X1825622D01*
X1818222Y1616054D02*
X1825122D01*
X1818322Y1616154D02*
X1824522D01*
X1818422Y1616254D02*
X1821922D01*
X1818522Y1616354D02*
X1822022D01*
X1818622Y1616454D02*
X1822122D01*
X1818722Y1616554D02*
X1822222D01*
X1818822Y1616654D02*
X1822322D01*
X1818922Y1616754D02*
X1822422D01*
X1819022Y1616854D02*
X1822522D01*
X1819122Y1616954D02*
X1822622D01*
X1819222Y1617054D02*
X1822722D01*
X1819322Y1617154D02*
X1822822D01*
X1819422Y1617254D02*
X1822922D01*
X1819522Y1617354D02*
X1823022D01*
X1819622Y1617454D02*
X1823122D01*
X1819722Y1617554D02*
X1823222D01*
X1819822Y1617654D02*
X1823322D01*
X1819922Y1617754D02*
X1823422D01*
X1820022Y1617854D02*
X1823522D01*
X1820122Y1617954D02*
X1823622D01*
X1820222Y1618054D02*
X1823722D01*
X1820322Y1618154D02*
X1823822D01*
X1820422Y1618254D02*
X1823922D01*
X1820522Y1618354D02*
X1824022D01*
X1820622Y1618454D02*
X1824122D01*
X1820722Y1618554D02*
X1824122D01*
X1820822Y1618654D02*
X1824222D01*
X1820922Y1618754D02*
X1824222D01*
X1821022Y1618854D02*
X1824222D01*
X1821122Y1618954D02*
X1824322D01*
X1821222Y1619054D02*
X1824322D01*
X1821322Y1619154D02*
X1824322D01*
X1821322Y1619254D02*
X1824322D01*
X1821522Y1619354D02*
X1824222D01*
X1821522Y1619454D02*
X1824222D01*
X1821722Y1619554D02*
X1824222D01*
X1821722Y1619654D02*
X1824222D01*
X1821922Y1619754D02*
X1824122D01*
X1821922Y1619854D02*
X1824022D01*
X1822022Y1619954D02*
X1824022D01*
X1822222Y1620054D02*
X1823922D01*
X1822322Y1620154D02*
X1823722D01*
X1822422Y1620254D02*
X1823622D01*
X1822722Y1620354D02*
X1823322D01*
G54D94*
X2110214Y1572808D02*
Y1569995D01*
X2109191Y1571401D02*
X2111237D01*
X2090952Y1572808D02*
Y1569995D01*
X2089929Y1571401D02*
X2091975D01*
X2130329Y1742455D02*
Y1739174D01*
X2131920Y1742455D02*
Y1739174D01*
X2130329Y1740892D02*
X2131920D01*
X2134533Y1742455D02*
X2133397Y1739174D01*
X2132942Y1742455D02*
X2134533D01*
X1854067D02*
Y1739174D01*
X1855658Y1742455D02*
Y1739174D01*
X1854067Y1740892D02*
X1855658D01*
X1857249Y1742455D02*
X1856908Y1742299D01*
X1856794Y1741986*
Y1741674*
X1856908Y1741361*
X1857135Y1741205*
X1857590Y1741049*
X1857931Y1740892*
X1858158Y1740580*
X1858272Y1740267*
Y1739799*
X1858158Y1739486*
X1858044Y1739330*
X1857703Y1739174*
X1857249*
X1856908Y1739330*
X1856794Y1739486*
X1856681Y1739799*
Y1740267*
X1856794Y1740580*
X1857022Y1740892*
X1857362Y1741049*
X1857817Y1741205*
X1858044Y1741361*
X1858158Y1741674*
Y1741986*
X1858044Y1742299*
X1857703Y1742455*
X1857249*
X1854067Y1464001D02*
Y1460719D01*
X1855658Y1464001D02*
Y1460719D01*
X1854067Y1462438D02*
X1855658D01*
X1858158Y1464001D02*
X1857022D01*
X1856908Y1462594*
X1857022Y1462751*
X1857362Y1462907*
X1857703*
X1858044Y1462751*
X1858272Y1462438*
X1858385Y1461969*
X1858272Y1461657*
X1858158Y1461188*
X1857931Y1460876*
X1857590Y1460719*
X1857249*
X1856908Y1460876*
X1856794Y1461032*
X1856681Y1461344*
X2130329Y1464001D02*
Y1460719D01*
X2131920Y1464001D02*
Y1460719D01*
X2130329Y1462438D02*
X2131920D01*
X2134306Y1463532D02*
X2134192Y1463844D01*
X2133852Y1464001*
X2133624*
X2133283Y1463844*
X2133056Y1463376*
X2132942Y1462594*
Y1461813*
X2133056Y1461188*
X2133283Y1460876*
X2133624Y1460719*
X2133738*
X2134079Y1460876*
X2134306Y1461188*
X2134420Y1461657*
Y1461813*
X2134306Y1462282*
X2134079Y1462594*
X2133738Y1462751*
X2133624*
X2133283Y1462594*
X2133056Y1462282*
X2132942Y1461813*
X1842140Y1696862D02*
X1841765Y1696725D01*
X1841390Y1696452*
X1841202Y1696180*
Y1695634*
X1841390Y1695362*
X1841765Y1695089*
X1842140Y1694952*
X1842702Y1694816*
X1843640*
X1844202Y1694952*
X1844577Y1695089*
X1844952Y1695362*
X1845140Y1695634*
Y1696180*
X1844952Y1696452*
X1844577Y1696725*
X1844202Y1696862*
X1841202Y1699180D02*
X1845140Y1698089D01*
X1841202Y1699180D02*
X1845140Y1700271D01*
X1843827Y1698498D02*
Y1699862D01*
X1841202Y1701498D02*
X1845140D01*
X1841202D02*
X1845140Y1702589D01*
X1841202Y1703680D02*
X1845140Y1702589D01*
X1841202Y1703680D02*
X1845140D01*
X1828400Y1669857D02*
X1832337D01*
Y1671494*
X1828400Y1672721D02*
X1832337D01*
X1828400D02*
Y1674494D01*
X1830275Y1672721D02*
Y1673812D01*
X1832337Y1672721D02*
Y1674494D01*
X1828400Y1675721D02*
X1832337D01*
X1828400D02*
Y1676676D01*
X1828400D02*
X1828587Y1677085D01*
X1828962Y1677357*
X1829337Y1677494*
X1829900Y1677630*
X1830837*
X1831400Y1677494*
X1831775Y1677357*
X1832150Y1677085*
X1832337Y1676676*
X1832337D02*
Y1675721D01*
X1829150Y1678857D02*
X1828962Y1679130D01*
X1828400Y1679539*
X1832337*
X1841199Y1538074D02*
X1845136D01*
X1841199D02*
Y1539846D01*
X1843074Y1538074D02*
Y1539165D01*
X1845136Y1538074D02*
Y1539846D01*
X1841199Y1541074D02*
X1845136Y1542983D01*
X1841199D02*
X1845136Y1541074D01*
X1841199Y1545165D02*
X1845136D01*
X1841199Y1544210D02*
Y1546119D01*
X1845886Y1547346D02*
Y1550210D01*
X1841199Y1551846D02*
X1841386Y1551437D01*
X1841949Y1551165*
X1842886Y1551028*
X1843449*
X1844386Y1551165*
X1844949Y1551437*
X1845136Y1551846*
Y1552119*
X1844949Y1552528*
X1844386Y1552801*
X1843449Y1552937*
X1842886*
X1841949Y1552801*
X1841386Y1552528*
X1841199Y1552119*
Y1551846*
Y1488311D02*
X1845136D01*
X1841199D02*
Y1490084D01*
X1843074Y1488311D02*
Y1489402D01*
X1845136Y1488311D02*
Y1490084D01*
X1841199Y1491311D02*
X1845136Y1493220D01*
X1841199D02*
X1845136Y1491311D01*
X1841199Y1495402D02*
X1845136D01*
X1841199Y1494447D02*
Y1496356D01*
X1845886Y1497584D02*
Y1500447D01*
X1841949Y1501265D02*
X1841761Y1501538D01*
X1841199Y1501947*
X1845136*
X1863635Y1530435D02*
Y1526498D01*
Y1530435D02*
X1864863D01*
X1865272Y1530248*
X1865408Y1530060*
X1865544Y1529685*
Y1529310*
X1865408Y1528935*
X1865272Y1528748*
X1864863Y1528560*
X1863635D02*
X1864863D01*
X1865272Y1528373*
X1865408Y1528185*
X1865544Y1527810*
Y1527248*
X1865408Y1526873*
X1865272Y1526685*
X1864863Y1526498*
X1863635*
X1866772Y1530435D02*
Y1527623D01*
X1866908Y1527060*
X1867181Y1526685*
X1867590Y1526498*
X1867863*
X1868272Y1526685*
X1868544Y1527060*
X1868681Y1527623*
Y1530435*
X1870863D02*
Y1526498D01*
X1869908Y1530435D02*
X1871817D01*
X1875090Y1529498D02*
X1874953Y1529873D01*
X1874681Y1530248*
X1874408Y1530435*
X1873863*
X1873590Y1530248*
X1873317Y1529873*
X1873181Y1529498*
X1873044Y1528935*
Y1527998*
X1873181Y1527435*
X1873317Y1527060*
X1873590Y1526685*
X1873863Y1526498*
X1874408*
X1874681Y1526685*
X1874953Y1527060*
X1875090Y1527435*
X1931860Y1529989D02*
Y1526052D01*
Y1529989D02*
X1933087D01*
X1933496Y1529802*
X1933633Y1529614*
X1933769Y1529239*
Y1528864*
X1933633Y1528489*
X1933496Y1528302*
X1933087Y1528114*
X1931860D02*
X1933087D01*
X1933496Y1527927*
X1933633Y1527739*
X1933769Y1527364*
Y1526802*
X1933633Y1526427*
X1933496Y1526239*
X1933087Y1526052*
X1931860*
X1934996Y1529989D02*
Y1527177D01*
X1935133Y1526614*
X1935405Y1526239*
X1935815Y1526052*
X1936087*
X1936496Y1526239*
X1936769Y1526614*
X1936905Y1527177*
Y1529989*
X1939087D02*
Y1526052D01*
X1938133Y1529989D02*
X1940042D01*
X1941269D02*
Y1526052D01*
X1942905*
X1975559Y1550501D02*
Y1546564D01*
Y1550501D02*
X1976787D01*
X1977196Y1550314*
X1977332Y1550126*
X1977469Y1549751*
Y1549376*
X1977332Y1549001*
X1977196Y1548814*
X1976787Y1548626*
X1975559D02*
X1976787D01*
X1977196Y1548439*
X1977332Y1548251*
X1977469Y1547876*
Y1547314*
X1977332Y1546939*
X1977196Y1546751*
X1976787Y1546564*
X1975559*
X1978696Y1550501D02*
Y1547689D01*
X1978832Y1547126*
X1979105Y1546751*
X1979514Y1546564*
X1979787*
X1980196Y1546751*
X1980469Y1547126*
X1980605Y1547689*
Y1550501*
X1982787D02*
Y1546564D01*
X1981832Y1550501D02*
X1983741D01*
X1984969D02*
Y1547689D01*
X1985105Y1547126*
X1985378Y1546751*
X1985787Y1546564*
X1986059*
X1986469Y1546751*
X1986741Y1547126*
X1986878Y1547689*
Y1550501*
X1976897Y1510369D02*
Y1506432D01*
Y1510369D02*
X1978124D01*
X1978534Y1510182*
X1978670Y1509994*
X1978806Y1509619*
Y1509244*
X1978670Y1508869*
X1978534Y1508682*
X1978124Y1508494*
X1976897D02*
X1978124D01*
X1978534Y1508307*
X1978670Y1508119*
X1978806Y1507744*
Y1507182*
X1978670Y1506807*
X1978534Y1506619*
X1978124Y1506432*
X1976897*
X1980034Y1510369D02*
Y1507557D01*
X1980170Y1506994*
X1980443Y1506619*
X1980852Y1506432*
X1981124*
X1981534Y1506619*
X1981806Y1506994*
X1981943Y1507557*
Y1510369*
X1984124D02*
Y1506432D01*
X1983170Y1510369D02*
X1985079D01*
X1986306D02*
Y1506432D01*
Y1510369D02*
X1987261D01*
X1987670Y1510182*
X1987943Y1509807*
X1988079Y1509432*
X1988215Y1508869*
Y1507932*
X1988079Y1507369*
X1987943Y1506994*
X1987670Y1506619*
X1987261Y1506432*
X1986306*
X2022826Y1530435D02*
Y1526498D01*
Y1530435D02*
X2024053D01*
X2024463Y1530248*
X2024599Y1530060*
X2024735Y1529685*
Y1529310*
X2024599Y1528935*
X2024463Y1528748*
X2024053Y1528560*
X2022826D02*
X2024053D01*
X2024463Y1528373*
X2024599Y1528185*
X2024735Y1527810*
Y1527248*
X2024599Y1526873*
X2024463Y1526685*
X2024053Y1526498*
X2022826*
X2025963Y1530435D02*
Y1527623D01*
X2026099Y1527060*
X2026372Y1526685*
X2026781Y1526498*
X2027053*
X2027463Y1526685*
X2027735Y1527060*
X2027872Y1527623*
Y1530435*
X2030053D02*
Y1526498D01*
X2029099Y1530435D02*
X2031008D01*
X2032235D02*
Y1526498D01*
Y1530435D02*
X2033463D01*
X2033872Y1530248*
X2034008Y1530060*
X2034144Y1529685*
Y1529310*
X2034008Y1528935*
X2033872Y1528748*
X2033463Y1528560*
X2032235*
X2033190D02*
X2034144Y1526498D01*
X2168919Y1524416D02*
Y1520479D01*
Y1524416D02*
X2170010Y1520479D01*
X2171101Y1524416D02*
X2170010Y1520479D01*
X2171101Y1524416D02*
Y1520479D01*
X2173147Y1524416D02*
X2172874Y1524229D01*
X2172601Y1523854*
X2172465Y1523479*
X2172328Y1522916*
Y1521979*
X2172465Y1521416*
X2172601Y1521041*
X2172874Y1520666*
X2173147Y1520479*
X2173692*
X2173965Y1520666*
X2174237Y1521041*
X2174374Y1521416*
X2174510Y1521979*
Y1522916*
X2174374Y1523479*
X2174237Y1523854*
X2173965Y1524229*
X2173692Y1524416*
X2173147*
X2176692D02*
Y1520479D01*
X2175737Y1524416D02*
X2177647D01*
X2182010Y1523666D02*
X2182283Y1523854D01*
X2182692Y1524416*
Y1520479*
X2167253Y1471094D02*
Y1467156D01*
Y1471094D02*
X2168344Y1467156D01*
X2169435Y1471094D02*
X2168344Y1467156D01*
X2169435Y1471094D02*
Y1467156D01*
X2171480Y1471094D02*
X2171208Y1470906D01*
X2170935Y1470531*
X2170798Y1470156*
X2170662Y1469594*
Y1468656*
X2170798Y1468094*
X2170935Y1467719*
X2171208Y1467344*
X2171480Y1467156*
X2172026*
X2172298Y1467344*
X2172571Y1467719*
X2172708Y1468094*
X2172844Y1468656*
Y1469594*
X2172708Y1470156*
X2172571Y1470531*
X2172298Y1470906*
X2172026Y1471094*
X2171480*
X2175026D02*
Y1467156D01*
X2174071Y1471094D02*
X2175980D01*
X2181162D02*
X2180753Y1470906D01*
X2180480Y1470344*
X2180344Y1469406*
Y1468844*
X2180480Y1467906*
X2180753Y1467344*
X2181162Y1467156*
X2181435*
X2181844Y1467344*
X2182117Y1467906*
X2182253Y1468844*
Y1469406*
X2182117Y1470344*
X2181844Y1470906*
X2181435Y1471094*
X2181162*
X1927465Y1493212D02*
X1931402D01*
X1927465D02*
Y1494439D01*
X1927652Y1494848*
X1927840Y1494984*
X1928215Y1495121*
X1928590*
X1928965Y1494984*
X1929152Y1494848*
X1929340Y1494439*
Y1493212*
Y1494166D02*
X1931402Y1495121D01*
X1928027Y1498257D02*
X1927652Y1497984D01*
X1927465Y1497575*
Y1497030*
X1927652Y1496621*
X1928027Y1496348*
X1928402*
X1928777Y1496484*
X1928965Y1496621*
X1929152Y1496893*
X1929527Y1497712*
X1929715Y1497984*
X1929902Y1498121*
X1930277Y1498257*
X1930840*
X1931215Y1497984*
X1931402Y1497575*
Y1497030*
X1931215Y1496621*
X1930840Y1496348*
X1927465Y1500439D02*
X1931402D01*
X1927465Y1499484D02*
Y1501393D01*
X1937518Y1493484D02*
Y1494984D01*
X1939018Y1494166*
Y1494575*
X1939205Y1494848*
X1939393Y1494984*
X1939955Y1495121*
X1940330*
X1940893Y1494984*
X1941268Y1494712*
X1941455Y1494303*
Y1493893*
X1941268Y1493484*
X1941080Y1493348*
X1940705Y1493212*
X1937518Y1496348D02*
X1941455Y1497439D01*
X1937518Y1498530D02*
X1941455Y1497439D01*
X1937518Y1500030D02*
Y1501530D01*
X1939018Y1500712*
Y1501121*
X1939205Y1501393*
X1939393Y1501530*
X1939955Y1501666*
X1940330*
X1940893Y1501530*
X1941268Y1501257*
X1941455Y1500848*
Y1500439*
X1941268Y1500030*
X1941080Y1499893*
X1940705Y1499757*
X1948780Y1497149D02*
X1947416D01*
X1947280Y1495462*
X1947416Y1495649*
X1947825Y1495837*
X1948234*
X1948643Y1495649*
X1948916Y1495274*
X1949052Y1494712*
X1948916Y1494337*
X1948780Y1493774*
X1948507Y1493399*
X1948098Y1493212*
X1947689*
X1947280Y1493399*
X1947143Y1493587*
X1947007Y1493962*
X1950280Y1497149D02*
X1951371Y1493212D01*
X1952462Y1497149D02*
X1951371Y1493212D01*
X1962003Y1496212D02*
X1961867Y1496587D01*
X1961594Y1496962*
X1961322Y1497149*
X1960776*
X1960503Y1496962*
X1960231Y1496587*
X1960094Y1496212*
X1959958Y1495649*
Y1494712*
X1960094Y1494149*
X1960231Y1493774*
X1960503Y1493399*
X1960776Y1493212*
X1961322*
X1961594Y1493399*
X1961867Y1493774*
X1962003Y1494149*
Y1494712*
X1961322D02*
X1962003D01*
X1963231Y1497149D02*
Y1493212D01*
Y1497149D02*
X1965140Y1493212D01*
Y1497149D02*
Y1493212D01*
X1966367Y1497149D02*
Y1493212D01*
Y1497149D02*
X1967322D01*
X1967731Y1496962*
X1968003Y1496587*
X1968140Y1496212*
X1968276Y1495649*
Y1494712*
X1968140Y1494149*
X1968003Y1493774*
X1967731Y1493399*
X1967322Y1493212*
X1966367*
X1975901Y1497149D02*
X1976991Y1493212D01*
X1978082Y1497149D02*
X1976991Y1493212D01*
X1979310Y1497149D02*
X1979446Y1496962D01*
X1979582Y1497149*
X1979446Y1497337*
X1979310Y1497149*
X1979446Y1495837D02*
Y1493212D01*
X1980810Y1495837D02*
Y1493212D01*
Y1495087D02*
X1981219Y1495649D01*
X1981491Y1495837*
X1981901*
X1982173Y1495649*
X1982310Y1495087*
Y1493212*
X1998855Y1497149D02*
X1998446Y1496962D01*
X1998173Y1496399*
X1998037Y1495462*
Y1494899*
X1998173Y1493962*
X1998446Y1493399*
X1998855Y1493212*
X1999128*
X1999537Y1493399*
X1999809Y1493962*
X1999809D02*
X1999946Y1494899D01*
Y1495462*
X1999809Y1496399*
X1999809D02*
X1999537Y1496962D01*
X1999128Y1497149*
X1998855*
X2008578Y1496399D02*
X2008851Y1496587D01*
X2009260Y1497149*
Y1493212*
X2017982Y1496212D02*
Y1496399D01*
X2018118Y1496774*
X2018255Y1496962*
X2018527Y1497149*
X2019073*
X2019346Y1496962*
X2019482Y1496774*
X2019618Y1496399*
Y1496024*
X2019482Y1495649*
X2019209Y1495087*
X2017846Y1493212*
X2019755*
X2028197Y1497149D02*
X2029697D01*
X2028878Y1495649*
X2029287*
X2029560Y1495462*
X2029697Y1495274*
X2029833Y1494712*
Y1494337*
X2029697Y1493774*
X2029424Y1493399*
X2029015Y1493212*
X2028606*
X2028197Y1493399*
X2028060Y1493587*
X2027924Y1493962*
X2039597Y1497149D02*
X2038234Y1494524D01*
X2040279*
X2039597Y1497149D02*
Y1493212D01*
X2049949Y1497149D02*
X2048586D01*
X2048449Y1495462*
X2048586Y1495649*
X2048995Y1495837*
X2049404*
X2049813Y1495649*
X2050086Y1495274*
X2050222Y1494712*
X2050086Y1494337*
X2049949Y1493774*
X2049677Y1493399*
X2049268Y1493212*
X2048859*
X2048449Y1493399*
X2048313Y1493587*
X2048177Y1493962*
X1890728Y1626544D02*
X1886790D01*
X1890728D02*
Y1625317D01*
X1890540Y1624908*
X1890353Y1624772*
X1889978Y1624635*
X1889603*
X1889228Y1624772*
X1889040Y1624908*
X1888853Y1625317*
Y1626544*
Y1625590D02*
X1886790Y1624635D01*
X1889978Y1623408D02*
X1890165Y1623135D01*
X1890728Y1622726*
X1886790*
X1890165Y1619863D02*
X1890540Y1619999D01*
X1890728Y1620408*
Y1620681*
X1890540Y1621090*
X1889978Y1621363*
X1889040Y1621499*
X1888103*
X1887353Y1621363*
X1886978Y1621090*
X1886790Y1620681*
Y1620544*
X1886978Y1620135*
X1887353Y1619863*
X1887915Y1619726*
X1888103*
X1888665Y1619863*
X1889040Y1620135*
X1889228Y1620544*
Y1620681*
X1889040Y1621090*
X1888665Y1621363*
X1888103Y1621499*
G74*
X0Y0D02*
M02*
